<svg id="Layer_1" data-name="Layer 1" xmlns="http://www.w3.org/2000/svg" viewBox="0 0 467.67 318.75"><g id="freepik--Books--inject-1"><rect x="63.68" y="221.01" width="65.66" height="28.48" fill="#407bff"/><rect x="63.68" y="221.01" width="65.66" height="28.48" fill="#fff" opacity="0.8" style="isolation:isolate"/><polygon points="124.07 223.8 63.7 223.8 63.7 221.01 124.01 221.01 124.07 223.8" opacity="0.2" style="isolation:isolate"/><polygon points="124.09 226.22 69.6 227.38 124.09 228.55 124.09 226.22" opacity="0.2" style="isolation:isolate"/><polygon points="124.09 236.75 66.38 237.73 124.09 238.55 124.09 236.75" opacity="0.2" style="isolation:isolate"/><polygon points="124.09 242.91 66.89 244.06 124.09 245.22 124.09 242.91" opacity="0.2" style="isolation:isolate"/><polygon points="63.7 230.28 119.01 231.96 63.7 233.1 63.7 230.28" opacity="0.2" style="isolation:isolate"/><path d="M231,364.6a12.92,12.92,0,0,1-12.9,12.9H81.4a.94.94,0,0,0-.94.94h0v1a.94.94,0,0,0,.94.94H218.77a15.85,15.85,0,0,0,15.83-15.86v-.09a16.09,16.09,0,0,0-16.19-15.75h-137a.94.94,0,0,0-1,.94h0v1a1,1,0,0,0,1,1H217.68A13.28,13.28,0,0,1,231,364.6Z" transform="translate(-20.76 -129.5)" fill="#263238"/><path d="M231,364.6a12.92,12.92,0,0,1-12.9,12.9H81.4a.94.94,0,0,0-.94.94h0v1a.94.94,0,0,0,.94.94H218.77a15.85,15.85,0,0,0,15.83-15.86v-.09a16.09,16.09,0,0,0-16.19-15.75h-137a.94.94,0,0,0-1,.94h0v1a1,1,0,0,0,1,1H217.68A13.28,13.28,0,0,1,231,364.6Z" transform="translate(-20.76 -129.5)" fill="#fff" opacity="0.4" style="isolation:isolate"/><path d="M280.81,364.76h0A14.26,14.26,0,0,1,266.57,379H144.81V350.49H266.47a14.25,14.25,0,0,1,14.34,14.17Z" transform="translate(-20.76 -129.5)" fill="#407bff"/><path d="M144.81,350.51V379H266.54a14.27,14.27,0,1,0,0-28.53Z" transform="translate(-20.76 -129.5)" fill="#fff" opacity="0.7" style="isolation:isolate"/><polygon points="124.09 228.55 124.09 226.22 245.41 227.2 124.09 228.55" opacity="0.2" style="isolation:isolate"/><polygon points="124.09 238.55 124.09 236.75 178.55 238.7 124.09 238.55" opacity="0.2" style="isolation:isolate"/><polygon points="124.09 245.22 124.09 242.91 211.9 244.26 124.09 245.22" opacity="0.2" style="isolation:isolate"/><path d="M266.75,353.29a9.48,9.48,0,0,1,6.34,2.45,23.14,23.14,0,0,0-1.79,4.62l-121.65.95,121.43.3a15.89,15.89,0,0,0-.29,3,16.11,16.11,0,0,0,.41,3.52l-82,1.8,82.74.94a30,30,0,0,0,2.75,5.67,14.27,14.27,0,0,0-8.09-26H144.81v2.78Z" transform="translate(-20.76 -129.5)" opacity="0.2" style="isolation:isolate"/><path d="M279.68,364.6a12.91,12.91,0,0,1-12.9,12.9h-124a.94.94,0,0,0-.94.94h0v1a.94.94,0,0,0,.94.94H267.44a15.85,15.85,0,0,0,15.83-15.86v-.09a16.09,16.09,0,0,0-16.19-15.75H142.78a.94.94,0,0,0-.94.94h0v1a1,1,0,0,0,.94,1H266.47A13.27,13.27,0,0,1,279.68,364.6Z" transform="translate(-20.76 -129.5)" fill="#263238"/><polygon points="245.41 231.48 245.41 242.91 241.27 238.78 237.26 242.79 237.26 231.48 245.41 231.48" fill="#407bff"/><rect x="81.58" y="283.84" width="177.2" height="28.52" fill="#407bff"/><rect x="81.58" y="283.84" width="177.2" height="28.52" fill="#fff" opacity="0.7" style="isolation:isolate"/><polygon points="81.58 291.39 81.58 289.06 202.91 290.04 81.58 291.39" opacity="0.2" style="isolation:isolate"/><polygon points="81.58 301.38 81.58 299.59 136.06 301.54 81.58 301.38" opacity="0.2" style="isolation:isolate"/><polygon points="81.58 308.06 81.58 305.75 169.4 307.08 81.58 308.06" opacity="0.2" style="isolation:isolate"/><path d="M239.93,413.29l2.51,21.31-3-3.29a26,26,0,0,1-5.57,10.51,31.4,31.4,0,0,1-4.51-8.18l-82.75-.95,82-1.8a17.25,17.25,0,0,1-.4-3.51,15.21,15.21,0,0,1,.3-3L107,424.07l121.65-1a23.05,23.05,0,0,1,1.79-4.61,9.48,9.48,0,0,0-6.35-2.45H102.34v-2.76Z" transform="translate(-20.76 -129.5)" opacity="0.2" style="isolation:isolate"/><path d="M237.19,427.44a12.89,12.89,0,0,1-12.91,12.88h-124a1,1,0,0,0-1,1h0v1a1,1,0,0,0,1,.94H293.19A15.85,15.85,0,0,0,309,427.39v-.09a16.1,16.1,0,0,0-16.24-15.71H100.3a1,1,0,0,0-1,1v1a1,1,0,0,0,1,.94H223.9A13.27,13.27,0,0,1,237.19,427.44Z" transform="translate(-20.76 -129.5)" fill="#407bff"/><path d="M237.19,427.44a12.89,12.89,0,0,1-12.91,12.88h-124a1,1,0,0,0-1,1h0v1a1,1,0,0,0,1,.94H293.19A15.85,15.85,0,0,0,309,427.39v-.09a16.1,16.1,0,0,0-16.24-15.71H100.3a1,1,0,0,0-1,1v1a1,1,0,0,0,1,.94H223.9A13.27,13.27,0,0,1,237.19,427.44Z" transform="translate(-20.76 -129.5)" opacity="0.2" style="isolation:isolate"/><path d="M237.19,427.44a12.89,12.89,0,0,1-12.91,12.88h-124a1,1,0,0,0-1,1h0v1a1,1,0,0,0,1,.94H225a15.81,15.81,0,0,0,15.82-15.81v-.14a16.1,16.1,0,0,0-16.24-15.71H100.3a1,1,0,0,0-1,1v1a1,1,0,0,0,1,.94H223.9A13.27,13.27,0,0,1,237.19,427.44Z" transform="translate(-20.76 -129.5)" fill="#407bff"/><polygon points="202.91 294.32 202.91 305.75 198.78 301.62 194.77 305.63 194.77 294.32 202.91 294.32" fill="#407bff"/><path d="M237.19,427.44a12.89,12.89,0,0,1-12.91,12.88h-124a1,1,0,0,0-1,1h0v1a1,1,0,0,0,1,.94H225a15.81,15.81,0,0,0,15.82-15.81v-.14a16.1,16.1,0,0,0-16.24-15.71H100.3a1,1,0,0,0-1,1v1a1,1,0,0,0,1,.94H223.9A13.27,13.27,0,0,1,237.19,427.44Z" transform="translate(-20.76 -129.5)" fill="#fff" opacity="0.2" style="isolation:isolate"/><rect x="76.37" y="252.43" width="177.2" height="28.52" fill="#407bff"/><rect x="76.37" y="252.43" width="177.2" height="28.52" fill="#fff" opacity="0.8" style="isolation:isolate"/><polygon points="76.36 259.97 76.36 257.64 197.68 258.62 76.36 259.97" opacity="0.2" style="isolation:isolate"/><polygon points="76.36 269.96 76.36 268.17 130.83 270.12 76.36 269.96" opacity="0.2" style="isolation:isolate"/><polygon points="76.36 276.64 76.36 274.33 164.17 275.67 76.36 276.64" opacity="0.2" style="isolation:isolate"/><path d="M234.7,381.93l2.57,21.25-3-3.23a26,26,0,0,1-5.58,10.51,31.08,31.08,0,0,1-4.5-8.18l-82.76-.95,82-1.78A17.51,17.51,0,0,1,223,396a16,16,0,0,1,.28-3l-121.43-.3,121.66-.94a22.38,22.38,0,0,1,1.78-4.63,9.37,9.37,0,0,0-6.33-2.43H97.11v-2.8Z" transform="translate(-20.76 -129.5)" opacity="0.2" style="isolation:isolate"/><path d="M231.92,396A12.9,12.9,0,0,1,219,408.9H95.07a1,1,0,0,0-.95,1v1a1,1,0,0,0,.95.94H278.3A15.85,15.85,0,0,0,294.13,396v-.09a16.11,16.11,0,0,0-16.32-15.63H95.07a1,1,0,0,0-.95.94h0v1a1,1,0,0,0,.95,1H218.68A13.28,13.28,0,0,1,231.92,396Z" transform="translate(-20.76 -129.5)" fill="#407bff"/><path d="M231.92,396A12.9,12.9,0,0,1,219,408.9H95.07a1,1,0,0,0-.95,1v1a1,1,0,0,0,.95.94H278.3A15.85,15.85,0,0,0,294.13,396v-.09a16.11,16.11,0,0,0-16.32-15.63H95.07a1,1,0,0,0-.95.94h0v1a1,1,0,0,0,.95,1H218.68A13.28,13.28,0,0,1,231.92,396Z" transform="translate(-20.76 -129.5)" fill="#fff" opacity="0.4" style="isolation:isolate"/><path d="M231.92,396A12.9,12.9,0,0,1,219,408.9H95.07a1,1,0,0,0-.95,1v1a1,1,0,0,0,.95.94H219.73A15.85,15.85,0,0,0,235.56,396v-.09a16.11,16.11,0,0,0-16.19-15.63H95.07a1,1,0,0,0-.95.94h0v1a1,1,0,0,0,.95,1H218.68A13.28,13.28,0,0,1,231.92,396Z" transform="translate(-20.76 -129.5)" fill="#407bff"/><polygon points="187.86 258.84 187.86 270.27 183.71 266.13 179.72 270.14 179.72 258.84 187.86 258.84" fill="#263238"/><path d="M231.92,396A12.9,12.9,0,0,1,219,408.9H95.07a1,1,0,0,0-.95,1v1a1,1,0,0,0,.95.94H219.73A15.85,15.85,0,0,0,235.56,396v-.09a16.11,16.11,0,0,0-16.19-15.63H95.07a1,1,0,0,0-.95.94h0v1a1,1,0,0,0,.95,1H218.68A13.28,13.28,0,0,1,231.92,396Z" transform="translate(-20.76 -129.5)" fill="#fff" opacity="0.6" style="isolation:isolate"/><rect x="76.31" y="158.19" width="65.66" height="28.48" fill="#407bff"/><rect x="76.31" y="158.19" width="65.66" height="28.48" fill="#fff" opacity="0.7" style="isolation:isolate"/><polygon points="136.7 160.96 76.33 160.96 76.33 158.17 136.64 158.17 136.7 160.96" opacity="0.2" style="isolation:isolate"/><polygon points="136.72 163.38 82.23 164.55 136.72 165.71 136.72 163.38" opacity="0.2" style="isolation:isolate"/><polygon points="136.72 173.93 79.01 174.89 136.72 175.71 136.72 173.93" opacity="0.2" style="isolation:isolate"/><polygon points="136.72 180.08 79.53 181.24 136.72 182.4 136.72 180.08" opacity="0.2" style="isolation:isolate"/><polygon points="76.33 167.45 131.63 169.12 76.33 170.28 76.33 167.45" opacity="0.2" style="isolation:isolate"/><path d="M243.61,301.77a12.93,12.93,0,0,1-12.92,12.89H94a.94.94,0,0,0-1,.94h0v1a.94.94,0,0,0,1,.94H231.38a15.81,15.81,0,0,0,15.83-15.8v-.13A16.09,16.09,0,0,0,231,285.91H94.05a1,1,0,0,0-1,1v1a.94.94,0,0,0,1,.95H230.32A13.28,13.28,0,0,1,243.61,301.77Z" transform="translate(-20.76 -129.5)" fill="#407bff"/><path d="M243.61,301.77a12.93,12.93,0,0,1-12.92,12.89H94a.94.94,0,0,0-1,.94h0v1a.94.94,0,0,0,1,.94H231.38a15.81,15.81,0,0,0,15.83-15.8v-.13A16.09,16.09,0,0,0,231,285.91H94.05a1,1,0,0,0-1,1v1a.94.94,0,0,0,1,.95H230.32A13.28,13.28,0,0,1,243.61,301.77Z" transform="translate(-20.76 -129.5)" fill="#fff" opacity="0.4" style="isolation:isolate"/><path d="M293.5,301.94h0a14.25,14.25,0,0,1-14.25,14.25H157.59V287.65H279.25a14.25,14.25,0,0,1,14.25,14.26Z" transform="translate(-20.76 -129.5)" fill="#407bff"/><path d="M157.46,287.67V316.2H279.19a14.27,14.27,0,1,0,0-28.53Z" transform="translate(-20.76 -129.5)" fill="#fff" opacity="0.5" style="isolation:isolate"/><polygon points="136.72 165.71 136.72 163.38 258.04 164.36 136.72 165.71" opacity="0.2" style="isolation:isolate"/><polygon points="136.72 175.71 136.72 173.93 191.18 175.86 136.72 175.71" opacity="0.2" style="isolation:isolate"/><polygon points="136.72 182.4 136.72 180.08 224.53 181.42 136.72 182.4" opacity="0.2" style="isolation:isolate"/><path d="M279.38,290.46a9.47,9.47,0,0,1,6.34,2.44,24.41,24.41,0,0,0-1.79,4.62l-121.65,1,121.43.3a15.44,15.44,0,0,0,.12,6.49l-82,1.79,82.74,1a30.42,30.42,0,0,0,2.75,5.65,14.27,14.27,0,0,0-8.09-26H157.46v2.79Z" transform="translate(-20.76 -129.5)" opacity="0.2" style="isolation:isolate"/><path d="M292.31,301.77a12.91,12.91,0,0,1-12.9,12.89h-124a.94.94,0,0,0-.95.94h0v1a.94.94,0,0,0,.95.94H280.07a15.8,15.8,0,0,0,15.83-15.8v-.13a16.09,16.09,0,0,0-16.23-15.73H155.42a1,1,0,0,0-.95,1v1a.94.94,0,0,0,.95.95H279A13.25,13.25,0,0,1,292.31,301.77Z" transform="translate(-20.76 -129.5)" fill="#407bff"/><polygon points="258.04 168.64 258.04 180.08 253.9 175.94 249.89 179.95 249.89 168.64 258.04 168.64" fill="#407bff"/><rect x="81.25" y="189.59" width="177.2" height="28.52" fill="#407bff"/><rect x="81.25" y="189.59" width="177.2" height="28.52" fill="#fff" opacity="0.7" style="isolation:isolate"/><polygon points="81.24 197.13 81.24 194.8 202.56 195.78 81.24 197.13" opacity="0.2" style="isolation:isolate"/><polygon points="81.24 207.13 81.24 205.33 135.71 207.28 81.24 207.13" opacity="0.2" style="isolation:isolate"/><polygon points="81.24 213.8 81.24 211.5 169.05 212.84 81.24 213.8" opacity="0.2" style="isolation:isolate"/><path d="M239.58,319.09l2.57,21.27-3-3.25a26,26,0,0,1-5.57,10.51,30.83,30.83,0,0,1-4.51-8.18l-82.76-.95,82-1.8a17.43,17.43,0,0,1-.39-3.53,15.88,15.88,0,0,1,.28-3l-121.43-.32,121.66-.94a22.41,22.41,0,0,1,1.79-4.63,9.51,9.51,0,0,0-6.34-2.43H102V319Z" transform="translate(-20.76 -129.5)" opacity="0.2" style="isolation:isolate"/><path d="M236.85,333.18a12.92,12.92,0,0,1-12.92,12.9H100a1,1,0,0,0-1,.94h0v1a1,1,0,0,0,1,.94H292.84a15.81,15.81,0,0,0,15.83-15.8V333a16.09,16.09,0,0,0-16.24-15.71H100a1,1,0,0,0-1,1v1a1,1,0,0,0,1,.95H223.56A13.28,13.28,0,0,1,236.85,333.18Z" transform="translate(-20.76 -129.5)" fill="#263238"/><path d="M236.85,333.18a12.92,12.92,0,0,1-12.92,12.9H100a1,1,0,0,0-1,.94h0v1a1,1,0,0,0,1,.94H292.84a15.81,15.81,0,0,0,15.83-15.8V333a16.09,16.09,0,0,0-16.24-15.71H100a1,1,0,0,0-1,1v1a1,1,0,0,0,1,.95H223.56A13.28,13.28,0,0,1,236.85,333.18Z" transform="translate(-20.76 -129.5)" fill="#fff" opacity="0.2" style="isolation:isolate"/><path d="M236.85,333.18a12.92,12.92,0,0,1-12.92,12.9H100a1,1,0,0,0-1,.94h0v1a1,1,0,0,0,1,.94H224.61a15.81,15.81,0,0,0,15.83-15.8V333a16.12,16.12,0,0,0-16.24-15.71H100a1,1,0,0,0-1,1v1a1,1,0,0,0,1,.95H223.56A13.28,13.28,0,0,1,236.85,333.18Z" transform="translate(-20.76 -129.5)" fill="#263238"/><polygon points="202.56 200.06 202.56 211.5 198.43 207.36 194.42 211.37 194.42 200.06 202.56 200.06" fill="#263238"/><path d="M236.85,333.18a12.92,12.92,0,0,1-12.92,12.9H100a1,1,0,0,0-1,.94h0v1a1,1,0,0,0,1,.94H224.61a15.81,15.81,0,0,0,15.83-15.8V333a16.12,16.12,0,0,0-16.24-15.71H100a1,1,0,0,0-1,1v1a1,1,0,0,0,1,.95H223.56A13.28,13.28,0,0,1,236.85,333.18Z" transform="translate(-20.76 -129.5)" fill="#fff" opacity="0.4" style="isolation:isolate"/></g><path d="M279.81,285.91a16.1,16.1,0,0,1,16.09,15.73v.13a15.79,15.79,0,0,1-13.15,15.56h9.84A16.08,16.08,0,0,1,308.67,333v.15A15.82,15.82,0,0,1,292.86,349H270.18a16.1,16.1,0,0,1,13.09,15.47v.09a15.83,15.83,0,0,1-13.67,15.7H278a16.11,16.11,0,0,1,16.1,15.64V396a15.84,15.84,0,0,1-13.19,15.62h12A16.1,16.1,0,0,1,309,427.3v.09a15.85,15.85,0,0,1-15.83,15.86H100.3a1,1,0,0,1-1-.94v-1a1,1,0,0,1,1-1h2V414.5h-2a1,1,0,0,1-1-.94v-1a1,1,0,0,1,.34-.71h-4.6a1,1,0,0,1-.95-.94v-1a1,1,0,0,1,.95-1h2.06v-2.76h0v-2.31h0v-4.37h0v-1.79h0v-8.2h0v-2.33h0v-2.43h0v-1.54h-2a1,1,0,0,1-.95-1v-1a.94.94,0,0,1,.45-.78H81.4a.94.94,0,0,1-.94-.94v-1a.94.94,0,0,1,.94-.94h3V351.63h-3a1,1,0,0,1-1-1v-1a.94.94,0,0,1,1-.94H99.28a1,1,0,0,1-.28-.66v-1a1,1,0,0,1,1-.94H102V343.3h0V341h0v-4.37h0v-1.8h0v-8.2h0V324.3h0v-2.46h0v-1.58h-2a1,1,0,0,1-1-.95v-1a1,1,0,0,1,.35-.72H94a.94.94,0,0,1-1-.94v-1a.94.94,0,0,1,1-.94h3V288.84h-3a.94.94,0,0,1-1-.95v-1a1,1,0,0,1,1-1H279.81m0-5H94a6,6,0,0,0-5.87,6v1a6,6,0,0,0,4,5.61V310a6,6,0,0,0-4,5.61v1a6,6,0,0,0,6,5.94h1a6,6,0,0,0,2,1.9v2.16c0,.13,0,.26,0,.39v7.42c0,.13,0,.26,0,.39v1.8c0,.13,0,.26,0,.39v3.6c0,.12,0,.25,0,.38v.87a5.88,5.88,0,0,0-2,1.84H81.42a6,6,0,0,0-6,5.94v1a6,6,0,0,0,4,5.62v16.54a6,6,0,0,0-4,5.61v1a6,6,0,0,0,5.94,5.94h8.66a6,6,0,0,0,2,2v2.1c0,.13,0,.26,0,.39v7.42c0,.13,0,.26,0,.39v1.79c0,.13,0,.26,0,.39v3.59c0,.13,0,.26,0,.39v.87a6,6,0,0,0-3,5.16v1a6,6,0,0,0,5.95,5.94h.26a6,6,0,0,0,2,1.88v17.4a6,6,0,0,0-3,5.17v1.1a6,6,0,0,0,6,5.87H293.19A20.87,20.87,0,0,0,314,427.39v-.12a.28.28,0,0,0,0-.09,21.23,21.23,0,0,0-17.9-20.35,20.74,20.74,0,0,0,3-10.86v-.24a21,21,0,0,0-14.49-19.45,20.67,20.67,0,0,0,3.63-11.73v-.2a21,21,0,0,0-3-10.36h7.57a20.85,20.85,0,0,0,20.83-20.79v-.28a21.25,21.25,0,0,0-16-20,20.69,20.69,0,0,0,3.25-11.17v-.26a21.22,21.22,0,0,0-21.09-20.61Z" transform="translate(-20.76 -129.5)" fill="#fff"/><g id="freepik--character-2--inject-1"><g id="freepik--group--inject-1"><polygon points="428.93 292.35 438.51 292.65 447.36 292.92 448.95 305.49 437.73 305.82 426.96 306.14 428.93 292.35" fill="#e4897b"/><polygon points="428.93 292.35 438.51 292.65 437.73 305.82 426.96 306.14 428.93 292.35" opacity="0.2" style="isolation:isolate"/><path d="M469.92,420.44a14.18,14.18,0,0,1-1.51,2.72.23.23,0,0,1-.25.12.28.28,0,0,1-.23-.2c-.12-.42-1.05-4.25,0-5.38a1,1,0,0,1,.93-.31,1.52,1.52,0,0,1,1.3.82A3.24,3.24,0,0,1,469.92,420.44Zm-1.51-2.36c-.54.6-.3,2.72,0,4.26,1.1-1.78,1.51-3.21,1.25-3.9a.93.93,0,0,0-.83-.51.44.44,0,0,0-.45.15Z" transform="translate(-20.76 -129.5)" fill="#407bff"/><path d="M468.49,423.11a.2.2,0,0,1,0,.11.25.25,0,0,1-.24,0c-.11,0-3.32-1-4-2.42a1.48,1.48,0,0,1,0-1.2,1,1,0,0,1,1.1-.62c1.26.18,2.91,2.63,3.15,3.94A.22.22,0,0,1,468.49,423.11ZM464.72,420a.86.86,0,0,0,0,.63c.39.87,2.13,1.61,3.15,2-.45-1.22-1.75-2.87-2.58-3a.53.53,0,0,0-.54.33Z" transform="translate(-20.76 -129.5)" fill="#407bff"/><path d="M469.92,420.44a14.18,14.18,0,0,1-1.51,2.72.23.23,0,0,1-.25.12.28.28,0,0,1-.23-.2c-.12-.42-1.05-4.25,0-5.38a1,1,0,0,1,.93-.31,1.52,1.52,0,0,1,1.3.82A3.24,3.24,0,0,1,469.92,420.44Zm-1.51-2.36c-.54.6-.3,2.72,0,4.26,1.1-1.78,1.51-3.21,1.25-3.9a.93.93,0,0,0-.83-.51.44.44,0,0,0-.45.15Z" transform="translate(-20.76 -129.5)" fill="#fff" opacity="0.6" style="isolation:isolate"/><path d="M468.49,423.11a.2.2,0,0,1,0,.11.25.25,0,0,1-.24,0c-.11,0-3.32-1-4-2.42a1.48,1.48,0,0,1,0-1.2,1,1,0,0,1,1.1-.62c1.26.18,2.91,2.63,3.15,3.94A.22.22,0,0,1,468.49,423.11ZM464.72,420a.86.86,0,0,0,0,.63c.39.87,2.13,1.61,3.15,2-.45-1.22-1.75-2.87-2.58-3a.53.53,0,0,0-.54.33Z" transform="translate(-20.76 -129.5)" fill="#fff" opacity="0.6" style="isolation:isolate"/><path d="M466.66,423.56l-4.51,12a.82.82,0,0,0,.44,1.06h0l9.34,4.15a2,2,0,0,0,2.6-1.17c1.5-4.25,2-6.34,3.93-11.67a107.65,107.65,0,0,0,4.84-14.32c.94-4.73-3.74-5.52-4.51-3.62-2,4.51-7.28,9.72-10.78,11.87A3.2,3.2,0,0,0,466.66,423.56Z" transform="translate(-20.76 -129.5)" fill="#263238"/><path d="M354.22,402.43l5.58,5.75s63.41,6.11,97.82,12.32l-4.38,21.59H336.34Z" transform="translate(-20.76 -129.5)" fill="#263238"/><path d="M354.22,402.43l5.58,5.75s63.41,6.11,97.82,12.32l-4.38,21.59H336.34Z" transform="translate(-20.76 -129.5)" fill="#fff" opacity="0.2" style="isolation:isolate"/><polygon points="401.44 284.57 404.4 293.7 407.14 302.11 395.86 307.88 391.76 297.41 387.81 287.39 401.44 284.57" fill="#e4897b"/><path d="M429.94,432.21a14,14,0,0,1-3-.61.24.24,0,0,1-.19-.21.26.26,0,0,1,.12-.27c.37-.23,3.77-2.24,5.13-1.61a1,1,0,0,1,.57.79,1.52,1.52,0,0,1-.42,1.51A3.09,3.09,0,0,1,429.94,432.21Zm1.81-2.16c-.73-.35-2.7.5-4.08,1.26,2,.53,3.53.56,4.11,0a1,1,0,0,0,.24-.93.45.45,0,0,0-.27-.39Z" transform="translate(-20.76 -129.5)" fill="#407bff"/><path d="M427,431.61h-.1a.33.33,0,0,1-.14-.22c0-.11,0-3.46,1.17-4.51a1.39,1.39,0,0,1,1.16-.3,1,1,0,0,1,.92.86c.18,1.26-1.67,3.56-2.86,4.16A.19.19,0,0,1,427,431.61Zm1.86-4.5a.75.75,0,0,0-.58.21c-.74.61-.93,2.5-1,3.57a5.61,5.61,0,0,0,2.18-3.35c0-.15-.11-.34-.48-.42Z" transform="translate(-20.76 -129.5)" fill="#407bff"/><path d="M429.94,432.21a14,14,0,0,1-3-.61.24.24,0,0,1-.19-.21.26.26,0,0,1,.12-.27c.37-.23,3.77-2.24,5.13-1.61a1,1,0,0,1,.57.79,1.52,1.52,0,0,1-.42,1.51A3.09,3.09,0,0,1,429.94,432.21Zm1.81-2.16c-.73-.35-2.7.5-4.08,1.26,2,.53,3.53.56,4.11,0a1,1,0,0,0,.24-.93.45.45,0,0,0-.27-.39Z" transform="translate(-20.76 -129.5)" fill="#fff" opacity="0.6" style="isolation:isolate"/><path d="M427,431.61h-.1a.33.33,0,0,1-.14-.22c0-.11,0-3.46,1.17-4.51a1.39,1.39,0,0,1,1.16-.3,1,1,0,0,1,.92.86c.18,1.26-1.67,3.56-2.86,4.16A.19.19,0,0,1,427,431.61Zm1.86-4.5a.75.75,0,0,0-.58.21c-.74.61-.93,2.5-1,3.57a5.61,5.61,0,0,0,2.18-3.35c0-.15-.11-.34-.48-.42Z" transform="translate(-20.76 -129.5)" fill="#fff" opacity="0.6" style="isolation:isolate"/><path d="M426,430l-12.86-.79a.82.82,0,0,0-.9.71h0L411,440.08a2,2,0,0,0,1.88,2.15c4.5.21,6.64.08,12.3.39a105.9,105.9,0,0,0,15.11.48c4.79-.46,4.2-5.2,2.13-5.42-4.9-.56-11.4-4.16-14.48-6.89A3.23,3.23,0,0,0,426,430Z" transform="translate(-20.76 -129.5)" fill="#263238"/><polygon points="401.44 284.57 404.4 293.7 391.76 297.41 387.81 287.39 401.44 284.57" opacity="0.2" style="isolation:isolate"/><path d="M387.51,350.58l-3.11-.87a3.78,3.78,0,0,0-3.38.69L376.6,354a7.08,7.08,0,0,0-2.6,5.88l.09,1.41c5.07,1.78,11.85,0,11.85,0l2-.29a3.11,3.11,0,0,0,2.74-3.43s0-.06,0-.08l-.53-3.95A3.6,3.6,0,0,0,387.51,350.58Z" transform="translate(-20.76 -129.5)" fill="#e4897b"/><path d="M387.51,350.58l-3.11-.87a3.78,3.78,0,0,0-3.38.69L376.6,354a7.08,7.08,0,0,0-2.6,5.88l.09,1.41c5.07,1.78,11.85,0,11.85,0l2-.29a3.11,3.11,0,0,0,2.74-3.43s0-.06,0-.08l-.53-3.95A3.6,3.6,0,0,0,387.51,350.58Z" transform="translate(-20.76 -129.5)" opacity="0.1" style="isolation:isolate"/><path d="M291.62,411s-4.13,31.14,33.57,31.14c38.78,0,35.25-26.58,27.53-42.38Z" transform="translate(-20.76 -129.5)" fill="#263238"/><path d="M291.62,411s-4.13,31.14,33.57,31.14c38.78,0,35.25-26.58,27.53-42.38Z" transform="translate(-20.76 -129.5)" fill="#fff" opacity="0.4" style="isolation:isolate"/><path d="M334.83,335.05,346.62,342c3.91,2.29,7.87,4.58,11.66,6.42.48.25.91.43,1.35.63l.68.31.55.21c.41.17.74.27,1.07.38s.85.18,1.28.3c2,.4,4.19.67,6.41,1,4.5.54,9.11,1.05,13.71,1.71h0a3.29,3.29,0,0,1,.24,6.47,98.76,98.76,0,0,1-14.21,2.09,60.66,60.66,0,0,1-7.51.17,14.06,14.06,0,0,1-2.16-.21l-1.22-.2-1.11-.28-1.09-.32-1-.31c-.65-.23-1.3-.44-1.88-.68a125.62,125.62,0,0,1-13.23-6.23c-4.21-2.27-8.25-4.61-12.3-7.2A6.56,6.56,0,0,1,334.73,335Z" transform="translate(-20.76 -129.5)" fill="#e4897b"/><path d="M334.83,334l11.79,6.93c3.91,2.28,7.87,4.58,11.66,6.41.48.25.91.43,1.35.63l.68.32.55.21c.41.16.74.27,1.07.37s.85.18,1.28.3c2,.41,4.19.68,6.41,1,4.5.54,9.11,1,13.71,1.72h0a3.3,3.3,0,0,1,.24,6.48,98.76,98.76,0,0,1-14.21,2.09,62.68,62.68,0,0,1-7.51.17,14.06,14.06,0,0,1-2.16-.21l-1.22-.2-1.11-.28-1.09-.32-1-.32c-.65-.22-1.3-.43-1.88-.67a125.62,125.62,0,0,1-13.23-6.23c-4.21-2.27-8.25-4.62-12.3-7.2a6.56,6.56,0,0,1,6.83-11.19Z" transform="translate(-20.76 -129.5)" opacity="0.1" style="isolation:isolate"/><path d="M354.88,345l-7.63,15.44h-.76c-.5-.09-1.22-.24-2.1-.47a4.27,4.27,0,0,1-.87-.19h-.22l-.93-.25-1.23-.34a45,45,0,0,1-7.1-2.58c-.38-.21-.77-.41-1.11-.62a11.63,11.63,0,0,1-2.05-1.37,1.48,1.48,0,0,1-.25-.25l-.18-.17a3,3,0,0,1-.32-.39l-.22-.3a2.2,2.2,0,0,1-.17-.25c-.1-.17-.22-.33-.33-.53l-.33-.61-.31-.67a.25.25,0,0,0-.08-.18h0a5.27,5.27,0,0,1-.22-.49,8,8,0,0,1-.29-.75c-.09-.27-.19-.5-.27-.75s-.2-.56-.27-.83C325.33,341,322,331,326,331c13.51,0,23.7,9.75,27.69,13.19A7,7,0,0,1,354.88,345Z" transform="translate(-20.76 -129.5)" fill="#407bff"/><path d="M346.58,360.33h-.09c-.5-.09-1.22-.24-2.1-.46a3.74,3.74,0,0,1-.87-.2h-.22l-.93-.24-1.23-.35a45,45,0,0,1-7.1-2.58c-.38-.21-.77-.4-1.11-.61a12.85,12.85,0,0,1-2.05-1.37,1.54,1.54,0,0,1-.25-.26l-.18-.16a3,3,0,0,1-.32-.39l-.22-.3a2.33,2.33,0,0,1-.17-.26c-.1-.16-.22-.33-.33-.52l-.33-.62-.31-.66a.25.25,0,0,0-.08-.18h0l3.1-14.22s11.8,9.13,14.76,23.34Z" transform="translate(-20.76 -129.5)" opacity="0.2" style="isolation:isolate"/><path d="M287.09,414.5s-6.49-49.84-4.33-60.61,6.36-25.69,43.2-23.16A18.76,18.76,0,0,1,342,347.62c2,15.47,12.18,54.81,12.18,54.81Z" transform="translate(-20.76 -129.5)" fill="#407bff"/><path d="M354.22,402.43,287.1,414.52s-6.5-49.88-4.32-60.62c1.84-9.19,5.15-21.41,29-23.2a95.88,95.88,0,0,1,14.18,0,18.62,18.62,0,0,1,15.71,14.81,20.79,20.79,0,0,1,.36,2.05c.59,4.51,1.88,11.16,3.41,18.24.11.49.23,1,.35,1.5.24,1.14.49,2.3.75,3.47.66,2.88,1.32,5.78,2,8.59.22,1,.45,1.92.67,2.85.14.65.3,1.28.45,1.91C352.15,394.44,354.22,402.43,354.22,402.43Z" transform="translate(-20.76 -129.5)" fill="#fff" opacity="0.6" style="isolation:isolate"/><path d="M348.55,379.44C307.69,388.31,293,360.21,293,360.21a62.65,62.65,0,0,1,3.8-6,22.69,22.69,0,0,0,3.28,3.22c5.07,4,11.52,6,17.58,8a60.66,60.66,0,0,0,28.1,2.05c.24,1.15.49,2.3.75,3.47C347.21,373.73,347.87,376.63,348.55,379.44Z" transform="translate(-20.76 -129.5)" opacity="0.2" style="isolation:isolate"/><path d="M305,353.38c9,5.36,19,10.51,29.36,12.88l-1.26-.07a35.44,35.44,0,0,0,7-1.25c5.34-1.43,10.76-3.21,16.08-4.95l8.16-2.69a3.27,3.27,0,0,1,2.82,5.84c-2.49,1.62-5,3-7.51,4.51A114.51,114.51,0,0,1,339,376.9a18.42,18.42,0,0,1-6.59,1c-12.47-1.77-24-6.88-34.54-13.51a6.55,6.55,0,1,1,7.15-11h0Z" transform="translate(-20.76 -129.5)" fill="#dc897c"/><path d="M285.54,348.26c.38-4.25,4.51-12.61,16.79-14.81l4.18,5s-1,6.88,1.85,8.73a122.55,122.55,0,0,1,16,12.77l-7.42,17.09S283.72,369.63,285.54,348.26Z" transform="translate(-20.76 -129.5)" fill="#407bff"/><path d="M305.52,331.45c-4.69.81-5.17,2.6-3.49,4.78s10.41,7,18.43,2.83S324.58,328.17,305.52,331.45Z" transform="translate(-20.76 -129.5)" fill="#407bff"/><path d="M341.68,345.57c-7.72-8.17-19.22-10.77-19.22-10.77s-19.27.27-10.67-4.1a95.88,95.88,0,0,1,14.18,0A18.64,18.64,0,0,1,341.68,345.57Z" transform="translate(-20.76 -129.5)" fill="#407bff"/><path d="M299.67,313.35a57.51,57.51,0,0,1,3.53,10.92,20.07,20.07,0,0,1,.36,7.64s-1.83,4.86,6.49,6.3c5,.85,12.41-.32,12.41-5.2l-3.43-.52s-.1-.24-.25-.7c-.66-1.92-2.21-8.11,2.69-12C328.17,314.52,299.67,313.35,299.67,313.35Z" transform="translate(-20.76 -129.5)" fill="#e4897b"/><path d="M299.67,313.35a57.51,57.51,0,0,1,3.53,10.92c4.51,3.84,9.81,7.22,15.53,7.51-.66-1.92-2.2-8.11,2.69-12C328.17,314.52,299.67,313.35,299.67,313.35Z" transform="translate(-20.76 -129.5)" opacity="0.2" style="isolation:isolate"/><path d="M332.37,286.38s6.61,6.65,2.76,15.26-14.25-10.77-14.25-10.77Z" transform="translate(-20.76 -129.5)" fill="#263238"/><path d="M295.68,301.56c2.52,12.27,3.29,19.53,11.16,25,11.86,8.14,28.29.17,30-12.64,1.5-11.54-2.85-29.64-17.15-32.74S293.17,289.31,295.68,301.56Z" transform="translate(-20.76 -129.5)" fill="#e4897b"/><path d="M317.53,306.14c.08,1.25.8,2.24,1.62,2.18s1.42-1.1,1.34-2.36-.8-2.21-1.61-2.16S317.53,304.9,317.53,306.14Z" transform="translate(-20.76 -129.5)" fill="#263238"/><path d="M330.16,303.3c0,1.25.8,2.23,1.63,2.18s1.41-1.11,1.33-2.36-.79-2.22-1.61-2.17S330.09,302.06,330.16,303.3Z" transform="translate(-20.76 -129.5)" fill="#263238"/><path d="M319.75,297a.85.85,0,0,0,.17-.43.76.76,0,0,0-.78-.7,7.26,7.26,0,0,0-5.89,3.23.73.73,0,0,0,.26,1h0a.76.76,0,0,0,1-.25h0a5.77,5.77,0,0,1,4.75-2.48A.83.83,0,0,0,319.75,297Z" transform="translate(-20.76 -129.5)" fill="#263238"/><path d="M335.18,295.46a.94.94,0,0,0,.37-.25.74.74,0,0,0-.21-1,7.17,7.17,0,0,0-6.65-.86.73.73,0,0,0-.39,1h0a.79.79,0,0,0,1,.39h0a5.68,5.68,0,0,1,5.28.8A.88.88,0,0,0,335.18,295.46Z" transform="translate(-20.76 -129.5)" fill="#263238"/><path d="M327.38,306.89l3.82,2.6s-.86,1.5-4.31,2.13Z" transform="translate(-20.76 -129.5)" fill="#de5753"/><path d="M291.88,295.87c-.9,2.09-1.5,5.51-.75,10.95a18.5,18.5,0,0,0,10.51,14.54l3.14-9.74s6.41-2,6.41-12.52c0-3.58-1.59-4.9-1.59-4.9Z" transform="translate(-20.76 -129.5)" fill="#263238"/><path d="M307,308.71s-3.25-6.85-6.76-4.51-2.37,13.9,3,13.7S309.56,312.36,307,308.71Z" transform="translate(-20.76 -129.5)" fill="#e4897b"/><path d="M326.9,316.32c-2.2,0-8.62-.36-12.19-4.37a.39.39,0,0,1,.08-.56.41.41,0,0,1,.52,0c4,4.51,12.22,4.1,12.31,4.1a.42.42,0,0,1,.33.48.42.42,0,0,1-.33.32Z" transform="translate(-20.76 -129.5)" fill="#263238"/><path d="M309.59,294.2s3.48,1.7,5.87.57-.45-3.9-.45-3.9,4.7,2.09,8.06,1.09,1-5.15,1-5.15,3.24,3,6,3.37,2.21-3.8,2.21-3.8,3.4,2.25,4.72,0-5.12-5-5.12-5,2.79.68,3.19-1.5-5.73-4.79-11.73-3.7a2.76,2.76,0,0,0-.55-2.67c-1.08-1.29-10.2-1.29-13.86,1.5,0,0,.1-1.66-3.17-2.33s-7.14,6.48-7.14,6.48-4.92-.11-7,2.07,1.85,2.72,1.85,2.72-5.68,2.22-6.62,7.69,3.12,3.21,3.12,3.21-2.24,4.16-.66,7.59,13-4.94,13-4.94,0,3.93,2.52,3.53C309.59,300.19,309.59,294.2,309.59,294.2Z" transform="translate(-20.76 -129.5)" fill="#263238"/><rect x="366.01" y="336.51" width="3.21" height="26.25" transform="translate(-156.83 159.51) rotate(-36.7)" fill="#263238"/><path d="M374.09,351.85l-3.2-.41a3.68,3.68,0,0,0-3.22,1.17l-3.86,4.16a7,7,0,0,0-1.72,6.19l.29,1.38c5.26,1,11.71-1.71,11.71-1.71l1.94-.57a3.15,3.15,0,0,0,2.2-3.86v0l-1.09-3.83A3.61,3.61,0,0,0,374.09,351.85Z" transform="translate(-20.76 -129.5)" fill="#e4897b"/><path d="M349.24,380.07a177.69,177.69,0,0,1,13.14-15.73c6.35-6.53,15.11-10.33,21-6.35,0,0,4.31-3.37,8.75-2.74S404.42,367,404.42,367l-7.51,4-26.81,9.81-16.7,9.93Z" transform="translate(-20.76 -129.5)" fill="#263238"/><path d="M404.45,367l-7.51,4-26.84,9.81-16.75,10-4.16-10.76a181.22,181.22,0,0,1,13.14-15.73,30.49,30.49,0,0,1,8.28-6.11c4.51-2.19,9.16-2.66,12.78-.24,0,0,4.31-3.37,8.76-2.74,2.38.33,5.72,3.68,8.3,6.73C402.75,364.63,404.45,367,404.45,367Z" transform="translate(-20.76 -129.5)" fill="#fff" opacity="0.9" style="isolation:isolate"/><path d="M400.5,362l-1.86,6.51-14.42,2.1H362l-1.38-2.36a71.17,71.17,0,0,1,10.09-10c4.51-2.19,9.16-2.66,12.78-.24,0,0,4.31-3.37,8.76-2.74C394.58,355.58,397.91,358.93,400.5,362Z" transform="translate(-20.76 -129.5)" opacity="0.1" style="isolation:isolate"/><path d="M407.2,367l-11.28,9-43,16.8-.4.17-4.21-8.47,12.59-14.83s11.34-14,23.53-9.65c0,0,8-3.58,13.52-2.12h.13C403.4,359.58,407.2,367,407.2,367Z" transform="translate(-20.76 -129.5)" fill="#407bff"/><path d="M407.2,367l-11.28,9-43,16.8,32.55-31.66a23.51,23.51,0,0,1,12.55-3.2C403.4,359.58,407.2,367,407.2,367Z" transform="translate(-20.76 -129.5)" opacity="0.2" style="isolation:isolate"/><path d="M316.23,409.46s49.42-48.38,70-46.89,40.18,57.07,40.18,57.07l-17.86,7s-22.27-28.75-24.91-28.75-20.4,27.55-29.37,35.31-17,9-20.69,9h-6.85Z" transform="translate(-20.76 -129.5)" fill="#263238"/><path d="M316.23,409.46s49.42-48.38,70-46.89,40.18,57.07,40.18,57.07l-17.86,7s-22.27-28.75-24.91-28.75-20.4,27.55-29.37,35.31-17,9-20.69,9h-6.85Z" transform="translate(-20.76 -129.5)" fill="#fff" opacity="0.4" style="isolation:isolate"/></g></g><path d="M305.35,272.62a3.27,3.27,0,0,1,.44,0c3.27.67,3.17,2.33,3.17,2.33,2.18-1.66,6.29-2.33,9.49-2.33,2.18,0,3.93.31,4.37.83a2.76,2.76,0,0,1,.55,2.67,17.08,17.08,0,0,1,2.91-.25c4.91,0,9.16,2.12,8.82,3.95a2,2,0,0,1-2.26,1.6,4.36,4.36,0,0,1-.93-.1s6.44,2.76,5.12,5a2,2,0,0,1-1.81,1,6.1,6.1,0,0,1-2.76-.91c.69.74,5.32,6.07,3.41,13.09a39.67,39.67,0,0,1,.93,14.32c-1.16,8.95-9.55,15.54-18.54,15.91,0,.23.09.45.14.66h.52c2.35,0,4.71.08,7.05.25a15.84,15.84,0,0,1,1.72.33c12.65.78,22.14,9.83,26,13.13a7,7,0,0,1,1.23.87l-.21.42c1.22.66,2.42,1.29,3.61,1.86.48.25.91.43,1.35.63l.68.32.55.21c.41.16.74.27,1.07.37s.85.18,1.28.3c.74.16,1.53.29,2.34.41l-7.07-9.48,2.58-1.92,8.95,12c3.24.39,6.53.78,9.82,1.21l1.19-1a3.77,3.77,0,0,1,2.36-.83,4,4,0,0,1,1,.14l3.11.87a3.6,3.6,0,0,1,2.62,2.92l.23,1.7.7,0h.28c.3,0,.6,0,.9.07a9.26,9.26,0,0,1,4.13,2.43A10.53,10.53,0,0,1,398,358h.13c4.95,1.52,8.6,8.17,9,9a.34.34,0,0,0,.05.08L401,372c11.12,12.65,20.32,34.56,23.83,43.59,11.83,1.56,23.37,3.25,32.76,4.94l-.33,1.59,2,.06,6.79.21a4,4,0,0,1-1.79-1.56,1.48,1.48,0,0,1,0-1.2,1,1,0,0,1,.93-.63h.17a4,4,0,0,1,2.14,1.82c-.13-1.19-.12-2.51.42-3.1a1.06,1.06,0,0,1,.76-.33l.17,0a1.52,1.52,0,0,1,1.3.82,3.24,3.24,0,0,1-.24,2.23,1.19,1.19,0,0,0-.08.16c3.31-2.55,7.32-6.81,9-10.59a1.74,1.74,0,0,1,1.69-1c1.55,0,3.45,1.41,2.82,4.58A107.65,107.65,0,0,1,478.46,428c-1.94,5.33-2.43,7.42-3.93,11.67a2.05,2.05,0,0,1-1.9,1.29,2.1,2.1,0,0,1-.7-.12l-9.34-4.15a.82.82,0,0,1-.44-1.06l.14-.37-3.8.11-3.9.12-1.35,6.65H442.91a4.59,4.59,0,0,1-2.64,1c-1.4.06-2.8.08-4.2.08a104.61,104.61,0,0,1-10.91-.56c-5.66-.31-7.8-.18-12.3-.39a2.09,2.09,0,0,1-.56-.14h-76l0,0a20.89,20.89,0,0,1-2.8.21h-6.85l0-.17h-1.47c-30.75,0-33.67-20.72-33.7-28.36l-4.39.79v0h0s-6.49-49.84-4.33-60.61c1.61-8,4.35-18.31,20.81-22a20,20,0,0,0-.37-7.59c-.09-.43-.2-.85-.31-1.28a17.77,17.77,0,0,1-1.24-1.65v0a18.5,18.5,0,0,1-10.51-14.54c-.18-1.31-.28-2.5-.32-3.58a1.51,1.51,0,0,1-1.47-.82c-1.58-3.43.66-7.59.66-7.59a4,4,0,0,1-1.65.46c-1,0-2-.67-1.47-3.67.94-5.47,6.62-7.69,6.62-7.69s-3.92-.54-1.85-2.72c1.89-2,6.16-2.07,6.89-2.07h.11s3.53-6.52,6.7-6.52m27,13.78h0v0m14.18,74.07c-.5-.09-1.22-.24-2.1-.47l-.16,0c.24,1.17.48,2.36.74,3.57,3.44-1,6.88-2.15,10.29-3.27-.63-.22-1.26-.43-1.83-.66-1.6-.64-3.18-1.33-4.75-2l-1.43,2.9h-.76M349,381.2l.5-.38-.29-.75Q353.86,373.8,359,368a113.27,113.27,0,0,1-11.8,5.82c.43,1.88.87,3.75,1.31,5.58.14.62.29,1.23.43,1.84m48,30.94c-5.86-7.13-12-14.22-13.32-14.22-1.15,0-5.13,5.17-10,11.67,6.35.66,14.44,1.53,23.32,2.55m71.44,5.94h0c-.46.52-.35,2.17-.11,3.61l.76-.51a4.07,4.07,0,0,0,.6-2.74.91.91,0,0,0-.82-.51h-.12a.43.43,0,0,0-.34.16m-1,4.32a3.45,3.45,0,0,1,.28-.26c-.57-1.13-1.65-2.4-2.37-2.51a.53.53,0,0,0-.54.33l0,.07a.86.86,0,0,0,0,.63c.32.72,1.54,1.33,2.53,1.73h.13m-162-154.78h0c-4.24,0-7.6,3.72-9.62,6.71-2.45.33-5.57,1.2-7.7,3.43a6.41,6.41,0,0,0-1.94,5.26,14.47,14.47,0,0,0-4.14,7.75c-.2,1.14-.8,4.62,1.43,7.26.14.17.29.33.45.49a11.82,11.82,0,0,0,1,6,6.22,6.22,0,0,0,1.23,1.78c0,.39.09.78.14,1.17a23.3,23.3,0,0,0,12.13,17.81l0,.06s0,.08,0,.12a14.71,14.71,0,0,1,.4,2.55c-17,5.41-19.58,18.43-20.88,24.9-2.26,11.26,3.59,57.06,4.27,62.25a5,5,0,0,0,2,3.4,6,6,0,0,0,.69.41,5,5,0,0,0,2.14.56,32.36,32.36,0,0,0,5.84,14.25c6.6,8.84,17.49,13.32,32.38,13.32h.3a4.92,4.92,0,0,0,1.22.16h6.85a25,25,0,0,0,2.65-.16h75.42a5.72,5.72,0,0,0,.83.12h.17c2.05.1,3.65.13,5.2.15,1.93,0,3.92.07,6.93.24a112.56,112.56,0,0,0,11.31.57c1.46,0,2.94,0,4.4-.08l.28,0a10.37,10.37,0,0,0,3.58-1h8.91a5,5,0,0,0,4.91-4l.56-2.77h.4a6.15,6.15,0,0,0,1.48.92l9.31,4.13.32.13a7.06,7.06,0,0,0,9-4l.06-.17c.68-1.93,1.17-3.45,1.65-4.93.59-1.84,1.2-3.74,2.23-6.58a113,113,0,0,0,5-14.87l.06-.29a9,9,0,0,0-1.66-7.67,7.83,7.83,0,0,0-6.06-2.89,6.71,6.71,0,0,0-6.29,4,19.88,19.88,0,0,1-3.24,4.69,6.33,6.33,0,0,0-1.61-.34c-.22,0-.43,0-.65,0a6,6,0,0,0-4.12,1.63,6,6,0,0,0-4.16,2.35,5,5,0,0,0-1.91-.77c-7.93-1.43-18-3-30.07-4.59-3.74-9.26-11.2-26.15-20.34-38.26l2.23-1.78a5,5,0,0,0,1.34-6.17l-.09-.16c-1.15-2.17-5.41-9.42-12-11.44a4.15,4.15,0,0,0-.85-.18l-.26-.06a13.86,13.86,0,0,0-4-2.27,8.6,8.6,0,0,0-5.65-4.91l-3.08-.86a8.64,8.64,0,0,0-2.37-.33,8.77,8.77,0,0,0-5,1.56l-5.66-.69-7.66-10.28a5,5,0,0,0-7-1l-2.57,1.92a5.07,5.07,0,0,0-1.5,1.79c-4-3.34-10.44-8.2-18.61-10.53a22.44,22.44,0,0,0,6.37-12.8,44.49,44.49,0,0,0-.75-15,17.88,17.88,0,0,0-.67-9.31,7.35,7.35,0,0,0,1-1.33,6.23,6.23,0,0,0,.54-5.18,8,8,0,0,0-1.86-3,6.49,6.49,0,0,0-1.49-5.34c-2.15-2.58-6.56-4.3-11.39-4.49a7,7,0,0,0-.53-.69c-1-1.21-2.91-2.57-8.16-2.57a28.51,28.51,0,0,0-8.39,1.26,11.85,11.85,0,0,0-3.28-1.16,7.62,7.62,0,0,0-1.43-.14ZM383,405.56l.8-1,1.11,1.2-1.91-.21Z" transform="translate(-20.76 -129.5)" fill="#fff"/><g id="freepik--character-1--inject-1"><g id="freepik--group--inject-1-2" data-name="freepik--group--inject-1"><path d="M150.47,202.6a160.87,160.87,0,0,1-4.08,26.64c-3.35,9.15-9.31,16-15.74,22.94a3,3,0,0,1-4.93-3.56c2.77-5.69,5.74-11.36,8.19-17.12a22.6,22.6,0,0,0,2.06-7.81c.24-2,.75-7.39.94-9.45.41-4.27.84-8.59,1.35-12.84a6.14,6.14,0,0,1,12.21,1.2Z" transform="translate(-20.76 -129.5)" fill="#ebc0bb"/><path d="M142.48,194.35c-8,5.59-9,20.19-9,20.19L148,217.9Z" transform="translate(-20.76 -129.5)" fill="#263238"/><path d="M202.67,253.26s-6.51-45.06-12-53.78-14-20.52-43-9.41c0,0-11,4.65-7.24,18.4s8.94,50,8.94,50Z" transform="translate(-20.76 -129.5)" fill="#263238"/><path d="M140.43,208.47c1.09,4.06,2.31,10.05,3.5,16.52l.81,4.51c.63,3.54,1.23,7.12,1.77,10.51.1.6.19,1.19.3,1.76,1.5,9.4,2.57,16.76,2.57,16.76l53.29-5.23s-6.51-45.05-12-53.79-14-20.54-43-9.39C147.7,190.09,136.73,194.7,140.43,208.47Z" transform="translate(-20.76 -129.5)" fill="#fff" opacity="0.6" style="isolation:isolate"/><polygon points="88.55 188.34 98.3 214.27 105.13 209.97 99.94 183.63 88.55 188.34" fill="#eec1bb"/><path d="M199.66,247.76l-51.8.69v5.44s-37.7,2.19-48.39,12.89,11.86,62.48,11.86,62.48l13.52-2.17-3.23-41.55s33,3.27,44,3.27C189.39,288.81,199.66,247.76,199.66,247.76Z" transform="translate(-20.76 -129.5)" fill="#407bff"/><path d="M114.61,338.6,126,335.43a.74.74,0,0,1,.93.46h0l3,8.84a1.84,1.84,0,0,1-1.26,2.26c-4,1-5.92,1.34-10.92,2.69A94.82,94.82,0,0,1,104.29,353c-4.37.5-4.75-3.84-3-4.43a29.16,29.16,0,0,0,11.61-8.92A2.81,2.81,0,0,1,114.61,338.6Z" transform="translate(-20.76 -129.5)" fill="#263238"/><path d="M109.47,341.35a1.35,1.35,0,0,1-.66-1.23.94.94,0,0,1,.36-.83c1.11-.83,4.51.33,4.9.46a.26.26,0,0,1,.16.21.2.2,0,0,1-.13.23,13.55,13.55,0,0,1-2.59,1.13A3,3,0,0,1,109.47,341.35Zm0-1.63a.44.44,0,0,0-.18.41.92.92,0,0,0,.41.8c.6.33,2,0,3.65-.84C112,339.66,110.06,339.29,109.47,339.72Z" transform="translate(-20.76 -129.5)" fill="#407bff"/><path d="M113.93,340.25c-1.17-.3-3.27-2-3.35-3.17a.93.93,0,0,1,.66-.94,1.25,1.25,0,0,1,1.1,0c1.28.7,1.86,3.7,1.89,3.79a.24.24,0,0,1,0,.23h-.1a.12.12,0,0,1-.13.12A.11.11,0,0,1,113.93,340.25Zm-2.51-3.56c-.31.14-.36.32-.34.47.1.76,1.5,2.08,2.58,2.58-.24-1-.78-2.6-1.5-3a.65.65,0,0,0-.56-.08Z" transform="translate(-20.76 -129.5)" fill="#407bff"/><path d="M199.66,247.76l-51.8.69v5.44s-37.7,2.19-48.39,12.89,11.86,62.48,11.86,62.48l13.52-2.17-3.23-41.55s33,3.27,44,3.27C189.39,288.81,199.66,247.76,199.66,247.76Z" transform="translate(-20.76 -129.5)" opacity="0.2" style="isolation:isolate"/><polygon points="102.47 188.19 107.04 215.51 114.56 212.63 114.56 185.76 102.47 188.19" fill="#eec1bb"/><path d="M125.44,343,136,337.65a.76.76,0,0,1,1,.27h0L141.7,346a1.85,1.85,0,0,1-.79,2.48c-3.7,1.8-5.55,2.48-10.19,4.79a97.33,97.33,0,0,1-12.49,5.87c-4.19,1.34-5.41-2.83-3.74-3.77a29.07,29.07,0,0,0,9.64-11A2.93,2.93,0,0,1,125.44,343Z" transform="translate(-20.76 -129.5)" fill="#263238"/><path d="M120.93,346.68a1.3,1.3,0,0,1-.88-1.08.91.91,0,0,1,.19-.87c.92-1,4.51-.57,4.9-.51a.27.27,0,0,1,.19.18.21.21,0,0,1-.09.25,11.85,11.85,0,0,1-2.31,1.59A2.83,2.83,0,0,1,120.93,346.68Zm-.31-1.59a.43.43,0,0,0-.09.43.89.89,0,0,0,.55.69c.66.21,1.91-.36,3.43-1.5-1.51-.15-3.4-.13-3.89.41Z" transform="translate(-20.76 -129.5)" fill="#407bff"/><path d="M125.09,344.74c-1.21-.07-3.6-1.34-3.9-2.45a.93.93,0,0,1,.45-1.06,1.35,1.35,0,0,1,1.09-.17c1.4.44,2.56,3.26,2.6,3.35a.24.24,0,0,1,0,.23.09.09,0,0,1-.1,0,.12.12,0,0,1-.14.1Zm-3.17-3.08c-.28.2-.3.39-.24.53a5.13,5.13,0,0,0,3,2c-.42-.89-1.27-2.39-2.11-2.65a.71.71,0,0,0-.57,0Z" transform="translate(-20.76 -129.5)" fill="#407bff"/><path d="M201.88,247.76s9.75,32.58-12,38.87-51.07-1.09-51.07-1.09l-1.74,41.36-13.77.21s-12.12-43.08-9-56.31,48.43-17.21,48.43-17.21l.22-5.83Z" transform="translate(-20.76 -129.5)" fill="#407bff"/><path d="M143.13,247.81l2.79-1.17a3.5,3.5,0,0,1,3.22.24l4.5,2.77a6.61,6.61,0,0,1,3.11,5.17l.09,1.31c-4.5,2.27-11,1.41-11,1.41h-1.89a2.91,2.91,0,0,1-3-2.82v-3.85A3.36,3.36,0,0,1,143.13,247.81Z" transform="translate(-20.76 -129.5)" fill="#eec1bb"/><path d="M187.18,203.82c3.29,11.85,3.88,25.21-2.39,36.3-2,3-5.22,4.73-7.51,6.31a109.3,109.3,0,0,1-20.77,9.68,3,3,0,1,1-2.72-5.43c7.09-5.23,16.13-10.52,22-16.83l-.66,1c3.75-8.56,2.41-18.76.33-27.67a6.14,6.14,0,0,1,11.8-3.33Z" transform="translate(-20.76 -129.5)" fill="#ebc0bb"/><path d="M92.4,257.75v3.54c0,.92,1.06,1.3,2,1.3h70.77c.9,0,2-.38,2-1.3v-3.54Z" transform="translate(-20.76 -129.5)" fill="#407bff"/><path d="M92.4,257.75v3.54c0,.92,1.06,1.3,2,1.3h70.77c.9,0,2-.38,2-1.3v-3.54Z" transform="translate(-20.76 -129.5)" fill="#fff" opacity="0.4" style="isolation:isolate"/><path d="M92.4,257.75v3.54c0,.92,1.06,1.3,2,1.3H141c.9,0,2-.38,2-1.3v-3.54Z" transform="translate(-20.76 -129.5)" opacity="0.2" style="isolation:isolate"/><path d="M80.55,221,89,259.27a2.9,2.9,0,0,0,2.75,2.16h46a1.85,1.85,0,0,0,1.8-1.92,1.92,1.92,0,0,0-.07-.48l-8.42-38a2.62,2.62,0,0,0-2.74-1.86h-46C81.06,219.18,80.23,219.74,80.55,221Z" transform="translate(-20.76 -129.5)" fill="#407bff"/><path d="M80.55,221,89,259.27a2.9,2.9,0,0,0,2.75,2.16h44.46a1.84,1.84,0,0,0,1.81-1.88,1.54,1.54,0,0,0-.09-.52l-8.42-38a2.62,2.62,0,0,0-2.74-1.86H82.29C81.06,219.18,80.23,219.74,80.55,221Z" transform="translate(-20.76 -129.5)" fill="#fff" opacity="0.4" style="isolation:isolate"/><path d="M103.24,240.42h0a6.59,6.59,0,0,0,6.08,6c2.57,0,4.1-2.66,3.37-6s-3.29-5.81-5.82-5.92c.74,3.27-.84,5.92-3.39,5.92Z" transform="translate(-20.76 -129.5)" opacity="0.2" style="isolation:isolate"/><path d="M153.39,199.49s-9.39-7.13-3.76-16.08c3.2-5.11,28.07-9.48,32-4.15a10.51,10.51,0,0,1,1.1,10.77s-5-.11-8.47,0S163.9,200.81,153.39,199.49Z" transform="translate(-20.76 -129.5)" fill="#263238"/><path d="M163.27,168.28a52.22,52.22,0,0,0,.89,10.29c.46,2.42,1.81,7,5.12,8.83,0,0-.72,3.88-6.23,7.35-4.24,2.65-8,3.63-9.51,2.65s.37-6.51.37-6.51a3.75,3.75,0,0,0,0-.67c-.1-1.81-1-7.51-6.38-9C140.05,179.19,163.27,168.28,163.27,168.28Z" transform="translate(-20.76 -129.5)" fill="#eec1bb"/><path d="M163.27,168.28a52.22,52.22,0,0,0,.89,10.29c-2.39,4.75-5.64,9.42-10.28,11.65-.1-1.81-1-7.51-6.38-9C140.05,179.19,163.27,168.28,163.27,168.28Z" transform="translate(-20.76 -129.5)" opacity="0.2" style="isolation:isolate"/><path d="M128.38,152.86s-3.87,7.7,2,14.11,9.34-13.51,9.34-13.51Z" transform="translate(-20.76 -129.5)" fill="#263238"/><path d="M164.74,155.58c1.34,11.42,2.77,18-2.57,25-8,10.51-24.63,8.27-29.76-2.44-4.67-9.61-6-26.69,5.57-33.49S163.42,144.16,164.74,155.58Z" transform="translate(-20.76 -129.5)" fill="#eec1bb"/><path d="M141.64,158.88a.85.85,0,0,1-.24-.29.61.61,0,0,1,.42-.73,5.85,5.85,0,0,1,5.35,1,.6.6,0,0,1,0,.84h0a.64.64,0,0,1-.84,0h0a4.72,4.72,0,0,0-4.28-.71A.6.6,0,0,1,141.64,158.88Z" transform="translate(-20.76 -129.5)" fill="#263238"/><path d="M128.77,163.19a.52.52,0,0,1-.36-.09.61.61,0,0,1-.1-.84,5.86,5.86,0,0,1,4.91-2.34.58.58,0,0,1,.54.62v0h0a.62.62,0,0,1-.65.54h0a4.64,4.64,0,0,0-3.87,2A.61.61,0,0,1,128.77,163.19Z" transform="translate(-20.76 -129.5)" fill="#263238"/><path d="M137.65,170l-2.27,3s1.05,1,3.84.56Z" transform="translate(-20.76 -129.5)" fill="#d4827d"/><path d="M139,177.49a35.61,35.61,0,0,1,3.16,4l.79-.38c3.67-1.74,4.78-3.77,4.92-5.46a5.66,5.66,0,0,0-.45-2.44,4.65,4.65,0,0,0-.73-1.21,19,19,0,0,1-6.45,4.89C139.54,177.26,139,177.49,139,177.49Z" transform="translate(-20.76 -129.5)" fill="#263238"/><path d="M140.31,176.86l1,1.15c3.44-1.65,5.63-3.27,6.22-4.83a4.88,4.88,0,0,0-.73-1.22A18.91,18.91,0,0,1,140.31,176.86Z" transform="translate(-20.76 -129.5)" fill="#fff"/><path d="M143,181.08c3.67-1.74,4.78-3.77,4.92-5.47a13,13,0,0,0-3.68,2.73A5.1,5.1,0,0,0,143,181.08Z" transform="translate(-20.76 -129.5)" fill="#de5753"/><path d="M148.78,138.92a5.08,5.08,0,0,1-.78,0l.93,13.88a10.89,10.89,0,0,0,3.86,7.66,15.26,15.26,0,0,0,6,7.51c5.4-.12,6,8,6,8C174.43,170.7,173.14,133,148.78,138.92Z" transform="translate(-20.76 -129.5)" fill="#263238"/><path d="M156.9,165.07s.87-6.91,4.6-5.89,6,11.44,1.36,12.81S155.73,169,156.9,165.07Z" transform="translate(-20.76 -129.5)" fill="#eec1bb"/><path d="M142.66,166.43c.38,1.1,1.3,1.79,2,1.51s1-1.37.65-2.47-1.31-1.8-2-1.5S142.27,165.32,142.66,166.43Z" transform="translate(-20.76 -129.5)" fill="#263238"/><path d="M143.63,164l-2.74-.12S142.78,165.47,143.63,164Z" transform="translate(-20.76 -129.5)" fill="#263238"/><path d="M131.91,168.9c.38,1.11,1.29,1.8,2,1.5s1-1.37.64-2.48-1.3-1.79-2-1.5S131.52,167.79,131.91,168.9Z" transform="translate(-20.76 -129.5)" fill="#263238"/><path d="M132.87,166.37l-2.73-.1S132,167.88,132.87,166.37Z" transform="translate(-20.76 -129.5)" fill="#263238"/><path d="M134.13,154.6c-1,1.58-1.24,4.85-1.24,7.31,1.92-.27,4.1-.61,6.33-1-.82-5.33.14-7.33.14-7.33a18.53,18.53,0,0,0,1.67,7c1.72-.32,3.45-.66,5.12-1a24.69,24.69,0,0,1-.65-6.52,14.37,14.37,0,0,0,3.47,5.87l.8-.21s-2.57-4.84,0-8.8S148,139,148,139s-25.54.42-22.38,23.91c0,0,2.22-.26,5.48-.72A12.78,12.78,0,0,1,134.13,154.6Z" transform="translate(-20.76 -129.5)" fill="#263238"/><path d="M174.53,158.73a46.38,46.38,0,0,1,1,6.31,22.31,22.31,0,0,0,7.21-2.23c.08-4.5-.42-9.74-.42-9.74a56.2,56.2,0,0,1,1.73,9q.43-.26.84-.54s-2.48-27.47-12.51-27-12,8.52-12,8.52l2.87,4.26s3.77-3.77,6-.63,4.35,18.45,4.35,18.45h.87C174.61,162.21,174.53,158.73,174.53,158.73Z" transform="translate(-20.76 -129.5)" fill="#263238"/><path d="M181.79,194.35c6.41,0,10.92,8,11.76,18.82L174,217.51S167.13,194.46,181.79,194.35Z" transform="translate(-20.76 -129.5)" fill="#263238"/></g></g><path d="M172.65,134.5c9.84,0,12.28,27,12.28,27q-.41.28-.84.54a56.2,56.2,0,0,0-1.73-9s.5,5.24.42,9.74a22.31,22.31,0,0,1-7.21,2.23,46.38,46.38,0,0,0-1-6.31s.08,3.48,0,6.37h-.87s-2.11-15.31-4.35-18.45a2.66,2.66,0,0,0-2.24-1.24,3.66,3.66,0,0,0-.65.06c6.31,9.95,4.67,27.06-1.59,30.47v-.05a16.75,16.75,0,0,1-.77,1.74,52.19,52.19,0,0,1,8.68-.8c4.21,0,7.67.71,8.94,2.43a10.51,10.51,0,0,1,1.1,10.77h-.09c3.6,2.73,6,6.29,8,9.45,4.32,6.84,9.25,36,11.18,48.28h0s9.75,32.58-12,38.87a75,75,0,0,1-20.53,2.54,128.09,128.09,0,0,1-13.48-.76c-5.31-.33-11.49-.82-17.12-1.3l-1.68,39.79-1.74,0V338l.63-.32a.74.74,0,0,1,.37-.1.75.75,0,0,1,.65.37L141.7,346a1.85,1.85,0,0,1-.79,2.48c-3.7,1.8-5.54,2.48-10.19,4.79a97.33,97.33,0,0,1-12.49,5.87,4.91,4.91,0,0,1-1.55.27c-2.92,0-3.63-3.23-2.19-4a29.09,29.09,0,0,0,6.9-6.61c-1.06.26-2.24.56-3.69.95A94.82,94.82,0,0,1,104.29,353a5.22,5.22,0,0,1-.67,0c-3.73,0-4-3.91-2.33-4.47a29.08,29.08,0,0,0,10.18-7.24,2.87,2.87,0,0,1-2,0,1.35,1.35,0,0,1-.66-1.23.94.94,0,0,1,.36-.83,2.14,2.14,0,0,1,1.23-.3,8.53,8.53,0,0,1,1.71.22,3.79,3.79,0,0,1-1.53-2.13.93.93,0,0,1,.66-.94,1.23,1.23,0,0,1,.55-.13,1.17,1.17,0,0,1,.55.13,4.84,4.84,0,0,1,1.6,2.69,2.53,2.53,0,0,1,.67-.23l2.26-.63-3.4-9.06-2.14.35s-22.55-51.79-11.86-62.48a23,23,0,0,1,6.29-4.19H94.36c-.85,0-1.84-.35-1.94-1.16h-.7A2.9,2.9,0,0,1,89,259.27L80.55,221a1.38,1.38,0,0,1,.29-1.42,2.1,2.1,0,0,1,1.45-.44h46.25a2.61,2.61,0,0,1,2.51,1.87l2.5,11.26c.11-.27.24-.53.36-.8a22.6,22.6,0,0,0,2.06-7.81c.2-1.7.61-5.91.84-8.38l-3.34-.77s1.05-14.44,8.89-20.09a14.41,14.41,0,0,1,5.26-4.38l.25-.09a9.89,9.89,0,0,1,.14-2.58c-6.45,0-12.77-3.36-15.6-9.27a35.85,35.85,0,0,1-3.33-12.79,12.18,12.18,0,0,1-1.33-2.72c-1.33.18-2.13.27-2.13.27C122.46,139.4,148,139,148,139h0v-.07l.39,0,.39,0a20.76,20.76,0,0,1,4.93-.63,14.29,14.29,0,0,1,7.83,2.19c1.45-2.41,4.57-5.7,10.88-6h.23M138.52,254.76l2.42-.27v-3.62a3.36,3.36,0,0,1,2.19-3.06l2.79-1.17a3.43,3.43,0,0,1,1.37-.28h.19c-.66-4.22-1.46-9.15-2.32-14.14a58.23,58.23,0,0,1-8.67,13.37l2,9.16m-13.38,80.9.81-.23a.56.56,0,0,1,.22,0h0l-1.39-8.3-1.31.21,1.65,8.35m-12,3.77a2.91,2.91,0,0,1,.37-.33,4.41,4.41,0,0,0-1.32-2.36.66.66,0,0,0-.36-.11l-.2,0-.18,0c-.31.14-.36.32-.34.47a4.67,4.67,0,0,0,2,2.27m-2.81,1.62a5.28,5.28,0,0,0,1.77-.41c.21-.24.42-.49.62-.74a10,10,0,0,0-2.33-.37,1.64,1.64,0,0,0-.89.19.44.44,0,0,0-.18.41.92.92,0,0,0,.41.8,1.28,1.28,0,0,0,.6.12M172.65,129.5h-.45a18.1,18.1,0,0,0-12,4.8,20.07,20.07,0,0,0-6.44-1,25.14,25.14,0,0,0-5.54.64h-.26a5.19,5.19,0,0,0-1,.11c-3.44.25-14.36,1.65-21.11,9.49-4.46,5.19-6.18,11.93-5.09,20a5,5,0,0,0,3.63,4.16,40.48,40.48,0,0,0,3.62,12.61A21.23,21.23,0,0,0,139,190.6l-.22.26c-8.88,7-10.2,21.59-10.32,23.31H82.29a6.91,6.91,0,0,0-4.88,1.8,6.38,6.38,0,0,0-1.74,6.17l8.42,38.19a1.16,1.16,0,0,0,0,.18,7.92,7.92,0,0,0,5.78,5.69,7.24,7.24,0,0,0,3.24,1.29c-2.9,7-1.76,18.67,3.45,36a282.05,282.05,0,0,0,10.15,27.78,4.87,4.87,0,0,0,.84,1.32,6,6,0,0,0-1.85,3.07,5.89,5.89,0,0,0-1.93,4.54,7,7,0,0,0,.11,1.22,23.43,23.43,0,0,1-4.48,2.52,6.77,6.77,0,0,0-4,7.54,8,8,0,0,0,8.2,6.58,10.26,10.26,0,0,0,1.23-.07l.29,0c1.21-.21,2.43-.44,3.64-.7a7.37,7.37,0,0,0,.23,1.38,7.76,7.76,0,0,0,7.67,5.77,10.16,10.16,0,0,0,3.07-.5l.28-.1a105.15,105.15,0,0,0,13-6.11c2.47-1.23,4.13-2,5.73-2.71,1.29-.59,2.63-1.2,4.31-2l.11-.05a6.87,6.87,0,0,0,2.95-9.19l-.15-.26-4.73-8.05a5.68,5.68,0,0,0-1-1.22v-3.48a5,5,0,0,0,1.74-3.58l1.45-34.59c4.54.37,8.53.66,11.92.87a130.69,130.69,0,0,0,13.91.78,79.75,79.75,0,0,0,21.92-2.73,22.52,22.52,0,0,0,14.05-11.14c7.36-13.49,1.61-33.14,1.36-34l0-.07c-3-18.92-7.42-42.56-11.77-49.45a45.59,45.59,0,0,0-6.4-8.34,15.48,15.48,0,0,0-2.82-12.2c-2.1-2.84-6-4.29-12-4.43q.29-.84.54-1.74h.29a5.55,5.55,0,0,0,.82-.07h.25c.21,0,.43,0,.64,0a27.2,27.2,0,0,0,8.84-2.73,4.86,4.86,0,0,0,.81-.52,5.05,5.05,0,0,0,.71-.33c.44-.25.87-.53,1.28-.82a5,5,0,0,0,2.06-4.51,93.3,93.3,0,0,0-2.61-14.38c-3.1-11.42-8-17.21-14.65-17.21Z" transform="translate(-20.76 -129.5)" fill="#fff"/><g id="freepik--Plant--inject-1"><path d="M61,404.7s-.7-38.74,17.54-56.14-12.92-2.74-19.71,15.54c0,0,1.8-34.66,20.29-55.72s-11.29-6.59-18.21,17.45c0,0,1.5-30.94,11.18-46.56s-3.56-6.95-9.88,2.83-5.78,37.12-5.78,37.12-1.74-50.78-13.1-48.94,8.91,38.73,9.37,56c0,0-8.15-24.68-18.5-21.87s13.31,9.76,17.92,45.06L53,365.77s-7.22-24.14-16.06-18.57S55.52,370.39,56,405Z" transform="translate(-20.76 -129.5)" fill="#407bff"/><path d="M61,404.7s-.7-38.74,17.54-56.14-12.92-2.74-19.71,15.54c0,0,1.8-34.66,20.29-55.72s-11.29-6.59-18.21,17.45c0,0,1.5-30.94,11.18-46.56s-3.56-6.95-9.88,2.83-5.78,37.12-5.78,37.12-1.74-50.78-13.1-48.94,8.91,38.73,9.37,56c0,0-8.15-24.68-18.5-21.87s13.31,9.76,17.92,45.06L53,365.77s-7.22-24.14-16.06-18.57S55.52,370.39,56,405Z" transform="translate(-20.76 -129.5)" opacity="0.2" style="isolation:isolate"/><polygon points="17.57 313.75 64.01 313.75 70.18 268.61 11.4 268.61 17.57 313.75" fill="#263238"/><polygon points="17.57 313.75 64.01 313.75 70.18 268.61 11.4 268.61 17.57 313.75" fill="#fff" opacity="0.2" style="isolation:isolate"/><path d="M59.64,403s4.85-31-7.86-47,10.68-.77,14.11,14.64c0,0,2.38-28-10.13-47s9.81-4,12.71,16c0,0,2.19-25-3.83-38.66s3.63-5.18,7.63,3.36.51,30.45.51,30.45,7.06-40.55,15.94-37.79S77.27,327.11,75,341c0,0,9.28-18.91,17.27-15.5s-11.74,6.37-19.37,34.22l-2.51,13.05s8.47-18.63,15-13.24S67.91,376,63.69,403.81Z" transform="translate(-20.76 -129.5)" fill="#407bff"/><path d="M96.75,394.44v4.29a5.2,5.2,0,0,1-5.2,5.2H31a5.19,5.19,0,0,1-5.19-5.2v-4.29Z" transform="translate(-20.76 -129.5)" fill="#263238"/></g><path d="M43.94,270.23c9.45,0,11.93,37.38,12.4,46.84l.09.08c0-6.55.52-26.9,5.79-35,3.82-5.9,10.15-11.4,12.45-11.4,1.51,0,1.28,2.38-2.57,8.57a61.54,61.54,0,0,0-6.41,15.93,31.72,31.72,0,0,1,6.58,9.21,12.16,12.16,0,0,1,.58,1.51c4.68-4.84,9.26-7.72,11.23-7.72a1,1,0,0,1,.78.27,4.32,4.32,0,0,1,3-1.53,3,3,0,0,1,.87.13c8.87,2.76-11.45,30-13.73,43.9,0,0,7.81-15.91,15.27-15.91a5.08,5.08,0,0,1,2,.41c5.69,2.43-2.67,4.63-10.71,15.73a5.65,5.65,0,0,1,1.82-.43c1.76,0,.93,2.3-4.82,7.79a34.11,34.11,0,0,0-2.88,3.12,61.26,61.26,0,0,0-2.78,8l-2.51,13.05s6.46-14.22,12.46-14.21a4,4,0,0,1,2.56,1c5.75,4.74-12.11,13.92-19.39,34.94H96.75v4.29a5.2,5.2,0,0,1-5.2,5.2H90.14l-5.37,39.32H38.33L33,403.93H31a5.19,5.19,0,0,1-5.19-5.2v-4.29H55c-4.95-27.69-25.9-42.26-18-47.24a5.07,5.07,0,0,1,2.69-.83c7.56,0,13.37,19.4,13.37,19.4L52.53,357c-.24-.34-.49-.69-.75-1-3.82-4.81-4.37-6.79-3.19-6.79.71,0,2,.69,3.63,1.9l-.09-1.66c-4.61-35.3-28.27-42.25-17.92-45.06a6.35,6.35,0,0,1,1.65-.22c9.55,0,16.85,22.09,16.85,22.09-.46-17.26-20.72-54.16-9.37-56a3,3,0,0,1,.6,0m17.8,53.08a47.06,47.06,0,0,1,5.93-11.15,46.74,46.74,0,0,0-3-11.11c-.09-.2-.16-.38-.24-.57a171,171,0,0,0-3.25,22l.59.82m11,11.55s2.81-16.14,7.11-27.36c-.24.29-.49.58-.76.88a58.88,58.88,0,0,0-5,6.58,122.93,122.93,0,0,1-1.37,19.9m-4.31,4.85a140.42,140.42,0,0,0,.32-15.08c-1,2.17-1.93,4.35-2.75,6.52a35.27,35.27,0,0,1,2.43,8.56m-7.71,20.34a40,40,0,0,1,4.68-6.47A88.08,88.08,0,0,0,63,340.46a130,130,0,0,0-3.6,17.82c.46.57.9,1.16,1.34,1.77M43.94,265.23h0a9.3,9.3,0,0,0-1.39.11,8.62,8.62,0,0,0-6.09,4c-3.54,5.84-.65,15.61,4.46,31a11.74,11.74,0,0,0-5.06-1.18,11.46,11.46,0,0,0-3,.39c-1.2.33-4.86,1.32-6,4.93-1.21,3.84,1.27,6.79,4.4,10.52,4.4,5.25,11.41,13.61,14.73,28.61a10.51,10.51,0,0,0-6.41-2.26h0A9.89,9.89,0,0,0,34.28,343c-1.8,1.13-5.71,4.48-3.34,11.23,1,2.91,3,6.05,5.51,10,4,6.36,9.28,14.7,12.25,25.21H25.76a5,5,0,0,0-5,5v4.29a10.22,10.22,0,0,0,7.79,9.92l4.82,35.28a5,5,0,0,0,5,4.32H84.77a5,5,0,0,0,5-4.32l4.85-35.45a10.23,10.23,0,0,0,7.18-9.75v-4.29a5,5,0,0,0-5-5H73.59A82.68,82.68,0,0,1,84.66,373.8c4.19-5,7.22-8.54,6.83-12.82a7.7,7.7,0,0,0-2.92-5.34,9,9,0,0,0-5.73-2.11h0a9.35,9.35,0,0,0-2.46.33c.55-.62,1.08-1.17,1.62-1.69,5.16-4.92,8-8.57,7-12.21,1.86-2,3.61-3.63,5-4.92,3-2.74,5.62-5.1,5-8.83-.4-2.34-2-4.14-4.83-5.34a10,10,0,0,0-4-.81h0a10.14,10.14,0,0,0-1.23.07c5.38-11,8.4-18.19,6.17-23.37a8.06,8.06,0,0,0-7.35-4.82,8.39,8.39,0,0,0-4.4,1.29c-3,.28-6.35,2.41-9.14,4.62a37.59,37.59,0,0,0-3-4,51,51,0,0,1,5.06-11.9c3.52-5.67,5.31-9.86,3.42-13.26a5.72,5.72,0,0,0-5.1-2.95h0c-5.89,0-13.76,9.22-16.65,13.68a22.1,22.1,0,0,0-1.21,2.16c-2.2-8.64-5.85-16.31-12.87-16.31Z" transform="translate(-20.76 -129.5)" fill="#fff"/></svg>