<svg id="Layer_1" data-name="Layer 1" xmlns="http://www.w3.org/2000/svg" viewBox="0 0 431.4 357.81"><g id="freepik--character-2--inject-21"><path d="M350.23,112.57c2.79.3,14.87-1.36,23.18,9.48,7.86,10.26,11.21,41.89,13,48.75s10.86,7.72,13.16,15.69c2,6.86-3,9.5-3.39,14.57-.32,3.93,3.75,9.73.29,15.61-3.14,5.34-8.89,4.35-12.31,6.07s-5.41,9.78-11.77,12.07-12.13-3.42-15.53-3.32-7.2,10.61-18.3,9.93-14.5-10-19.11-11.74-16,1.68-21.4-3.93-6.43-13.22-8.85-16-7.34-2.21-10.42-8.65,2.89-10.69,3.62-16.35c.51-3.94-3-7.48-.73-13.53,3.21-8.33,13.34-6.78,17-15.33,2.88-6.71,8.52-35.74,25.83-43.22C336.46,107.52,350.23,112.57,350.23,112.57Z" transform="translate(-36.46 -105.36)" fill="#263238"/><path d="M386,169.15a9.93,9.93,0,0,0,3,3.65l3.68,3a30.06,30.06,0,0,1,6.52,6.61,9.58,9.58,0,0,1,1.24,8.39,14.67,14.67,0,0,1-2.23,3.9,16.79,16.79,0,0,0-2.65,4.26,8.1,8.1,0,0,0,.56,5.2c.54,1.53,1.15,3,1.61,4.45,1,2.91,1.24,6-.11,8.69a6.42,6.42,0,0,1-3,3,11.73,11.73,0,0,1-4.4,1c-1.55.15-3.14.13-4.73.19a7.94,7.94,0,0,0-4.6,1.14,8.51,8.51,0,0,1,4.59-.66c1.58.08,3.17.23,4.78.22a12.77,12.77,0,0,0,4.85-.9,7.77,7.77,0,0,0,3.72-3.44c1.8-3,1.39-6.77.45-9.81-.46-1.57-1.06-3.07-1.55-4.53s-.89-2.91-.48-4.08c.9-2.55,3.71-4.87,4.72-8.18a10.66,10.66,0,0,0-1.65-9.71,30.18,30.18,0,0,0-7.14-6.53l-3.91-2.71A10.73,10.73,0,0,1,386,169.15Z" transform="translate(-36.46 -105.36)" fill="#263238"/><path d="M308.69,129.32c-2.92,4.93-4.68,10.4-6.95,15.57-1.14,2.59-2.18,5.22-3.5,7.68A18.9,18.9,0,0,1,296,156a2.73,2.73,0,0,1-.64.63,2.8,2.8,0,0,1-.75.52c-.59.33-1.22.62-1.85.91a78.82,78.82,0,0,0-7.72,3.79,14.49,14.49,0,0,0-6.11,6.38,9.13,9.13,0,0,0-.8,4.46,11.57,11.57,0,0,0,1.39,4.2c1.38,2.5,2.68,5,2.82,7.9.29-2.89-.92-5.7-2-8.27a10.87,10.87,0,0,1-1-3.91,7.69,7.69,0,0,1,.91-3.79,14.14,14.14,0,0,1,5.69-5.55,79.09,79.09,0,0,1,7.64-3.56c.66-.32,1.31-.64,2-1a6.42,6.42,0,0,0,1.83-1.57,20.81,20.81,0,0,0,2.36-3.78,69,69,0,0,0,3.28-8l2.77-8.07A73.72,73.72,0,0,1,308.69,129.32Z" transform="translate(-36.46 -105.36)" fill="#263238"/><path d="M286.43,207.9c1.25,1.61,1.45,3.73,1.95,5.67s.94,4,1.51,6a30.15,30.15,0,0,0,2.26,5.81,13.45,13.45,0,0,0,4.16,5c3.93,2.4,8.52,2,12.48,1.2,2-.42,4-.94,6-1.3a12.55,12.55,0,0,1,6-.1,11.71,11.71,0,0,0-6.08-.79c-2.06.2-4.07.57-6.07.81-3.92.5-8.11.65-11.25-1.34a12.19,12.19,0,0,1-3.66-4.25,38.33,38.33,0,0,1-2.44-5.43c-.71-1.88-1.33-3.82-2-5.75-.34-1-.7-1.93-1.1-2.88A5.89,5.89,0,0,0,286.43,207.9Z" transform="translate(-36.46 -105.36)" fill="#263238"/><path d="M407.36,346.74s-24,88.15-29.77,101.16h-93c16.07-42,33.06-97.07,33.55-100.89v-.27Z" transform="translate(-36.46 -105.36)" fill="#37474f"/><path d="M394.32,358.47c-.58,7.15-26.61,83.28-28.8,89.43h-1.34s28.27-84.21,29.79-89.43C394,358.25,394.35,358.25,394.32,358.47Z" transform="translate(-36.46 -105.36)" fill="#263238"/><path d="M331,346.73l12,79.14.43,2.69h0l1.06,7.15.08.51.29,1.91h0l1.47,9.74h31.24c5.78-13,29.77-101.17,29.77-101.17Z" transform="translate(-36.46 -105.36)" fill="#263238"/><path d="M454,447.9H366c0-.38-.05-.67-.06-.92s-.06-.6-.06-.6l-1.48-.8c-5.18-2.82-9.72-5-13.46-6.68-.64-.28-1.25-.55-1.84-.83-1.7-.73-3.22-1.35-4.48-1.84-3.24-1.29-5-1.86-5-1.86-.11-.27-.2-.53-.3-.8-12.76-32.47-20.44-81.95-21.16-86.56v-.35H443.81C451.29,370.07,466.3,413.11,454,447.9Z" transform="translate(-36.46 -105.36)" fill="#37474f"/><path d="M335.06,432.05c10.66,3.67,20.95,8.88,30.79,14.34a.34.34,0,0,1,.17.45.33.33,0,0,1-.45.18h0c-10.38-4.45-21-8.71-31.07-13.73a.68.68,0,1,1,.56-1.24Z" transform="translate(-36.46 -105.36)" fill="#263238"/><path d="M331.76,360.86c0-.36.66-.44.66-.05a345.83,345.83,0,0,0,1.74,34.66c.48,5.35,4.78,34.88,14,32.73,1.55-.37,2.35-1.89,2.59-4.23.29-2.81-.77-6.26-1.23-9.06-1-6.18-1.86-12.38-2.39-18.63a169.21,169.21,0,0,1,.38-34.93.3.3,0,0,1,.6,0h0c0,16.14.41,32.24,2.82,48.23,1.16,7.68,5,19.24-3,20.43s-13.47-18.17-14.47-23.47C330.7,391.78,330.59,375.82,331.76,360.86Z" transform="translate(-36.46 -105.36)" fill="#263238"/><path d="M348,429a50.67,50.67,0,0,1,2.08,6.12,13.75,13.75,0,0,1,.87,5,.37.37,0,0,1-.43.28.38.38,0,0,1-.21-.14c-1.09-1.38-1.55-3.26-2.16-4.9-.7-1.89-1.45-3.77-2.1-5.68A1,1,0,1,1,348,429Z" transform="translate(-36.46 -105.36)" fill="#263238"/><path d="M389.89,370.52a16.44,16.44,0,0,1,.39-3.83.21.21,0,0,1,.25-.13.21.21,0,0,1,.13.13,15.32,15.32,0,0,1,.43,3.31c.13,1.27.3,2.54.43,3.81a57.6,57.6,0,0,0,1.36,7.71A27.39,27.39,0,0,0,400,394.25a37.1,37.1,0,0,0,12,7.88c5,2.11,10.22,2.89,15.36,4.4a.21.21,0,0,1,.1.27.21.21,0,0,1-.16.11,44.31,44.31,0,0,1-16.63-3.27,35.41,35.41,0,0,1-12.48-8,28,28,0,0,1-7.28-13.08,39.54,39.54,0,0,1-1-7.74A34.28,34.28,0,0,1,389.89,370.52Z" transform="translate(-36.46 -105.36)" fill="#263238"/><path d="M441.67,447.9c5.86-24.89,3.79-52.31-1.36-77.18-1.12-5.7-2.77-11.9-4.13-17.53,1.31,3.79,2.65,7.58,3.82,11.42,7.52,26,10.5,57.3,1.67,83.29Z" transform="translate(-36.46 -105.36)" fill="#263238"/><path d="M354.46,230.59c-15.76,28.36-45.88,80.18-67,85.63-20.25,5.24-61.3-28-95.24-48.6-6.75-4.1,37.21-46.7,44.19-42,18.24,12.4,39.84,32.33,44.66,31.11,3.94-1,32.72-25.73,51.12-40C361.51,194.09,365.56,210.64,354.46,230.59Z" transform="translate(-36.46 -105.36)" fill="#ad6359"/><path d="M192.23,267.62c-5.83-3.6-31.1-22.43-37-29.24s-21.23-27.65-16.5-32.67,9.77.72,9.77.72-5.13-9.82.12-14.44,12.76,4.57,12.76,4.57-4.53-10.48,1-14.71S174,188.12,174,188.12s-4.59-9.39,1.47-10.94c7.28-1.87,13.78,16.4,20.82,23.43,1.6,1.6,34.68,30.09,34.68,30.09Z" transform="translate(-36.46 -105.36)" fill="#ad6359"/><path d="M173.45,187.23c4.81,13.42,9.24,18.46,20.3,27.1a.22.22,0,0,1,0,.31.22.22,0,0,1-.26.06c-11.6-7.48-18.06-13-20.73-27.27C172.66,186.73,173.22,186.59,173.45,187.23Z" transform="translate(-36.46 -105.36)" fill="#263238"/><path d="M161,195.49c6.22,13.5,11,19,21.89,28.9.16.14-.06.42-.23.29-11.52-8.82-17.85-14.47-22.29-28.77C160.18,195.26,160.73,194.87,161,195.49Z" transform="translate(-36.46 -105.36)" fill="#263238"/><path d="M149.07,206.92c7,12.64,11.92,18.9,23.75,27.15a.26.26,0,0,1,0,.38.26.26,0,0,1-.29.07c-12.88-7.24-19.12-15-23.83-27.35C148.39,206.33,148.63,206.13,149.07,206.92Z" transform="translate(-36.46 -105.36)" fill="#263238"/><polygon points="71.82 45.1 130.85 49.02 177.9 26.25 218.62 94.02 170.98 111.52 171.68 113.35 161.73 115.76 160.87 114.17 108.29 111.5 71.82 45.1" fill="#455a64"/><path d="M200.49,217.61s17.32-8.43,32.18-13c7-2.16,15.61-5.81,15.61-5.81l.06-4.58S214,200.67,200.49,217.61Z" transform="translate(-36.46 -105.36)" fill="#ebebeb"/><path d="M166.42,152.68s6.2-8.63,20.58-12.88c6.54-1.94,16.79-2.25,24.93-8.54l36.41,63s-30.9,7.24-47.85,23.39Z" transform="translate(-36.46 -105.36)" fill="#fff"/><path d="M166.42,152.68c5.42-6.65,13.34-10.91,21.5-13.23,4.15-1.08,8.39-1.66,12.48-2.84A33.23,33.23,0,0,0,212,131c.1,0,36.49,63,36.59,63.05l.16.29-.32.08c-4.33,1.08-8.61,2.41-12.84,3.88-12.57,4.49-25,10.29-34.94,19.4l-.18.17c-.14,0-33.88-65.13-34-65.23Zm0,0c-.12,0,34.93,65.41,34,64.8a75.1,75.1,0,0,1,10.7-8.17,126.73,126.73,0,0,1,24.34-11.41c4.23-1.49,8.51-2.84,12.88-3.92l-.16.36c.08,0-36.88-63.43-36.11-63-6.89,5.4-15.8,6.38-24,8.26-8.16,2.25-16.09,6.44-21.55,13Z" transform="translate(-36.46 -105.36)" fill="#ebebeb"/><path d="M200.49,217.61l-34.07-64.93s-33.18-10-45-7.91L110,149.21l36.42,65.52Z" transform="translate(-36.46 -105.36)" fill="#fff"/><path d="M200.49,217.61S166,152.42,166.37,152.85a237.67,237.67,0,0,0-33.53-7.58,44.16,44.16,0,0,0-11.37-.27c.19-.1-11.43,4.48-11.4,4.44l.12-.35,36.34,65.57c-.66-.14,54.09,3,54,3Zm0,0-54.18-2.73c-.2-.46-36.5-65.39-36.69-65.8l.27-.1,11.48-4.44a45,45,0,0,1,11.53.29,239.74,239.74,0,0,1,33.58,7.68c.24,0,33.86,65,34,65.1Z" transform="translate(-36.46 -105.36)" fill="#ebebeb"/><path d="M121.43,144.77l33.21,64.71s31.16,3.12,45.85,8.13l-54.09-2.88L110,149.21Z" transform="translate(-36.46 -105.36)" fill="#ebebeb"/><path d="M166.42,152.68q4.46,8,8.8,16.09l8.6,16.19,8.43,16.28q4.19,8.14,8.24,16.37-4.45-8-8.79-16.09l-8.6-16.19-8.43-16.27Q170.49,160.9,166.42,152.68Z" transform="translate(-36.46 -105.36)" fill="#dbdbdb"/><path d="M173.85,156.24a44.61,44.61,0,0,1,8.19-5.7,51,51,0,0,1,9.18-3.95c3.19-1,6.42-1.79,9.65-2.61,1.61-.41,3.22-.82,4.82-1.27a35.86,35.86,0,0,0,4.74-1.53,63.35,63.35,0,0,1-9.5,3.06c-3.21.86-6.43,1.71-9.58,2.74a50.8,50.8,0,0,0-9.19,3.79A55.18,55.18,0,0,0,173.85,156.24Z" transform="translate(-36.46 -105.36)" fill="#263238"/><path d="M202.75,146.39c2.94-1.08,6-1.79,8.91-2.77a19.64,19.64,0,0,1-4.35,1.73A41.79,41.79,0,0,1,202.75,146.39Z" transform="translate(-36.46 -105.36)" fill="#263238"/><path d="M175.08,158.68a37.73,37.73,0,0,1,5.34-4,50.06,50.06,0,0,1,5.87-3.25,67.72,67.72,0,0,1,12.76-4c-2.13.65-4.27,1.29-6.39,2a60.47,60.47,0,0,0-12.1,5.55A56.54,56.54,0,0,0,175.08,158.68Z" transform="translate(-36.46 -105.36)" fill="#263238"/><path d="M176.31,161.12a44.61,44.61,0,0,1,8.19-5.7,51,51,0,0,1,9.18-3.95c3.19-1,6.42-1.79,9.65-2.61,1.61-.41,3.22-.82,4.82-1.27a35.86,35.86,0,0,0,4.74-1.53,63.35,63.35,0,0,1-9.5,3.06c-3.21.86-6.43,1.71-9.58,2.74a50.8,50.8,0,0,0-9.19,3.79A55.18,55.18,0,0,0,176.31,161.12Z" transform="translate(-36.46 -105.36)" fill="#263238"/><path d="M177.54,163.56a44.61,44.61,0,0,1,8.19-5.7,51.24,51.24,0,0,1,9.18-4c3.19-1,6.42-1.79,9.65-2.61,1.61-.41,3.22-.82,4.82-1.27a35.86,35.86,0,0,0,4.74-1.53,63.23,63.23,0,0,1-9.49,3.06c-3.22.86-6.44,1.71-9.59,2.74a50.8,50.8,0,0,0-9.19,3.79A54.73,54.73,0,0,0,177.54,163.56Z" transform="translate(-36.46 -105.36)" fill="#263238"/><path d="M192.71,157.77l5.58-2c1.86-.67,3.79-1.11,5.69-1.65l5.73-1.47a50.29,50.29,0,0,0,5.64-1.73,35.08,35.08,0,0,1-5.56,2c-1.89.56-3.81,1.05-5.71,1.56s-3.83,1-5.7,1.56S194.61,157.23,192.71,157.77Z" transform="translate(-36.46 -105.36)" fill="#263238"/><path d="M178.77,166a32,32,0,0,1,5.52-4.24c1-.6,2-1.19,3.05-1.7a33.43,33.43,0,0,1,3.19-1.39A87.53,87.53,0,0,0,178.77,166Z" transform="translate(-36.46 -105.36)" fill="#263238"/><path d="M180,168.45a43.85,43.85,0,0,1,8.19-5.71,51.24,51.24,0,0,1,9.18-4c3.19-1,6.42-1.79,9.65-2.61,1.61-.41,3.22-.82,4.82-1.27a36,36,0,0,0,4.75-1.53,63.35,63.35,0,0,1-9.5,3.06c-3.22.86-6.44,1.71-9.59,2.74a50.8,50.8,0,0,0-9.19,3.79A53.1,53.1,0,0,0,180,168.45Z" transform="translate(-36.46 -105.36)" fill="#263238"/><path d="M182.46,173.33a43.85,43.85,0,0,1,8.19-5.71,49.41,49.41,0,0,1,9.19-3.94c3.18-1,6.41-1.8,9.64-2.62,1.61-.41,3.22-.82,4.82-1.27a36,36,0,0,0,4.75-1.53,63.35,63.35,0,0,1-9.5,3.06c-3.22.86-6.44,1.71-9.59,2.74a50.7,50.7,0,0,0-9.18,3.79A53.37,53.37,0,0,0,182.46,173.33Z" transform="translate(-36.46 -105.36)" fill="#263238"/><path d="M201.75,166.11c1.68-.63,3.4-1.12,5.11-1.61a51.35,51.35,0,0,1,5.22-1.22c-1.68.63-3.39,1.11-5.11,1.61A51.35,51.35,0,0,1,201.75,166.11Z" transform="translate(-36.46 -105.36)" fill="#263238"/><path d="M183.69,175.77a35.64,35.64,0,0,1,6.54-4.85c1.18-.67,2.37-1.33,3.61-1.89a36.4,36.4,0,0,1,3.79-1.5,77.84,77.84,0,0,0-7.2,3.73c-1.17.67-2.31,1.41-3.43,2.15S184.76,174.93,183.69,175.77Z" transform="translate(-36.46 -105.36)" fill="#263238"/><path d="M184.92,178.21a43.85,43.85,0,0,1,8.19-5.71,49.41,49.41,0,0,1,9.19-3.94c3.18-1,6.41-1.8,9.64-2.62,1.61-.41,3.22-.82,4.82-1.27a36,36,0,0,0,4.75-1.53,63.35,63.35,0,0,1-9.5,3.06c-3.22.86-6.44,1.71-9.59,2.74a50.7,50.7,0,0,0-9.18,3.79A53.37,53.37,0,0,0,184.92,178.21Z" transform="translate(-36.46 -105.36)" fill="#263238"/><path d="M187.38,183.09a43.85,43.85,0,0,1,8.19-5.71,49.41,49.41,0,0,1,9.19-3.94c3.18-1,6.42-1.8,9.64-2.62,1.61-.41,3.22-.82,4.82-1.27A35.06,35.06,0,0,0,224,168a63.35,63.35,0,0,1-9.5,3.06c-3.22.87-6.44,1.71-9.59,2.74a50,50,0,0,0-9.18,3.8A52.53,52.53,0,0,0,187.38,183.09Z" transform="translate(-36.46 -105.36)" fill="#263238"/><path d="M188.61,185.53a43.85,43.85,0,0,1,8.19-5.71,51.4,51.4,0,0,1,9.19-3.94c3.18-1,6.42-1.8,9.64-2.62,1.61-.41,3.22-.82,4.82-1.27a36,36,0,0,0,4.75-1.53,62.22,62.22,0,0,1-9.5,3.06c-3.22.87-6.44,1.71-9.59,2.74a50,50,0,0,0-9.18,3.8A52.84,52.84,0,0,0,188.61,185.53Z" transform="translate(-36.46 -105.36)" fill="#263238"/><path d="M215.15,179.05c2.06-.72,4.17-1.27,6.26-1.86l3.14-.86c1-.31,2.08-.61,3.11-1a31.44,31.44,0,0,1-6.15,2.24C219.41,178.13,217.29,178.65,215.15,179.05Z" transform="translate(-36.46 -105.36)" fill="#263238"/><path d="M202,183.47c.87-.45,1.74-.89,2.63-1.3s1.81-.73,2.73-1.06a46,46,0,0,1,5.65-1.48c-1.83.68-3.69,1.23-5.52,1.86S203.84,182.85,202,183.47Z" transform="translate(-36.46 -105.36)" fill="#263238"/><path d="M191.07,190.41a23.49,23.49,0,0,1,3.6-3c.66-.42,1.31-.85,2-1.23a21.48,21.48,0,0,1,2.09-1.05C196.18,186.9,193.61,188.59,191.07,190.41Z" transform="translate(-36.46 -105.36)" fill="#263238"/><path d="M218,181.07c1.8-.64,3.64-1.13,5.46-1.66l2.73-.77c.91-.27,1.82-.53,2.72-.86a27.56,27.56,0,0,1-5.35,2C221.71,180.29,219.86,180.75,218,181.07Z" transform="translate(-36.46 -105.36)" fill="#263238"/><path d="M192.3,192.85a35.6,35.6,0,0,1,5.1-3.89,52.21,52.21,0,0,1,5.6-3.16,62.17,62.17,0,0,1,12.17-4c-2,.64-4.08,1.26-6.1,1.93a49.7,49.7,0,0,0-5.9,2.42,54,54,0,0,0-5.62,3A58.32,58.32,0,0,0,192.3,192.85Z" transform="translate(-36.46 -105.36)" fill="#263238"/><path d="M193.53,195.29a43.85,43.85,0,0,1,8.19-5.71,51.4,51.4,0,0,1,9.19-3.94c3.18-1,6.42-1.8,9.64-2.62,1.61-.41,3.22-.82,4.82-1.27a36,36,0,0,0,4.75-1.53,62.22,62.22,0,0,1-9.5,3.06c-3.22.87-6.43,1.71-9.59,2.74a50.74,50.74,0,0,0-9.18,3.8A53.31,53.31,0,0,0,193.53,195.29Z" transform="translate(-36.46 -105.36)" fill="#263238"/><path d="M208.7,189.49a82.6,82.6,0,0,1,11.3-3.63l5.73-1.47a50.46,50.46,0,0,0,5.65-1.73c-3.59,1.69-7.49,2.53-11.28,3.59l-5.71,1.52C212.46,188.3,210.56,188.84,208.7,189.49Z" transform="translate(-36.46 -105.36)" fill="#263238"/><path d="M194.76,197.73a32.06,32.06,0,0,1,5.31-4.11c1-.57,1.92-1.15,2.93-1.65a31.13,31.13,0,0,1,3.07-1.36A92.65,92.65,0,0,0,194.76,197.73Z" transform="translate(-36.46 -105.36)" fill="#263238"/><path d="M196,200.17a43.85,43.85,0,0,1,8.19-5.71,51.4,51.4,0,0,1,9.19-3.94c3.18-1,6.42-1.8,9.64-2.62,1.61-.41,3.22-.82,4.83-1.27a35.86,35.86,0,0,0,4.74-1.53,62.22,62.22,0,0,1-9.5,3.06c-3.21.87-6.43,1.71-9.59,2.74a50.74,50.74,0,0,0-9.18,3.8A53.31,53.31,0,0,0,196,200.17Z" transform="translate(-36.46 -105.36)" fill="#263238"/><path d="M197.22,202.61a36.62,36.62,0,0,1,4.85-3.74,53.88,53.88,0,0,1,5.32-3.06,35.37,35.37,0,0,1,5.72-2.2c1.94-.62,3.9-1.19,5.87-1.73l-5.78,2a35.91,35.91,0,0,0-5.64,2.31,51.18,51.18,0,0,0-5.34,2.93A55.87,55.87,0,0,0,197.22,202.61Z" transform="translate(-36.46 -105.36)" fill="#263238"/><path d="M130.89,150.94c5.6.38,11.16,1.21,16.7,2.09q4.14.75,8.25,1.66c2.75.57,5.46,1.29,8.16,2.05-2.74-.61-5.47-1.23-8.22-1.79s-5.5-1.07-8.26-1.52-5.52-1-8.3-1.36S133.67,151.28,130.89,150.94Z" transform="translate(-36.46 -105.36)" fill="#263238"/><path d="M150.73,155.74c1.22.15,2.44.31,3.64.57l3.61.77c2.39.56,4.79,1.11,7.15,1.81-2.44-.37-4.84-.9-7.24-1.42S153.12,156.31,150.73,155.74Z" transform="translate(-36.46 -105.36)" fill="#263238"/><path d="M132,153.08c2.6.09,5.18.39,7.75.71a74,74,0,0,1,7.66,1.37c-2.59-.26-5.15-.64-7.72-1S134.58,153.5,132,153.08Z" transform="translate(-36.46 -105.36)" fill="#263238"/><path d="M133.15,155.23c4.23.24,8.42.84,12.6,1.42a115.66,115.66,0,0,1,12.45,2.48c-4.18-.7-8.32-1.5-12.51-2.08S137.34,155.81,133.15,155.23Z" transform="translate(-36.46 -105.36)" fill="#263238"/><path d="M134.28,157.38c5.6.38,11.15,1.21,16.69,2.09,2.77.5,5.53,1.05,8.26,1.66s5.46,1.29,8.15,2.06c-2.73-.62-5.46-1.24-8.21-1.8s-5.5-1.07-8.27-1.52-5.52-1-8.29-1.36S137.06,157.73,134.28,157.38Z" transform="translate(-36.46 -105.36)" fill="#263238"/><path d="M159.17,163.16c1.59.2,3.15.55,4.72.89a38.55,38.55,0,0,1,4.62,1.29c-1.6-.2-3.15-.56-4.72-.9A39,39,0,0,1,159.17,163.16Z" transform="translate(-36.46 -105.36)" fill="#263238"/><path d="M135.41,159.53c3.47.17,6.92.6,10.35,1.08s6.86,1.11,10.24,1.92C149.13,161.51,142.28,160.49,135.41,159.53Z" transform="translate(-36.46 -105.36)" fill="#263238"/><path d="M161.62,167.5c1.56.19,3.09.53,4.62.87a42.53,42.53,0,0,1,4.53,1.26c-1.57-.19-3.09-.54-4.62-.87A42.26,42.26,0,0,1,161.62,167.5Z" transform="translate(-36.46 -105.36)" fill="#263238"/><path d="M152.5,165.8a32.64,32.64,0,0,1,3.69.47,30.22,30.22,0,0,1,3.62.86,32.64,32.64,0,0,1-3.69-.47A30.22,30.22,0,0,1,152.5,165.8Z" transform="translate(-36.46 -105.36)" fill="#263238"/><path d="M137.66,163.82c1.81.06,3.6.27,5.39.47a50.58,50.58,0,0,1,5.33.87c-1.81-.06-3.6-.27-5.38-.47A52.07,52.07,0,0,1,137.66,163.82Z" transform="translate(-36.46 -105.36)" fill="#263238"/><path d="M138.79,166c5.6.38,11.16,1.21,16.7,2.1q4.14.74,8.25,1.65c2.75.58,5.46,1.29,8.16,2.06-2.74-.61-5.47-1.24-8.21-1.8s-5.51-1.07-8.27-1.52-5.52-1-8.29-1.36S141.58,166.32,138.79,166Z" transform="translate(-36.46 -105.36)" fill="#263238"/><path d="M139.92,168.12c5.6.38,11.16,1.21,16.7,2.09q4.14.75,8.25,1.66c2.75.57,5.46,1.29,8.16,2.06-2.74-.62-5.47-1.24-8.22-1.8s-5.5-1.07-8.26-1.52-5.52-1-8.3-1.36S142.71,168.47,139.92,168.12Z" transform="translate(-36.46 -105.36)" fill="#263238"/><path d="M141.05,170.27c3.85.2,7.67.69,11.48,1.24s7.59,1.28,11.33,2.2c-3.8-.59-7.59-1.25-11.39-1.8S144.86,170.8,141.05,170.27Z" transform="translate(-36.46 -105.36)" fill="#263238"/><path d="M145.58,175.35,158.2,200.6a252.74,252.74,0,0,1,29.8,5.23L174.43,180.7S153.13,175.43,145.58,175.35Z" transform="translate(-36.46 -105.36)" fill="#455a64"/><path d="M240.56,232.47S236,215.19,232.38,208s-27.12-28.8-32.08-24c-6.4,6.2,4.68,21.36,11.07,28.08,0,0-14.83,14.32-9.23,26.92S240.56,232.47,240.56,232.47Z" transform="translate(-36.46 -105.36)" fill="#ad6359"/><path d="M199.1,186.32c-1.76,9.87,7.2,18.14,12.92,25.12a.83.83,0,0,1-.07,1.17,1,1,0,0,1-.24.15c-5.82,6.42-12.15,17.17-10.1,26.07a.21.21,0,0,1-.13.27.22.22,0,0,1-.27-.14c-3.5-9.25,1.87-20.32,8.69-26.94-6-7.07-14.61-15.76-10.89-25.72Z" transform="translate(-36.46 -105.36)" fill="#263238"/><path d="M243,227l-35.54,59.11S271,324.1,290,318.42s53.63-63.83,64.75-86.56,5-35-17.64-19.16-53.39,41-57.11,41.3S243,227,243,227Z" transform="translate(-36.46 -105.36)" fill="#ffc727"/><path d="M333.81,268.75c-.13.2-.27.41-.4.63h-.72a3.25,3.25,0,0,1-3.24-3.24,2.62,2.62,0,0,0-2.61-2.61h-2v-.63h2a3.24,3.24,0,0,1,3.24,3.24,2.62,2.62,0,0,0,2.61,2.61Zm3.61-31.45-1.35-1.3a2.61,2.61,0,0,1,0-3.69,3.25,3.25,0,0,0,0-4.58l-1.43-1.43-.45.44,1.43,1.43a2.61,2.61,0,0,1,0,3.69,3.24,3.24,0,0,0,0,4.58h0L337,237.8Zm12.3-24.15a2.61,2.61,0,0,1,3.69,0,3.23,3.23,0,0,0,2.29.95h0a3.23,3.23,0,0,0,2.29-.95l1.43-1.43-.45-.45-1.43,1.43a2.61,2.61,0,0,1-1.84.77h0a2.61,2.61,0,0,1-1.84-.77,3.26,3.26,0,0,0-4.59,0l-1.35,1.36.45.44Zm-36.84,71.13H311a2.61,2.61,0,0,1-2.61-2.61,3.25,3.25,0,0,0-3.24-3.24h-2v.63h2a2.61,2.61,0,0,1,2.6,2.61,3.25,3.25,0,0,0,3.25,3.24h1.91ZM247,281.16h-1.91a2.61,2.61,0,0,1-2.61-2.6,3.25,3.25,0,0,0-3.24-3.25h-2V276h2a2.61,2.61,0,0,1,2.6,2.61,3.25,3.25,0,0,0,3.25,3.24H247Zm63.44-30.26-1.36-1.35a2.63,2.63,0,0,1,0-3.69,3.24,3.24,0,0,0,0-4.59l-1.42-1.42-.45.44,1.43,1.43a2.63,2.63,0,0,1,0,3.69,3.24,3.24,0,0,0,0,4.57h0l1.35,1.36Zm-20.69,58.65-1.35-1.36a2.61,2.61,0,0,1,0-3.69,3.25,3.25,0,0,0,0-4.58l-1.4-1.43-.45.45,1.43,1.43a2.61,2.61,0,0,1,0,3.69,3.25,3.25,0,0,0,0,4.58l1.35,1.35Zm-54-9.63-1.44-1.43-.44.45,1.43,1.42a2.78,2.78,0,0,1,.7,1.25l.68.34a3.25,3.25,0,0,0-1-2Zm24.59-40.5L259,258.07a2.61,2.61,0,0,1,0-3.69,3.25,3.25,0,0,0,0-4.58l-1.43-1.43-.45.45,1.43,1.43a2.6,2.6,0,0,1,0,3.68h0a3.26,3.26,0,0,0,0,4.59l1.35,1.35Zm6.54,23.7a2.66,2.66,0,0,1,3.69,0,3.24,3.24,0,0,0,4.59,0l1.42-1.43-.44-.45-1.43,1.43a2.61,2.61,0,0,1-3.69,0,3.25,3.25,0,0,0-4.58,0L265.06,284l.45.44Zm-46.41,3.71L219,288.26a2.6,2.6,0,0,1-3.68,0h0a3.26,3.26,0,0,0-4.43-.16l.6.34a2.69,2.69,0,0,1,3.38.27,3.25,3.25,0,0,0,4.58,0l1.43-1.43Zm63.91-19.63a2.61,2.61,0,0,1,2.61-2.61,3.25,3.25,0,0,0,3.24-3.24v-1.91h-.64v1.91A2.61,2.61,0,0,1,287,264h0a3.25,3.25,0,0,0-3.25,3.24v2h.64Zm-20.84,39.64v1.91a2.61,2.61,0,0,1-2.61,2.61,3.22,3.22,0,0,0-2,.7l.71.29a2.56,2.56,0,0,1,1.3-.35,3.25,3.25,0,0,0,3.24-3.25v-1.91ZM239.8,235v1.92a2.61,2.61,0,0,1-2.61,2.61h0a3.2,3.2,0,0,0-2.29,1l-.8,1.33h0a3,3,0,0,0-.15.94v2h.63v-2a2.62,2.62,0,0,1,2.61-2.61,3.25,3.25,0,0,0,3.25-3.24V235Z" transform="translate(-36.46 -105.36)" fill="#fff"/><path d="M224.81,290.86c11.35-23.39,26.83-46.29,29.25-50.47.11-.19.42,0,.29.2-2.58,4-17.43,32-29.21,50.49C225,291.3,224.71,291.09,224.81,290.86Z" transform="translate(-36.46 -105.36)" fill="#263238"/><path d="M354.8,231.86c-11.13,22.73-45.7,80.87-64.77,86.55-5.84,1.75-15.85-.61-26.93-4.73,22.92-28.08,65.5-77.17,90.41-108.14C362,205.52,362.45,216.23,354.8,231.86Z" transform="translate(-36.46 -105.36)" opacity="0.1" style="isolation:isolate"/><path d="M318.05,346.66l1.82-35.28s-11-8.43-10.25-27.68c.57-14,30.45-71.28,32.92-73.78,9.93-10,29-9.51,35.6-3.42,33.46,31.06,49.79,77.64,65.67,140.16Z" transform="translate(-36.46 -105.36)" fill="#ffc727"/><path d="M410.62,302.09h-1.91a3.24,3.24,0,0,1-3.24-3.24,2.61,2.61,0,0,0-2.61-2.61h-2v-.63h2a3.24,3.24,0,0,1,3.24,3.24,2.61,2.61,0,0,0,2.61,2.61h1.91Zm-76-33.35h-1.91a2.61,2.61,0,0,1-2.61-2.6,3.25,3.25,0,0,0-3.24-3.25h-2v.64h2a2.61,2.61,0,0,1,2.61,2.61,3.25,3.25,0,0,0,3.24,3.24h1.91Zm48.3-8.74H381a2.61,2.61,0,0,1-2.61-2.61,3.25,3.25,0,0,0-3.24-3.24h-2v.63h2a2.61,2.61,0,0,1,2.6,2.61A3.25,3.25,0,0,0,381,260.6h1.91Zm-24.36,51h-1.91a2.61,2.61,0,0,1-2.61-2.61,3.25,3.25,0,0,0-3.24-3.24h-2v.64h2a2.61,2.61,0,0,1,2.61,2.6,3.25,3.25,0,0,0,3.24,3.25h1.91ZM318,346.63Zm68.39-26.05L385,319.22a2.6,2.6,0,0,1,0-3.68h0a3.24,3.24,0,0,0,0-4.59l-1.43-1.43-.45.45,1.43,1.43a2.61,2.61,0,0,1,0,3.69,3.25,3.25,0,0,0,0,4.58L386,321Zm36.79,22.11-1.42-1.43-.45.45,1.43,1.42a2.63,2.63,0,0,1,.15,3.53h.78a3.23,3.23,0,0,0-.45-4Zm-18-68.33L403.91,273a2.61,2.61,0,0,1,0-3.69,3.25,3.25,0,0,0,0-4.58l-1.43-1.43-.45.45,1.43,1.43a2.6,2.6,0,0,1,0,3.68h0a3.26,3.26,0,0,0,0,4.59l1.36,1.35ZM337.42,237.3l-1.35-1.3a2.61,2.61,0,0,1,0-3.69,3.25,3.25,0,0,0,0-4.58l-1.43-1.43-.45.44,1.43,1.43a2.61,2.61,0,0,1,0,3.69,3.24,3.24,0,0,0,0,4.58h0L337,237.8Zm41.19-6.25-1.35-1.36a2.6,2.6,0,0,1,0-3.68h0a3.24,3.24,0,0,0,0-4.59L375.83,220l-.45.45,1.43,1.43a2.61,2.61,0,0,1,0,3.69,3.25,3.25,0,0,0,0,4.58l1.36,1.36Zm-45,69.14-1.35-1.36a2.6,2.6,0,0,1,0-3.68h0a3.24,3.24,0,0,0,0-4.59l-1.43-1.43-.45.45,1.43,1.43a2.61,2.61,0,0,1,0,3.69,3.25,3.25,0,0,0,0,4.58l1.35,1.36ZM398,331.54a2.61,2.61,0,0,1,3.68,0,3.24,3.24,0,0,0,4.59,0l1.43-1.43-.45-.44-1.43,1.43a2.63,2.63,0,0,1-3.69,0,3.24,3.24,0,0,0-4.57,0h0l-1.36,1.35.45.45Zm43.77,7.15h0l-1.35,1.36.44.44,1.11-1.11Zm-110.9-13.22a2.61,2.61,0,0,1,3.69,0,3.25,3.25,0,0,0,4.58,0l1.43-1.43-.45-.45L338.69,325a2.61,2.61,0,0,1-3.68,0,3.24,3.24,0,0,0-4.58,0h0l-1.35,1.35.45.45ZM350.78,279a2.61,2.61,0,0,1,3.69,0,3.26,3.26,0,0,0,4.59,0l1.43-1.43-.45-.45-1.43,1.43a2.63,2.63,0,0,1-3.69,0,3.24,3.24,0,0,0-4.57,0h0L349,279.89l.45.45Zm73.79,3.19a3.26,3.26,0,0,0-3.86.56l-1.33,1.35.44.44,1.35-1.33a2.56,2.56,0,0,1,3.62-.06l.06.06.13.11c-.15-.39-.28-.77-.41-1.14Zm-74.85-69a2.61,2.61,0,0,1,3.69,0,3.23,3.23,0,0,0,2.29.95h0a3.23,3.23,0,0,0,2.29-.95l1.43-1.43-.45-.45-1.43,1.43a2.61,2.61,0,0,1-1.84.77h0a2.61,2.61,0,0,1-1.84-.77,3.26,3.26,0,0,0-4.59,0l-1.35,1.36.45.44Zm72.21,106.93a2.62,2.62,0,0,1,2.6-2.6,3.27,3.27,0,0,0,3.25-3.25v-1.91h-.64v1.91a2.61,2.61,0,0,1-2.61,2.61,3.25,3.25,0,0,0-3.24,3.24v2h.64Zm-61.56,16.8a2.61,2.61,0,0,1,2.61-2.61,3.24,3.24,0,0,0,3.24-3.24v-1.92h-.63V331a2.61,2.61,0,0,1-2.61,2.61,3.24,3.24,0,0,0-3.24,3.24v2h.63Zm15.05-46.19a2.61,2.61,0,0,1,2.61-2.6,3.25,3.25,0,0,0,3.24-3.25V283h-.63v1.91a2.61,2.61,0,0,1-2.61,2.61,3.25,3.25,0,0,0-3.24,3.24v2h.63Zm-59.6,13.94v1.91a1.61,1.61,0,0,1,0,.31c.17.25.34.48.5.69a3.37,3.37,0,0,0,.16-1v-1.91Zm36.3-53.57a2.62,2.62,0,0,1,2.61-2.6,3.25,3.25,0,0,0,3.24-3.25V243.3h-.63v1.91a2.61,2.61,0,0,1-2.61,2.61,3.25,3.25,0,0,0-3.24,3.24v2h.63ZM311,284.28a2.61,2.61,0,0,1-1.36-.38v.7a3.27,3.27,0,0,0,1.38.31h1.91v-.63Zm91-49v1.28a2.61,2.61,0,0,1-2.61,2.61,3.25,3.25,0,0,0-3.24,3.25v2h.63v-2a2.61,2.61,0,0,1,2.61-2.61,3.27,3.27,0,0,0,3.25-3.25v-.29c-.28-.37-.48-.7-.7-1Z" transform="translate(-36.46 -105.36)" fill="#fff"/><path d="M357.18,304.7a114.7,114.7,0,0,0-17.08.93c-2.81.41-5.58.94-8.35,1.53-1.39.3-2.77.54-4.16.78a18.21,18.21,0,0,1-4.42.35.1.1,0,1,0,0,.2,32.31,32.31,0,0,0,4.17.38,30.43,30.43,0,0,0,4.05-.32c2.85-.38,5.69-.9,8.54-1.31,5.74-.83,11.49-1.66,17.28-2.07C357.47,305.15,357.45,304.7,357.18,304.7Z" transform="translate(-36.46 -105.36)" fill="#263238"/><path d="M370.61,311.22a123.77,123.77,0,0,0-13.95-2.2c-2.34-.22-4.68-.31-7-.34h-3.38c-1.13,0-2.47.21-3.71.21a.11.11,0,1,0,0,.21c1.17,0,2.34.25,3.5.35l3.51.29c2.34.19,4.68.41,7,.59,4.69.35,9.36.74,14,1.25C370.83,311.63,370.85,311.27,370.61,311.22Z" transform="translate(-36.46 -105.36)" fill="#263238"/><path d="M368.46,209.5c-.15,2.6-8,19.41-19.54,20.87-3.75.47-8.43-18.4-8.43-18.4l-.6-1.44-8.37-20.22,21.94-20.17,3.21-2.72s1.93,5.68,4.25,12.78l.34,1c.14.4.28.77.39,1.15.36,1.06.73,2.14,1.07,3.22.26.82.52,1.62.77,2.5l.77,2.59C366.72,199.32,368.51,208.4,368.46,209.5Z" transform="translate(-36.46 -105.36)" fill="#ad6359"/><path d="M360.92,180.2a43.86,43.86,0,0,1-21,30.33l-8.37-20.22,21.94-20.17,3.21-2.72S358.6,173.1,360.92,180.2Z" transform="translate(-36.46 -105.36)" fill="#263238"/><path d="M295.63,159.37c.33,38.4,23.37,42.54,31.65,42.46,7.52-.07,33.11-1.27,36.75-39.51s-14.32-50.22-31.52-51S295.3,121,295.63,159.37Z" transform="translate(-36.46 -105.36)" fill="#ad6359"/><path d="M302.64,155.34c.89-.18,1.69-.49,2.55-.75a4.3,4.3,0,0,0,2.45-1.26,1.37,1.37,0,0,0-.13-1.66,3.4,3.4,0,0,0-3.4-.53,5,5,0,0,0-3,2,1.46,1.46,0,0,0,1.53,2.2Z" transform="translate(-36.46 -105.36)" fill="#263238"/><path d="M330.17,157.4a23.35,23.35,0,0,1-2.63-.34,4.27,4.27,0,0,1-2.62-.86,1.37,1.37,0,0,1-.12-1.67,3.36,3.36,0,0,1,3.26-1.05,5.12,5.12,0,0,1,3.26,1.51,1.46,1.46,0,0,1-.16,2.06A1.43,1.43,0,0,1,330.17,157.4Z" transform="translate(-36.46 -105.36)" fill="#263238"/><path d="M324.91,163.38c0-.1.21.11.22.22.06,2.62.57,5.6,3,6.34.07,0,.07.15,0,.15C325.19,169.84,324.55,165.87,324.91,163.38Z" transform="translate(-36.46 -105.36)" fill="#263238"/><path d="M327.09,160.53c4.19-.56,5,7.85,1.1,8.36S323.59,161,327.09,160.53Z" transform="translate(-36.46 -105.36)" fill="#263238"/><path d="M328.79,160.81c.77.41,1.57,1.18,2.47,1.19s1.72-.95,2.31-1.86c.06-.1.14,0,.15.08.18,1.61-.29,3.32-2,3.72s-2.82-.95-3.37-2.53C328.25,161.12,328.47,160.65,328.79,160.81Z" transform="translate(-36.46 -105.36)" fill="#263238"/><path d="M309.3,165.21c0-.1-.18.15-.16.26.48,2.57.59,5.6-1.61,6.81-.07,0,0,.17,0,.14C310.36,171.58,310.17,167.57,309.3,165.21Z" transform="translate(-36.46 -105.36)" fill="#263238"/><path d="M306.58,162.86c-4.2.32-3.25,8.71.65,8.41S310.11,162.59,306.58,162.86Z" transform="translate(-36.46 -105.36)" fill="#263238"/><path d="M305,163.49c-.68.56-1.31,1.48-2.18,1.67s-1.88-.58-2.64-1.35c-.08-.08-.15,0-.14.12.16,1.61,1,3.19,2.72,3.23s2.56-1.51,2.78-3.17C305.57,163.68,305.26,163.27,305,163.49Z" transform="translate(-36.46 -105.36)" fill="#263238"/><path d="M328.06,183.56c-.45.75-.85,1.72-1.75,2a6.66,6.66,0,0,1-2.88.07.1.1,0,0,0-.12.05.09.09,0,0,0,0,.11,3.53,3.53,0,0,0,3.57.54,2.74,2.74,0,0,0,1.41-2.75C328.33,183.45,328.13,183.45,328.06,183.56Z" transform="translate(-36.46 -105.36)" fill="#263238"/><path d="M314.82,175.87s.24,3.94.6,5.74c0,.17.48.17,1.1.08h.08a8.79,8.79,0,0,0,7.7-4.87c.09-.2-.18-.34-.32-.2a13.18,13.18,0,0,1-7.4,3.81c-.22-.47-.17-6.75-.46-6.72a16,16,0,0,0-3.92,1.75c-.72-8.19-.13-16.42-1-24.56a.25.25,0,0,0-.5,0c-1.23,8.58-.6,18-.07,26.49C310.71,178.42,314.16,176.32,314.82,175.87Z" transform="translate(-36.46 -105.36)" fill="#263238"/><path d="M317.13,180.78a10.06,10.06,0,0,0,4.47,2.46,4.59,4.59,0,0,0,2.74-.25c1.89-.83,1.65-2.64,1.05-4.13a11.08,11.08,0,0,0-1.25-2.23A13,13,0,0,1,317.13,180.78Z" transform="translate(-36.46 -105.36)" fill="#263238"/><path d="M321.6,183.24a4.59,4.59,0,0,0,2.74-.25c1.89-.83,1.65-2.64,1.05-4.13C323.32,179.41,321.45,181.17,321.6,183.24Z" transform="translate(-36.46 -105.36)" fill="#ff98b9"/><path d="M365.92,160.92c-6.26,1.92-10.72-11.1-10.72-11.1s-12.93,2.94-21.38-14.71c0,0,2.22,8.6,9.18,14.1,0,0-23.36,2.71-37.25-14.23,0,0,6,8.87,10.39,11.52,0,0-10.18-.52-16.59-7.24,0,0-1.52,11.92-3.91,15.65,0,0-8-40.14,29.92-44.2,0,0,23.5-3.66,35.93,12.8S365.92,160.92,365.92,160.92Z" transform="translate(-36.46 -105.36)" fill="#263238"/><path d="M358,165.33s7.21-12.73,12.91-10.28,1.07,20.36-5.06,23.34A6.49,6.49,0,0,1,357,176c-.05-.09-.1-.17-.14-.26Z" transform="translate(-36.46 -105.36)" fill="#ad6359"/><path d="M369.41,160.15c.1,0,.13.12,0,.17-4.29,2.23-6.24,6.59-7.48,11,1.17-1.78,2.89-2.85,5.25-1.49a.15.15,0,0,1,0,.2.19.19,0,0,1-.13.05,4,4,0,0,0-4.24,1.81,19.06,19.06,0,0,0-1.76,3.74c-.17.42-.91.27-.8-.2v-.11C359.7,169.68,363.36,161.31,369.41,160.15Z" transform="translate(-36.46 -105.36)" fill="#263238"/><path d="M364.93,178.84a2.1,2.1,0,1,1-2.51-1.59,2.11,2.11,0,0,1,2.51,1.59Z" transform="translate(-36.46 -105.36)" fill="#fff"/><path d="M367.43,231.65c-14.79,25.74-37.67,71.72-43.51,76-21.15,15.47-55.18,45.52-61.4,52.88-8,9.46,38.78,47.54,44.74,41.46,4.27-4.35,51.87-45.64,64.29-70.68,8.05-16.23,15.82-60.9,20.07-89.93C395.94,211.78,378.65,212.13,367.43,231.65Z" transform="translate(-36.46 -105.36)" fill="#ad6359"/><path d="M202.1,417.85c5,5.52,17.56-8,17.56-8a13.82,13.82,0,0,0,.93,9.3c2.68,5,11.68,3,11.68,3a16.85,16.85,0,0,0,2.54,9.65c3.05,4.51,12.41,3.77,12.41,3.77a14.87,14.87,0,0,0,7.59,7.07c8.95,3.31,20.48-5.6,27.87-11.19s23.1-28.37,26.54-32.41l-35.48-47.72s-40.26,15.65-48,23.45C219.2,381.34,194.45,409.42,202.1,417.85Z" transform="translate(-36.46 -105.36)" fill="#ad6359"/><path d="M219.63,409.62c5.26-8.65,12.59-16,19.74-23.08.16-.16.4.1.24.25-7.19,6.92-12.7,15.94-19.6,23.13a.25.25,0,0,1-.35-.05A.23.23,0,0,1,219.63,409.62Z" transform="translate(-36.46 -105.36)" fill="#263238"/><path d="M232,421.4a26.58,26.58,0,0,1,4.83-4.94c1.83-1.63,3.69-3.22,5.57-4.79q5.64-4.71,11.52-9.13c.17-.13.42.1.24.25-3.75,3.13-7.44,6.32-11.06,9.61-1.8,1.65-3.6,3.31-5.38,5a31.29,31.29,0,0,1-5.25,4.5.36.36,0,0,1-.48-.17A.35.35,0,0,1,232,421.4Z" transform="translate(-36.46 -105.36)" fill="#263238"/><path d="M247.38,435.42c1-1.72,3.05-3,4.58-4.22,1.75-1.39,3.48-2.8,5.21-4.21,3.46-2.83,6.92-5.66,10.27-8.6.17-.15.41.1.25.25-3.4,3-6.75,6.06-10.18,9.05q-2.52,2.19-5.06,4.36c-1.44,1.23-3.11,2.93-4.94,3.55a.11.11,0,0,1-.14-.09A.1.1,0,0,1,247.38,435.42Z" transform="translate(-36.46 -105.36)" fill="#263238"/><path d="M264,354.23l55.67,44.61s41.77-46.76,54-66.81c5.11-8.37,15.53-68.71,19.23-88.76,4.63-25-10.54-42-25.64-14.35-10.62,19.43-42.1,73.89-43.93,75.33S264,354.23,264,354.23Z" transform="translate(-36.46 -105.36)" fill="#ffc727"/><path d="M382.92,260.6H381a3.25,3.25,0,0,1-3.25-3.24,2.61,2.61,0,0,0-2.6-2.61h-2v-.63h2a3.25,3.25,0,0,1,3.24,3.24A2.61,2.61,0,0,0,381,260h1.94Zm-24.36,50.33h-1.91a2.61,2.61,0,0,1-2.61-2.61,3.25,3.25,0,0,0-3.24-3.24h-2v.64h2a2.61,2.61,0,0,1,2.61,2.6,3.25,3.25,0,0,0,3.24,3.25h1.91ZM323,350.84h-1.92a2.61,2.61,0,0,1-2.61-2.61,3.25,3.25,0,0,0-3.24-3.24h-2v.63h2a2.61,2.61,0,0,1,2.61,2.61,3.24,3.24,0,0,0,3.24,3.24H323Zm-10.92,38.51h-1.91a2.61,2.61,0,0,1-2.61-2.61,3.25,3.25,0,0,0-3.24-3.24h-2v.63h2a2.62,2.62,0,0,1,2.61,2.61,3.24,3.24,0,0,0,3.24,3.24h1.91Zm66.53-158.3-1.35-1.36a2.6,2.6,0,0,1,0-3.68h0a3.24,3.24,0,0,0,0-4.59L375.83,220l-.45.45,1.43,1.43a2.61,2.61,0,0,1,0,3.69,3.25,3.25,0,0,0,0,4.58l1.36,1.36ZM332.3,298.84a2.61,2.61,0,0,1,0-3.69,3.24,3.24,0,0,0,0-4.59l-.24-.24c-.1.19-.22.38-.33.57l.12.12a2.63,2.63,0,0,1,0,3.69,3.24,3.24,0,0,0,0,4.57h0l1.35,1.35.45-.44Zm-1.43,26.63a2.61,2.61,0,0,1,3.69,0,3.25,3.25,0,0,0,4.58,0l1.43-1.43-.45-.45L338.69,325a2.61,2.61,0,0,1-3.68,0,3.24,3.24,0,0,0-4.58,0h0l-1.35,1.35.45.45ZM350.78,279a2.61,2.61,0,0,1,3.69,0,3.26,3.26,0,0,0,4.59,0l1.43-1.43-.45-.45-1.43,1.43a2.63,2.63,0,0,1-3.69,0,3.24,3.24,0,0,0-4.57,0h0L349,279.89l.45.45Zm-6.06,75.2a2.68,2.68,0,0,1,3.69,0,3.24,3.24,0,0,0,4.59,0l1.42-1.42-.44-.45-1.43,1.43a2.63,2.63,0,0,1-3.69,0,3.25,3.25,0,0,0-4.58,0l-1.36,1.35.45.45Zm15.65-17.31a2.61,2.61,0,0,1,2.61-2.61,3.24,3.24,0,0,0,3.24-3.24v-1.92h-.63V331a2.61,2.61,0,0,1-2.61,2.61,3.24,3.24,0,0,0-3.24,3.24v2h.63ZM325.08,377a2.61,2.61,0,0,1,2.61-2.61,3.24,3.24,0,0,0,3.24-3.24v-1.92h-.63v1.92a2.61,2.61,0,0,1-2.61,2.61,3.24,3.24,0,0,0-3.24,3.24v2h.63Zm50.34-86.32a2.61,2.61,0,0,1,2.61-2.6,3.25,3.25,0,0,0,3.24-3.25v-1.91h-.63v1.91a2.61,2.61,0,0,1-2.61,2.61,3.25,3.25,0,0,0-3.24,3.24v2h.63Zm-18.7-42.91a3.23,3.23,0,0,0,1.22-2.14Zm-66,88.84a2.61,2.61,0,0,1-2.61-2.6.21.21,0,0,0,0-.11c-.2.16-.4.32-.59.5a3.24,3.24,0,0,0,3.21,2.84h1.91v-.63Zm-.19,29.1a2.61,2.61,0,0,1,3.69,0,3.27,3.27,0,0,0,4.58,0l1.43-1.43-.45-.45-1.43,1.43a2.63,2.63,0,0,1-3.69,0,3.24,3.24,0,0,0-4.57,0h0l-1.35,1.35.44.45Zm-17.12-17.85v1.91a2.61,2.61,0,0,1-2.61,2.61,3.25,3.25,0,0,0-3.24,3.24v1.45l.63.5v-1.95A2.62,2.62,0,0,1,270.8,353a3.24,3.24,0,0,0,3.24-3.24v-1.91Z" transform="translate(-36.46 -105.36)" fill="#fff"/><path d="M350.44,362.83c7.3-9.8,15-19.38,21.58-29.66,3.57-6.29,4.93-13.64,6.78-20.61,4.05-16.56,8.71-40.59,12.25-57.51a553.51,553.51,0,0,1-10.3,58c-1.71,6.55-3.23,13.31-6.27,19.43-6.86,11-15.6,20.64-24,30.37Z" transform="translate(-36.46 -105.36)" fill="#263238"/><path d="M388.1,271.74c1.45-3.94,3.44-7.67,4.44-11.76C392.22,264.2,390.16,268.12,388.1,271.74Z" transform="translate(-36.46 -105.36)" fill="#263238"/><path d="M283.42,345.4c21.23,15,41.31,34,45,37.06.18.14-.08.41-.25.25-3.5-3.19-28.77-22.41-45.06-37C283,345.51,283.21,345.25,283.42,345.4Z" transform="translate(-36.46 -105.36)" fill="#263238"/><path d="M318.37,308.42c2.33-2.09,5.23-3.72,6.24-6.85q2.13-4.23,4.33-8.42c8.91-16.69,18.23-33.17,28.58-49a603.54,603.54,0,0,1-32.44,57.71c-.19.27-1.45,2.23-1.64,2.48-1.59,1.47-3.38,2.76-5.07,4.1Z" transform="translate(-36.46 -105.36)" fill="#263238"/><path d="M354.22,246.31c-1.14,3.62-2.76,7.09-3.32,10.85C350.76,253.33,352.46,249.63,354.22,246.31Z" transform="translate(-36.46 -105.36)" fill="#263238"/></g><path d="M336.64,110.36a43.87,43.87,0,0,1,13.59,2.21c2.79.3,14.87-1.36,23.18,9.48,7.37,9.61,10.77,38,12.64,47.17a10.68,10.68,0,0,0,3.22,3.13l3.91,2.71a30.18,30.18,0,0,1,7.14,6.53A10.66,10.66,0,0,1,402,191.3c-1,3.31-3.82,5.63-4.72,8.18-.41,1.17,0,2.62.48,4.08s1.09,3,1.55,4.53c.94,3,1.35,6.81-.45,9.81a7.77,7.77,0,0,1-3.72,3.44,13.12,13.12,0,0,1-2.59.72A161.34,161.34,0,0,1,402,235.35v0c.2.3.39.6.64.94v.07c8.52,13.48,15.61,28.76,21.92,45.85h0c.09.26.19.53.29.8,6.17,16.82,11.6,35.4,16.9,55.72h0l.2.69,0,0q.94,3.58,1.87,7.25h0c7.48,23.41,22.49,66.45,10.19,101.24H284.59c3.83-10,7.71-20.76,11.41-31.38-4.87,6.28-10,12.39-13.32,14.93-6.28,4.75-15.56,11.91-23.7,11.91a11.84,11.84,0,0,1-4.17-.72,14.87,14.87,0,0,1-7.59-7.07s-.57.05-1.48.05c-2.76,0-8.63-.42-10.93-3.82a16.85,16.85,0,0,1-2.54-9.65,20.26,20.26,0,0,1-4,.4c-2.76,0-6.2-.62-7.69-3.4a13.77,13.77,0,0,1-.93-9.28h0c-.11.12-8.69,9.31-14.45,9.31a4,4,0,0,1-3.1-1.32c-7.65-8.43,17.1-36.51,23.64-43.08,5.42-5.46,26.78-14.77,39.1-19.86l-.84-.68s38.6-32.59,53.55-45.15c-.38-.44-.79-.95-1.22-1.52v0c-.16-.21-.33-.44-.5-.69v0a32.42,32.42,0,0,1-3.84-7.34c-8.06,9.78-15.81,17.06-22,18.89h0a10.68,10.68,0,0,1-1.08.26l-.15,0-1,.16-.2,0c-.37,0-.75.06-1.14.08h-1a32.92,32.92,0,0,1-5.19-.45h0c-25.11-3.94-72.77-32.43-72.77-32.43l3.8-6.32c-6.47-4.27-12.87-8.43-19-12.17l0,0c-5.92-3.67-31.07-22.42-37-29.21s-21.07-27.44-16.56-32.59l-30.39-55.33,2.18.14-.84-1.52.27-.1,11.48-4.44a44.92,44.92,0,0,1,4.64-.24,45.38,45.38,0,0,1,6.89.53,239.74,239.74,0,0,1,33.58,7.68l0,0,.05-.05a25.41,25.41,0,0,1,2.92-3.08,44.9,44.9,0,0,1,18.44-10c4.15-1.08,8.39-1.66,12.48-2.84A33.23,33.23,0,0,0,212,131s.3.49.81,1.36l1.55-.75,40.72,67.77-22.83,8.39.13.23c2.39,4.75,5.19,13.89,6.82,19.55l2.42,1.74L243,227s32.89,27,36.93,27H280c2.46-.21,16.75-11.29,32.7-23.34-1.31.28-2.61.6-3.91.87a27.33,27.33,0,0,1-5.41.62,13.27,13.27,0,0,1-7.07-1.82,13.45,13.45,0,0,1-4.16-5,30.15,30.15,0,0,1-2.26-5.81c-.57-2-1-4.06-1.51-6s-.7-4.06-1.95-5.67a5.89,5.89,0,0,1,1.76,2.6c.4.95.76,1.88,1.1,2.88.67,1.93,1.29,3.87,2,5.75a38.33,38.33,0,0,0,2.44,5.43,12.19,12.19,0,0,0,3.66,4.25,12.67,12.67,0,0,0,6.88,1.66,35.54,35.54,0,0,0,4.37-.32c1.9-.23,3.8-.57,5.75-.77l.34-.26h-.15c-1.43,0-3,0-4.59,0-4.39,0-9-.4-11.94-3.42-5.4-5.61-6.43-13.22-8.85-16s-7.34-2.21-10.42-8.65,2.89-10.69,3.62-16.35a8.6,8.6,0,0,0-.27-3.1,10,10,0,0,1,.21,3.14c-.14-2.9-1.44-5.4-2.82-7.9a11.57,11.57,0,0,1-1.39-4.2,9.13,9.13,0,0,1,.8-4.46,14.49,14.49,0,0,1,6.11-6.38,78.82,78.82,0,0,1,7.72-3.79c.63-.29,1.26-.58,1.85-.91a2.8,2.8,0,0,0,.75-.52,3.36,3.36,0,0,0,.29-.24c0-.54,0-1.06.05-1.59l-.06.11s-8-40.14,29.92-44.2a41.3,41.3,0,0,1,5.66-.34c.89,0,1.85,0,2.87.08q1.29-.09,2.55-.09m-124.58,21-.06,0,.4.69a4.22,4.22,0,0,1-.34-.73h0m69.67,48.79c-.71-2.48-1.47-5.24-.06-8.92,2.54-6.59,9.41-7,14-11.12,0-.25,0-.48,0-.73s0-.49,0-.73l-.11.07c-.69.36-1.34.68-2,1a79.09,79.09,0,0,0-7.64,3.56,14.14,14.14,0,0,0-5.69,5.55,7.69,7.69,0,0,0-.91,3.79,10.87,10.87,0,0,0,1,3.91c.49,1.16,1,2.37,1.39,3.62m117.69,12.78a14.24,14.24,0,0,0,1-2.12,9.58,9.58,0,0,0-1.24-8.39,30.06,30.06,0,0,0-6.52-6.61l-3.68-3a9.88,9.88,0,0,1-2.94-3.54c.12.6.24,1.12.35,1.54,1.79,6.86,10.86,7.72,13.16,15.69a9.76,9.76,0,0,1-.15,6.43m-7.63,28.25a11.6,11.6,0,0,0,2.83-.87,6.42,6.42,0,0,0,3-3c1.35-2.69,1.11-5.78.11-8.69-.1-.31-.22-.62-.33-.93.62,2.8.9,5.88-.93,9a9,9,0,0,1-5,4.06l.35.44M364.24,346.66h0m-27.6-241.3h0c-.87,0-1.73,0-2.58.08s-1.89-.07-2.84-.07a46.33,46.33,0,0,0-6.29.38c-12.13,1.32-21.34,6.15-27.37,14.36-8.87,12.07-7.91,27.74-7.17,33.53a84.64,84.64,0,0,0-7.76,3.83,19.33,19.33,0,0,0-8.19,8.57l-.06.11a14.29,14.29,0,0,0-1.24,6.91l0,.26a16.45,16.45,0,0,0,2,6,15.09,15.09,0,0,1,2.16,5.37,19.08,19.08,0,0,1-1.59,3.62c-1.78,3.43-4.48,8.62-1.46,14.93a16.86,16.86,0,0,0,8.51,8.4c.15.48.29,1.1.41,1.64s.22,1,.35,1.52c.18.71.36,1.44.53,2.18.31,1.27.63,2.58,1,3.91a35.48,35.48,0,0,0,2.61,6.71,18.4,18.4,0,0,0,5.69,6.75l.33.23a16.61,16.61,0,0,0,3.42,1.58c-7.34,5.54-14.27,10.68-17.28,12.45-5-2.79-20.69-14.84-33.67-25.49A5,5,0,0,0,243,222h-.23c-1.15-3.81-2.48-7.9-3.82-11.38l17.85-6.56a5,5,0,0,0,3-3,5.06,5.06,0,0,0-.43-4.24L218.65,129a5,5,0,0,0-4.23-2.42A4.66,4.66,0,0,0,212,126a5,5,0,0,0-3,1,28.14,28.14,0,0,1-9.85,4.76l-.13,0c-2,.59-4.18,1-6.44,1.48-1.92.4-3.91.8-5.91,1.32l-.11,0a49.91,49.91,0,0,0-20.49,11.13c-.41.37-.78.73-1.11,1.06a246.89,246.89,0,0,0-31.29-6.94,50.14,50.14,0,0,0-7.65-.59,49.54,49.54,0,0,0-5.16.27,4.7,4.7,0,0,0-1.28.31l-11.45,4.42-.24.09a5,5,0,0,0-2.45,2,5,5,0,0,0-1.53,6.52L133.1,206c-1.25,5.3,2.21,12.22,5.66,18a138,138,0,0,0,12.69,17.61c6.41,7.4,31.65,26.13,37.92,30.08l.24.16c5,3,10.16,6.35,14.89,9.44l-1.33,2.2a5,5,0,0,0-.56,3.79,5,5,0,0,0,2.28,3.08c2,1.18,48.77,29,74.54,33.08h.06a39.71,39.71,0,0,0,5.93.5c.35,0,.7,0,1.05,0h.15c.49,0,1-.06,1.44-.11l.25,0c.47-.05.92-.12,1.36-.2l.24-.05a15.43,15.43,0,0,0,1.52-.37l.1,0a21.69,21.69,0,0,0,2.82-1.09c-15.89,13.39-33.32,28.1-33.58,28.32a4.94,4.94,0,0,0-1,1.21c-20.54,8.61-33.17,15.21-37.55,19.63a170.13,170.13,0,0,0-17.73,21.55c-3.37,5-13.64,20.06-6.06,28.41a8.91,8.91,0,0,0,6.8,3c3.48,0,7.17-1.85,10.35-4.08.16.41.34.82.53,1.22l.1.2c1.18,2.2,4.24,5.86,11.57,6a21.86,21.86,0,0,0,2.82,6.91l.1.15c3.08,4.55,9,5.81,13.77,6a19.89,19.89,0,0,0,8.46,6.67l.18.07a17,17,0,0,0,5.9,1c8.74,0,17.46-6,24.26-11.07-1.13,3-2.24,6-3.32,8.82a5,5,0,0,0,4.67,6.79H454a5,5,0,0,0,4.71-3.33c12.29-34.76-1.06-76.24-9-101-.37-1.12-.72-2.21-1.05-3.26-.57-2.22-1.13-4.42-1.7-6.61a3.93,3.93,0,0,0-.15-.68l-.2-.69a2,2,0,0,0-.07-.23c-5.94-22.76-11.33-40.5-16.95-55.81-.09-.24-.18-.5-.26-.74s-.1-.26-.16-.39c-6.68-18-13.87-33.09-22-46a5.42,5.42,0,0,0-.54-.89c-.13-.17-.23-.32-.33-.47l-.12-.2-.18-.25c-1.86-2.89-3.79-5.69-5.75-8.38a12.69,12.69,0,0,0,2.93-3.58c2.19-3.73,2.5-8.47.89-13.72-.33-1.13-.7-2.16-1.06-3.16-.19-.51-.37-1-.54-1.52s-.3-.95-.35-1.17c.27-.49.78-1.19,1.24-1.83a21.18,21.18,0,0,0,3.38-6.18,15.68,15.68,0,0,0-2.43-14.22l-.07-.08a35.19,35.19,0,0,0-8.26-7.57l-3.86-2.68-.19-.12a6,6,0,0,1-1.19-1c-.3-1.59-.64-3.62-1-5.9-2.85-16.93-6.15-34.14-12.33-42.21-8.64-11.28-20.85-11.36-25.45-11.39h-.76a50.11,50.11,0,0,0-14.53-2.25Z" transform="translate(-36.46 -105.36)" fill="#fff"/><path d="M401.94,235.24l.06,0v.05l-.06-.09m0-5a5,5,0,0,0-4.16,7.77l0,.07a5,5,0,0,0,9.18-2.75v-.05a5,5,0,0,0-2.23-4.16l-.06,0a5,5,0,0,0-2.77-.84Z" transform="translate(-36.46 -105.36)" fill="#fff"/><g id="freepik--Table--inject-21"><path d="M458.68,447.9c-133.69.62-283.67.62-417.36,0C175,447.29,325,447.29,458.68,447.9Z" transform="translate(-36.46 -105.36)" fill="#263238"/></g><g id="freepik--character-1--inject-21"><path d="M138,336.61c4.64,32.49,16.06,74.08,26.82,83.18,8.68,7.34,56.13,23,58.81,23.5,6.63,1.24,23.8-44.88,17-47.38-8.52-3.15-49.92-7.93-52.08-10.56S173,360.89,157.88,335.76C147.45,318.39,135.14,316.46,138,336.61Z" transform="translate(-36.46 -105.36)" fill="#f7a9a0"/><path d="M218.5,440.25c.76.47,11.59,7.1,18.42,9.72,5.08,1.95,19.89,7.17,22.59,1.78,1.85-3.67-6.49-7.77-12.33-10.79-3.07-1.6-6.72-5.26-5.61-7.23,2-3.44,9.84.84,15,4.43,9.92,6.93,22.89,19,29.71,14.25,2.57-1.79.08-5.67-3.71-9.59,6.29,4.72,13.08,8.73,16,6.85,1.69-1.07,1.9-2.72,1.18-4.68,2,.83,3.81.86,5.19-.37,2.34-2.08,1.57-5.5-.5-9.11a2.63,2.63,0,0,0,2.07-1.13c5.15-6.58-16-28.5-23.78-31-22.8-7.49-47.72-7.56-47.72-7.56C225.24,402.33,218.48,440.23,218.5,440.25Z" transform="translate(-36.46 -105.36)" fill="#f7a9a0"/><path d="M254.51,421.71a39.59,39.59,0,0,1,15,7.27c5.57,4.39,9.1,9.28,13.66,14.28.12.13-.08.33-.2.19-2.17-2.38-11.25-11.4-13.62-13.47a37.7,37.7,0,0,0-14.88-8.18Z" transform="translate(-36.46 -105.36)" fill="#263238"/><path d="M259.68,412.2c6,2.18,12.1,4.4,17.53,7.77,5.94,3.69,10.37,9.26,14.73,14.62q3.93,4.85,7.64,9.85c.1.14-.09.33-.2.19q-6.63-8.31-13.75-16.21A49.84,49.84,0,0,0,270,416.66c-3.39-1.63-6.89-3-10.39-4.36C259.58,412.28,259.61,412.17,259.68,412.2Z" transform="translate(-36.46 -105.36)" fill="#263238"/><path d="M266.94,404.11c5.84,1.72,10.93,3.2,15.92,6.83,6.61,4.8,12.74,12.47,14.89,15.18,2.37,3,4.64,6.08,6.86,9.19.09.13-.13.29-.22.16A200.19,200.19,0,0,0,287.77,416a39.29,39.29,0,0,0-9.57-7.44,70.81,70.81,0,0,0-11.27-4.41S266.91,404.11,266.94,404.11Z" transform="translate(-36.46 -105.36)" fill="#263238"/><path d="M221.62,442.71c-9.66-2.95-49-16.31-56.78-22.92-10.76-9.1-22.18-50.69-26.82-83.18-1.79-12.54,2.3-16.53,8.16-13.57Z" transform="translate(-36.46 -105.36)" opacity="0.1" style="isolation:isolate"/><path d="M147.39,391.66l36-20.15s-14-24.89-28.37-43.65-20.1-8-18,12.38S147.39,391.66,147.39,391.66Z" transform="translate(-36.46 -105.36)" fill="#ffc727"/><path d="M177.88,366.47a332.26,332.26,0,0,0-30.09,16.9c-.15.09,0,.33.15.25a332.48,332.48,0,0,0,30.12-16.87C178.21,366.65,178.05,366.39,177.88,366.47Z" transform="translate(-36.46 -105.36)" fill="#263238"/><path d="M177,375.07l-29.62,16.59S139,360.58,137,340.24c-1.31-12.87.51-21.91,5.67-22.07Z" transform="translate(-36.46 -105.36)" opacity="0.1" style="isolation:isolate"/><path d="M46.18,448H182.34c1.71-1.28-14.06-93.53-34.11-125.38-3.75-6-21.72-15.06-35.79-4.28C70,350.93,44.58,446,46.18,448Z" transform="translate(-36.46 -105.36)" fill="#ffc727"/><path d="M108.56,322.18c-32.35,36.68-73.38,105-66.29,118.55,9,17.14,71.13,14,85.63,10.6,6.19-1.44-15.2-55-21.84-53.64-5.79,1.22-10.78,2.44-11,1.64s17.09-26.35,27.61-63.14C129.86,311.12,115.42,314.39,108.56,322.18Z" transform="translate(-36.46 -105.36)" fill="#f7a9a0"/><path d="M67.26,416.18c3.9-5.05,15.69-14.24,27.8-16.65.28,0,.47.12.23.23a134.18,134.18,0,0,0-27.95,16.51C67.29,416.32,67.22,416.23,67.26,416.18Z" transform="translate(-36.46 -105.36)" fill="#263238"/><path d="M151.55,372.26s-7.73-8.94-1.2-13.71,12.7,5.3,12.7,5.3Z" transform="translate(-36.46 -105.36)" fill="#455a64"/><path d="M211.82,430.52h0L213.54,442l.59,3.77-3.44-1.68L200.31,439h0l-49-67,11.5-8.41,49,67Z" transform="translate(-36.46 -105.36)" fill="#455a64"/><polygon points="177.08 336.6 177.67 340.37 174.22 338.69 177.08 336.6" fill="#37474f"/><rect x="149.41" y="367.01" width="16.64" height="3.3" transform="translate(-223.67 58.84) rotate(-36.18)" fill="#37474f"/><rect x="151.56" y="369.96" width="16.64" height="3.3" transform="translate(-225 60.68) rotate(-36.18)" fill="#37474f"/><polygon points="117.69 272.48 122.02 269.31 137.37 295.32 135.71 296.39 117.69 272.48" fill="#37474f"/><path d="M193.77,400.74c-.14,6.77-16.79,5-16.79,5a12.52,12.52,0,0,1,4.9,6.94c1.13,5-6.24,9-6.24,9a15.41,15.41,0,0,1,4,8.13c.6,4.91-6.27,10-6.27,10a13.53,13.53,0,0,1-1,9.38c-4.16,7.6-17.39,8.37-25.78,8.94s-32.76-5.67-37.53-6.4L105,397.84s36.94-13.28,46.91-12.55C160.27,385.91,194,390.4,193.77,400.74Z" transform="translate(-36.46 -105.36)" fill="#f7a9a0"/><path d="M176.84,405.56c-8.77-2.8-18.2-3.49-27.3-4.06a.16.16,0,1,0,0,.32h0c9.06.46,18.22,3.35,27.24,4.17a.21.21,0,0,0,.21-.23A.21.21,0,0,0,176.84,405.56Z" transform="translate(-36.46 -105.36)" fill="#263238"/><path d="M175.41,421a23.83,23.83,0,0,0-6.25-.5h-6.68c-4.45.09-8.9.28-13.34.6a.16.16,0,1,0,0,.32c4.44-.08,8.88-.1,13.32,0,2.22.05,4.44.13,6.66.21a28.06,28.06,0,0,0,6.28-.05.32.32,0,0,0,.16-.42A.29.29,0,0,0,175.41,421Z" transform="translate(-36.46 -105.36)" fill="#263238"/><path d="M173.19,439.79c-1.72-.57-3.87-.23-5.65-.16-2,.09-4,.17-6.09.22-4.06.13-8.11.25-12.17.23a.16.16,0,1,0,0,.31c4.12,0,8.25.14,12.37.14h6.08c1.72,0,3.87.16,5.5-.5a.12.12,0,0,0,0-.24Z" transform="translate(-36.46 -105.36)" fill="#263238"/><path d="M70.37,367.43l38.54,14.67s10.1-26.72,15.27-49.77-6.78-20.53-21.06-5.9S70.37,367.43,70.37,367.43Z" transform="translate(-36.46 -105.36)" fill="#ffc727"/><path d="M120.84,352.26a.08.08,0,0,0-.08-.1.07.07,0,0,0-.07,0c-.67,1.25-1.33,2.51-2,3.77.7-2.55,1.35-5.12,1.93-7.71,0-.08-.11-.13-.14-.05q-2.94,8.35-5.75,16.74c-1.86,5.6-4,11.12-5.79,16.73-1.11-.22-1.71-.4-2.54-.54-.19,0-.31.18-.13.27a12.87,12.87,0,0,0,3.16,1.2c2.44-5.37,4.42-11.4,6.32-17,.94-2.75,1.79-5.52,2.57-8.3A52.46,52.46,0,0,0,120.84,352.26Z" transform="translate(-36.46 -105.36)" fill="#263238"/><path d="M109.25,374.66A330.9,330.9,0,0,0,77,362.41c-.16-.05-.25.21-.09.28A331.13,331.13,0,0,0,109.15,375C109.33,375,109.43,374.73,109.25,374.66Z" transform="translate(-36.46 -105.36)" fill="#263238"/><rect x="145.23" y="344.89" width="152.12" height="3.74" fill="#ffc727"/><polygon points="211.15 344.89 211.15 339.32 154.76 340.41 147.35 344.89 211.15 344.89" fill="#ebebeb"/><path d="M247.61,450.25v-5.57s18.34.32,21.58,0,19.82-1.86,22.5-1.72,7.92,3.31,7.92,3.31v4Z" transform="translate(-36.46 -105.36)" fill="#dbdbdb"/><path d="M332.31,450.25,331,447.08s-8.06.17-9.22,0-12.1-3.32-14.46-2.89-7.69,2.08-7.69,2.08v4Z" transform="translate(-36.46 -105.36)" fill="#dbdbdb"/><path d="M122.17,318.9c.12,2.22,7.77,17.91,17.6,19.22,3.2.42,6.29-16.94,6.29-16.94l.52-1.23,7.28-17.23L132.51,283S122.14,318,122.17,318.9Z" transform="translate(-36.46 -105.36)" fill="#f7a9a0"/><path d="M153.86,302.73l-7.29,17.21-.51,1.24s-.57,3.14-1.45,6.72c-12.92-4.39-17.19-15.47-18.59-22.84C129,295,132.51,283,132.51,283Z" transform="translate(-36.46 -105.36)" fill="#263238"/><path d="M185.32,274.7c-2.54,40-26.77,43-35.4,42.42-7.82-.51-34.41-3.23-36-43.26s17.79-51.49,35.75-51.28S187.87,234.72,185.32,274.7Z" transform="translate(-36.46 -105.36)" fill="#f7a9a0"/><path d="M175.42,281.1c4.42.48,3.13,9.29-1,8.84S171.72,280.7,175.42,281.1Z" transform="translate(-36.46 -105.36)" fill="#263238"/><path d="M155,279c-4.4-.65-5.37,8.19-1.3,8.79S158.68,279.57,155,279Z" transform="translate(-36.46 -105.36)" fill="#263238"/><path d="M179.06,275.94a23.8,23.8,0,0,1-2.61-.93,4.47,4.47,0,0,1-2.47-1.45,1.41,1.41,0,0,1,.23-1.72,3.53,3.53,0,0,1,3.56-.36,5.21,5.21,0,0,1,3,2.26,1.52,1.52,0,0,1-1.71,2.2Z" transform="translate(-36.46 -105.36)" fill="#263238"/><path d="M151.91,273.6a25.61,25.61,0,0,0,2.76-.2,4.5,4.5,0,0,0,2.78-.75,1.44,1.44,0,0,0,.23-1.73,3.55,3.55,0,0,0-3.35-1.28,5.19,5.19,0,0,0-3.47,1.39,1.52,1.52,0,0,0,1,2.57Z" transform="translate(-36.46 -105.36)" fill="#263238"/><path d="M152.83,303.16c.52.75,1,1.74,1.94,2a7.06,7.06,0,0,0,3-.1.1.1,0,0,1,.11.09.1.1,0,0,1,0,.07,3.7,3.7,0,0,1-3.68.78,2.9,2.9,0,0,1-1.64-2.78C152.54,303.07,152.75,303.05,152.83,303.16Z" transform="translate(-36.46 -105.36)" fill="#263238"/><path d="M165.48,295s0,4.12-.27,6c0,.18-.49.2-1.15.15H164a9.15,9.15,0,0,1-8.32-4.59c-.11-.21.16-.37.32-.23a13.68,13.68,0,0,0,7.93,3.51c.21-.51-.22-7.12.07-7,1.24.39,3.39,1.25,4.19,1.57.06-2.67-.14-10.26,0-15.13,0-.3.48-.34.51,0a128.49,128.49,0,0,1,1.24,17.08C169.91,296.7,166.19,295.38,165.48,295Z" transform="translate(-36.46 -105.36)" fill="#263238"/><g opacity="0.2"><path d="M138.56,284.68a.64.64,0,0,1-1.17-.52.65.65,0,0,1,.84-.33A.65.65,0,0,1,138.56,284.68Z" transform="translate(-36.46 -105.36)"/><path d="M151.23,289.42a.64.64,0,0,1-.84.34h0a.63.63,0,0,1-.33-.84.64.64,0,0,1,1.18.48Z" transform="translate(-36.46 -105.36)"/><path d="M145,291.91a.65.65,0,0,1-.85.33.64.64,0,0,1-.34-.84h0a.65.65,0,0,1,.88-.26A.64.64,0,0,1,145,291.91Z" transform="translate(-36.46 -105.36)"/><path d="M141,279.91a.64.64,0,0,1-.84.34.65.65,0,0,1-.34-.84.64.64,0,0,1,1.18.5Z" transform="translate(-36.46 -105.36)"/><path d="M145.43,285.77a.65.65,0,0,1-1.24-.4,1.17,1.17,0,0,1,.05-.11.65.65,0,0,1,1.24.4A1.17,1.17,0,0,1,145.43,285.77Z" transform="translate(-36.46 -105.36)"/><path d="M179.67,290.3a.65.65,0,0,1-.85.34.65.65,0,1,1,.4-1.24l.11.05A.65.65,0,0,1,179.67,290.3Z" transform="translate(-36.46 -105.36)"/><path d="M173.59,291.68a.64.64,0,0,1-.84.34.65.65,0,0,1-.34-.84.64.64,0,0,1,1.18.5Z" transform="translate(-36.46 -105.36)"/><path d="M173.1,296.1a.65.65,0,0,1-1.24-.4,1.17,1.17,0,0,1,0-.11.65.65,0,0,1,.88-.26A.64.64,0,0,1,173.1,296.1Z" transform="translate(-36.46 -105.36)"/><path d="M178.3,295.11a.64.64,0,0,1-.84.34.65.65,0,0,1-.34-.84.64.64,0,0,1,1.18.5Z" transform="translate(-36.46 -105.36)"/></g><path d="M115.45,277.64c7.64,1,12.9-17.62,12.9-17.62s10.13-.94,17.68-17.11c0,0,1.71,18.43,33.34,23.08a27.14,27.14,0,0,0,2.12-16.56A115.63,115.63,0,0,1,184.72,268s14.26-23.47-5-38.37c-7.67-5.93-21-8.79-43.68-4.37,0,0-.57-13-3.3-12.06s-1.34,13.32-1.34,13.32-8-5.1-10-3.67c-1.71,1.23,6.14,5.75,6.14,5.75S113,229.22,111,245.31C109.1,260.11,111.67,277.15,115.45,277.64Z" transform="translate(-36.46 -105.36)" fill="#263238"/><path d="M130,229.1a16.46,16.46,0,0,0-19.87,9c-1.83,4.21-2,9.23-1.76,13.74a57,57,0,0,0,3.08,14.26c.09.26.48.09.39-.17a43.43,43.43,0,0,1-2-13.2c-.07-4.17.09-8.71,1.37-12.7a15.8,15.8,0,0,1,18.68-10.45C130.14,229.6,130.25,229.17,130,229.1Z" transform="translate(-36.46 -105.36)" fill="#263238"/><path d="M163.36,220.66a63.08,63.08,0,0,0-16.5,1.43,46.46,46.46,0,0,0-14.79,5.26.21.21,0,0,0,.18.39c9.28-3.68,19.67-4.87,29.61-5,9.3-.11,19.51,2.69,24.17,11.5a.13.13,0,0,0,.18,0,.16.16,0,0,0,0-.14C182.4,225.19,172.55,221.2,163.36,220.66Z" transform="translate(-36.46 -105.36)" fill="#263238"/><path d="M146,294.71a14,14,0,1,1,17.5-13.5h0a14,14,0,0,1-14,13.94A13.33,13.33,0,0,1,146,294.71Zm6.54-25.28a11.71,11.71,0,0,0-3-.39,12.14,12.14,0,1,0,3,.39Z" transform="translate(-36.46 -105.36)" fill="#455a64"/><path d="M176.67,298.6c-5.19-1.35-8.52-7.87-7.53-15.1a16.78,16.78,0,0,1,4.26-9.29,8.72,8.72,0,0,1,14.79,2,16.67,16.67,0,0,1,1.59,10.09c-1,7.65-6.52,13.23-12.21,12.45A7,7,0,0,1,176.67,298.6Zm5.14-25.6a5.42,5.42,0,0,0-.7-.14,7.45,7.45,0,0,0-6.36,2.6,14.85,14.85,0,0,0-3.75,8.25c-.91,6.62,2.13,12.53,6.82,13.17s9.2-4.23,10.11-10.85a14.82,14.82,0,0,0-1.4-9A7.68,7.68,0,0,0,181.81,273Z" transform="translate(-36.46 -105.36)" fill="#455a64"/><path d="M163,282.77l-.84-1.34c2-1.24,6.35-2.68,8.79.76l-1.29.91C167.43,280,163.13,282.66,163,282.77Z" transform="translate(-36.46 -105.36)" fill="#455a64"/><path d="M106.13,278.07l-1.29-.9c.43-.61,4.24-5.88,7.81-6,3.33-.08,24,4.76,24.88,5l-.36,1.54c-5.92-1.39-21.91-5-24.48-4.92C110.33,272.83,107.16,276.62,106.13,278.07Z" transform="translate(-36.46 -105.36)" fill="#455a64"/><path d="M121.27,278s-6.77-13.67-12.85-11.44-2.28,21.14,3.93,24.59a6.77,6.77,0,0,0,9.37-2l.15-.25Z" transform="translate(-36.46 -105.36)" fill="#f7a9a0"/><path d="M109.64,272c-.1,0-.15.12-.06.17,4.34,2.57,6.12,7.22,7.15,11.91-1.11-1.91-2.84-3.13-5.38-1.84-.13.06,0,.27.09.26a4.17,4.17,0,0,1,4.32,2.13,19.81,19.81,0,0,1,1.61,4c.16.45.94.34.85-.16v-.11C119.21,282.47,115.88,273.53,109.64,272Z" transform="translate(-36.46 -105.36)" fill="#263238"/></g><path d="M133,213.15c2.27,0,2.91,10,3,11.83a33.23,33.23,0,0,1,5.57-1.65,46.75,46.75,0,0,1,5.26-1.24,63.44,63.44,0,0,1,13.66-1.49c.94,0,1.89,0,2.84.06,9.19.54,19,4.53,22.9,13.47a.16.16,0,0,1,0,.14l-.08,0a.14.14,0,0,1-.1,0c-4.57-8.65-14.49-11.5-23.65-11.5h-.52q-3.37,0-6.8.27l.71.12h.1c11.15,0,18.76,2.56,23.85,6.5,16.39,12.68,8.5,31.57,5.79,36.91,0,2,0,4-.1,6.17l.25.18a8.77,8.77,0,0,1,2.53,3.32,16.67,16.67,0,0,1,1.59,10.09c-.87,6.69-5.21,11.8-10.08,12.45-7.64,15.79-20.89,18.43-28,18.43-.65,0-1.25,0-1.79-.06s-1.29-.09-2.07-.17l-1.1,2.59c2.34,1.48,5.1,4.18,8.27,8.32,14.37,18.76,28.37,43.65,28.37,43.65l-2.79,1.56c4.16,6.69,7,11.18,8,12.28,2.16,2.63,43.56,7.41,52.08,10.56a1.34,1.34,0,0,1,.24.12c8.72.48,25.81,2.08,41.86,7.35,7.78,2.5,28.93,24.42,23.78,31a2.61,2.61,0,0,1-2,1.11.07.07,0,0,1-.06,0h-.05c2.07,3.61,2.84,7,.5,9.11a2.48,2.48,0,0,1-.26.19c1-.26,1.95-.49,2.64-.62a3,3,0,0,1,.55,0c3.17,0,12.82,2.77,13.91,2.93.39.06,1.54.08,2.91.08,2.73,0,6.31-.08,6.31-.08l1.31,3.17h1.5V454H255.74a12.56,12.56,0,0,1-1.89.13,21.59,21.59,0,0,1-2.22-.13H181.69v-3.74h2.12l7.41-4.48,22-.43-2.57-1.25L200.31,439l-3.47-4.74c-5.84-2.15-11.84-4.47-17.12-6.7,2.13,12,3.12,20.09,2.62,20.46h-9.45c-.16.4-.33.8-.52,1.19-4.16,7.6-17.39,8.37-25.78,8.94-.37,0-.76,0-1.18,0-6.93,0-21.17-3.19-29.88-5.1-6.13.56-13.57.93-21.36.93-15.49,0-32.32-1.49-42.76-6H46.18a6.83,6.83,0,0,1,.23-2.76,13.31,13.31,0,0,1-4.14-4.51c-4.6-8.8,11.08-40.68,31.5-72l-3.4-1.29s18.47-26.37,32.75-41a63.24,63.24,0,0,1,8.62-7.53l.7-.56a23.85,23.85,0,0,1,11.14-4.74c.55-2,1.23-4.3,2-6.84A37.81,37.81,0,0,1,117,292.17a7.93,7.93,0,0,1-1,.07,6.71,6.71,0,0,1-3.67-1.09c-3.23-1.79-5.8-7.76-6.68-13.4l-.83-.58c.09-.12.31-.44.64-.86-.48-4.64.29-8.78,2.94-9.75a3.83,3.83,0,0,1,1.36-.24,4.51,4.51,0,0,1,1.26.18c-.11-.82-.21-1.66-.29-2.53a57,57,0,0,1-2.38-12.13c-.24-4.51-.07-9.53,1.76-13.74a16.45,16.45,0,0,1,15-9.72,16.17,16.17,0,0,1,2.3.16c-.89-.52-7.64-4.54-6-5.69a1.64,1.64,0,0,1,1-.25c2.87,0,9,3.92,9,3.92s-1.39-12.38,1.34-13.32a1,1,0,0,1,.28,0m-22.56,47a85.56,85.56,0,0,1,.5-14.86c1.32-10.71,8.22-14.56,12.69-15.94A15.78,15.78,0,0,0,111.21,240c-1.28,4-1.44,8.53-1.37,12.7a43,43,0,0,0,.62,7.44m70.21,36.42c3.54-1.16,6.54-5.31,7.26-10.56a14.82,14.82,0,0,0-1.4-9,7.76,7.76,0,0,0-1.25-1.84,67.09,67.09,0,0,1-4.61,21.4m81.47,148.23c1.22,0,2.38,0,3.41,0-3.1-2.29-6.16-4.67-9-6.64-3.82-2.66-9.11-5.7-12.41-5.7a2.76,2.76,0,0,0-2.59,1.27c-1.11,2,2.54,5.63,5.61,7.23,2.21,1.14,4.78,2.44,7,3.81,2.5,0,5.36.05,7.94.05M213.53,442h0l.53,3.37,12.77-.25c-1.13-.62-2.21-1.22-3.2-1.79h0c-.73-.14-4.75-1.39-10.39-3.28l.29,1.95m69.64,1.48h.22l-.22-.17a.14.14,0,0,1,0,.18m16.89,2.7,1.93-.58a7.32,7.32,0,0,1-2.24-.57,6.82,6.82,0,0,1,.31,1.15m-.45,4.11h0v-1.59l0,0v1.56M133,208.15h0a5.93,5.93,0,0,0-1.91.32c-4.22,1.45-4.93,6.35-5,9.83a12,12,0,0,0-3.69-.7,6.62,6.62,0,0,0-3.89,1.18,5.55,5.55,0,0,0-2.33,4.78,6.14,6.14,0,0,0,.31,1.66,21.38,21.38,0,0,0-10.9,10.84l0,.05c-2.41,5.54-2.39,11.78-2.16,16a.76.76,0,0,0,0,.15,61.87,61.87,0,0,0,1.77,10.35c-3.33,2.06-5,6.41-4.79,12.32a5,5,0,0,0-.45,3.1,5,5,0,0,0,1.17,2.45c1.23,5.8,4,12.26,8.68,14.95a11.61,11.61,0,0,0,3.68,1.52A42.65,42.65,0,0,0,120,308c-.13.44-.25.87-.37,1.29a28.84,28.84,0,0,0-10.2,5.05l-.51.4-.15.13a68.24,68.24,0,0,0-9.2,8c-14.4,14.75-32.5,40.53-33.27,41.62a5,5,0,0,0,.3,6.12c-9.34,14.69-17.25,28.89-22.49,40.43-9.56,21.05-8.14,28.31-6.24,31.94a16.76,16.76,0,0,0,3.27,4.28,5.56,5.56,0,0,0,1.17,3.79,5,5,0,0,0,3.9,1.88h4.23c12.27,4.95,30.48,6,43.76,6,8.87,0,16.22-.46,21-.88l.11,0c9.09,2,22.84,5,30.09,5,.53,0,1.05,0,1.52-.05l.43,0c9.08-.61,22.57-1.53,28.52-10.09h.81v1a5,5,0,0,0,5,5h69.69c.86.08,1.69.13,2.47.13a19.64,19.64,0,0,0,2.22-.13h77.74a5,5,0,0,0,5-5v-3.74a5,5,0,0,0-3-4.58l-.21-.5a5,5,0,0,0-4.62-3.09h-.11s-3.56.08-6.2.08c-1.38,0-2,0-2.2,0s-1.25-.3-2-.5c-3.39-.87-6.64-1.67-9.23-2.11a15.54,15.54,0,0,0-.57-2.34c1.28-1.8,2.39-4.83,1-9.44-3.21-10.45-19.31-26.51-27.39-29.11-16-5.27-33-7-42.27-7.53-4.64-1.6-15.36-3.36-26.69-5.22-8.56-1.4-20.06-3.28-23.4-4.39-.62-.9-1.89-2.83-4.51-7a4.66,4.66,0,0,0,.81-1.64,5,5,0,0,0-.45-3.8c-.58-1-14.34-25.42-28.76-44.24-.82-1.07-1.63-2.07-2.41-3,7.57-1,19-5,26.53-18.8,6-2.12,10.59-8.32,11.62-16a21.48,21.48,0,0,0-2-12.93,13.53,13.53,0,0,0-2.22-3.46c0-1,0-2,0-2.95,4.62-9.71,6.37-22,.63-32.4a5.28,5.28,0,0,0,0-2.37,5.12,5.12,0,0,0-.26-.75c-4.13-9.56-14.29-15.72-27.2-16.48h-.06c-1,0-2.06-.07-3.07-.07a68.56,68.56,0,0,0-14.63,1.58,52.73,52.73,0,0,0-5.44,1.28c-.86-5.85-2.76-10.31-7.43-10.31Zm54.07,234.27c0-.29-.07-.6-.11-.91-.22-1.74-.51-3.76-.85-6,2.38.93,4.91,1.89,7.57,2.88l1.67,2.28-4.25.08a5.1,5.1,0,0,0-2.49.72l-1.54.93Z" transform="translate(-36.46 -105.36)" fill="#fff"/><g id="freepik--Books--inject-21"><rect x="319.06" y="329.84" width="107.34" height="12.7" fill="#c7c7c7"/><rect x="340.11" y="329.84" width="4.38" height="12.7" fill="#dbdbdb"/><rect x="403.28" y="329.84" width="10.49" height="12.7" fill="#dbdbdb"/><path d="M401.21,438.57l-2.56,3.34a.27.27,0,0,1-.23.12h0a.24.24,0,0,1-.24-.12l-2.57-3.33v6.17a.27.27,0,0,1-.27.26.28.28,0,0,1-.29-.26V437.8a.26.26,0,0,1,.12-.21h0a.32.32,0,0,1,.39.07l2.85,3.7,2.84-3.7a.29.29,0,0,1,.39-.07l.08.09a.33.33,0,0,1,0,.14v6.95a.28.28,0,0,1-.33.22.28.28,0,0,1-.22-.22Z" transform="translate(-36.46 -105.36)" fill="#fff"/><path d="M408.33,443.07h-3.65l-.71,1.77a.29.29,0,0,1-.26.17h-.11a.25.25,0,0,1-.16-.33h0l2.78-7a.32.32,0,0,1,.28-.16.25.25,0,0,1,.27.16l2.79,7a.27.27,0,0,1-.15.34h-.11a.3.3,0,0,1-.26-.17Zm-3.45-.53h3.24l-1.61-4Z" transform="translate(-36.46 -105.36)" fill="#fff"/><path d="M412.27,438h-2.42a.27.27,0,0,1-.27-.27.26.26,0,0,1,.27-.25h5.38a.26.26,0,0,1,.28.25.28.28,0,0,1-.28.27h-2.41v6.73a.28.28,0,0,1-.28.26.27.27,0,0,1-.27-.26Z" transform="translate(-36.46 -105.36)" fill="#fff"/><path d="M422.29,441.51h-4.12v3.24a.28.28,0,0,1-.29.26.27.27,0,0,1-.27-.26v-7a.28.28,0,0,1,.56,0h0V441h4.12v-3.25a.26.26,0,0,1,.28-.25.27.27,0,0,1,.28.24h0v7a.27.27,0,0,1-.28.26h0a.28.28,0,0,1-.28-.26Z" transform="translate(-36.46 -105.36)" fill="#fff"/><rect x="316.36" y="278.28" width="107.34" height="16.37" fill="#ffc727"/><path d="M404.75,394.37a.24.24,0,0,1,.34,0h0a4.62,4.62,0,0,0,2.64,1,3.12,3.12,0,0,0,1.76-.49,1.35,1.35,0,0,0,.69-1.12,1.18,1.18,0,0,0-.65-1,5.58,5.58,0,0,0-1.86-.61h0a5.28,5.28,0,0,1-1.89-.63,1.56,1.56,0,0,1-.83-1.31,1.74,1.74,0,0,1,.84-1.41,3.47,3.47,0,0,1,1.93-.55,4.73,4.73,0,0,1,2.48.87.24.24,0,0,1,.08.33h0a.25.25,0,0,1-.35.06,4.08,4.08,0,0,0-2.2-.79,3,3,0,0,0-1.63.45,1.29,1.29,0,0,0-.63,1,1.08,1.08,0,0,0,.59.91,4.78,4.78,0,0,0,1.72.57h0a5.73,5.73,0,0,1,2,.69,1.65,1.65,0,0,1,.88,1.41,1.88,1.88,0,0,1-.9,1.51,3.74,3.74,0,0,1-2.06.59,5.19,5.19,0,0,1-3-1.09.25.25,0,0,1,0-.34A.24.24,0,0,1,404.75,394.37Z" transform="translate(-36.46 -105.36)" fill="#fff"/><path d="M416.56,388.15a4.46,4.46,0,0,1,2.59.83.27.27,0,0,1,0,.37h0a.27.27,0,0,1-.38.05h0a3.85,3.85,0,0,0-2.25-.73,3.3,3.3,0,1,0,0,6.57,3.57,3.57,0,0,0,2.22-.73.28.28,0,0,1,.39.06h0a.24.24,0,0,1,0,.34l0,0a4.36,4.36,0,0,1-2.59.82,3.83,3.83,0,0,1-.68-7.63,3.86,3.86,0,0,1,.68,0Z" transform="translate(-36.46 -105.36)" fill="#fff"/><path d="M421.65,388.52a.28.28,0,0,1,.28-.26.27.27,0,0,1,.28.26h0v7a.27.27,0,0,1-.28.26h0a.28.28,0,0,1-.28-.26Z" transform="translate(-36.46 -105.36)" fill="#fff"/><path d="M425.06,388.52a.28.28,0,0,1,.28-.26h4.12a.27.27,0,1,1,.1.53h-3.94v3H429a.27.27,0,1,1,.1.53h-3.46v3h3.84a.27.27,0,1,1,.1.53h-4.25a.26.26,0,0,1-.25-.26Z" transform="translate(-36.46 -105.36)" fill="#fff"/><path d="M432.43,389.37v6.15a.28.28,0,0,1-.33.22.28.28,0,0,1-.22-.22v-6.89a.27.27,0,0,1,.1-.29.28.28,0,0,1,.39.06l4.86,6.31v-6.12a.26.26,0,0,1,.27-.25h0a.27.27,0,0,1,.29.25h0v6.93a.28.28,0,0,1-.29.26.28.28,0,0,1-.21-.1h-.05Z" transform="translate(-36.46 -105.36)" fill="#fff"/><path d="M444.48,388.15a4.46,4.46,0,0,1,2.59.83.25.25,0,0,1,.06.36v0a.28.28,0,0,1-.39.05,3.85,3.85,0,0,0-2.25-.73,3.3,3.3,0,1,0,0,6.57,3.57,3.57,0,0,0,2.22-.73.28.28,0,0,1,.39.06h0a.24.24,0,0,1,0,.32l0,0a4.36,4.36,0,0,1-2.59.82,3.83,3.83,0,0,1-.68-7.63,3.86,3.86,0,0,1,.68,0Z" transform="translate(-36.46 -105.36)" fill="#fff"/><path d="M449.49,388.52a.28.28,0,0,1,.28-.26h4.12a.27.27,0,1,1,.1.53h-3.94v3h3.36a.27.27,0,1,1,.1.53h-3.46v3h3.84a.27.27,0,1,1,.1.53h-4.25a.26.26,0,0,1-.25-.26Z" transform="translate(-36.46 -105.36)" fill="#fff"/><rect x="325.4" y="278.28" width="26.98" height="16.37" fill="#455a64"/><rect x="330.47" y="280.56" width="16.83" height="2.88" fill="#ffc727"/><rect x="330.47" y="285.02" width="16.83" height="2.88" fill="#ffc727"/><rect x="330.47" y="289.48" width="16.83" height="2.88" fill="#ffc727"/><rect x="309.73" y="294.64" width="55.39" height="14.82" fill="#a6a6a6"/><rect x="365.12" y="294.64" width="51.2" height="14.82" fill="#a6a6a6"/><rect x="309.73" y="296.18" width="55.39" height="11.74" fill="#fff"/><path d="M351,404q8.7-.12,17.41-.17l7.87-.05,17.41.05c5.81,0,2.07.09,7.88.17-5.81.08-2.07.14-7.88.17l-17.41.05-7.87-.05Z" transform="translate(-36.46 -105.36)" fill="#dbdbdb"/><path d="M351,406.26q8.7-.12,17.41-.17h25.28c5.81,0,2.07.09,7.88.17-5.81.08-2.07.14-7.88.17l-17.41.06-7.87-.06Q359.73,406.39,351,406.26Z" transform="translate(-36.46 -105.36)" fill="#dbdbdb"/><path d="M351,408.57q8.7-.13,17.41-.18l7.87-.05,17.41.05c5.81,0,2.07.09,7.88.18-5.81.08-2.07.14-7.88.17l-17.41.05-7.87-.05Q359.73,408.69,351,408.57Z" transform="translate(-36.46 -105.36)" fill="#dbdbdb"/><path d="M351,410.87q8.7-.12,17.41-.17l7.87-.05,17.41.05c5.81,0,2.07.09,7.88.17-5.81.08-2.07.14-7.88.17H368.41Q359.73,411,351,410.87Z" transform="translate(-36.46 -105.36)" fill="#dbdbdb"/><rect x="376.46" y="294.64" width="7.21" height="14.82" fill="#455a64"/><rect x="408.82" y="294.64" width="4.84" height="14.82" fill="#455a64"/><rect x="351.78" y="309.46" width="62.38" height="20.37" fill="#ffc727"/><rect x="304.41" y="309.46" width="47.36" height="20.37" fill="#ffc727"/><rect x="351.78" y="311.57" width="62.38" height="16.14" fill="#fff"/><path d="M446.58,429.75q-7.31.13-14.59.18l-14.58.05-14.59-.05q-7.29,0-14.59-.18,7.31-.12,14.59-.17l14.59-.05,14.58.05Q439.28,429.63,446.58,429.75Z" transform="translate(-36.46 -105.36)" fill="#dbdbdb"/><path d="M446.58,426.59q-7.31.12-14.59.17l-14.58.05-14.59-.05q-7.29,0-14.59-.17,7.31-.12,14.59-.17l14.59-.06,14.58.06Q439.28,426.47,446.58,426.59Z" transform="translate(-36.46 -105.36)" fill="#dbdbdb"/><path d="M446.58,423.42q-7.31.12-14.59.17l-14.58.06-14.59-.06q-7.29,0-14.59-.17,7.31-.12,14.59-.17l14.59-.05,14.58.05Q439.28,423.29,446.58,423.42Z" transform="translate(-36.46 -105.36)" fill="#dbdbdb"/><path d="M446.58,420.26q-7.31.12-14.59.17l-14.58.05-14.59-.05q-7.29,0-14.59-.17,7.31-.13,14.59-.18l14.59-.05,14.58.06Q439.28,420.14,446.58,420.26Z" transform="translate(-36.46 -105.36)" fill="#dbdbdb"/><rect x="311.95" y="309.46" width="8.87" height="20.37" fill="#455a64"/></g><path d="M462.86,435.2v12.7H355.52V435.2H462.86m0-5H355.52a5,5,0,0,0-5,5v12.7a5,5,0,0,0,5,5H462.86a5,5,0,0,0,5-5V435.2a5,5,0,0,0-5-5Z" transform="translate(-36.46 -105.36)" fill="#fff"/><polyline points="351.78 311.57 351.78 314.9 351.77 314.9 351.78 314.9 351.78 318.06 351.77 318.06 351.78 318.06 351.78 321.23 351.77 321.23 351.78 321.23 351.78 324.39 351.77 324.39 351.78 324.39 351.78 323.71 351.78 325.83 414.16 325.83 414.16 323.71 414.16 311.57 414.16 309.46 416.32 309.46 416.32 294.65 423.7 294.65 423.7 278.28 352.38 278.28 325.4 278.28 316.36 278.28 316.36 294.64 309.73 294.64 309.73 296.18 309.73 307.92 309.73 309.46 304.41 309.46 304.41 329.83 311.95 329.83 317.82 329.83" fill="none" stroke="#fff" stroke-linejoin="round" stroke-width="5"/><path d="M388.23,435.19" transform="translate(-36.46 -105.36)" fill="none" stroke="#fff" stroke-linejoin="round" stroke-width="5"/></svg>