<svg id="Layer_1" data-name="Layer 1" xmlns="http://www.w3.org/2000/svg" viewBox="0 0 413.18 363.71"><g id="freepik--Plant--inject-43"><path d="M418.22,435.77c-5.56-3.22-8.53-10.71-8.76-16.85s2.34-12.53,7.37-16.05a16.86,16.86,0,0,1,18.29-.15,19.06,19.06,0,0,1,8.39,16.53,21.92,21.92,0,0,1-9,16.46" transform="translate(-43.41 -96.58)" fill="#92e3a9"/><path d="M427.09,436.37A7.82,7.82,0,0,1,427,435c0-1-.06-2.28-.1-3.82-.09-3.23-.21-7.69-.43-12.62s-.48-9.38-.68-12.6c-.1-1.54-.17-2.82-.23-3.82a6.65,6.65,0,0,1,0-1.41,8.21,8.21,0,0,1,.22,1.39c.11.9.25,2.2.39,3.81.3,3.22.62,7.68.84,12.61s.29,9.4.27,12.63c0,1.62,0,2.93,0,3.83A7.86,7.86,0,0,1,427.09,436.37Z" transform="translate(-43.41 -96.58)" fill="#263238"/><path d="M411.11,417.53c0,.15-.9.19-2,.1s-1.95-.27-1.94-.42.9-.19,2-.1S411.12,417.39,411.11,417.53Z" transform="translate(-43.41 -96.58)" fill="#263238"/><path d="M411.41,412c-.06.13-.82-.08-1.7-.47s-1.56-.82-1.5-.95.82.08,1.71.47S411.47,411.9,411.41,412Z" transform="translate(-43.41 -96.58)" fill="#263238"/><path d="M414.24,407.94c-.07.12-.93-.28-1.82-1s-1.46-1.51-1.35-1.61.81.49,1.68,1.21S414.32,407.82,414.24,407.94Z" transform="translate(-43.41 -96.58)" fill="#263238"/><path d="M417.09,404.09c-.13.06-.54-.59-.92-1.44s-.57-1.59-.44-1.65.54.59.92,1.44S417.22,404,417.09,404.09Z" transform="translate(-43.41 -96.58)" fill="#263238"/><path d="M421.56,401.35c-.13.06-.57-.62-.86-1.57s-.32-1.77-.19-1.79.4.72.68,1.63S421.69,401.29,421.56,401.35Z" transform="translate(-43.41 -96.58)" fill="#263238"/><path d="M429,398.27c.13.05.05.63-.19,1.31s-.54,1.18-.67,1.13-.06-.63.18-1.31S428.88,398.22,429,398.27Z" transform="translate(-43.41 -96.58)" fill="#263238"/><path d="M434.55,400.64c.1.11-.26.6-.79,1.09s-1.05.81-1.15.71.26-.59.79-1.09S434.45,400.54,434.55,400.64Z" transform="translate(-43.41 -96.58)" fill="#263238"/><path d="M439.42,403.79c.08.12-.35.55-1,1s-1.18.65-1.26.54.36-.56,1-1S439.34,403.67,439.42,403.79Z" transform="translate(-43.41 -96.58)" fill="#263238"/><path d="M442.88,408.48c.05.13-.63.55-1.53.93s-1.67.59-1.72.45.62-.55,1.52-.93S442.82,408.35,442.88,408.48Z" transform="translate(-43.41 -96.58)" fill="#263238"/><path d="M444.24,413.59c0,.14-.68.35-1.55.45s-1.6.08-1.62-.06.68-.34,1.55-.45S444.22,413.45,444.24,413.59Z" transform="translate(-43.41 -96.58)" fill="#263238"/><path d="M445,419.88c-.06.14-.8-.06-1.66-.43s-1.5-.78-1.44-.91.8.06,1.65.43A3.45,3.45,0,0,1,445,419.88Z" transform="translate(-43.41 -96.58)" fill="#263238"/><path d="M444.32,425.29c0,.13-1-.1-2-.74s-1.55-1.4-1.45-1.5.81.47,1.74,1.07S444.37,425.15,444.32,425.29Z" transform="translate(-43.41 -96.58)" fill="#263238"/><path d="M441.51,430.2c-.09.11-.83-.32-1.54-1.09s-1.1-1.55-1-1.62.67.53,1.36,1.26S441.6,430.09,441.51,430.2Z" transform="translate(-43.41 -96.58)" fill="#263238"/><path d="M414.81,430.78c.06.13-.72.67-1.75,1.2s-1.92.87-2,.74.71-.66,1.74-1.2S414.74,430.65,414.81,430.78Z" transform="translate(-43.41 -96.58)" fill="#263238"/><path d="M412.37,426.33c.06.13-.57.55-1.4.92s-1.56.58-1.61.45.56-.54,1.39-.92S412.31,426.2,412.37,426.33Z" transform="translate(-43.41 -96.58)" fill="#263238"/><path d="M410.58,422.39c0,.15-.76.37-1.73.51s-1.77.13-1.79,0,.75-.37,1.72-.5S410.55,422.25,410.58,422.39Z" transform="translate(-43.41 -96.58)" fill="#263238"/><path d="M416.46,420.22c0,.14-.71.49-1.72.6s-1.81-.06-1.8-.2.8-.21,1.75-.32S416.41,420.08,416.46,420.22Z" transform="translate(-43.41 -96.58)" fill="#263238"/><path d="M421.34,415.36c0,.14-.55.44-1.36.52s-1.46-.1-1.44-.24.64-.21,1.39-.28S421.3,415.22,421.34,415.36Z" transform="translate(-43.41 -96.58)" fill="#263238"/><path d="M422.28,411.47c0,.13-.7,0-1.45-.23s-1.33-.58-1.28-.71.7,0,1.45.22S422.32,411.33,422.28,411.47Z" transform="translate(-43.41 -96.58)" fill="#263238"/><path d="M424.07,407.53c-.1.1-.55-.19-.87-.75s-.35-1.08-.21-1.12.38.37.66.86S424.17,407.43,424.07,407.53Z" transform="translate(-43.41 -96.58)" fill="#263238"/><path d="M421.91,423.65c0,.14-.53.4-1.26.58a5.62,5.62,0,0,1-1,.15l-.1-.3h.33s-.05.15-.2.26l-.11-.3a4.94,4.94,0,0,1,1-.35C421.26,423.54,421.87,423.51,421.91,423.65Z" transform="translate(-43.41 -96.58)" fill="#263238"/><path d="M422.91,430.56c.06.13-.66.54-1.59.9s-1.74.56-1.79.43.66-.54,1.6-.91S422.86,430.42,422.91,430.56Z" transform="translate(-43.41 -96.58)" fill="#263238"/><path d="M417.39,427.49c.05.14-.43.42-1.06.64s-1.19.28-1.23.14.43-.42,1.06-.64S417.35,427.35,417.39,427.49Z" transform="translate(-43.41 -96.58)" fill="#263238"/><path d="M417.82,413.44c0,.13-.87.05-1.83-.29s-1.65-.8-1.59-.93.83.11,1.77.44S417.85,413.29,417.82,413.44Z" transform="translate(-43.41 -96.58)" fill="#263238"/><path d="M431.17,411.91c.08.12-.39.57-1,1s-1.26.69-1.33.57.38-.57,1-1S431.09,411.79,431.17,411.91Z" transform="translate(-43.41 -96.58)" fill="#263238"/><path d="M431.9,418.84c0,.14-.46.36-1.1.5s-1.17.12-1.2,0,.46-.36,1.09-.49S431.87,418.7,431.9,418.84Z" transform="translate(-43.41 -96.58)" fill="#263238"/><path d="M432.74,426.64c-.06.13-.77-.07-1.58-.45s-1.42-.79-1.36-.92.77.07,1.58.45S432.8,426.51,432.74,426.64Z" transform="translate(-43.41 -96.58)" fill="#263238"/><path d="M431,434.23c-.12.09-.58-.29-1-.84s-.74-1.08-.62-1.17.57.28,1,.84S431.07,434.14,431,434.23Z" transform="translate(-43.41 -96.58)" fill="#263238"/><path d="M430.59,406.8c.09.11-.21.5-.74.76s-1,.27-1,.14.34-.37.81-.61S430.5,406.69,430.59,406.8Z" transform="translate(-43.41 -96.58)" fill="#263238"/><path d="M437.14,413.8c0,.13-.56.46-1.39.58s-1.5,0-1.49-.18.65-.23,1.42-.34S437.09,413.66,437.14,413.8Z" transform="translate(-43.41 -96.58)" fill="#263238"/><path d="M435.83,407.52c.06.12-.54.55-1.39.83s-1.59.27-1.62.13.65-.37,1.46-.63S435.77,407.39,435.83,407.52Z" transform="translate(-43.41 -96.58)" fill="#263238"/><path d="M438.56,423.52a6.31,6.31,0,0,1-4.39-.8,7.25,7.25,0,0,1,2.22.29A6.74,6.74,0,0,1,438.56,423.52Z" transform="translate(-43.41 -96.58)" fill="#263238"/><path d="M436.13,432.64c-.08.11-.84-.34-1.6-1.1s-1.2-1.52-1.08-1.6.72.5,1.45,1.23S436.22,432.52,436.13,432.64Z" transform="translate(-43.41 -96.58)" fill="#263238"/><path d="M425.44,400.1a23.44,23.44,0,0,0-4.57,3.61,22.25,22.25,0,0,0-5.68,12.57,27.61,27.61,0,0,0,.34,7.7,59.54,59.54,0,0,0,1.44,6.18c.5,1.74,1,3.13,1.27,4.1a11.34,11.34,0,0,1,.44,1.51,9.24,9.24,0,0,1-.63-1.44c-.37-.95-.88-2.33-1.43-4.07a50.66,50.66,0,0,1-1.56-6.2,27.49,27.49,0,0,1-.39-7.84,21.94,21.94,0,0,1,5.94-12.77,16.24,16.24,0,0,1,3.4-2.66,10.4,10.4,0,0,1,1.05-.54C425.3,400.13,425.43,400.08,425.44,400.1Z" transform="translate(-43.41 -96.58)" fill="#263238"/><path d="M432.54,436.11a56.88,56.88,0,0,0,2.34-5.59,31.61,31.61,0,0,0,1.4-14.38,27,27,0,0,0-2.22-7.67,17.94,17.94,0,0,0-3.78-5.27,13.88,13.88,0,0,0-3.7-2.34c-1-.4-1.54-.5-1.54-.54a1,1,0,0,1,.43,0,6.86,6.86,0,0,1,1.18.32,13,13,0,0,1,3.87,2.25,17.62,17.62,0,0,1,4,5.34,27,27,0,0,1,2.31,7.8,30.76,30.76,0,0,1-1.57,14.58,20,20,0,0,1-1,2.36c-.33.69-.61,1.26-.86,1.72A9.76,9.76,0,0,1,432.54,436.11Z" transform="translate(-43.41 -96.58)" fill="#263238"/><polygon points="368.96 338.3 397.66 338.3 397.84 344.04 368.96 344.04 368.96 338.3" fill="#263238"/><polygon points="371.4 341.17 373.05 358.71 394.03 358.71 395.72 341.36 371.4 341.17" fill="#263238"/><path d="M441.25,440.69c0,.15-6.46.26-14.44.26s-14.43-.11-14.43-.26,6.46-.26,14.43-.26S441.25,440.55,441.25,440.69Z" transform="translate(-43.41 -96.58)" fill="#455a64"/><path d="M438.33,446a4.08,4.08,0,0,1-.61,1.1,15.6,15.6,0,0,1-2.23,2.63l-.13.13-.13-.14a41.25,41.25,0,0,0-5.63-4.93h.32L427.43,447l-2.95,2.57-.16.14-.17-.14-4.79-4h.28l-2.48,3a6.68,6.68,0,0,1-1,1.06,6.43,6.43,0,0,1,.8-1.2l2.34-3.13.12-.16.16.13,4.86,3.94h-.32l2.93-2.58,2.51-2.18.15-.14.16.12a36.07,36.07,0,0,1,5.6,5.09h-.26A29,29,0,0,0,438.33,446Z" transform="translate(-43.41 -96.58)" fill="#455a64"/></g><path d="M420.52,398a4.41,4.41,0,0,1,.67,1.63c.13.43.25.82.32,1.12a16.54,16.54,0,0,1,3.82-.61l.1,0h0l0,0h.72a16.32,16.32,0,0,1,2,.12,5.18,5.18,0,0,1,.22-.83c.23-.65.53-1.13.66-1.13h0c.13.05.05.63-.19,1.31a6.11,6.11,0,0,1-.3.7,16.93,16.93,0,0,1,4.61,1.36l.28-.29a2.64,2.64,0,0,1,1.09-.73l.06,0c.1.11-.26.6-.79,1.09l-.17.14c.52.26,1,.54,1.53.85a18.94,18.94,0,0,1,2.5,2,5.08,5.08,0,0,1,.54-.42,3,3,0,0,1,1.17-.57q.07,0,.09,0c.08.12-.35.55-1,1a4,4,0,0,1-.45.28,19.37,19.37,0,0,1,3,3.94l.18-.08a5.76,5.76,0,0,1,1.61-.49c.06,0,.11,0,.12,0s-.63.55-1.53.93l-.13,0a18.93,18.93,0,0,1,1.62,4.05,7.24,7.24,0,0,1,.75-.05c.38,0,.64.05.65.13s-.54.3-1.27.41a19,19,0,0,1,.54,4.95l0,0a3.45,3.45,0,0,1,1.45.91s-.06,0-.13,0a4.92,4.92,0,0,1-1.38-.41,21.8,21.8,0,0,1-.83,4.64c.91.58,1.71,1,1.66,1.14s0,0-.09,0a4.48,4.48,0,0,1-1.73-.67,22,22,0,0,1-1.94,4.35c.58.61,1,1.1.95,1.2l-.05,0a2.91,2.91,0,0,1-1.16-.78,21.67,21.67,0,0,1-4.72,5.44h5.49l.18,5.74h-.56a1.86,1.86,0,0,1,.56.07,13.19,13.19,0,0,1-2.4.15l-1.41,14.45h-21l-1.36-14.45a17.06,17.06,0,0,1-2.72-.15,1.61,1.61,0,0,1,.51-.07h-.52v-5.74h4.53a15.88,15.88,0,0,1-3.17-3.27c-.2.12-.43.25-.67.37a7.12,7.12,0,0,1-1.92.77s-.07,0-.08,0,.71-.66,1.74-1.2l.65-.32a21.6,21.6,0,0,1-2.19-4.08l-.29.13a5.1,5.1,0,0,1-1.5.49c-.06,0-.1,0-.11,0s.56-.54,1.39-.92l.32-.14a26.06,26.06,0,0,1-1.15-3.95,9.23,9.23,0,0,1-1.07.21,8.86,8.86,0,0,1-1.23.1c-.34,0-.55,0-.56-.1s.75-.37,1.72-.5c.4,0,.77-.09,1.07-.1a22.47,22.47,0,0,1-.39-3.38c0-.42,0-.84,0-1.27l-.34,0c-1.1-.09-1.95-.27-1.94-.42s.38-.15.94-.15c.3,0,.67,0,1.06.05l.31,0a20.54,20.54,0,0,1,1-5.32c-.23-.08-.48-.17-.74-.29-.88-.39-1.56-.82-1.5-.95s.05,0,.12,0a5.7,5.7,0,0,1,1.59.51c.25.11.48.22.68.33a18.93,18.93,0,0,1,2.09-4.23l-.27-.21c-.89-.72-1.46-1.51-1.35-1.61h0a7.17,7.17,0,0,1,1.65,1.22l.23.19a16.09,16.09,0,0,1,3.44-3.55c-.08-.17-.17-.34-.25-.53-.38-.85-.57-1.59-.44-1.65h0c.15,0,.54.63.9,1.44.07.15.13.29.18.43h0a16.75,16.75,0,0,1,4.31-2,5.88,5.88,0,0,1-.44-1.07c-.29-.95-.32-1.77-.19-1.79h0m0-5h0a4.87,4.87,0,0,0-.76.06,5.06,5.06,0,0,0-3.52,2.31,5.24,5.24,0,0,0-.35.64h-.14a5.15,5.15,0,0,0-2.12.46,4.94,4.94,0,0,0-2.88,3.87,5,5,0,0,0-4.69,5.19,4.38,4.38,0,0,0,0,.51,5,5,0,0,0-2.43,2.45,5.14,5.14,0,0,0-.14,3.91,5.06,5.06,0,0,0,.47.93,5,5,0,0,0-1,6.64,5.08,5.08,0,0,0-.88,3.7,5.19,5.19,0,0,0,2.26,3.47,5.19,5.19,0,0,0,.31,2.36,5.07,5.07,0,0,0,1.49,2.08,5.09,5.09,0,0,0,.62,3.77,5.38,5.38,0,0,0,.57.76v4.52a5,5,0,0,0,.31,1.75,4.77,4.77,0,0,0,2.82,2.92l1,10.47a5,5,0,0,0,5,4.53h21a5,5,0,0,0,5-4.52l1-10.6a5,5,0,0,0,2.8-4.48v-.23l-.18-5.74a5,5,0,0,0-.39-1.77,5,5,0,0,0,.83-3.16A5.06,5.06,0,0,0,449,427h0l.06-.18a5,5,0,0,0,.23-1.5h0a5,5,0,0,0-.49-2.19,4.81,4.81,0,0,0,.76-1.25,4.93,4.93,0,0,0,.41-2,5,5,0,0,0-1.52-3.62,5.13,5.13,0,0,0,.76-2.67,5.36,5.36,0,0,0-.05-.7A5.47,5.47,0,0,0,447.7,410a5,5,0,0,0-.15-3.27,2.88,2.88,0,0,0-.13-.31,5,5,0,0,0-3-2.68,5.44,5.44,0,0,0-.84-2.68,5.07,5.07,0,0,0-4.25-2.26h-.16a5.15,5.15,0,0,0-.92-1.48l-.16-.18a5.09,5.09,0,0,0-3.6-1.48h0a5,5,0,0,0-1.15.13,5.44,5.44,0,0,0-2.42-2.1h0l-.11,0h0a5.1,5.1,0,0,0-5.73,1.51l-.42.05h0a4.76,4.76,0,0,0-4.11-2.17Z" transform="translate(-43.41 -96.58)" fill="#fff"/><g id="freepik--Books--inject-43"><polygon points="107.68 332.82 107.24 293.79 128.48 293.79 129.22 332.82 107.68 332.82" fill="#f5f5f5"/><path d="M170.64,397.31c0,.24-4.42.42-9.87.42s-9.88-.18-9.88-.42,4.42-.42,9.88-.42S170.64,397.08,170.64,397.31Z" transform="translate(-43.41 -96.58)" fill="#e0e0e0"/><path d="M170.64,403.34c0,.23-4.42.42-9.87.42s-9.88-.19-9.88-.42,4.42-.43,9.88-.43S170.64,403.1,170.64,403.34Z" transform="translate(-43.41 -96.58)" fill="#e0e0e0"/><path d="M170.64,409.36c0,.23-4.42.42-9.87.42s-9.88-.19-9.88-.42,4.42-.42,9.88-.42S170.64,409.13,170.64,409.36Z" transform="translate(-43.41 -96.58)" fill="#e0e0e0"/><path d="M170.64,415.39c0,.23-4.42.42-9.87.42s-9.88-.19-9.88-.42,4.42-.43,9.88-.43S170.64,415.15,170.64,415.39Z" transform="translate(-43.41 -96.58)" fill="#e0e0e0"/><path d="M170.64,421.41c0,.23-4.42.42-9.87.42s-9.88-.19-9.88-.42,4.42-.42,9.88-.42S170.64,421.18,170.64,421.41Z" transform="translate(-43.41 -96.58)" fill="#e0e0e0"/><path d="M148.81,389.08H384.29c2.91,12.92,2.5,27.14,0,42.19H149.81V428.4h14.33a6.77,6.77,0,0,0,6.76-6.77V398.28a6.76,6.76,0,0,0-6.76-6.76H148.81Z" transform="translate(-43.41 -96.58)" fill="#92e3a9"/><path d="M205.19,410.45h3.93a.88.88,0,0,1,.42.11.81.81,0,0,1,.42.74,1,1,0,0,1,0,.25c-.08.33-.16.67-.26,1a11.17,11.17,0,0,1-2.46,4.44,4.64,4.64,0,0,1-3.35,1.74,3.46,3.46,0,0,1-3.15-2,8.89,8.89,0,0,1-1.17-4.73,12.8,12.8,0,0,1,.46-3.37,11.23,11.23,0,0,1,2.34-4.55,4.72,4.72,0,0,1,3.54-1.88,3.52,3.52,0,0,1,1.49.33,4.86,4.86,0,0,1,2.29,2.87.86.86,0,0,1,.09.39.92.92,0,0,1-.11.43.8.8,0,0,1-.73.42h-.27a.86.86,0,0,1-.54-.53V406a4.06,4.06,0,0,0-.47-.93,2.25,2.25,0,0,0-1.88-1.12,2.14,2.14,0,0,0-1.3.48,6.88,6.88,0,0,0-2.15,3.08,11.46,11.46,0,0,0-.93,4.43,8,8,0,0,0,.68,3.48,2.27,2.27,0,0,0,2,1.54,2.82,2.82,0,0,0,1.9-1.14,10.59,10.59,0,0,0,2-3.65h-2.82c-.62-.1-.93-.42-.94-.95a1,1,0,0,1,.08-.29A.9.9,0,0,1,205.19,410.45Z" transform="translate(-43.41 -96.58)" fill="#fafafa"/><path d="M218.56,402.79a2.31,2.31,0,0,1,.1.28q.26.87,2.78,14.59a.74.74,0,0,1,0,.21.82.82,0,0,1-.12.43.77.77,0,0,1-.7.44h-.14a.77.77,0,0,1-.65-.59l-.94-4.84H214.1l-2.33,4.86a.77.77,0,0,1-.07.16.93.93,0,0,1-.73.42.86.86,0,0,1-.46-.14.82.82,0,0,1-.39-.71,1,1,0,0,1,0-.25c.15-.34.39-.87.73-1.6Q216,405,217,403a.92.92,0,0,1,.81-.6A.9.9,0,0,1,218.56,402.79Zm-1.06,3.26-2.61,5.5h3.69Z" transform="translate(-43.41 -96.58)" fill="#fafafa"/><path d="M231.69,418.74h-7.1a.8.8,0,0,1-.45-.14,1.25,1.25,0,0,1-.4-.89h0q0-.43,2-14.53a1.61,1.61,0,0,1,0-.31.82.82,0,0,1,1.06-.47l.1.05a.77.77,0,0,1,.44.75c-.06.64-.22,2-.48,4-.81,6.2-1.24,9.48-1.27,9.82h6a1.17,1.17,0,0,1,.45.09.79.79,0,0,1,.54.79,1.22,1.22,0,0,1,0,.27A1,1,0,0,1,231.69,418.74Z" transform="translate(-43.41 -96.58)" fill="#fafafa"/><path d="M241.4,402.79a2.31,2.31,0,0,1,.1.28q.25.87,2.77,14.59a.74.74,0,0,1,0,.21.92.92,0,0,1-.11.43.77.77,0,0,1-.7.44h-.14a.77.77,0,0,1-.65-.59l-.94-4.84H236.9l-2.33,4.86a.48.48,0,0,1-.08.16.93.93,0,0,1-.72.42.86.86,0,0,1-.47-.14.84.84,0,0,1-.38-.71,1,1,0,0,1,0-.25l.72-1.6Q238.82,405,239.81,403a.92.92,0,0,1,.81-.6A.9.9,0,0,1,241.4,402.79Zm-1.06,3.26-2.61,5.5h3.69Z" transform="translate(-43.41 -96.58)" fill="#fafafa"/><path d="M252.7,411.16c.56,1.54,1,2.72,1.29,3.56.73,2,1.1,3.09,1.1,3.2a.76.76,0,0,1-.14.43.8.8,0,0,1-.71.39.78.78,0,0,1-.7-.57c-.06-.16-.1-.27-.14-.36q-.57-1.32-1.89-5l-4,5.49a1,1,0,0,1-.75.45.86.86,0,0,1-.44-.12.77.77,0,0,1-.4-.71.54.54,0,0,1,0-.18,2.27,2.27,0,0,1,.42-.68q2-2.61,4.46-6.22c-.17-.47-.33-.91-.48-1.34-1.51-4.05-2.26-6.14-2.27-6.27a.92.92,0,0,1,.11-.43.72.72,0,0,1,.68-.43.88.88,0,0,1,.8.47l2.36,6.39,4.74-6.44a.94.94,0,0,1,.75-.41.87.87,0,0,1,.39.1.8.8,0,0,1,.41.75,1,1,0,0,1-.08.39Z" transform="translate(-43.41 -96.58)" fill="#fafafa"/><path d="M270.27,402.42a.86.86,0,0,1,.39.09.85.85,0,0,1,.45.73q-1.74,13.77-1.92,14.87a8.78,8.78,0,0,1-1.52,3.88,5.48,5.48,0,0,1-7,1.71,5,5,0,0,1-2.5-2.2.86.86,0,0,1-.1-.41.86.86,0,0,1,.85-.84.8.8,0,0,1,.64.35,4.61,4.61,0,0,0,3.63,2.07,3.63,3.63,0,0,0,2.82-1.43,7.84,7.84,0,0,0,1.57-4.47,4.27,4.27,0,0,1-1.05,1.11,4.21,4.21,0,0,1-2.54.84h-.48a3.76,3.76,0,0,1-2.69-1.93,8.71,8.71,0,0,1-1.19-4.73,20.11,20.11,0,0,1,.12-2.66,59.37,59.37,0,0,1,1-6.12.68.68,0,0,1,.08-.24.76.76,0,0,1,.76-.58.87.87,0,0,1,.41.11.75.75,0,0,1,.42.68,29.23,29.23,0,0,1-.39,3.24,45.53,45.53,0,0,0-.56,4.94,10.11,10.11,0,0,0,.63,3.85c.49,1.16,1.19,1.73,2.11,1.73h.28a3.81,3.81,0,0,0,2.12-1.7,10.48,10.48,0,0,0,1.76-3.91l1.07-8.09a1.08,1.08,0,0,1,.11-.36A.76.76,0,0,1,270.27,402.42Z" transform="translate(-43.41 -96.58)" fill="#fafafa"/><path d="M376.16,432.07c-.23,0-.42-9.69-.42-21.64s.19-21.64.42-21.64.42,9.68.42,21.64S376.39,432.07,376.16,432.07Z" transform="translate(-43.41 -96.58)" fill="#263238"/><path d="M183.46,432.07c-.23,0-.42-9.69-.42-21.64s.19-21.64.42-21.64.42,9.68.42,21.64S183.69,432.07,183.46,432.07Z" transform="translate(-43.41 -96.58)" fill="#263238"/><path d="M380.29,432.07c-.23,0-.42-9.69-.42-21.64s.19-21.64.42-21.64.42,9.68.42,21.64S380.52,432.07,380.29,432.07Z" transform="translate(-43.41 -96.58)" fill="#263238"/><path d="M179.6,432.07c-.23,0-.42-9.69-.42-21.64s.19-21.64.42-21.64.42,9.68.42,21.64S179.83,432.07,179.6,432.07Z" transform="translate(-43.41 -96.58)" fill="#263238"/><path d="M319.06,395.92v-.08L344,415.92l.22.18-.27.07-3.31.87-21,5.52h0c-7.81-3.31-14.4-6.1-19-8.08L295,412.16l-1.43-.62-.36-.16-.12-.06h.13l.37.14,1.44.59,5.42,2.24,19.08,8h-.08l21-5.55,3.32-.87-.06.25L318.89,396h0V396" transform="translate(-43.41 -96.58)" fill="#e0e0e0"/><polygon points="298.25 316.22 299.61 317.49 301.43 317.1 300.63 318.78 301.57 320.39 299.72 320.16 298.48 321.55 298.13 319.72 296.43 318.96 298.06 318.07 298.25 316.22" fill="#e0e0e0"/><polygon points="274.38 324.13 275.3 324.9 276.47 324.57 276.02 325.69 276.69 326.7 275.48 326.62 274.74 327.56 274.44 326.4 273.31 325.98 274.33 325.33 274.38 324.13" fill="#e0e0e0"/><polygon points="248.01 313.31 249.48 313.4 250.4 312.24 250.77 313.67 252.16 314.18 250.91 314.97 250.85 316.45 249.71 315.51 248.29 315.91 248.83 314.54 248.01 313.31" fill="#e0e0e0"/><polygon points="309.41 299.65 310.89 299.74 311.8 298.58 312.17 300.01 313.56 300.52 312.31 301.32 312.26 302.8 311.11 301.85 309.69 302.26 310.23 300.88 309.41 299.65" fill="#e0e0e0"/><polygon points="274.44 298.68 275.39 298.74 275.97 298 276.21 298.91 277.09 299.24 276.29 299.74 276.26 300.69 275.53 300.09 274.62 300.35 274.97 299.47 274.44 298.68" fill="#e0e0e0"/><path d="M354.89,397.27c0,.09-8.05-.18-18-.6s-18-.85-18-.94,8.05.17,18,.6S354.9,397.17,354.89,397.27Z" transform="translate(-43.41 -96.58)" fill="#e0e0e0"/><path d="M150.15,431.27c-.15,0-.26-8.85-.26-19.76s.11-19.75.26-19.75.26,8.84.26,19.75S150.29,431.27,150.15,431.27Z" transform="translate(-43.41 -96.58)" fill="#263238"/><polygon points="117.98 249.18 117.62 217.31 134.97 217.31 135.56 249.18 117.98 249.18" fill="#f5f5f5"/><path d="M177.35,319.56a58.65,58.65,0,0,1-8.06.28,58.65,58.65,0,0,1-8.06-.28,60.26,60.26,0,0,1,8.06-.27A60.26,60.26,0,0,1,177.35,319.56Z" transform="translate(-43.41 -96.58)" fill="#e0e0e0"/><path d="M177.35,324.48a58.65,58.65,0,0,1-8.06.28,58.65,58.65,0,0,1-8.06-.28,60.26,60.26,0,0,1,8.06-.27A60.26,60.26,0,0,1,177.35,324.48Z" transform="translate(-43.41 -96.58)" fill="#e0e0e0"/><path d="M177.35,329.4a60.26,60.26,0,0,1-8.06.27,60.26,60.26,0,0,1-8.06-.27,60.26,60.26,0,0,1,8.06-.27A60.26,60.26,0,0,1,177.35,329.4Z" transform="translate(-43.41 -96.58)" fill="#e0e0e0"/><path d="M177.35,334.32a60.26,60.26,0,0,1-8.06.27,60.26,60.26,0,0,1-8.06-.27,60.26,60.26,0,0,1,8.06-.27A60.26,60.26,0,0,1,177.35,334.32Z" transform="translate(-43.41 -96.58)" fill="#e0e0e0"/><path d="M177.35,339.24a60.26,60.26,0,0,1-8.06.27,60.26,60.26,0,0,1-8.06-.27,60.26,60.26,0,0,1,8.06-.27A60.26,60.26,0,0,1,177.35,339.24Z" transform="translate(-43.41 -96.58)" fill="#e0e0e0"/><path d="M159.53,312.84H351.79c2.37,10.55,2,22.16,0,34.44H160.35v-2.34H172a5.52,5.52,0,0,0,5.53-5.51h0V320.36a5.52,5.52,0,0,0-5.51-5.53H159.53Z" transform="translate(-43.41 -96.58)" fill="#455a64"/><path d="M206.49,324a.9.9,0,0,1,.08.23q.21.72,2.27,11.92a.49.49,0,0,1,0,.17.73.73,0,0,1-.09.35.63.63,0,0,1-.58.35h-.11a.64.64,0,0,1-.53-.48l-.76-4h-4l-1.9,4-.06.13a.77.77,0,0,1-.6.33.67.67,0,0,1-.69-.67v0a.67.67,0,0,1,0-.2c.12-.28.32-.71.59-1.31q4.15-9,5-10.68a.73.73,0,0,1,1.3-.14Zm-.86,2.66-2.14,4.5h3Z" transform="translate(-43.41 -96.58)" fill="#263238"/><path d="M210.12,334.66a.81.81,0,0,1,0-.31.72.72,0,0,1,.06-.29.52.52,0,0,1,.51-.34.92.92,0,0,1,.63.38l.18.23a3.19,3.19,0,0,0,2.32,1.48,2.63,2.63,0,0,0,2.63-2.63h0a2.61,2.61,0,0,0-.49-1.57,4.33,4.33,0,0,0-1.35-1.09l-1.23-.73a4.54,4.54,0,0,1-.74-.64,2.86,2.86,0,0,1-.78-2v-.33a3.34,3.34,0,0,1,1.08-2.21,3.29,3.29,0,0,1,2.31-.9,3.49,3.49,0,0,1,1.11.18,3.25,3.25,0,0,1,1.75,1.34,1,1,0,0,1,.1.38.56.56,0,0,1-.09.31.58.58,0,0,1-.54.32.52.52,0,0,1-.44-.17,2.58,2.58,0,0,0-1.9-1.07,2,2,0,0,0-1.42.58,2.1,2.1,0,0,0-.68,1.58,1.66,1.66,0,0,0,.35,1,4.88,4.88,0,0,0,1.26,1,11.82,11.82,0,0,1,1.53,1,3.8,3.8,0,0,1,1.62,3,3.94,3.94,0,0,1-.08.77,3.9,3.9,0,0,1-1.43,2.28,4.07,4.07,0,0,1-2.59.93,3.61,3.61,0,0,1-1.79-.48A4.62,4.62,0,0,1,210.12,334.66Z" transform="translate(-43.41 -96.58)" fill="#263238"/><path d="M230,324.39a.56.56,0,0,1-.1.33.73.73,0,0,1-.65.31h-3.94q-1.31,11-1.44,11.32v.1a.67.67,0,0,1-.71.6.52.52,0,0,1-.36-.11.82.82,0,0,1-.33-.72c0-.07.34-2.69,1-7.87.23-1.75.38-2.86.44-3.32h-3.68a1.21,1.21,0,0,1-.38-.06.57.57,0,0,1-.46-.56.7.7,0,0,1,.75-.72h9.12a.58.58,0,0,1,.26.06A.64.64,0,0,1,230,324.39Z" transform="translate(-43.41 -96.58)" fill="#263238"/><path d="M231.33,336.35c-.08.46-.32.7-.71.7a.62.62,0,0,1-.35-.1.81.81,0,0,1-.35-.73q.39-3.24,1.56-11.88a.59.59,0,0,1,.19-.32,1,1,0,0,1,.71-.26,9.57,9.57,0,0,1,1.69-.15,8.11,8.11,0,0,1,1.21.09,2.55,2.55,0,0,1,2.42,2.67h0a4.51,4.51,0,0,1-.28,1.63q-.87,2.34-4.29,3.4l4.76,4.35a1,1,0,0,1,.3.62.88.88,0,0,1-.1.35.65.65,0,0,1-.56.32,1,1,0,0,1-.56-.19q-.19-.14-5.1-4.64C231.59,334.5,231.4,335.88,231.33,336.35ZM232.82,325l-.66,5.17a6.55,6.55,0,0,0,2.31-.8,3.34,3.34,0,0,0,1.89-3c0-1-.76-1.5-2.26-1.51A9.59,9.59,0,0,1,232.82,325Z" transform="translate(-43.41 -96.58)" fill="#263238"/><path d="M239.12,331.59a10.47,10.47,0,0,1,.4-2.84,9.33,9.33,0,0,1,1.93-3.67,3.84,3.84,0,0,1,2.84-1.5,2.93,2.93,0,0,1,2.37,1.29,6.58,6.58,0,0,1,1.18,3.61,8.75,8.75,0,0,0,.83-.37,2.69,2.69,0,0,1,1.06-.34.55.55,0,0,1,.31.08.6.6,0,0,1,.32.55.9.9,0,0,1-.3.63,4.43,4.43,0,0,1-2.25.92,9.9,9.9,0,0,1-.33,1.87,8.74,8.74,0,0,1-1.93,3.75,3.9,3.9,0,0,1-2.89,1.48h-.38a3.07,3.07,0,0,1-2.2-1.58A7.22,7.22,0,0,1,239.12,331.59Zm1.46-.25a7.46,7.46,0,0,0,.45,2.73c.4,1,1,1.56,1.78,1.56a1.44,1.44,0,0,0,.61-.15,4.13,4.13,0,0,0,1.77-1.9,9.24,9.24,0,0,0,1.17-3.5,4.33,4.33,0,0,1-2.34-.72,5.13,5.13,0,0,1-2-2.77A8.72,8.72,0,0,0,240.58,331.34Zm4-6.19a1,1,0,0,0-.41.1,1.14,1.14,0,0,0-.47,1.08,1.5,1.5,0,0,0,0,.3,2.34,2.34,0,0,0,1.19,1.61,3,3,0,0,0,1.51.5,11.15,11.15,0,0,0-.21-1.41c-.31-1.4-.85-2.12-1.63-2.18Z" transform="translate(-43.41 -96.58)" fill="#263238"/><path d="M258.66,336.38c-.06.44-.29.67-.68.67a.85.85,0,0,1-.73-.5l-4.37-10a12.87,12.87,0,0,1-.2,1.58q-.85,7.19-1,8.19c-.08.46-.31.7-.71.7a.7.7,0,0,1-.37-.11.83.83,0,0,1-.34-.72c1.05-7.9,1.57-11.85,1.57-11.88a.79.79,0,0,1,.1-.27.83.83,0,0,1,1.36,0l4.35,9.75,1.26-9.42A1.09,1.09,0,0,1,259,324a.6.6,0,0,1,.58-.38.67.67,0,0,1,.34.1.65.65,0,0,1,.33.59,4.94,4.94,0,0,1-.08.63Q258.86,335.23,258.66,336.38Z" transform="translate(-43.41 -96.58)" fill="#263238"/><path d="M261.69,331.59a10.47,10.47,0,0,1,.4-2.84,9.16,9.16,0,0,1,1.94-3.67,3.82,3.82,0,0,1,2.83-1.5,2.93,2.93,0,0,1,2.37,1.29,6.5,6.5,0,0,1,1.18,3.61,8.75,8.75,0,0,0,.83-.37,2.69,2.69,0,0,1,1.06-.34.55.55,0,0,1,.31.08.6.6,0,0,1,.32.55.9.9,0,0,1-.3.63,4.43,4.43,0,0,1-2.25.92,9.9,9.9,0,0,1-.33,1.87,8.74,8.74,0,0,1-1.93,3.75,3.9,3.9,0,0,1-2.89,1.48h-.38a3.07,3.07,0,0,1-2.2-1.58A7.22,7.22,0,0,1,261.69,331.59Zm1.46-.25a7.46,7.46,0,0,0,.45,2.73c.4,1,1,1.56,1.78,1.56a1.44,1.44,0,0,0,.61-.15,4.13,4.13,0,0,0,1.77-1.9,9.24,9.24,0,0,0,1.17-3.5,4.13,4.13,0,0,1-2.33-.72,5,5,0,0,1-2-2.77A8.65,8.65,0,0,0,263.15,331.34Zm4-6.19a1,1,0,0,0-.41.1,1.14,1.14,0,0,0-.47,1.08,1.5,1.5,0,0,0,0,.3,2.34,2.34,0,0,0,1.19,1.61,3,3,0,0,0,1.51.5,11.15,11.15,0,0,0-.21-1.41c-.31-1.4-.85-2.12-1.63-2.18Z" transform="translate(-43.41 -96.58)" fill="#263238"/><path d="M282.43,336.35h0c-.06.45-.29.67-.68.67a.58.58,0,0,1-.36-.1.81.81,0,0,1-.35-.73c0-.1.28-2.46.82-7.08-1.37,2.88-2.44,5.16-3.22,6.82-.17.36-.26.56-.29.6a.79.79,0,0,1-.68.49h-.16a.78.78,0,0,1-.55-.6l-1.5-7.32q-.51,3.94-1,7.23h0c-.06.45-.29.67-.69.67a.65.65,0,0,1-.36-.1.83.83,0,0,1-.34-.73q0-.09,1.23-9.31c.21-1.59.32-2.44.34-2.57a.94.94,0,0,1,.1-.28.73.73,0,0,1,.63-.35h.2a.54.54,0,0,1,.42.39q.17,1,1.11,5.62L278,334l4.67-9.89.09-.18a.75.75,0,0,1,.62-.32.56.56,0,0,1,.31.09.7.7,0,0,1,.38.59,1.77,1.77,0,0,1-.07.57Q282.65,335.1,282.43,336.35Z" transform="translate(-43.41 -96.58)" fill="#263238"/><path d="M294.71,323.73a.72.72,0,0,1,.32.08.69.69,0,0,1,.37.59q-1.42,11.24-1.57,12.15a7.36,7.36,0,0,1-1.24,3.16,4.47,4.47,0,0,1-5.7,1.4,4.14,4.14,0,0,1-2.05-1.8.74.74,0,0,1,0-.68.66.66,0,0,1,.9-.26.7.7,0,0,1,.22.2,3.71,3.71,0,0,0,3,1.69,2.89,2.89,0,0,0,2.3-1.17,6.38,6.38,0,0,0,1.28-3.64,3.68,3.68,0,0,1-.85.91,3.52,3.52,0,0,1-2.08.68h-.39a3.07,3.07,0,0,1-2.2-1.58,7.17,7.17,0,0,1-1-3.86,16.06,16.06,0,0,1,.1-2.17c.11-1.18.37-2.84.78-5a.66.66,0,0,1,.06-.2.64.64,0,0,1,.62-.47.67.67,0,0,1,.34.09.63.63,0,0,1,.35.56c0,.87-.14,1.73-.27,2.59a35.74,35.74,0,0,0-.46,4,8,8,0,0,0,.52,3.14,1.92,1.92,0,0,0,1.71,1.41H290a3.17,3.17,0,0,0,1.73-1.39,8.52,8.52,0,0,0,1.43-3.19l.88-6.61a.75.75,0,0,1,.09-.29A.62.62,0,0,1,294.71,323.73Z" transform="translate(-43.41 -96.58)" fill="#263238"/><circle cx="278.28" cy="233.64" r="10.11" fill="#263238"/><path d="M320.38,333.35a1.65,1.65,0,1,1-1.65-1.65h0A1.65,1.65,0,0,1,320.38,333.35Z" transform="translate(-43.41 -96.58)" fill="#455a64"/><path d="M318,328.6a1,1,0,1,1-1-1A1,1,0,0,1,318,328.6Z" transform="translate(-43.41 -96.58)" fill="#455a64"/><path d="M311.88,332.66c.05.17-8.65,8.52-6.41,10.3s11.68-2.79,19.72-9.28,15.38-14.38,13.37-16.47-12.06,4.09-12.06,4.09l1.2.77s6.08-3.9,8-2.38-3.56,7.42-11.29,13.06-15.2,9.61-16.36,8.06,4.31-6.7,4.31-6.7Z" transform="translate(-43.41 -96.58)" fill="#263238"/><g opacity="0.3"><path d="M316.12,323.08c.08.09-.6.68-1.38,1.84a9.32,9.32,0,0,0-.2,10.23c.73,1.19,1.39,1.8,1.3,1.9s-.86-.4-1.76-1.59a8.79,8.79,0,0,1-1.23-2.3,8.77,8.77,0,0,1,1.48-8.56C315.24,323.44,316.07,323,316.12,323.08Z" transform="translate(-43.41 -96.58)" fill="#455a64"/></g><path d="M345.15,347.94c-.15,0-.27-7.91-.27-17.67s.12-17.67.27-17.67.27,7.91.27,17.67S345.3,347.94,345.15,347.94Z" transform="translate(-43.41 -96.58)" fill="#263238"/><path d="M187.82,347.94c-.15,0-.27-7.91-.27-17.67s.12-17.67.27-17.67.27,7.91.27,17.67S188,347.94,187.82,347.94Z" transform="translate(-43.41 -96.58)" fill="#263238"/><path d="M348.52,347.94c-.15,0-.27-7.91-.27-17.67s.12-17.67.27-17.67.28,7.91.28,17.67S348.67,347.94,348.52,347.94Z" transform="translate(-43.41 -96.58)" fill="#263238"/><path d="M184.67,347.94c-.15,0-.28-7.91-.28-17.67s.13-17.67.28-17.67.27,7.91.27,17.67S184.82,347.94,184.67,347.94Z" transform="translate(-43.41 -96.58)" fill="#263238"/><path d="M390.33,350.77v36H320.64v-36Z" transform="translate(-43.41 -96.58)" fill="#f5f5f5"/><path d="M165.26,369.11v1A20.64,20.64,0,0,0,186,389.39H393.58v-2.6H344.31a18,18,0,0,1-18-18h0a18,18,0,0,1,18-18h49.27V347L186,347.7a20.75,20.75,0,0,0-20.72,20.8C165.25,368.7,165.25,368.91,165.26,369.11Z" transform="translate(-43.41 -96.58)" fill="#92e3a9"/><path d="M390.33,369.26c0,.2-14.33.37-32,.37s-32-.17-32-.37,14.32-.37,32-.37S390.33,369.06,390.33,369.26Z" transform="translate(-43.41 -96.58)" fill="#e0e0e0"/><path d="M389.32,377.38c0,.2-13.56.36-30.28.36s-30.28-.16-30.28-.36S342.32,377,359,377,389.32,377.17,389.32,377.38Z" transform="translate(-43.41 -96.58)" fill="#e0e0e0"/><path d="M390.33,384.8c0,.2-12.19.37-27.22.37s-27.23-.17-27.23-.37,12.19-.37,27.23-.37S390.33,384.59,390.33,384.8Z" transform="translate(-43.41 -96.58)" fill="#e0e0e0"/><path d="M390.33,362c0,.2-14,.37-31.34.37s-31.35-.17-31.35-.37,14-.37,31.35-.37S390.33,361.76,390.33,362Z" transform="translate(-43.41 -96.58)" fill="#e0e0e0"/><path d="M389.32,354.68c0,.2-12.49.37-27.9.37s-27.9-.17-27.9-.37,12.49-.37,27.9-.37S389.32,354.47,389.32,354.68Z" transform="translate(-43.41 -96.58)" fill="#e0e0e0"/><g opacity="0.3"><path d="M165.26,369.11v1A20.64,20.64,0,0,0,186,389.39H393.58v-2.6H344.31a18,18,0,0,1-18-18h0a18,18,0,0,1,18-18h49.27V347L186,347.7a20.75,20.75,0,0,0-20.72,20.8C165.25,368.7,165.25,368.91,165.26,369.11Z" transform="translate(-43.41 -96.58)"/></g><path d="M190.41,348.25a46.06,46.06,0,0,0-4.42,5.24,26.64,26.64,0,0,0,.37,30.87,45,45,0,0,0,4.53,5.13,7.26,7.26,0,0,1-1.49-1.1,23.92,23.92,0,0,1-3.46-3.72,26.27,26.27,0,0,1-.38-31.48,24.38,24.38,0,0,1,3.38-3.8A7.72,7.72,0,0,1,190.41,348.25Z" transform="translate(-43.41 -96.58)" fill="#e0e0e0"/><path d="M183.39,347.48a46.06,46.06,0,0,0-4.42,5.24,26.64,26.64,0,0,0,.37,30.87,46.1,46.1,0,0,0,4.54,5.14,7.77,7.77,0,0,1-1.5-1.11,23.92,23.92,0,0,1-3.46-3.72,26.28,26.28,0,0,1-.37-31.48,23.39,23.39,0,0,1,3.37-3.8A7.72,7.72,0,0,1,183.39,347.48Z" transform="translate(-43.41 -96.58)" fill="#e0e0e0"/><path d="M324.41,348.25a46.85,46.85,0,0,0-4.41,5.24,26.67,26.67,0,0,0,.36,30.87,44.29,44.29,0,0,0,4.54,5.13,7.06,7.06,0,0,1-1.5-1.1,24.38,24.38,0,0,1-3.46-3.72,26.28,26.28,0,0,1-.37-31.48,24.84,24.84,0,0,1,3.37-3.8A8.51,8.51,0,0,1,324.41,348.25Z" transform="translate(-43.41 -96.58)" fill="#e0e0e0"/><path d="M317.39,347.48a46.85,46.85,0,0,0-4.41,5.24,26.67,26.67,0,0,0,.36,30.87,46.1,46.1,0,0,0,4.54,5.14,7.7,7.7,0,0,1-1.49-1.11,23.51,23.51,0,0,1-3.47-3.72,26.28,26.28,0,0,1-.37-31.48,24.38,24.38,0,0,1,3.38-3.8A7.65,7.65,0,0,1,317.39,347.48Z" transform="translate(-43.41 -96.58)" fill="#e0e0e0"/><path d="M214,374.18q-.1-7.33-.2-14.65a10.46,10.46,0,0,0-.52-3.77,3.53,3.53,0,0,0-2.78-2.35c-1.83-.81-4.69.72-6,2.83s-1.42,4.71-1.44,7.18a104,104,0,0,0,.56,11.57,13.34,13.34,0,0,0,1.37,5.29,4.9,4.9,0,0,0,4.46,2.69,5,5,0,0,0,3.92-3.4A14.89,14.89,0,0,0,214,374.18Z" transform="translate(-43.41 -96.58)" fill="#e0e0e0"/><path d="M294.63,370c0,.21-15,.37-33.51.37s-33.51-.16-33.51-.37,15-.37,33.51-.37S294.63,369.76,294.63,370Z" transform="translate(-43.41 -96.58)" fill="#e0e0e0"/><path d="M374.77,455.09H83.3c-3.82-8.47-4.76-16.51,0-23.71H374.77C378.6,440,378.27,447.85,374.77,455.09Z" transform="translate(-43.41 -96.58)" fill="#455a64"/><rect x="100.24" y="341.57" width="157.91" height="8.63" fill="#ebebeb"/><path d="M94.49,455.22c-.09.07-1.13-.91-2.3-2.88a20.57,20.57,0,0,1-1.54-17.14,8.55,8.55,0,0,1,1.74-3.2c.16.07-.45,1.32-1,3.43a23.53,23.53,0,0,0-.79,8.43A24.08,24.08,0,0,0,92.84,452C93.8,454,94.62,455.11,94.49,455.22Z" transform="translate(-43.41 -96.58)" fill="#e0e0e0"/><path d="M100.79,455.22a8.67,8.67,0,0,1-2.29-2.88A20.49,20.49,0,0,1,97,435.2a8.46,8.46,0,0,1,1.7-3.2c.15.07-.45,1.32-1,3.43A23.37,23.37,0,0,0,99.2,452C100.11,454,100.93,455.11,100.79,455.22Z" transform="translate(-43.41 -96.58)" fill="#e0e0e0"/><path d="M363,454.66c-.31-.11,2.07-5,2.07-11.59s-2.25-11.51-1.93-11.62,3,4.81,3,11.63S363.16,454.83,363,454.66Z" transform="translate(-43.41 -96.58)" fill="#e0e0e0"/><path d="M357.56,454.6c-.31-.06.92-5.07.89-11.35s-1.23-11.28-.92-11.35,2,4.91,2,11.35S357.79,454.69,357.56,454.6Z" transform="translate(-43.41 -96.58)" fill="#e0e0e0"/></g><path d="M348.52,312.6a.71.71,0,0,1,0,.24h3.23c2.36,10.51,2,22.07,0,34.3l41.77-.14v3.79h-3.25v36H343.91l.4,0h49.27v2.6h-9.23c2.84,12.84,2.42,26.95-.06,41.88H380.4a2.16,2.16,0,0,1-.11.8s-.08-.28-.11-.8h-3.91a2.16,2.16,0,0,1-.11.8s-.08-.28-.11-.8H183.57a.41.41,0,0,1,0,.11H374.77c3.83,8.62,3.5,16.47,0,23.71h-274c0,.06,0,.11,0,.13l-.14-.13H94.48c0,.06,0,.11,0,.13h0a.53.53,0,0,1-.21-.13h-11c-3.82-8.47-4.76-16.51,0-23.71h96.2a.37.37,0,0,1,0-.11H149.81V428.4h.2c-.07-3.46-.12-9.72-.12-16.89,0-10.91.11-19.75.26-19.75s.26,8.84.26,19.75c0,7.17,0,13.43-.13,16.89h.8l-.08-6.93c-.06,0-.11,0-.11-.06s0,0,.11-.06l-.07-5.92,0,0,0,0-.27-23.84h-1.85v-2.44h30.72c0-.19.05-.29.07-.29s0,.12.07.29h2.68a20.64,20.64,0,0,1-17.09-19v-1c0-.2,0-.41,0-.61A20.74,20.74,0,0,1,182.63,348a7.85,7.85,0,0,1,.76-.52c-.15.15-.28.32-.43.47.55-.08,1.11-.14,1.67-.18,0-.11,0-.27,0-.49H160.35v-2.34h1l-.06-5.69h0l-.06-4.91h0L161,314.83h-1.51v-2h25.1a.12.12,0,1,1,.08,0h3.07a.12.12,0,1,1,.08,0H345.11a.12.12,0,1,1,.08,0h3.29a.71.71,0,0,1,0-.24M187.87,347.69l122.68-.41H187.9c0,.17,0,.31,0,.41m-3.16.08c.42,0,.83-.07,1.26-.07h1.81c0-.1,0-.24,0-.41h-3c0,.22,0,.38,0,.49m-5,83.61h3.66a.37.37,0,0,1,0-.11h-3.64v.11M348.52,307.6a4.91,4.91,0,0,0-1.51.24h-.35a4.87,4.87,0,0,0-3,0H189.33a4.87,4.87,0,0,0-3,0h-.13a4.87,4.87,0,0,0-3,0H159.53a5,5,0,0,0-5,5v2a5,5,0,0,0,1.55,3.62l.17,15.37c0,.17,0,.34,0,.51a3.86,3.86,0,0,0,0,.6l0,3.44a4.91,4.91,0,0,0-.08.86,4.62,4.62,0,0,0,.1,1l0,1.72a5,5,0,0,0-1,3v2.34a5,5,0,0,0,5,5h5.58a25.69,25.69,0,0,0-5.68,16.23c0,.22,0,.45,0,.67v.93c0,.11,0,.22,0,.33a25.67,25.67,0,0,0,5,13.64H148.81a5,5,0,0,0-5,5v2.44a5,5,0,0,0,1.2,3.25c0,.77,0,1.68,0,2.71,0,3.69-.07,8.68-.07,14,0,5.82,0,11.17.09,14.87H83.3a5,5,0,0,0-4.17,2.24c-5.3,8-5.43,17.35-.39,28.53a5,5,0,0,0,4.56,2.94h10a5,5,0,0,0,1.16.13,4.8,4.8,0,0,0,1.14-.13h4a5,5,0,0,0,2.26,0H374.77a5,5,0,0,0,4.5-2.82,31,31,0,0,0,2.54-20.44,4.86,4.86,0,0,0,1.22-.56h1.26a5,5,0,0,0,4.93-4.18c2.36-14.19,2.73-26.59,1.12-37.7h3.24a5,5,0,0,0,5-5v-2.6a5,5,0,0,0-3.25-4.69V355.48a5,5,0,0,0,3.25-4.69V347a5,5,0,0,0-5-5h0l-36,.12c1.39-11.52,1.09-21.5-.9-30.38a5,5,0,0,0-4.88-3.9H350a5,5,0,0,0-1.51-.24Z" transform="translate(-43.41 -96.58)" fill="#fff"/><g id="freepik--Character--inject-43"><path d="M345.48,309.71l-22.09-17.09,13.91-20,22.89,20s-.08,8.36-3.27,11.85S345.48,309.71,345.48,309.71Z" transform="translate(-43.41 -96.58)" fill="#ffbe9d"/><path d="M231.84,258c.07-.64,33.07-28.72,36.72-31,4.57-2.82,15.76-4.09,21.55.9,5.37,4.64,51.68,43.33,51.68,43.33L323.11,294,282.87,262.6s-38.18,23-38.56,23.54S226,280,226,279.4,231.84,258,231.84,258Z" transform="translate(-43.41 -96.58)" fill="#263238"/><path d="M336.83,303l19.47,16.6,4.28,8c1.63,3.06,3.8,1.16,6.85-.47l37.25-19.84s-.24-4.67-3.61-4.38-30.32-.1-30.32-.1l-16.95-16.4Z" transform="translate(-43.41 -96.58)" fill="#e0e0e0"/><path d="M334,303l5.08,3.85a1.92,1.92,0,0,0,2.55-.22l15.07-16.21a1.89,1.89,0,0,0,0-2.55l-4.09-4.67a1.89,1.89,0,0,0-2.68-.17l-.13.12-16.08,17a1.89,1.89,0,0,0,.06,2.67A1.24,1.24,0,0,0,334,303Z" transform="translate(-43.41 -96.58)" fill="#e0e0e0"/><path d="M357.28,289.78a21.05,21.05,0,0,1-2,2.78c-1.32,1.66-3.19,3.92-5.39,6.29s-4.31,4.41-5.89,5.82c-.8.7-1.45,1.26-1.92,1.63a3.08,3.08,0,0,1-.75.53,27.63,27.63,0,0,1,2.41-2.43c1.52-1.47,3.58-3.54,5.77-5.9s4.1-4.58,5.48-6.18A26.25,26.25,0,0,1,357.28,289.78Z" transform="translate(-43.41 -96.58)" fill="#263238"/><path d="M343.26,304.17a9.6,9.6,0,0,1-6.72-7,21.6,21.6,0,0,0,2.79,4.05A23.06,23.06,0,0,0,343.26,304.17Z" transform="translate(-43.41 -96.58)" fill="#263238"/><path d="M349.55,298.92a35.24,35.24,0,0,1-7.92-7.15,39.05,39.05,0,0,1,4,3.49A37.66,37.66,0,0,1,349.55,298.92Z" transform="translate(-43.41 -96.58)" fill="#263238"/><path d="M354.92,291.81a17.82,17.82,0,0,0-3.65-3.5,17,17,0,0,0-4.71-1.83,3.09,3.09,0,0,1,1.54,0,9.73,9.73,0,0,1,3.45,1.36,9.41,9.41,0,0,1,2.69,2.57A3.52,3.52,0,0,1,354.92,291.81Z" transform="translate(-43.41 -96.58)" fill="#263238"/><path d="M370,325.53c-.07.05-.53-.63-1.46-1.52a11.43,11.43,0,0,0-9.19-3.13c-1.28.14-2.06.39-2.08.31a5,5,0,0,1,2-.67,10.4,10.4,0,0,1,5.16.41,10.65,10.65,0,0,1,4.34,2.82A4.79,4.79,0,0,1,370,325.53Z" transform="translate(-43.41 -96.58)" fill="#263238"/><path d="M393.68,313.2a4.47,4.47,0,0,1-1.07-1.18,6.73,6.73,0,0,1-1.1-3.69,9.38,9.38,0,0,1,.85-3.76,3.85,3.85,0,0,1,.81-1.36,6.08,6.08,0,0,1-.47,1.5,11.76,11.76,0,0,0-.67,3.62,7.54,7.54,0,0,0,.9,3.51C393.37,312.67,393.75,313.14,393.68,313.2Z" transform="translate(-43.41 -96.58)" fill="#263238"/><path d="M249.68,190.61c-.41-3.3-4-5.4-4.81-8.62-1-3.72,2-7.28,2.48-11.09.48-3.66-1.33-7.18-2.29-10.75-2-7.27-.45-15,.25-22.45s1.05-21.35-11.13-29.48l-10.36-4.64c-8.75,17.66-5.12,46-8.83,65.31-1.34,7-2.34,14.3-.81,21.29a52.15,52.15,0,0,0,5.23,13c2.3,4.38,5,8.87,9.26,11.31s10.68,1.86,13.11-2.44c1.82-3.22.95-7.36,2.4-10.76C245.79,197.54,250.19,194.68,249.68,190.61Z" transform="translate(-43.41 -96.58)" fill="#263238"/><path d="M192.68,169.08s-7.71.89-13,4.61c-8.33,5.89-14.1,19.08-17,37.91-2.41,15.67-3.85,32.83-4.59,44.32-1.1,17.42-1.17,25.28,0,29.13,2,6.39,5.45,28.31,19.89,30.53,0,0,5-6.94,6.94-14.16s8.58-27.28,27.15-29.75c1.66-.22,20.35-3,20.35-3s-1.26-18-1.26-25c0-3.54,1.18-10.21,2.35-16,1.5-7.39-.6-15.24-2.6-22.51S227.39,188,226,185.42a19,19,0,0,0-7.64-7.19Z" transform="translate(-43.41 -96.58)" fill="#92e3a9"/><path d="M207,272.23h-1.81a26,26,0,0,0-4.89.55,33.75,33.75,0,0,0-6.93,2.23,30.76,30.76,0,0,0-7.55,4.66c-4.76,4.21-7.94,9.12-10.22,12.59L173,296.45a12.73,12.73,0,0,1-1,1.51,11.36,11.36,0,0,1,.83-1.63c.56-1,1.4-2.49,2.48-4.29a55.34,55.34,0,0,1,10.19-12.81,30.11,30.11,0,0,1,7.72-4.71,31.19,31.19,0,0,1,7.07-2.14,22.65,22.65,0,0,1,5-.38,10.26,10.26,0,0,1,1.35.12A1.4,1.4,0,0,1,207,272.23Z" transform="translate(-43.41 -96.58)" fill="#263238"/><g opacity="0.4"><path d="M170.78,289.91a5.64,5.64,0,0,0-1.34,2.41,2.16,2.16,0,0,0,1,2.37c1.17.52,2.43-.48,3.3-1.43,3.17-3.47,5.92-7.31,9.07-10.8a27.15,27.15,0,0,1,10.53-7.75C182.48,278,177.94,281.06,170.78,289.91Z" transform="translate(-43.41 -96.58)"/></g><g opacity="0.4"><path d="M230.05,249.87a2,2,0,0,0-.81-1.47,2.38,2.38,0,0,0-2,.14L202.74,258c-4.81,1.85-10.06,3.72-15,2.25-5.17-1.53-8.72-6.54-10-11.78s-.56-10.74.33-16,2.41-13.85,2.41-13.85l-11.37-17.09c-1.7,16.12-6.8,50.56-3.73,63.92,1.18,5.09,4,8.29,8.38,11.13,3.6,2.33,10.4-.37,14.87-2.14,11.59-4.62,22.63-9.25,31.76-14.5,2.23-1.29,9.08-5.93,10.59-8S230.49,252.41,230.05,249.87Z" transform="translate(-43.41 -96.58)"/></g><path d="M178.74,314.47c-.22.33,20.66,3.3,38.47,2.43S272.64,302,272.64,302a119.23,119.23,0,0,0-1.57,16.34c-.06,7.49,3.62,32.78,3.62,32.78H305.6v-54.2s-.87-20.48-.93-23.85c-.1-5.09-6.15-12.38-16-11.81-8.34.49-82.23,11.05-82.23,11.05s-11.13,3.52-15.63,9.46S178.74,314.47,178.74,314.47Z" transform="translate(-43.41 -96.58)" fill="#263238"/><path d="M190,296.45a13.41,13.41,0,0,1-5.57-.18A13.41,13.41,0,0,1,190,296.45Z" transform="translate(-43.41 -96.58)" fill="#455a64"/><path d="M201.16,295.9a6.72,6.72,0,0,1-2.76.5,7.19,7.19,0,0,1-2.81-.08,7.07,7.07,0,0,1,2.76-.5A7.38,7.38,0,0,1,201.16,295.9Z" transform="translate(-43.41 -96.58)" fill="#455a64"/><path d="M212.21,294.43a6.76,6.76,0,0,1-2.71.7,7,7,0,0,1-2.8.13,13.62,13.62,0,0,1,5.51-.83Z" transform="translate(-43.41 -96.58)" fill="#455a64"/><path d="M223.18,292.35a7.06,7.06,0,0,1-2.68.84,6.75,6.75,0,0,1-2.79.26,6.77,6.77,0,0,1,2.67-.83A7,7,0,0,1,223.18,292.35Z" transform="translate(-43.41 -96.58)" fill="#455a64"/><path d="M234.07,290a13.79,13.79,0,0,1-5.44,1.22,6.78,6.78,0,0,1,2.66-.9A7.08,7.08,0,0,1,234.07,290Z" transform="translate(-43.41 -96.58)" fill="#455a64"/><path d="M245,287.51a13.47,13.47,0,0,1-5.45,1.21,13.47,13.47,0,0,1,5.45-1.21Z" transform="translate(-43.41 -96.58)" fill="#455a64"/><path d="M255.89,285.26a6.87,6.87,0,0,1-2.68.83,7,7,0,0,1-2.8.25,7.07,7.07,0,0,1,2.69-.82A6.75,6.75,0,0,1,255.89,285.26Z" transform="translate(-43.41 -96.58)" fill="#455a64"/><path d="M266.91,283.51a7.32,7.32,0,0,1-2.72.68,7,7,0,0,1-2.81.11,13.66,13.66,0,0,1,5.53-.79Z" transform="translate(-43.41 -96.58)" fill="#455a64"/><path d="M278,282.82a10.72,10.72,0,0,1-2.77.19,7.76,7.76,0,0,1-2.8-.1,6.31,6.31,0,0,1,2.78-.48A5.14,5.14,0,0,1,278,282.82Z" transform="translate(-43.41 -96.58)" fill="#455a64"/><path d="M284.42,290.47c-.18,0-.29-1.25-.62-2.7s-1-2.48-.88-2.58a3.48,3.48,0,0,1,1.44,2.44A4.91,4.91,0,0,1,284.42,290.47Z" transform="translate(-43.41 -96.58)" fill="#455a64"/><path d="M284.86,301.62a7.12,7.12,0,0,1-.41-2.78,6.78,6.78,0,0,1,.18-2.8,6.93,6.93,0,0,1,.4,2.78A6.78,6.78,0,0,1,284.86,301.62Z" transform="translate(-43.41 -96.58)" fill="#455a64"/><path d="M285.41,312.76A7,7,0,0,1,285,310a6.62,6.62,0,0,1,.15-2.8,7.06,7.06,0,0,1,.43,2.77A6.92,6.92,0,0,1,285.41,312.76Z" transform="translate(-43.41 -96.58)" fill="#455a64"/><path d="M286,323.9a13.77,13.77,0,0,1-.31-5.57A13.25,13.25,0,0,1,286,323.9Z" transform="translate(-43.41 -96.58)" fill="#455a64"/><path d="M286.61,335a13.26,13.26,0,0,1-.29-5.57A13.77,13.77,0,0,1,286.61,335Z" transform="translate(-43.41 -96.58)" fill="#455a64"/><path d="M287.11,346.19a13.46,13.46,0,0,1-.24-5.58A13.46,13.46,0,0,1,287.11,346.19Z" transform="translate(-43.41 -96.58)" fill="#455a64"/><path d="M284.14,275.53a37.86,37.86,0,0,1-1.91,3.89c-1.2,2.39-2.8,5.71-4.39,9.46s-2.85,7.22-3.72,9.75a42.13,42.13,0,0,1-1.46,4.08,4.5,4.5,0,0,1,.22-1.15c.17-.73.46-1.77.85-3.06a101.5,101.5,0,0,1,8.14-19.27c.65-1.17,1.2-2.11,1.6-2.74A4.59,4.59,0,0,1,284.14,275.53Z" transform="translate(-43.41 -96.58)" fill="#455a64"/><path d="M293.8,285.46c0,.09-1.45.67-3.73,1.84a48.75,48.75,0,0,0-8.36,5.48,47.74,47.74,0,0,0-7,7.14c-1.6,2-2.46,3.35-2.54,3.3a3.78,3.78,0,0,1,.51-1,29,29,0,0,1,1.7-2.55,40.82,40.82,0,0,1,15.51-12.73,24.07,24.07,0,0,1,2.83-1.17A3.71,3.71,0,0,1,293.8,285.46Z" transform="translate(-43.41 -96.58)" fill="#455a64"/><path d="M305.6,300.23a2.47,2.47,0,0,1-.08-.6c0-.46-.06-1-.1-1.71-.06-1.58-.15-3.71-.26-6.31s-.2-5.85-.31-9.35c-.08-1.75-.07-3.62-.21-5.5a33.29,33.29,0,0,0-1-5.78,21.19,21.19,0,0,0-1-2.8,7.92,7.92,0,0,0-1.62-2.3,14,14,0,0,0-4.45-3,13.44,13.44,0,0,0-4.74-1.18,39.09,39.09,0,0,0-4.33,0c-2.65.15-4.79.37-6.28.49l-1.71.13a2,2,0,0,1-.6,0,2.94,2.94,0,0,1,.59-.12l1.7-.24c1.48-.19,3.61-.47,6.28-.67a37.68,37.68,0,0,1,4.38-.11,13.69,13.69,0,0,1,4.92,1.17,14.6,14.6,0,0,1,4.65,3.11,8.49,8.49,0,0,1,1.73,2.46,19.75,19.75,0,0,1,1,2.89,33.46,33.46,0,0,1,1,5.88c.13,1.94.11,3.77.17,5.54.07,3.5.14,6.66.19,9.35s.06,4.74.08,6.31v1.72A2.57,2.57,0,0,1,305.6,300.23Z" transform="translate(-43.41 -96.58)" fill="#455a64"/><path d="M276.41,263.25a3.76,3.76,0,0,1-.67.12l-1.93.25-7.11.86c-6,.71-14.3,1.72-23.45,2.92s-17.43,2.39-23.41,3.27l-7.09,1-1.93.26c-.23,0-.45.05-.68.06a2.45,2.45,0,0,1,.66-.16l1.91-.36c1.67-.3,4.08-.71,7.07-1.19,6-1,14.24-2.2,23.4-3.41s17.46-2.16,23.48-2.78c3-.31,5.44-.55,7.13-.69l1.94-.15A3.86,3.86,0,0,1,276.41,263.25Z" transform="translate(-43.41 -96.58)" fill="#455a64"/><path d="M278.89,372.56l-1.8-21.41H302.8l-.7,20.94s-7.06,5.9-11.79,5.76S278.89,372.56,278.89,372.56Z" transform="translate(-43.41 -96.58)" fill="#ffbe9d"/><path d="M277,356.83h0l2.31,32.35h52.81s2.13-4.54-1.2-6-28.07-8.81-28.07-8.81l-.25-18.56Z" transform="translate(-43.41 -96.58)" fill="#e0e0e0"/><path d="M274.82,357.22l.91,6.67a2,2,0,0,0,2.07,1.71l23.43-1.25a2.06,2.06,0,0,0,1.94-1.91l.46-6.56a2,2,0,0,0-1.88-2.12h-.18l-24.8,1.13a2.07,2.07,0,0,0-2,2.17A.86.86,0,0,0,274.82,357.22Z" transform="translate(-43.41 -96.58)" fill="#e0e0e0"/><path d="M302.45,364.4a3.79,3.79,0,0,1-1,.21c-.63.1-1.56.23-2.7.36-2.28.28-5.45.58-9,.73s-6.7.1-9,0c-1.15-.07-2.08-.13-2.72-.2a3.8,3.8,0,0,1-1-.16,33,33,0,0,1,3.72,0c2.29,0,5.46,0,9-.13s6.66-.39,8.95-.57A27.67,27.67,0,0,1,302.45,364.4Z" transform="translate(-43.41 -96.58)" fill="#263238"/><path d="M282.42,365.37a13.52,13.52,0,0,1-1.32-10.79,41.6,41.6,0,0,0,0,5.47A44,44,0,0,0,282.42,365.37Z" transform="translate(-43.41 -96.58)" fill="#263238"/><path d="M288.83,365.35a42,42,0,0,1-.32-5.38,40.4,40.4,0,0,1-.15-5.39,33.58,33.58,0,0,1,.47,10.77Z" transform="translate(-43.41 -96.58)" fill="#263238"/><path d="M296.58,365.21c-.16,0,.32-2.46.22-5.48s-.69-5.41-.54-5.45a17,17,0,0,1,.32,10.93Z" transform="translate(-43.41 -96.58)" fill="#263238"/><path d="M287,389c-.22-.55-.42-1.1-.59-1.67a11,11,0,0,0-2.26-3.51,10.71,10.71,0,0,0-3.43-2.37,12.21,12.21,0,0,1-1.64-.66,4.16,4.16,0,0,1,1.78.31,9.46,9.46,0,0,1,5.89,6.11A3.77,3.77,0,0,1,287,389Z" transform="translate(-43.41 -96.58)" fill="#263238"/><path d="M318.75,388.42a2.5,2.5,0,0,1-.42-1.32,6.72,6.72,0,0,1,2.47-6,2.57,2.57,0,0,1,1.22-.64,11,11,0,0,1-1,.92,7.71,7.71,0,0,0-2.35,5.69A7.65,7.65,0,0,1,318.75,388.42Z" transform="translate(-43.41 -96.58)" fill="#263238"/><path d="M237.49,111.2a25.62,25.62,0,0,0-18.45-8c-3.91,0-12.62,3.48-13.13,8.78,11.55,8,24.36,12.19,36.68,18.89C243.26,124.14,242,116.21,237.49,111.2Z" transform="translate(-43.41 -96.58)" fill="#263238"/><path d="M213.09,198.05c-1.71.25-20.41-30.68-20.41-30.68l7.63-41.17c2.07-12.41,11-21.55,23.36-19.14l1.13.29A22.5,22.5,0,0,1,241.38,133c-1.86,10.75-4,22.6-5.56,28.23-3.15,11.65-15.31,10.47-15.31,10.47s-.61,2.73-1.34,6.19l-6.08,20.21Z" transform="translate(-43.41 -96.58)" fill="#ffbe9d"/><path d="M220.48,171.79a29.17,29.17,0,0,1-14.06-8.41s1.52,9.46,13.46,11.4Z" transform="translate(-43.41 -96.58)" fill="#eb996e"/><path d="M216.63,150.88a2.6,2.6,0,1,1,2.88,4.33,2.66,2.66,0,0,1-1,.4,3.27,3.27,0,0,1-2.05-.42,2.39,2.39,0,0,1-1.13-1.11,2.28,2.28,0,0,1,.3-2.2,3.51,3.51,0,0,1,1.45-1.22" transform="translate(-43.41 -96.58)" fill="#eb996e"/><path d="M235.86,142.15a1.71,1.71,0,0,1-2,1.27,1.65,1.65,0,0,1-1.34-1.91v0a1.71,1.71,0,0,1,2-1.27,1.65,1.65,0,0,1,1.34,1.91Z" transform="translate(-43.41 -96.58)" fill="#263238"/><path d="M237.44,138.08c-.26.16-1.29-1.1-3.09-1.56s-3.34.11-3.48-.16.24-.46.92-.73a4.74,4.74,0,0,1,2.86-.14A4.59,4.59,0,0,1,237,137C237.48,137.56,237.57,138,237.44,138.08Z" transform="translate(-43.41 -96.58)" fill="#263238"/><path d="M219.6,138.43a1.71,1.71,0,0,1-2,1.27,1.66,1.66,0,0,1-1.34-1.92v0a1.71,1.71,0,0,1,2-1.27,1.65,1.65,0,0,1,1.35,1.9Z" transform="translate(-43.41 -96.58)" fill="#263238"/><path d="M220.05,134.07c-.27.16-1.29-1.1-3.09-1.55s-3.35.1-3.48-.17c-.07-.12.24-.46.92-.73a4.74,4.74,0,0,1,2.86-.14,4.61,4.61,0,0,1,2.38,1.51C220.09,133.56,220.17,134,220.05,134.07Z" transform="translate(-43.41 -96.58)" fill="#263238"/><path d="M222.72,149a12,12,0,0,1,3.05.22c.47.07.93.09,1.09-.2a2.36,2.36,0,0,0,0-1.44c-.15-1.22-.3-2.5-.46-3.84-.61-5.46-.92-9.9-.7-9.92s.89,4.38,1.5,9.84q.21,2,.39,3.84a2.75,2.75,0,0,1-.22,1.87,1.17,1.17,0,0,1-.93.47,2.69,2.69,0,0,1-.8-.09A12.29,12.29,0,0,1,222.72,149Z" transform="translate(-43.41 -96.58)" fill="#263238"/><path d="M217.11,148.86c.3.06-.2,2,1.12,3.82s3.44,2.14,3.39,2.41-.56.26-1.45.06a5,5,0,0,1-2.86-1.9,4.37,4.37,0,0,1-.81-3.17C216.64,149.24,217,148.82,217.11,148.86Z" transform="translate(-43.41 -96.58)" fill="#263238"/><path d="M221.89,127.06c-.3.44-2-.25-4.21-.54s-4-.15-4.19-.66c-.07-.24.34-.62,1.15-.92a7.41,7.41,0,0,1,6.4.91C221.73,126.36,222,126.85,221.89,127.06Z" transform="translate(-43.41 -96.58)" fill="#263238"/><path d="M238,132.81c-.42.32-1.55-.42-3-.82s-2.82-.43-3-.93c-.08-.24.23-.6.88-.84a4.51,4.51,0,0,1,4.86,1.41C238.16,132.18,238.23,132.64,238,132.81Z" transform="translate(-43.41 -96.58)" fill="#263238"/><path d="M217.08,112.8l9.61-8.38c-10.5-6.85-23.57,0-28.14,6.87-1.73,2.59-2.28,5.77-4.42,8-3.44,3.62-8.79,4.92-10.53,9.6-1.16,3.1.25,6.73-.93,9.83-1.95,5.11-9.89,6.44-10.77,11.83-.6,3.72,2.7,7.39,1.66,11-.74,2.59-3.5,3.9-5.37,5.84-7.08,7.35-5.33,17.35.67,21,2-4.18,4-9,7.71-12.21s7.83-5.64,12.67-5c2.86.41,5.35,1.07,7.79-.48,1.92-1.21,2.53-3.81,2.18-6s-1.46-4.29-2.28-6.41-1.36-4.51-.56-6.64c1.42-3.74,6.33-5.13,8-8.79,1.09-2.45.43-5.28-.06-7.93s-.72-5.66,1-7.73c2.47-3,8.12-2.92,9.05-6.67.41-1.66-.38-3.35-.65-5S215.38,112.92,217.08,112.8Z" transform="translate(-43.41 -96.58)" fill="#263238"/><path d="M181.35,173c2.75-1.71,7.63-2.44,10.41-1.48,3.44,1.18,4.21,3.58,5.64,6.16,5.41,9.71,10.79,19.5,14.57,29.95a16.71,16.71,0,0,0,5.15-15.25c-.46-2.38-1.44-4.68-1.42-7.1,0-2.26.91-4.46.89-6.72a8.57,8.57,0,0,0-4-7.11c-2.15-1.32-5.07-1.85-6.19-4.11-1.51-3,1.37-7-.4-9.91-1.39-2.25-4.85-2.4-6.36-4.58a5,5,0,0,1-.33-4.5c.54-1.47,3.74-2.21,4.77-4.9l-7.2-3.72L186,147.94s-5.83,24.25-5.23,24.66" transform="translate(-43.41 -96.58)" fill="#263238"/><path d="M247.27,205.42a20.15,20.15,0,0,0,1.94-2.38,13.73,13.73,0,0,0,2.23-7.9,13,13,0,0,0-1.45-5.5,56,56,0,0,1-3-6,15.88,15.88,0,0,1-.31-7.41,48.22,48.22,0,0,0,.68-7.86,97.58,97.58,0,0,0-1.6-15.16,115.36,115.36,0,0,1-1.52-12.42,41,41,0,0,1,.39-8.43c.15-1,.36-1.74.47-2.25a5.16,5.16,0,0,1,.21-.77,4.28,4.28,0,0,1-.11.8c-.07.51-.25,1.27-.37,2.25a44.29,44.29,0,0,0-.22,8.38,122.55,122.55,0,0,0,1.62,12.36,94.1,94.1,0,0,1,1.65,15.25,47.65,47.65,0,0,1-.69,7.91,15.51,15.51,0,0,0,.26,7.2,53.43,53.43,0,0,0,2.9,6,13.33,13.33,0,0,1,1.43,5.68,13.6,13.6,0,0,1-2.43,8A9.48,9.48,0,0,1,247.27,205.42Z" transform="translate(-43.41 -96.58)" fill="#263238"/><path d="M197.45,116.44a5.26,5.26,0,0,1-.36.71,6.32,6.32,0,0,1-1.57,1.65,13,13,0,0,1-3.21,1.65c-1.3.52-2.83,1-4.42,1.69a7.93,7.93,0,0,0-4.12,3.62c-.92,1.81-.93,4.07-1,6.37a28.85,28.85,0,0,1-.2,3.6,9,9,0,0,1-1.2,3.6,8.72,8.72,0,0,1-2.85,2.72c-1.11.72-2.31,1.3-3.45,2a10.19,10.19,0,0,0-3,2.46,7.08,7.08,0,0,0-1.33,3.44c-.31,2.46.11,4.9.07,7.25a12.32,12.32,0,0,1-.46,3.42,11.54,11.54,0,0,1-1.41,2.94c-1.15,1.76-2.47,3.17-3.55,4.55a11.41,11.41,0,0,0-3,7.46,6.09,6.09,0,0,0,.93,2.84l-.14-.15a5.25,5.25,0,0,1-.33-.49,5.37,5.37,0,0,1-.66-2.18c-.19-2,.67-5,2.92-7.71,1.07-1.4,2.38-2.83,3.48-4.55a11,11,0,0,0,1.33-2.84,11.79,11.79,0,0,0,.42-3.29c0-2.3-.4-4.74-.1-7.32a7.69,7.69,0,0,1,1.43-3.68,10.31,10.31,0,0,1,3.1-2.59c1.17-.7,2.36-1.28,3.44-2a8.44,8.44,0,0,0,2.7-2.55c1.31-2.1,1.29-4.64,1.35-6.93s.07-4.63,1.06-6.56a8.23,8.23,0,0,1,4.36-3.77c1.63-.71,3.17-1.14,4.47-1.62a13.08,13.08,0,0,0,3.19-1.55A7.72,7.72,0,0,0,197.45,116.44Z" transform="translate(-43.41 -96.58)" fill="#263238"/><path d="M232.86,108.34a24.31,24.31,0,0,0-23.42-2.27l3.51,7.59c1.77-.59,3.7.81,4.36,2.55a11,11,0,0,1,.15,5.52l12.28,4.17,1.17-3.75c.14,1.71.29,3.43.43,5.15a70.36,70.36,0,0,1,11.59,2.31A24.31,24.31,0,0,0,232.86,108.34Z" transform="translate(-43.41 -96.58)" fill="#263238"/><path d="M235.22,128.14c-.09,0,0-1.42-.15-3.68a27.27,27.27,0,0,0-.59-3.92,29.82,29.82,0,0,0-1.45-4.62,32,32,0,0,0-2.23-4.31,28.28,28.28,0,0,0-2.35-3.2c-1.47-1.72-2.54-2.63-2.48-2.71a4.24,4.24,0,0,1,.8.59,19.77,19.77,0,0,1,2,1.88,25.29,25.29,0,0,1,2.47,3.18,25.91,25.91,0,0,1,3.75,9.09,23.51,23.51,0,0,1,.49,4,20.44,20.44,0,0,1-.06,2.71A3.71,3.71,0,0,1,235.22,128.14Z" transform="translate(-43.41 -96.58)" fill="#e0e0e0"/><path d="M309.72,221.79s-7.38-3.87-17.59,2l-4.91,1.88,1.53,5.93Z" transform="translate(-43.41 -96.58)" fill="#ebebeb"/><path d="M292.64,235.07s2.66-5.73,7.73-8.62a17.2,17.2,0,0,1,2.06-.8,24.8,24.8,0,0,1,7.29-1.31v-2.55s-7.06-2.95-14.23,2.92c-7.89,6.45-6.25,10.73-6.25,10.73l3.12-.34" transform="translate(-43.41 -96.58)" fill="#455a64"/><path d="M262.38,224.23s16.94-6.2,20.11-6c2,.12,2.94,0,4.44,4.09,1.42,3.92,3.09,9.93,3.09,9.93l-46.89,23.17-.16-9.15,7.48-17.79Z" transform="translate(-43.41 -96.58)" fill="#455a64"/><path d="M251.36,233.42l23.82-7.74s3.92-6.57,7.81-6.09,5,5.91,5,5.91-1.73-8.84-6.11-8.07c-3.21.56-19.52,6.8-19.52,6.8l-10.69,8.91" transform="translate(-43.41 -96.58)" fill="#ebebeb"/><polygon points="246.6 135.66 249.24 138.49 203.4 161.74 199.72 158.83 246.6 135.66" fill="#455a64"/><path d="M262.79,223.88l-11.55,9.63,9.7-3.15a9.83,9.83,0,0,1-3.29,6.47s1.13,3.63-1.19,5c0,0,.75,2.12-2.75,4.39a34.44,34.44,0,0,1-9,3.57l-7.08.8a15.61,15.61,0,0,1-3.81-9.63c-.14-5.8.79-6.59.79-6.59.26-.71,6.69-8.82,8.19-9.13s8.54,1.61,8.54,1.61l5.53-2.42s3.4-1.8,4.22-1.58C261.1,222.89,262.72,223.14,262.79,223.88Z" transform="translate(-43.41 -96.58)" fill="#ffbe9d"/><path d="M251.35,226.89c.08.21-1.52,1-3.57,1.74s-3.76,1.21-3.84,1,1.53-1,3.57-1.74S251.28,226.69,251.35,226.89Z" transform="translate(-43.41 -96.58)" fill="#eb996e"/><path d="M257.72,236.64c.11.19-.91,1-2.32,1.63s-2.55,1.12-2.66.93.92-1,2.32-1.63S257.61,236.46,257.72,236.64Z" transform="translate(-43.41 -96.58)" fill="#eb996e"/><path d="M252.64,243.8c-.09-.2.69-.79,1.74-1.32s2-.8,2.08-.61-.68.78-1.74,1.31S252.73,244,252.64,243.8Z" transform="translate(-43.41 -96.58)" fill="#eb996e"/><path d="M289.74,232.37c.07.13-10.25,5.28-23,11.5s-23.19,11.16-23.26,11,10.25-5.27,23-11.5S289.68,232.24,289.74,232.37Z" transform="translate(-43.41 -96.58)" fill="#263238"/><path d="M269.25,237.58s-2.18.21-1.87,2.19l.32,2s-2.62-4.21-2.95-5.13c-1-2.68-3.32-1.34-2.87,1,.12.62.36,3.13.36,3.13s-.55-.82-2,.25c-.35.26-1,3.38-1,3.38l-2.72,1.81a14.94,14.94,0,0,0,.23,3.47,4.11,4.11,0,0,0,1.81,2.57c.41.33,5.28,4.13,6.75,3.88s2.53-1.6,2.48-2.12,2.19,0,3.22-1,1.1-1.17,1.15-1.44,2.52-1,3.3-1.86.63-1.44.63-1.44,2.21-.66,2.67-2a4,4,0,0,0,.47-2.8l-.33-1.56-1.79.9L273.4,241S270.6,237,269.25,237.58Z" transform="translate(-43.41 -96.58)" fill="#ffbe9d"/><path d="M274.08,247.26c-.09.18-2.17-.75-4.19-2.65s-3.11-3.89-2.94-4,1.51,1.61,3.47,3.42S274.19,247.06,274.08,247.26Z" transform="translate(-43.41 -96.58)" fill="#eb996e"/><path d="M268.78,249.47c-.13.15-2.09-1.4-3.94-3.84s-2.79-4.76-2.6-4.84,1.42,2,3.22,4.37S268.94,249.3,268.78,249.47Z" transform="translate(-43.41 -96.58)" fill="#eb996e"/><path d="M266.05,252.2c0,.1-.66.07-1.64-.27a8.28,8.28,0,0,1-3.34-2.25,8.09,8.09,0,0,1-1.81-3.6c-.2-1-.13-1.66,0-1.66s.46,2.52,2.44,4.74S266.14,252,266.05,252.2Z" transform="translate(-43.41 -96.58)" fill="#eb996e"/><path d="M292.65,235.07a6.15,6.15,0,0,1-.8-.65l-2.2-1.95h0c-.25-1.13-.59-2.5-1.06-4.05a31,31,0,0,0-1.94-5,10.87,10.87,0,0,0-1.7-2.49,3.56,3.56,0,0,0-1.25-.85c-.23-.08-.49-.09-.74-.15a4.83,4.83,0,0,0-3.72,1.59,18.33,18.33,0,0,0-2.48,2.58,21.48,21.48,0,0,0-1.32,1.81V226h-.09c-6.61,2.18-12.4,4.45-16.7,5.71-2.14.65-3.89,1.1-5.1,1.36-.61.15-1.08.23-1.4.29a1.4,1.4,0,0,1-.5.06,2.6,2.6,0,0,1,.47-.16l1.38-.37c1.2-.33,2.92-.83,5-1.52,4.26-1.34,10-3.66,16.65-5.86l-.14.11a22.77,22.77,0,0,1,1.35-1.87,18.8,18.8,0,0,1,2.56-2.64,7.15,7.15,0,0,1,3.18-1.65,6.76,6.76,0,0,1,.9,0,8.6,8.6,0,0,1,.88.19,3.83,3.83,0,0,1,1.42,1,10.29,10.29,0,0,1,1.76,2.62,31.17,31.17,0,0,1,1.9,5.12c.44,1.56.75,3,1,4.1v-.07l2.12,2A4.5,4.5,0,0,1,292.65,235.07Z" transform="translate(-43.41 -96.58)" fill="#263238"/><path d="M236.15,234.38s-20.76,6.1-26.18,7.43c-3.85.94-16.89,2.86-16.89,2.86l-25.89,12.1c.86,8.6,4,14.63,9,15.45s25.55-4.53,37.71-10.71a268,268,0,0,1,25.45-11.07Z" transform="translate(-43.41 -96.58)" fill="#ffbe9d"/><path d="M183.21,176a7.74,7.74,0,0,0-4.41,2.37c-2.66,2.81-7.39,9.31-9.4,21.45-2.87,17.36-2.21,57-2.21,57l27.45-11.49s2.62-38,2.91-48.3C197.79,188.13,194,174.34,183.21,176Z" transform="translate(-43.41 -96.58)" fill="#ffbe9d"/><path d="M196.11,244.44a19.84,19.84,0,0,0-5.72,2.18,20.44,20.44,0,0,0-4.46,4.2,4.53,4.53,0,0,1,.9-1.62,12.35,12.35,0,0,1,7.44-4.64A4.41,4.41,0,0,1,196.11,244.44Z" transform="translate(-43.41 -96.58)" fill="#eb996e"/></g><path d="M217.08,101.58a17.33,17.33,0,0,1,9.59,2.83,25.69,25.69,0,0,1,7.34,3.73l.17.08c12.18,8.13,11.83,22,11.13,29.48-.15,1.62-.34,3.25-.53,4.89.33,3.53.81,7,1.45,10.54a94.1,94.1,0,0,1,1.65,15.25,47.65,47.65,0,0,1-.69,7.91,15.51,15.51,0,0,0,.26,7.2,53.43,53.43,0,0,0,2.9,6,13.33,13.33,0,0,1,1.43,5.68,13.6,13.6,0,0,1-2.43,8,9.48,9.48,0,0,1-2.08,2.25,20.15,20.15,0,0,0,1.94-2.38,13.73,13.73,0,0,0,2.23-7.9,13,13,0,0,0-1.45-5.5,56,56,0,0,1-3-6,15.88,15.88,0,0,1-.31-7.41c.26-1.52.43-3.06.55-4.59-.73,3.53-3.3,6.87-2.36,10.35.81,3.22,4.4,5.32,4.81,8.62.51,4.07-3.89,6.93-5.5,10.68-1.45,3.4-.58,7.54-2.4,10.76-1.49,2.64-4.48,3.87-7.55,3.87-.26,0-.53,0-.79,0a32.63,32.63,0,0,1,.07,11.78c-.52,2.58-1,5.33-1.46,7.91l2.28-.67a1.34,1.34,0,0,1,.28-.54c.26-.71,6.69-8.82,8.19-9.13a2.42,2.42,0,0,1,.42,0c2.09,0,8.12,1.64,8.12,1.64l5.53-2.42s3-1.6,4.05-1.6l.17,0s1.63.29,1.7,1l-.41.34c.4-.15,16.33-6.24,19.5-6.79a3.27,3.27,0,0,1,.53-.05c3.71,0,5.34,7,5.55,8h0l4.16-1.59a22.48,22.48,0,0,1,11.27-3.25,14.7,14.7,0,0,1,6.32,1.25v2.55a24.8,24.8,0,0,0-7.29,1.31,17.2,17.2,0,0,0-2.06.8,18.89,18.89,0,0,0-5.71,5.31c13.11,11.05,47.13,39.47,47.13,39.47l-2.54,3.1,10.35,9,.2-.21.13-.12a1.88,1.88,0,0,1,2.68.17l4.09,4.67a1.89,1.89,0,0,1,.42,1.75l13.63,13.19s14.32.21,23.39.21c3.37,0,6,0,6.93-.11h.3c3.08,0,3.31,4.39,3.31,4.39l-11,5.86s0,0,0,.05l0,0-26.21,14c-1.87,1-3.4,2.1-4.69,2.1-.81,0-1.53-.44-2.16-1.63l-4.28-8-14.94-12.73a1.92,1.92,0,0,1-1.13.36,1.89,1.89,0,0,1-1.15-.38L334,303a1.24,1.24,0,0,1-.22-.18,1.89,1.89,0,0,1-.28-2.38L323.92,293l-.81,1L305.28,280.1c0,.72,0,1.43.05,2.13.07,3.5.14,6.66.19,9.35,0,2,.05,3.65.07,5v1.3h0v1.72a2.57,2.57,0,0,1,0,.62v50.89H274.69s-3.68-25.29-3.62-32.78a118.61,118.61,0,0,1,1.45-15.52c-.19.25-.31.4-.35.4h0a3.63,3.63,0,0,1,.41-.84l.06-.38S235,316,217.21,316.9c-2.26.11-4.57.16-6.88.16-15.89,0-31.78-2.3-31.59-2.59v0c-.46.72-.76,1.13-.76,1.13-14.44-2.22-17.89-24.14-19.89-30.53-1.17-3.85-1.1-11.71,0-29.13.74-11.49,2.18-28.65,4.59-44.32,1.45-9.44,3.63-17.46,6.49-23.85q.48-1,1-2.1a33.76,33.76,0,0,1,7.92-10.71c-.51.4-1,.81-1.51,1.24-2.92,2.53-4.78,6-6.41,9.47q-.51,1-1,2.1c-.11.21-.21.43-.31.64-6-3.65-7.75-13.65-.67-21,1.87-1.94,4.63-3.25,5.37-5.84,1-3.61-2.26-7.28-1.66-11,.88-5.39,8.82-6.72,10.77-11.83,1.18-3.1-.23-6.73.93-9.83,1.62-4.35,6.35-5.78,9.78-8.87-.35.16-.71.3-1.07.43-1.3.52-2.83,1-4.42,1.69a7.93,7.93,0,0,0-4.12,3.62c-.92,1.81-.93,4.07-1,6.37a28.85,28.85,0,0,1-.2,3.6,9,9,0,0,1-1.2,3.6,8.72,8.72,0,0,1-2.85,2.72c-1.11.72-2.31,1.3-3.45,2a10.19,10.19,0,0,0-3,2.46,7.08,7.08,0,0,0-1.33,3.44c-.31,2.46.11,4.9.07,7.25a12.32,12.32,0,0,1-.46,3.42,11.54,11.54,0,0,1-1.41,2.94c-1.15,1.76-2.47,3.17-3.55,4.55a11.41,11.41,0,0,0-3,7.46,6.09,6.09,0,0,0,.93,2.84l-.14-.15a5.25,5.25,0,0,1-.33-.49,5.37,5.37,0,0,1-.66-2.18c-.19-2,.67-5,2.92-7.71,1.07-1.4,2.38-2.83,3.48-4.55a11,11,0,0,0,1.33-2.84,11.79,11.79,0,0,0,.42-3.29c0-2.3-.4-4.74-.1-7.32a7.69,7.69,0,0,1,1.43-3.68,10.31,10.31,0,0,1,3.1-2.59c1.17-.7,2.36-1.28,3.44-2a8.44,8.44,0,0,0,2.7-2.55c1.31-2.1,1.29-4.64,1.35-6.93s.07-4.63,1.06-6.56a8.23,8.23,0,0,1,4.36-3.77c1.63-.71,3.17-1.14,4.47-1.62a13.91,13.91,0,0,0,1.9-.81l.08-.08c2.14-2.23,2.69-5.41,4.42-8a23.79,23.79,0,0,1,18.53-9.71m30.28,67v-.17a97.58,97.58,0,0,0-1.6-15.16q-.76-4.31-1.2-8.67c-.56,5.26-.89,10.55.5,15.61.75,2.8,2,5.56,2.3,8.39M288,225.35a10,10,0,0,0-.53-1.62c.18.53.36,1.07.53,1.62m-56.19,32.93.08-.28c0-.21,3.66-3.44,8.65-7.73l-1.15.13v0c-2.63,1-5.25,2-7.85,3.1.08,1.59.17,3.2.26,4.74M217.08,96.58v0a28.63,28.63,0,0,0-22.69,11.94,25.28,25.28,0,0,0-2.17,4.21,17.52,17.52,0,0,1-1.28,2.57l-.35.13-.17.06c-.4.15-.83.29-1.27.44-1,.33-2.12.71-3.35,1.24a13.28,13.28,0,0,0-6.86,6,.83.83,0,0,0-.07.13c-1.46,2.85-1.54,5.91-1.6,8.38v.76a9.79,9.79,0,0,1-.55,3.92,3.23,3.23,0,0,1-1,1l-.23.15c-.49.32-1.08.65-1.71,1-.48.26-1,.53-1.44.82a15.17,15.17,0,0,0-4.52,3.8l-.13.17a12.67,12.67,0,0,0-2.37,6.1,30.51,30.51,0,0,0,0,5.65c0,.79.09,1.54.09,2.21v.07a7.05,7.05,0,0,1-.22,1.83,6.57,6.57,0,0,1-.71,1.49l0,0a31.39,31.39,0,0,1-2,2.7c-.4.49-.79,1-1.16,1.44-2.81,3.49-4.3,7.68-4,11.24a10.23,10.23,0,0,0,1.27,4.18.56.56,0,0,0,.05.08,3.79,3.79,0,0,0,.2.34,17,17,0,0,0,4.17,9.26,108.71,108.71,0,0,0-5.16,21c-2.63,17.08-4,35.38-4.64,44.76-1.21,19.18-1.16,26.4.21,30.9.24.8.53,1.92.87,3.22,2.38,9.21,7.32,28.39,23,30.8a4.87,4.87,0,0,0,.76.06,5,5,0,0,0,2.48-.66l.35.05c2.05.3,4.67.62,7.4.9,5.32.54,13.48,1.19,22.12,1.19,2.49,0,4.88-.06,7.12-.17,13.49-.65,37-8.22,49.17-12.43q-.44,4.4-.55,8.75v.09c-.06,7.78,3.52,32.49,3.67,33.54a5,5,0,0,0,4.95,4.28H305.6a5,5,0,0,0,5-5V300.45a9.37,9.37,0,0,0,0-1.06v-2.68l0-.26v-.2c0-1.31,0-2.88-.06-4.76,0-.32,0-.64,0-1L320,298a5,5,0,0,0,3.08,1.06h.36l4.86,3.75a6.88,6.88,0,0,0,2,3.68,6.53,6.53,0,0,0,.7.58l5,3.81a6.86,6.86,0,0,0,3.89,1.4l12.39,10.56,3.83,7.17a7.29,7.29,0,0,0,6.57,4.27,12,12,0,0,0,5.92-2.06c.36-.21.73-.42,1.13-.63l25.63-13.65a5.36,5.36,0,0,0,1.18-.63L407,311.7a5,5,0,0,0,2.64-4.67c-.23-4.54-3.16-9.13-8.3-9.13l-.73,0c-.24,0-1.43.09-6.5.09-6.94,0-17.09-.13-21.34-.18L362,287.34a6.81,6.81,0,0,0-1.51-2.79l-4.07-4.64a6.89,6.89,0,0,0-5.19-2.36l-.6,0-4.44-3.88a5,5,0,0,0-1.14-6.31c-.31-.26-28.21-23.56-43-36a7.5,7.5,0,0,1,.72-.48,10.69,10.69,0,0,1,1.23-.46l.13-.05a19.53,19.53,0,0,1,5.82-1,5,5,0,0,0,4.86-5v-2.55a5,5,0,0,0-2.68-4.43,19.44,19.44,0,0,0-8.64-1.82A26.88,26.88,0,0,0,291,218.73c-2-4-5-6.35-8.55-6.35h0a7.45,7.45,0,0,0-1.4.13c-2.76.48-11.95,3.85-17.4,5.9a10.21,10.21,0,0,0-1-.33l-.2-.06a5.92,5.92,0,0,0-1.47-.19h0c-.62,0-2.24,0-6.21,2.09l-3.77,1.65a39.58,39.58,0,0,0-7.71-1.36,7.1,7.1,0,0,0-1.43.13A6.39,6.39,0,0,0,239,221.7q0-.73-.06-1.5a12.47,12.47,0,0,0,7.18-5.69,14.09,14.09,0,0,0,1.5-4.1,5,5,0,0,0,2.72-1,14.62,14.62,0,0,0,3.14-3.38,18.31,18.31,0,0,0,1.32-18.75l-.1-.19a49,49,0,0,1-2.51-5.15,10.55,10.55,0,0,1-.11-4.61l0-.15a53.14,53.14,0,0,0,.76-8.73v-.15a99.49,99.49,0,0,0-1.74-16.06c-.56-3.06-1-6.28-1.33-9.55v-.07c.17-1.44.34-2.93.48-4.4a48.61,48.61,0,0,0-.86-16.16,29.43,29.43,0,0,0-12.47-18,3.72,3.72,0,0,0-.38-.22,30.41,30.41,0,0,0-7.77-4,22.15,22.15,0,0,0-11.73-3.27Z" transform="translate(-43.41 -96.58)" fill="#fff"/><path d="M302.8,351.15l-.1,2.93a2,2,0,0,1,.93,1.8l-.46,6.56a2,2,0,0,1-.47,1.15l.15,10.78s24.74,7.35,28.07,8.81,1.2,6,1.2,6H279.31l-1.68-23.59a2,2,0,0,1-1.9-1.7l-.91-6.67a.86.86,0,0,1,0-.16,2.07,2.07,0,0,1,2-2.17l.63,0-.31-3.71H302.8m0-5H277.09a5,5,0,0,0-5,5.42v.15c-.17.16-.33.32-.49.49a7,7,0,0,0-1.82,5.1c0,.18,0,.36.05.54l.92,6.72a7,7,0,0,0,2.05,4l1.49,20.93a5,5,0,0,0,5,4.64h52.81a5,5,0,0,0,4.53-2.88c.34-.72,2-4.54.59-8.2a8,8,0,0,0-4.31-4.5c-2.85-1.25-17.7-5.74-25.13-8l-.08-5.85a7,7,0,0,0,.44-2l.46-6.57a7.1,7.1,0,0,0-.86-3.84l0-1.07a5,5,0,0,0-5-5.17Z" transform="translate(-43.41 -96.58)" fill="#fff"/><g id="freepik--Floor--inject-43"><path d="M456.59,455.11c0,.14-92.5.26-206.58.26s-206.6-.12-206.6-.26,92.48-.26,206.6-.26S456.59,455,456.59,455.11Z" transform="translate(-43.41 -96.58)" fill="#263238"/></g><g id="freepik--Globe--inject-43"><path d="M140.7,369.14a8.58,8.58,0,0,0-.14-1.23c-.06-.41-.12-.86-.2-1.29.08.43.14.86.2,1.29S140.66,368.73,140.7,369.14Z" transform="translate(-43.41 -96.58)" fill="#92e3a9"/><path d="M137.36,374.25a18.66,18.66,0,0,1-.68-2.54,1.66,1.66,0,0,0-.78-1.14,4.9,4.9,0,0,0-.92-.21c-1.09-.32-1.39-1.83-2.42-2.29a3.45,3.45,0,0,0-1-.22,5.4,5.4,0,0,1-3.67-1.7,6.25,6.25,0,0,0-.85-1,1,1,0,0,0-1.25-.11l.86,1.72a4.61,4.61,0,0,0,1,1.43,1.58,1.58,0,0,0,1.63.35,1.07,1.07,0,0,1,.54-.19.65.65,0,0,1,.36.22,2.35,2.35,0,0,1-.23,3,7.07,7.07,0,0,1-2.85,1.69,2.25,2.25,0,0,1-1.17.22c-.72-.13-1.1-.91-1.31-1.61-.48-1.54-.7-3.22-1.67-4.52a5.82,5.82,0,0,1-.88-1.26c-.2-.52-.15-1.13-.47-1.58s-1-.76-1.06-1.33a1,1,0,0,1,.68-.93c.37-.18.79-.24,1.18-.39.15-.06.32-.17.32-.34s-.34-.33-.42-.56.17-.49.28-.74c.24-.56-.36-1.13-.93-1.36s-1.27-.4-1.54-1a3,3,0,0,1-.18-.83,1.83,1.83,0,0,0-1.37-1.48,1.18,1.18,0,0,0-1.37,1,1,1,0,0,0,0,.24,4.75,4.75,0,0,0,.52,1c.16.36.12.89-.26,1-.61.18-1.2-.92-1.71-.54.21.7.41,1.41.62,2.13-.8.4-1.76-.33-2.1-1.16s-.36-1.77-.77-2.56-1.51-1.4-2.2-.83c0,1,1.33,1.44,1.93,2.27A1.37,1.37,0,0,1,113,360l0,0c-.64.38-1.66-.28-1.41-1,.08-.24.29-.44.31-.7a1,1,0,0,0-.5-.79l-1.17-1a2.65,2.65,0,0,0-.83-.52,2,2,0,0,0-2,1.13,10.42,10.42,0,0,1-1.25,2.14,2.3,2.3,0,0,1-3.24,0,1.87,1.87,0,0,1,.28-2.63,1.92,1.92,0,0,1,.5-.29c.44-.12,1-.11,1.24-.5.4-.68-.76-1.56-.36-2.25.31-.53,1.13-.29,1.72-.47s.92-.77,1.27-1.27.89-1,1.49-.88a1.79,1.79,0,0,1,.07-1.05.66.66,0,0,1,.86-.34l0,0a1.06,1.06,0,0,0,.53,1.39h0a3.07,3.07,0,0,0,1.7.12c.57-.07,1.29-.27,1.33-.84a2,2,0,0,1,0-.55c.25-.68,1.51.25,2-.29.28-.28,0-.78-.42-.88a4.68,4.68,0,0,0-1.18.06c-.4,0-.88-.19-.9-.58s.42-.66.47-1c.07-.65-1-.82-1.42-.29a2.41,2.41,0,0,0-.14,1.88,2,2,0,0,1-.29,1.85c-.21.3-.74.14-.91-.18a2.64,2.64,0,0,1-.17-1.08.92.92,0,0,0-.55-.88,2.06,2.06,0,0,0-.78.08c-1,.13-1.72-1.17-1.4-2.13a4.14,4.14,0,0,1,2.13-2.07,2.26,2.26,0,0,1,2-.24c.3.16.51.45.81.62a3.63,3.63,0,0,0,1.73.21,4,4,0,0,1,2.54,1c.26.24.5.63.3.91s-.86.36-.75.71a1.26,1.26,0,0,0,1.56-.88l0-.12a1,1,0,0,1,.61.85,1.9,1.9,0,0,1,2.68.12l.09.1a2.16,2.16,0,0,0,.51.65c.23.15.64.08.67-.19a.53.53,0,0,0,0-.25c-.14-.4-.28-.78-.42-1.17.54-.29,1.18.16,1.55.65,1.36,1.8,2.33.72,4.25,1,1.3.2,1.87,1,2.61,2C133,353.27,136,355.78,138,359a10.18,10.18,0,0,1,.6,1,2,2,0,0,0-.1-.26,35.39,35.39,0,0,0-3-6c-.25-.4-.5-.8-.77-1.19s-.33-.49-.5-.72-.44-.62-.67-.92-.36-.47-.55-.7l-.39-.49c-.13-.16-.29-.36-.46-.54l-.48-.56-.16-.17c-.17-.2-.35-.39-.53-.58l-.05-.06-.16-.15c-.14-.16-.3-.32-.45-.47s-.51-.51-.77-.75l-.66-.62-.6-.53-.6-.51-.75-.61h0c-.71-.56-1.43-1.09-2.18-1.58l-.55-.37-.57-.36-.57-.34-.57-.34L122,341l-.24-.13c-.33-.19-.67-.37-1-.53-.17-.09-.33-.18-.51-.26l-.66-.31-.1,0-.6-.27-.85-.35-1-.39c-.36-.14-.73-.27-1.1-.39l-1.13-.36c-.38-.12-.76-.22-1.15-.33-.75-.2-1.52-.38-2.3-.53h0l-.89-.17h-.06l-.39-.06c-.56-.09-1.12-.17-1.68-.23h-.2l-.5-.06-1.12-.08c-.39,0-.79-.05-1.19-.06h-1.24a25.09,25.09,0,0,0-3.25.14l-.75.07-.79.09-.78.11-.78.13a3.15,3.15,0,0,0-.67.12c-.55.1-1.09.22-1.63.34l-.75.2-.74.2c-.42.11-.82.24-1.22.37h0l-1,.32h0l-1,.36h0l-.89.35q-.54.22-1.08.48c-.3.13-.6.27-.89.42l-.94.47h0c-.3.15-.6.31-.89.48s-.6.34-.89.52h0l-.83.51-.31.2-.85.57c-.35.24-.69.49-1,.74s-.59.44-.87.66a36.54,36.54,0,0,0-4.58,4.3,19.82,19.82,0,0,0-1.42,1.66l-1.11,1.48c-.36.48-.63.89-.92,1.34.29-.45.6-.9.92-1.34h.28a4.31,4.31,0,0,0,1.55-.25,7.53,7.53,0,0,0,1.14-.88c1-.71,2.68-.84,3-2a8.56,8.56,0,0,1,.13-1.23c.29-.72,1.26-.82,2-.81.33,0,.72.05.88.33a.87.87,0,0,1,0,.67,6.24,6.24,0,0,1-2.67,3.25c-1,.61-2.34,1.08-2.62,2.23.14.38.85.35.91.76s-.38.49-.53.77.29.94.77.91a2.09,2.09,0,0,0,1.24-.69,7.83,7.83,0,0,0,2.56-3.4,3,3,0,0,1,.69-1.62,1.14,1.14,0,0,1,1.59.28.87.87,0,0,1,.14.27c.46-.26,1.17-.45,1.41,0a2.54,2.54,0,0,1,.1.55c.15.73,1.17,1.07,1.28,1.81s-1,1.3-1.86,1.44l-2.36.36a2.11,2.11,0,0,0-1,.32.74.74,0,0,0-.29.9,2,2,0,0,0,.41.42,1.23,1.23,0,0,1-.2,1.74,1.28,1.28,0,0,1-.61.26c-.31,0-.62-.1-.94-.11a2.53,2.53,0,0,0-2.11,1.58,6.21,6.21,0,0,1-1.52,2.29c-1.2.9-3.27.69-3.85,2.06a3.32,3.32,0,0,0,0,1.77,2.27,2.27,0,0,1-.21,1.73c-.35.49-1.24.59-1.5.05a1.27,1.27,0,0,1,0-.77c.14-.85.28-1.7.41-2.56a2.5,2.5,0,0,0-.19-1.86,1.73,1.73,0,0,0-2.41-.07,4.15,4.15,0,0,0-1.15,2.36,10,10,0,0,1-.67,2.29h0c-.12.72-.22,1.44-.3,2.18s-.12,1.49-.15,2.25a3.83,3.83,0,0,0,.29-.28c.37-.37,1.11-2,1.77-1.18a.6.6,0,0,1,0,.72c-.21.26-.62.32-.77.6s.07.75.39,1a3.23,3.23,0,0,1,.92.68c.42.6,0,1.52.43,2.14s1.11.56,1.76.63h.22a2.93,2.93,0,0,1,2.53-2.7c2.41-.54,5.58,1.44,6.93,3.24,1.52,2,2.24,4.85,4.55,5.86,1.66.72,4,.46,4.83,2.07.72,1.44-.53,3.06-.73,4.66A16.65,16.65,0,0,0,91,391.9a2.69,2.69,0,0,1-1.21,2.74c-.54.24-1.22.21-1.66.62-.77.72-.14,2.22-.91,2.95a4.71,4.71,0,0,1-1,.51c-1.74.87-1.69,3.41-.88,5.16a1.54,1.54,0,0,1,.08.19,37.2,37.2,0,0,0,36.15.9h0a37.32,37.32,0,0,0,7.83-5.53,38.07,38.07,0,0,0,2.79-2.89c.62-.7,1.2-1.44,1.76-2.19.29-.38.57-.77.83-1.17a34.37,34.37,0,0,0,2.2-3.63,35.33,35.33,0,0,0,2.38-5.68,34.24,34.24,0,0,0,1.4-6.17c.11-.82.2-1.65.26-2.49a2.09,2.09,0,0,1-1.48.65A2.38,2.38,0,0,1,137.36,374.25Z" transform="translate(-43.41 -96.58)" fill="#92e3a9"/><path d="M95.29,345.87c-.73.44-1.11,1.25-1.68,1.88s-1.57,1.08-2.23.55a1.47,1.47,0,0,1-.5-1.07,2.72,2.72,0,0,1,.4-1.67c.31-.51.8-.91,1.06-1.45a1.16,1.16,0,0,0-.33-1.57c-.3-.14-.67-.09-.94-.28-.47-.34-.13-1.16.42-1.37a4.3,4.3,0,0,1,1.75,0c2.13.14,3.7-1.24,5.31-2.39,1.24-.9,3.9-1.95,5.34-1,.58.37.81,1.3.26,1.71-.24.19-.57.23-.8.43s-.31.65-.47,1c-.4.85-1.56,1.16-1.94,2-.22.52-.12,1.17-.47,1.62a2,2,0,0,1-1.2.59l-2.78.65A4.52,4.52,0,0,0,95.29,345.87Z" transform="translate(-43.41 -96.58)" fill="#92e3a9"/><path d="M120.17,390.69a11.36,11.36,0,0,0-1.35,4.73,7.09,7.09,0,0,1-2,4.44c-1.27,1.07-3.6,1-4.3-.49a13.25,13.25,0,0,1-.39-2.65c-.27-1.14-1.18-2-1.62-3.1a8.6,8.6,0,0,1-.4-2.94c-.16-5.44-1.5-11.12-5.25-15.11a3.67,3.67,0,0,0-1.63-1.14,2.1,2.1,0,0,0-2.15.73,7.37,7.37,0,0,1-.83,1.23,1.9,1.9,0,0,1-2.63-.56,1,1,0,0,1-.1-.17,5.46,5.46,0,0,1-.37-3.14l.33-4a3.34,3.34,0,0,1,.6-2c.65-.74,1.83-.78,2.63-1.37,1-.78,1.18-2.26,1.84-3.38s2.74-1.59,3-.33c2.19-4.64,7,2.25,9.91,1.73a8.09,8.09,0,0,1,2.49-.43c1.48.21,2.25,1.82,2.75,3.22l2.52,7a3.33,3.33,0,0,0,1.62,2.21c.67.26,1.46.06,2.14.31,1.81.65,1.22,3.46-.23,4.7s-3.49,2-4.18,3.8c-.52,1.34-.11,2.9-.67,4.22A16.51,16.51,0,0,1,120.17,390.69Z" transform="translate(-43.41 -96.58)" fill="#92e3a9"/><path d="M127,392.2c-.59.08-1.29-.21-1.74.19a1.78,1.78,0,0,0-.43.93,2,2,0,0,1-.84,1.13,1.26,1.26,0,0,1-1.37,0,.91.91,0,0,1-.2-1.26h0a5.17,5.17,0,0,1,.51-.42c.79-.73.25-2.1.85-3,.35-.52.91-1,1.29-1.57s.41-.72,1-.82C128.46,386.91,129.54,391.85,127,392.2Z" transform="translate(-43.41 -96.58)" fill="#92e3a9"/><path d="M72.09,382.32a23.59,23.59,0,0,1,.25-3.14V377a10.66,10.66,0,0,1-1.87-.26.59.59,0,0,1-.35-.18.63.63,0,0,1-.07-.38c0-.82-.85-1.36-1.56-1.77a6,6,0,0,0-1.14-.55v.25a36,36,0,0,0,2.34,11.55,34.61,34.61,0,0,0,2.25,4.77c.36.67.75,1.32,1.17,2a20.44,20.44,0,0,0,1.62,2.3c.62.74,1.11,1.41,1.71,2.08a36.12,36.12,0,0,0,2.6,2.65c.81.75,1.66,1.46,2.54,2.13-2-5.33-3.91-10.78-7.34-15.32C73.29,385,72.26,383.8,72.09,382.32Z" transform="translate(-43.41 -96.58)" fill="#92e3a9"/><path d="M67.29,372.09v0Z" transform="translate(-43.41 -96.58)" fill="#92e3a9"/><path d="M83.6,403c.3.21.62.41.93.6l.67.41-.67-.41Z" transform="translate(-43.41 -96.58)" fill="#92e3a9"/><path d="M67.32,371.24h0a.67.67,0,0,0,0,.2v0A.67.67,0,0,1,67.32,371.24Z" transform="translate(-43.41 -96.58)" fill="#92e3a9"/><path d="M67.29,373.28v.54h0Z" transform="translate(-43.41 -96.58)" fill="#92e3a9"/><path d="M72.35,375.55h-.22c-.65-.07-1.41-.1-1.76-.63s0-1.54-.43-2.14a3.23,3.23,0,0,0-.92-.68.82.82,0,0,1-.39-1c.19-.37.56-.34.77-.6a.6.6,0,0,0,0-.72c-.66-.78-1.4.81-1.77,1.18a3.83,3.83,0,0,1-.29.28h0a.67.67,0,0,0,0,.2v2.38a6,6,0,0,1,1.14.55c.71.41,1.51.95,1.56,1.77a.63.63,0,0,0,.07.38.59.59,0,0,0,.35.18,10.66,10.66,0,0,0,1.87.26" transform="translate(-43.41 -96.58)" fill="#92e3a9"/><path d="M72.29,377c0,.73.06,1.5,0,2.22a23.59,23.59,0,0,0-.25,3.14c.17,1.48,1.2,2.69,2.11,3.87,3.43,4.54,5.33,10,7.34,15.32h0c.37.3.75.57,1.14.85l.92.63c.3.21.62.41.93.6l.67.41a1.08,1.08,0,0,0-.08-.19c-.81-1.75-.86-4.29.88-5.16a4.71,4.71,0,0,0,1-.51c.77-.73.14-2.23.91-2.95.44-.41,1.12-.38,1.66-.62a2.69,2.69,0,0,0,1.21-2.74,16.65,16.65,0,0,1-.31-3.15c.2-1.6,1.45-3.22.73-4.66-.81-1.61-3.17-1.35-4.83-2.07-2.31-1-3-3.85-4.55-5.86-1.35-1.8-4.52-3.78-6.93-3.24a2.93,2.93,0,0,0-2.53,2.7" transform="translate(-43.41 -96.58)" fill="#92e3a9"/><path d="M69.59,362.15a1.73,1.73,0,0,1,2.41.07,2.5,2.5,0,0,1,.19,1.86c-.13.86-.27,1.71-.41,2.56a1.27,1.27,0,0,0,0,.77c.26.54,1.15.44,1.5-.05a2.27,2.27,0,0,0,.21-1.73,3.32,3.32,0,0,1,0-1.77c.58-1.37,2.65-1.16,3.85-2.06a6.21,6.21,0,0,0,1.52-2.29A2.54,2.54,0,0,1,81,357.93c.32,0,.63.12.94.11A1.24,1.24,0,0,0,83,356.65a1.28,1.28,0,0,0-.26-.61,2,2,0,0,1-.41-.42.74.74,0,0,1,.29-.9,2.11,2.11,0,0,1,1-.32L86,354c.86-.14,2-.58,1.86-1.44s-1.13-1.08-1.28-1.81a2.54,2.54,0,0,0-.1-.55c-.24-.47-1-.28-1.41,0a1.14,1.14,0,0,0-1.46-.69,1,1,0,0,0-.27.14,3,3,0,0,0-.69,1.62,7.83,7.83,0,0,1-2.56,3.4,2.09,2.09,0,0,1-1.24.69c-.48,0-1-.49-.77-.91s.57-.45.53-.77-.77-.38-.91-.76c.28-1.15,1.6-1.62,2.62-2.23A6.3,6.3,0,0,0,83,347.46a.87.87,0,0,0,0-.67c-.16-.28-.55-.33-.88-.33-.78,0-1.75.09-2,.81A8.54,8.54,0,0,0,80,348.5c-.27,1.2-1.93,1.33-3,2a7.53,7.53,0,0,1-1.14.88,4.31,4.31,0,0,1-1.55.25H74c-.32.44-.63.89-.92,1.34s-.59.92-.87,1.39a36.22,36.22,0,0,0-3.19,7c-.28.87-.54,1.74-.75,2.63s-.41,1.79-.56,2.7a10,10,0,0,0,.67-2.29A4.18,4.18,0,0,1,69.59,362.15Z" transform="translate(-43.41 -96.58)" fill="#92e3a9"/><path d="M140.87,372.25v.5c0,.81,0,1.6-.07,2.4,0-.8.07-1.59.07-2.4A4.17,4.17,0,0,0,140.87,372.25Z" transform="translate(-43.41 -96.58)" fill="#92e3a9"/><path d="M138.57,360c.18.47.34.93.5,1.4C138.91,360.93,138.75,360.47,138.57,360Z" transform="translate(-43.41 -96.58)" fill="#92e3a9"/><path d="M140.87,372.25v-1.56a13.31,13.31,0,0,0-.13-1.55c-.06-.55-.08-.82-.14-1.23s-.12-.86-.2-1.29a32.32,32.32,0,0,0-.86-3.78c-.13-.48-.28-.95-.43-1.41s-.32-.93-.5-1.4h0a10.18,10.18,0,0,0-.6-1c-2-3.21-5-5.72-7.26-8.78-.74-1-1.31-1.82-2.61-2-1.92-.29-2.89.79-4.25-1-.37-.49-1-.94-1.55-.65l.42,1.17a.53.53,0,0,1,0,.25c0,.27-.44.34-.67.19a2.16,2.16,0,0,1-.51-.65,1.9,1.9,0,0,0-2.67-.31l-.1.09a1,1,0,0,0-.61-.85,1.27,1.27,0,0,1-1.47,1l-.12,0c-.11-.35.53-.41.75-.71s0-.67-.3-.91a4,4,0,0,0-2.54-1,3.63,3.63,0,0,1-1.73-.21c-.3-.17-.51-.46-.81-.62a2.28,2.28,0,0,0-2.11.32,4.14,4.14,0,0,0-2.13,2.07c-.32,1,.39,2.26,1.4,2.13a2.06,2.06,0,0,1,.78-.08.92.92,0,0,1,.55.88,2.64,2.64,0,0,0,.17,1.08c.17.32.7.48.91.18a2,2,0,0,0,.29-1.85,2.41,2.41,0,0,1,.14-1.88c.39-.53,1.49-.36,1.42.29,0,.38-.48.65-.47,1s.5.6.9.58a4.68,4.68,0,0,1,1.18-.06c.39.1.7.6.42.88-.48.54-1.74-.39-2,.29a1.45,1.45,0,0,0,0,.55c0,.57-.76.77-1.33.84a3.07,3.07,0,0,1-1.7-.12,1,1,0,0,1-.58-1.36v0a.65.65,0,0,0-.87.29l0,0a1.79,1.79,0,0,0-.07,1.05c-.6-.13-1.15.38-1.49.88s-.68,1.09-1.27,1.27-1.41-.06-1.72.47c-.4.69.76,1.57.36,2.25-.24.39-.8.38-1.24.5a1.88,1.88,0,0,0-1.07,2.42,1.92,1.92,0,0,0,.29.5,2.3,2.3,0,0,0,3.24,0,10.42,10.42,0,0,0,1.25-2.14,2,2,0,0,1,2-1.13,2.65,2.65,0,0,1,.83.52l1.17,1a1,1,0,0,1,.5.79c0,.26-.23.46-.31.7-.25.7.77,1.36,1.41,1a1.37,1.37,0,0,0,.3-1.91l0,0c-.6-.83-2-1.25-1.93-2.27.69-.57,1.8,0,2.2.83s.42,1.74.77,2.56,1.3,1.56,2.1,1.16c-.21-.72-.41-1.43-.62-2.13.51-.38,1.1.72,1.71.54.38-.12.42-.65.26-1a4.75,4.75,0,0,1-.52-1,1.19,1.19,0,0,1,1.15-1.23l.24,0a1.83,1.83,0,0,1,1.37,1.48,3,3,0,0,0,.18.83c.27.55,1,.72,1.54,1s1.17.8.93,1.36c-.11.25-.38.49-.28.74s.42.32.42.56-.17.28-.32.34c-.39.15-.81.21-1.18.39a1,1,0,0,0-.68.93c0,.57.74.85,1.06,1.33a7.19,7.19,0,0,1,.47,1.58,5.82,5.82,0,0,0,.88,1.26c1,1.3,1.19,3,1.67,4.52.21.7.59,1.48,1.31,1.61a2.25,2.25,0,0,0,1.17-.22,7.07,7.07,0,0,0,2.85-1.69,2.35,2.35,0,0,0,.23-3,.65.65,0,0,0-.36-.22,1.07,1.07,0,0,0-.54.19,1.58,1.58,0,0,1-1.63-.35,4.61,4.61,0,0,1-1-1.43l-.86-1.72a1,1,0,0,1,1.25.11,6.25,6.25,0,0,1,.85,1,5.4,5.4,0,0,0,3.67,1.7,3.45,3.45,0,0,1,1,.22c1,.46,1.33,2,2.42,2.29a4.9,4.9,0,0,1,.92.21,1.66,1.66,0,0,1,.78,1.14,18.66,18.66,0,0,0,.68,2.54,2.37,2.37,0,0,0,2,1.55,2.09,2.09,0,0,0,1.48-.65h0c.05-.8.07-1.59.07-2.4A1.68,1.68,0,0,0,140.87,372.25Z" transform="translate(-43.41 -96.58)" fill="#92e3a9"/><path d="M126.06,387.38c-.55.1-.66.42-1,.82a20.09,20.09,0,0,0-1.29,1.57c-.6.87-.06,2.24-.85,3a5.17,5.17,0,0,0-.51.42.9.9,0,0,0,.18,1.26h0a1.26,1.26,0,0,0,1.37,0,2,2,0,0,0,.84-1.13,1.78,1.78,0,0,1,.43-.93c.45-.4,1.15-.11,1.74-.19C129.54,391.85,128.46,386.91,126.06,387.38Z" transform="translate(-43.41 -96.58)" fill="#92e3a9"/><g opacity="0.3"><path d="M140.7,369.14a8.58,8.58,0,0,0-.14-1.23c-.06-.41-.12-.86-.2-1.29.08.43.14.86.2,1.29S140.66,368.73,140.7,369.14Z" transform="translate(-43.41 -96.58)"/></g><g opacity="0.3"><path d="M95.29,345.87c-.73.44-1.11,1.25-1.68,1.88s-1.57,1.08-2.23.55a1.47,1.47,0,0,1-.5-1.07,2.72,2.72,0,0,1,.4-1.67c.31-.51.8-.91,1.06-1.45a1.16,1.16,0,0,0-.33-1.57c-.3-.14-.67-.09-.94-.28-.47-.34-.13-1.16.42-1.37a4.3,4.3,0,0,1,1.75,0c2.13.14,3.7-1.24,5.31-2.39,1.24-.9,3.9-1.95,5.34-1,.58.37.81,1.3.26,1.71-.24.19-.57.23-.8.43s-.31.65-.47,1c-.4.85-1.56,1.16-1.94,2-.22.52-.12,1.17-.47,1.62a2,2,0,0,1-1.2.59l-2.78.65A4.52,4.52,0,0,0,95.29,345.87Z" transform="translate(-43.41 -96.58)"/></g><g opacity="0.3"><path d="M120.17,390.69a11.36,11.36,0,0,0-1.35,4.73,7.09,7.09,0,0,1-2,4.44c-1.27,1.07-3.6,1-4.3-.49a13.25,13.25,0,0,1-.39-2.65c-.27-1.14-1.18-2-1.62-3.1a8.6,8.6,0,0,1-.4-2.94c-.16-5.44-1.5-11.12-5.25-15.11a3.67,3.67,0,0,0-1.63-1.14,2.1,2.1,0,0,0-2.15.73,7.37,7.37,0,0,1-.83,1.23,1.9,1.9,0,0,1-2.63-.56,1,1,0,0,1-.1-.17,5.46,5.46,0,0,1-.37-3.14l.33-4a3.34,3.34,0,0,1,.6-2c.65-.74,1.83-.78,2.63-1.37,1-.78,1.18-2.26,1.84-3.38s2.74-1.59,3-.33c2.19-4.64,7,2.25,9.91,1.73a8.09,8.09,0,0,1,2.49-.43c1.48.21,2.25,1.82,2.75,3.22l2.52,7a3.33,3.33,0,0,0,1.62,2.21c.67.26,1.46.06,2.14.31,1.81.65,1.22,3.46-.23,4.7s-3.49,2-4.18,3.8c-.52,1.34-.11,2.9-.67,4.22A16.51,16.51,0,0,1,120.17,390.69Z" transform="translate(-43.41 -96.58)"/></g><g opacity="0.3"><path d="M67.29,372.09v0Z" transform="translate(-43.41 -96.58)"/></g><g opacity="0.3"><path d="M83.6,403c.3.21.62.41.93.6l.67.41-.67-.41Z" transform="translate(-43.41 -96.58)"/></g><g opacity="0.3"><path d="M67.32,371.24h0a.67.67,0,0,0,0,.2v0A.67.67,0,0,1,67.32,371.24Z" transform="translate(-43.41 -96.58)"/></g><g opacity="0.3"><path d="M67.29,373.28v.54h0Z" transform="translate(-43.41 -96.58)"/></g><g opacity="0.3"><path d="M90.46,388.68c.2-1.6,1.45-3.22.73-4.66-.81-1.61-3.17-1.35-4.83-2.07-2.31-1-3-3.85-4.55-5.86-1.35-1.8-4.52-3.78-6.93-3.24a2.93,2.93,0,0,0-2.53,2.7h-.22c-.65-.07-1.41-.1-1.76-.63s0-1.54-.43-2.14a3.23,3.23,0,0,0-.92-.68.82.82,0,0,1-.39-1c.19-.37.56-.34.77-.6a.6.6,0,0,0,0-.72c-.66-.78-1.4.81-1.77,1.18a3.83,3.83,0,0,1-.29.28h0a.67.67,0,0,0,0,.2v2.63a36,36,0,0,0,2.34,11.55,36.36,36.36,0,0,0,2.24,4.77c.37.67.76,1.32,1.18,2a20.44,20.44,0,0,0,1.62,2.3c.62.74,1.11,1.41,1.71,2.08a36.12,36.12,0,0,0,2.6,2.65c.81.75,1.66,1.46,2.54,2.13h0c.37.3.75.57,1.14.85l.92.63c.3.21.62.41.93.6l.67.41a1.08,1.08,0,0,0-.08-.19c-.81-1.75-.86-4.29.88-5.16a4.71,4.71,0,0,0,1-.51c.77-.73.14-2.23.91-2.95.44-.41,1.12-.38,1.66-.62a2.69,2.69,0,0,0,1.21-2.74A16.31,16.31,0,0,1,90.46,388.68ZM70,376.14a.63.63,0,0,0,.07.38A.63.63,0,0,1,70,376.14Z" transform="translate(-43.41 -96.58)"/></g><g opacity="0.3"><path d="M69.59,362.15a1.73,1.73,0,0,1,2.41.07,2.5,2.5,0,0,1,.19,1.86c-.13.86-.27,1.71-.41,2.56a1.27,1.27,0,0,0,0,.77c.26.54,1.15.44,1.5-.05a2.27,2.27,0,0,0,.21-1.73,3.32,3.32,0,0,1,0-1.77c.58-1.37,2.65-1.16,3.85-2.06a6.21,6.21,0,0,0,1.52-2.29A2.54,2.54,0,0,1,81,357.93c.32,0,.63.12.94.11A1.24,1.24,0,0,0,83,356.65a1.28,1.28,0,0,0-.26-.61,2,2,0,0,1-.41-.42.74.74,0,0,1,.29-.9,2.11,2.11,0,0,1,1-.32L86,354c.86-.14,2-.58,1.86-1.44s-1.13-1.08-1.28-1.81a2.54,2.54,0,0,0-.1-.55c-.24-.47-1-.28-1.41,0a1.14,1.14,0,0,0-1.46-.69,1,1,0,0,0-.27.14,3,3,0,0,0-.69,1.62,7.83,7.83,0,0,1-2.56,3.4,2.09,2.09,0,0,1-1.24.69c-.48,0-1-.49-.77-.91s.57-.45.53-.77-.77-.38-.91-.76c.28-1.15,1.6-1.62,2.62-2.23A6.3,6.3,0,0,0,83,347.46a.87.87,0,0,0,0-.67c-.16-.28-.55-.33-.88-.33-.78,0-1.75.09-2,.81A8.54,8.54,0,0,0,80,348.5c-.27,1.2-1.93,1.33-3,2a7.53,7.53,0,0,1-1.14.88,4.31,4.31,0,0,1-1.55.25H74c-.32.44-.63.89-.92,1.34s-.59.92-.87,1.39a36.22,36.22,0,0,0-3.19,7c-.28.87-.54,1.74-.75,2.63s-.41,1.79-.56,2.7a10,10,0,0,0,.67-2.29A4.18,4.18,0,0,1,69.59,362.15Z" transform="translate(-43.41 -96.58)"/></g><g opacity="0.3"><path d="M140.87,372.25v.5c0,.81,0,1.6-.07,2.4,0-.8.07-1.59.07-2.4A4.17,4.17,0,0,0,140.87,372.25Z" transform="translate(-43.41 -96.58)"/></g><g opacity="0.3"><path d="M138.57,360c.18.47.34.93.5,1.4C138.91,360.93,138.75,360.47,138.57,360Z" transform="translate(-43.41 -96.58)"/></g><g opacity="0.3"><path d="M140.87,372.25v-1.56a13.31,13.31,0,0,0-.13-1.55c-.06-.55-.08-.82-.14-1.23s-.12-.86-.2-1.29a32.32,32.32,0,0,0-.86-3.78c-.13-.48-.28-.95-.43-1.41s-.32-.93-.5-1.4h0a10.18,10.18,0,0,0-.6-1c-2-3.21-5-5.72-7.26-8.78-.74-1-1.31-1.82-2.61-2-1.92-.29-2.89.79-4.25-1-.37-.49-1-.94-1.55-.65l.42,1.17a.53.53,0,0,1,0,.25c0,.27-.44.34-.67.19a2.16,2.16,0,0,1-.51-.65,1.9,1.9,0,0,0-2.67-.31l-.1.09a1,1,0,0,0-.61-.85,1.27,1.27,0,0,1-1.47,1l-.12,0c-.11-.35.53-.41.75-.71s0-.67-.3-.91a4,4,0,0,0-2.54-1,3.63,3.63,0,0,1-1.73-.21c-.3-.17-.51-.46-.81-.62a2.28,2.28,0,0,0-2.11.32,4.14,4.14,0,0,0-2.13,2.07c-.32,1,.39,2.26,1.4,2.13a2.06,2.06,0,0,1,.78-.08.92.92,0,0,1,.55.88,2.64,2.64,0,0,0,.17,1.08c.17.32.7.48.91.18a2,2,0,0,0,.29-1.85,2.41,2.41,0,0,1,.14-1.88c.39-.53,1.49-.36,1.42.29,0,.38-.48.65-.47,1s.5.6.9.58a4.68,4.68,0,0,1,1.18-.06c.39.1.7.6.42.88-.48.54-1.74-.39-2,.29a1.45,1.45,0,0,0,0,.55c0,.57-.76.77-1.33.84a3.07,3.07,0,0,1-1.7-.12,1,1,0,0,1-.58-1.36v0a.65.65,0,0,0-.87.29l0,0a1.79,1.79,0,0,0-.07,1.05c-.6-.13-1.15.38-1.49.88s-.68,1.09-1.27,1.27-1.41-.06-1.72.47c-.4.69.76,1.57.36,2.25-.24.39-.8.38-1.24.5a1.88,1.88,0,0,0-1.07,2.42,1.92,1.92,0,0,0,.29.5,2.3,2.3,0,0,0,3.24,0,10.42,10.42,0,0,0,1.25-2.14,2,2,0,0,1,2-1.13,2.65,2.65,0,0,1,.83.52l1.17,1a1,1,0,0,1,.5.79c0,.26-.23.46-.31.7-.25.7.77,1.36,1.41,1a1.37,1.37,0,0,0,.3-1.91l0,0c-.6-.83-2-1.25-1.93-2.27.69-.57,1.8,0,2.2.83s.42,1.74.77,2.56,1.3,1.56,2.1,1.16c-.21-.72-.41-1.43-.62-2.13.51-.38,1.1.72,1.71.54.38-.12.42-.65.26-1a4.75,4.75,0,0,1-.52-1,1.19,1.19,0,0,1,1.15-1.23l.24,0a1.83,1.83,0,0,1,1.37,1.48,3,3,0,0,0,.18.83c.27.55,1,.72,1.54,1s1.17.8.93,1.36c-.11.25-.38.49-.28.74s.42.32.42.56-.17.28-.32.34c-.39.15-.81.21-1.18.39a1,1,0,0,0-.68.93c0,.57.74.85,1.06,1.33a7.19,7.19,0,0,1,.47,1.58,5.82,5.82,0,0,0,.88,1.26c1,1.3,1.19,3,1.67,4.52.21.7.59,1.48,1.31,1.61a2.25,2.25,0,0,0,1.17-.22,7.07,7.07,0,0,0,2.85-1.69,2.35,2.35,0,0,0,.23-3,.65.65,0,0,0-.36-.22,1.07,1.07,0,0,0-.54.19,1.58,1.58,0,0,1-1.63-.35,4.61,4.61,0,0,1-1-1.43l-.86-1.72a1,1,0,0,1,1.25.11,6.25,6.25,0,0,1,.85,1,5.4,5.4,0,0,0,3.67,1.7,3.45,3.45,0,0,1,1,.22c1,.46,1.33,2,2.42,2.29a4.9,4.9,0,0,1,.92.21,1.66,1.66,0,0,1,.78,1.14,18.66,18.66,0,0,0,.68,2.54,2.37,2.37,0,0,0,2,1.55,2.09,2.09,0,0,0,1.48-.65h0c.05-.8.07-1.59.07-2.4A1.68,1.68,0,0,0,140.87,372.25Z" transform="translate(-43.41 -96.58)"/></g><rect x="58.31" y="315.23" width="4.73" height="16.64" fill="#263238"/><path d="M104.08,412.87C81.43,412.87,63,394.63,63,372.22a40.61,40.61,0,0,1,21.16-35.56l.45-.25,2.75,3.8-1,.69-2.13-3a39.47,39.47,0,0,0-20.1,34.28c0,21.76,17.91,39.47,39.91,39.47a40.25,40.25,0,0,0,25-8.74l-1.66-1.64.83-.84L130.8,403l-.5.42A41.42,41.42,0,0,1,104.08,412.87Z" transform="translate(-43.41 -96.58)" fill="#263238"/><rect x="41.79" y="331.87" width="36.4" height="2.81" fill="#263238"/></g><path d="M84.61,336.41l2.75,3.8-1,.69-2.13-3a39.47,39.47,0,0,0-20.1,34.28c0,21.76,17.91,39.47,39.91,39.47a40.25,40.25,0,0,0,25-8.74l-1.66-1.64.82-.83a37.67,37.67,0,0,1-6.67,4.53,37.2,37.2,0,0,1-36.15-.9,1.54,1.54,0,0,0-.08-.19c-.81-1.75-.86-4.29.88-5.16a4.71,4.71,0,0,0,1-.51c.77-.73.14-2.23.91-2.95.44-.41,1.12-.38,1.66-.62A2.69,2.69,0,0,0,91,391.9a16.65,16.65,0,0,1-.31-3.15c.2-1.6,1.45-3.22.73-4.66a2.58,2.58,0,0,0-1.54-1.2A2.43,2.43,0,0,1,91.19,384c.72,1.44-.53,3.06-.73,4.66a16.31,16.31,0,0,0,.35,3.19,2.69,2.69,0,0,1-1.21,2.74c-.54.24-1.22.21-1.66.62-.77.72-.14,2.22-.91,2.95a4.71,4.71,0,0,1-1,.51c-1.74.87-1.69,3.41-.88,5.16a1.08,1.08,0,0,1,.08.19l-.11-.07,0,.07-.67-.41c-.31-.19-.63-.39-.93-.6l-.92-.63c-.39-.28-.77-.55-1.14-.85l0-.09c-.84-.65-1.66-1.32-2.43-2a36.12,36.12,0,0,1-2.6-2.65c-.6-.67-1.09-1.34-1.71-2.08a20.44,20.44,0,0,1-1.62-2.3c-.42-.68-.81-1.33-1.18-2a36.36,36.36,0,0,1-2.24-4.77,36,36,0,0,1-2.34-11.55v-.25h0v-1.07h0v-1.31h0a.67.67,0,0,1,0-.2h0l.2-.2c0-.66.07-1.33.14-2s.18-1.46.3-2.18a10,10,0,0,0,.67-2.29,4.15,4.15,0,0,1,1.15-2.36,1.7,1.7,0,0,1,1.7-.36,1.65,1.65,0,0,0-.75-.17,1.73,1.73,0,0,0-1.16.45,4.18,4.18,0,0,0-1.18,2.25,10,10,0,0,1-.67,2.29c.15-.91.35-1.81.56-2.7s.47-1.76.75-2.63a36.22,36.22,0,0,1,3.19-7c.28-.47.58-.94.87-1.39s.6-.9.92-1.34h.23l1-1.38a19.82,19.82,0,0,1,1.42-1.66,36.54,36.54,0,0,1,4.58-4.3c.28-.22.56-.41.87-.66s.65-.5,1-.74l.85-.57.31-.2.83-.51c.29-.18.6-.35.89-.52s.59-.33.89-.48l.94-.47c.29-.15.59-.29.89-.42s.72-.33,1.08-.48l.89-.35,1-.36,1-.32c.4-.13.8-.26,1.22-.37l.74-.2.75-.2c.54-.12,1.08-.24,1.63-.34a3.15,3.15,0,0,1,.67-.12l.78-.13.78-.11.79-.09.75-.07a25.09,25.09,0,0,1,3.25-.14h1.24c.4,0,.8.06,1.19.06l1.12.08.5.06h.2c.56.06,1.12.14,1.68.23l.39.06h.06l.89.17c.78.15,1.55.33,2.3.53.39.11.77.21,1.15.33l1.13.36c.37.12.74.25,1.1.39l1,.39.85.35.6.27.1,0,.66.31c.18.08.34.17.51.26.33.16.67.34,1,.53l.24.13.54.17.57.34.57.34.57.36.55.37c.75.49,1.47,1,2.18,1.58l.75.61.6.51.6.53.66.62c.26.24.62.6.77.75s.31.31.45.47l.16.15.05.06c.18.19.36.38.53.58l.16.17.48.56c.17.18.33.38.46.54l.39.49c.19.23.32.4.55.7s.5.69.67.92.23.33.5.72.52.79.77,1.19a35.39,35.39,0,0,1,3,6,2,2,0,0,1,.1.26,10.18,10.18,0,0,0-.6-1c-2-3.21-5-5.72-7.26-8.78-.74-1-1.31-1.8-2.61-2a4.35,4.35,0,0,0-.7,0c-.65,0-1.19.12-1.68.12a2.15,2.15,0,0,1-1.87-1.07,1.68,1.68,0,0,0-1.19-.74.8.8,0,0,0-.36.09v0a.84.84,0,0,1,.34-.08,1.68,1.68,0,0,1,1.18.74,2.15,2.15,0,0,0,1.86,1.06c.5,0,1-.11,1.67-.11a4.67,4.67,0,0,1,.72.05c1.3.18,1.87,1,2.61,2C133,353.31,136,355.82,138,359a10.18,10.18,0,0,1,.6,1c.18.47.35.94.5,1.4s.3.93.43,1.41a32.32,32.32,0,0,1,.86,3.78c.08.43.14.88.2,1.29s.08.68.14,1.23a13.31,13.31,0,0,1,.13,1.55v1.56a1.68,1.68,0,0,1-.07.62c0,.81,0,1.6-.07,2.4a2,2,0,0,1-1,.57,2.08,2.08,0,0,0,1.22-.62c-.06.84-.15,1.67-.26,2.49a34.24,34.24,0,0,1-1.4,6.17,35.33,35.33,0,0,1-2.38,5.68,34.37,34.37,0,0,1-2.2,3.63c-.26.4-.54.79-.83,1.17-.56.75-1.14,1.49-1.76,2.19a38.07,38.07,0,0,1-2.79,2.89c-.37.34-.76.66-1.15,1L130.8,403l-.5.42a41.46,41.46,0,0,1-23.85,9.38v15.66H121.6v2.81H85.2v-2.81h16.52V412.8a40.56,40.56,0,0,1-17.56-76.14l.45-.25m24,8.77a4.14,4.14,0,0,1,1.23-.82,2.24,2.24,0,0,1,1.35-.45,2.21,2.21,0,0,1,.76.13c.3.16.51.45.81.62a3.54,3.54,0,0,0,1.28.24l.45,0a4,4,0,0,1,2.54,1,.91.91,0,0,1,.39.67,1,1,0,0,0-.37-.71,4,4,0,0,0-2.54-1,3.4,3.4,0,0,1-.45,0,3.54,3.54,0,0,1-1.28-.24c-.3-.17-.51-.46-.81-.62a2.28,2.28,0,0,0-.77-.14,2.24,2.24,0,0,0-1.25.38,4.06,4.06,0,0,0-1.34.94m10.17,2.16.1-.09a1.94,1.94,0,0,1,1.18-.41,1.91,1.91,0,0,1,1.49.72,2.16,2.16,0,0,0,.51.65.55.55,0,0,0,.29.08c.19,0,.38-.09.38-.27h0a.37.37,0,0,1-.38.23.5.5,0,0,1-.27-.08,2.16,2.16,0,0,1-.51-.65l-.09-.1a1.88,1.88,0,0,0-1.4-.62,1.9,1.9,0,0,0-1.28.5,1,1,0,0,0-.61-.85s0,0,0,.05a1,1,0,0,1,.6.84m-1.4-.7v0a.36.36,0,0,1,0,.09h0a.41.41,0,0,0,0-.08v0M78,353.25a.5.5,0,0,1-.17-.21c.28-1.15,1.62-1.62,2.62-2.23a6.24,6.24,0,0,0,2.67-3.25.87.87,0,0,0,0-.67.52.52,0,0,0-.28-.22.34.34,0,0,1,.12.12.87.87,0,0,1,0,.67,6.3,6.3,0,0,1-2.68,3.23c-1,.61-2.34,1.08-2.62,2.23a.73.73,0,0,0,.34.33m40-6.34L118,347l.06-.09.06-.13-.06.13m-6.44,3.64.07-.05a2,2,0,0,0,.29-1.85,2.38,2.38,0,0,1,.13-1.85.81.81,0,0,0-.1.09,2.41,2.41,0,0,0-.14,1.88,2,2,0,0,1-.25,1.78m6.34-3.51a1.29,1.29,0,0,1-1,.46,1.26,1.26,0,0,1-.33-.05.22.22,0,0,1,0-.18.21.21,0,0,0,0,.22l.12,0,.21,0a1.25,1.25,0,0,0,1-.5m-4.81.72a1.73,1.73,0,0,0,.21-.34,2.39,2.39,0,0,0-.21.34m.47,1.92a.54.54,0,0,1,.29-.07c.31,0,.73.15,1.07.15a.63.63,0,0,0,.48-.18s0-.05,0-.07a.67.67,0,0,1-.42.12c-.34,0-.73-.13-1-.13a.45.45,0,0,0-.41.18m-4.45.13a.67.67,0,0,1,.4-.14.59.59,0,0,1,.29.07v0a1,1,0,0,0,.58,1.36,3.19,3.19,0,0,0,1.06.18,3.39,3.39,0,0,0,.64-.06,1.74,1.74,0,0,0,1.24-.55,2,2,0,0,1-1.13.43,3.39,3.39,0,0,1-.64.07,3.2,3.2,0,0,1-1.06-.19h0a1.06,1.06,0,0,1-.53-1.39l0,0a.79.79,0,0,0-.25-.05.68.68,0,0,0-.52.26m-24.07.39.08-.05s0-.07-.05-.1a1,1,0,0,0-.41-.34,1,1,0,0,1,.38.49M81.9,358c-.29,0-.59-.11-.9-.11a2.54,2.54,0,0,0-2.14,1.58,6.21,6.21,0,0,1-1.52,2.29c-1.2.9-3.27.69-3.85,2.06a3.32,3.32,0,0,0,0,1.77,2.27,2.27,0,0,1-.21,1.73,1.07,1.07,0,0,1-.84.41l-.2,0a.8.8,0,0,0,.41.1,1.07,1.07,0,0,0,.84-.41,2.27,2.27,0,0,0,.21-1.73,3.32,3.32,0,0,1,0-1.77c.58-1.37,2.65-1.16,3.85-2.06a6.21,6.21,0,0,0,1.52-2.29A2.53,2.53,0,0,1,81.18,358c.32,0,.63.11.94.11a1.28,1.28,0,0,0,.61-.26,1.23,1.23,0,0,0,.2-1.74,2,2,0,0,1-.41-.42.74.74,0,0,1,.29-.9,2.11,2.11,0,0,1,1-.32l2.36-.36c.86-.14,2-.7,1.86-1.44s-1.13-1.08-1.28-1.81a2.54,2.54,0,0,0-.1-.55.45.45,0,0,0-.25-.22.39.39,0,0,1,.08.1,2.54,2.54,0,0,1,.1.55c.15.73,1.14.95,1.28,1.81s-1,1.3-1.86,1.44l-2.37.4a2.11,2.11,0,0,0-1,.32.74.74,0,0,0-.29.9,2,2,0,0,0,.41.42,1.28,1.28,0,0,1,.26.61A1.24,1.24,0,0,1,81.94,358h0m25.84-6.49a1.41,1.41,0,0,1,.94-.46l.19,0s0-.09,0-.13h-.06a1.51,1.51,0,0,0-1.06.57m-3.19,2c.37-.29,1-.13,1.56-.29a1.66,1.66,0,0,0,.78-.58,1.55,1.55,0,0,1-.67.46c-.56.17-1.34,0-1.67.41m-26,1.75c-.25-.21-.4-.55-.3-.73s.59-.36.53-.77c0-.2-.22-.3-.42-.39.13.08.24.16.25.27,0,.32-.3.35-.53.77s.1.7.47.85m34.64,4.43a1.35,1.35,0,0,0,0-1.66c-.59-.81-1.88-1.26-1.92-2.22l-.12.07c-.07,1,1.33,1.44,1.93,2.27l0,0a1.37,1.37,0,0,1,.07,1.5m-10.29-2.86a1.82,1.82,0,0,1,.61-.39c.44-.12,1-.11,1.24-.5v0a2.63,2.63,0,0,1-1.14.4,1.92,1.92,0,0,0-.5.29l-.22.22m14.67,1.8a.81.81,0,0,0,.12-.91,4.75,4.75,0,0,1-.52-1,1,1,0,0,1,0-.24,1.14,1.14,0,0,1,.27-.55,1.19,1.19,0,0,0-.4.91,4.75,4.75,0,0,0,.52,1,.91.91,0,0,1,0,.79m-11.55.66.06-.05a10.42,10.42,0,0,0,1.25-2.14,2.14,2.14,0,0,1,.3-.44,2.07,2.07,0,0,0-.41.56,9.71,9.71,0,0,1-1.2,2.07m-3.15-2.43,0,0h0l0,0m13.34,3.49.13,0c-.2-.7-.4-1.38-.6-2.06a.35.35,0,0,0-.13,0c.2.67.4,1.36.6,2.05m-3.08-.59-.06.08a1.85,1.85,0,0,1-.14.14h0l0,0a.52.52,0,0,0,.1-.11l.06-.08m7.59,2.83a1,1,0,0,1,.39-.26c.37-.18.79-.24,1.18-.39.12-.05.25-.09.3-.23a.93.93,0,0,1-.19.11c-.39.15-.81.21-1.18.39a1,1,0,0,0-.5.38m7.92,6.12a1.6,1.6,0,0,0,.53-.09,1.07,1.07,0,0,1,.54-.19.65.65,0,0,1,.36.22,2.35,2.35,0,0,1-.16,2.92s0,0,0,0a2.35,2.35,0,0,0,.23-3,.65.65,0,0,0-.36-.22,1.07,1.07,0,0,0-.54.19,1.6,1.6,0,0,1-.53.09,1.57,1.57,0,0,1-1.1-.44,4.61,4.61,0,0,1-1-1.43c-.27-.55-.55-1.11-.83-1.66a.59.59,0,0,0-.14.06l.86,1.72a4.61,4.61,0,0,0,1,1.43,1.57,1.57,0,0,0,1.1.44M70.88,375.3a1,1,0,0,1-.32-.31c-.43-.62,0-1.54-.43-2.14a3.23,3.23,0,0,0-.92-.68c-.32-.25-.54-.72-.39-1s.56-.34.77-.6a.6.6,0,0,0,0-.72.51.51,0,0,0-.39-.23h0a.73.73,0,0,1,.21.16.6.6,0,0,1,0,.72,1,1,0,0,1-.39.26.73.73,0,0,0-.38.34.48.48,0,0,0-.06.28.77.77,0,0,0,.23.52,1,1,0,0,0,.22.2,3.23,3.23,0,0,1,.92.68,1.12,1.12,0,0,1,.13.24c.22.6,0,1.44.3,1.9a1,1,0,0,0,.51.38M86.54,382c-2.3-1-3-3.85-4.54-5.85a9.44,9.44,0,0,0-4.13-3,9.58,9.58,0,0,1,3.94,2.89c1.55,2,2.24,4.86,4.55,5.86l.18.06m-1.93-50.6a5,5,0,0,0-2.43.63l-.45.25a45.53,45.53,0,0,0,15,85v6.17H85.2a5,5,0,0,0-5,5v2.81a5,5,0,0,0,5,5h36.4a5,5,0,0,0,5-5v-2.81a5,5,0,0,0-5-5H111.45v-6.19a46,46,0,0,0,22-10l.54-.45a5,5,0,0,0,1.19-6.19l.72-.8c.6-.68,1.23-1.47,2-2.46.37-.48.69-.94,1-1.39a39.55,39.55,0,0,0,5.19-10.58,39.52,39.52,0,0,0,1.6-7c.13-1,.22-1.88.29-2.78a4.9,4.9,0,0,0-.18-1.72c0-.16,0-.32,0-.48a7.35,7.35,0,0,0,.07-1.24v-1.45a13.82,13.82,0,0,0-.13-1.8l0-.29,0-.41c0-.37-.07-.64-.12-1l0-.24c0-.39-.11-.8-.18-1.19a36.2,36.2,0,0,0-1-4.27c-.16-.6-.33-1.14-.49-1.61s-.24-.71-.38-1.1c0-.11-.06-.23-.1-.35a6,6,0,0,0-.22-.59,39.93,39.93,0,0,0-3.39-6.76c-.26-.42-.56-.9-.9-1.39l-.21-.3c-.14-.21-.23-.34-.38-.54l-.18-.25-.54-.74c-.29-.37-.44-.57-.67-.84l-.15-.2-.21-.26,0,0c-.14-.17-.34-.42-.58-.68l-.41-.48-.16-.18-.08-.09c-.17-.19-.34-.38-.52-.56a4.27,4.27,0,0,0-.36-.38h0l-.49-.5c-.17-.17-.6-.6-.91-.88l-.27-.26-.42-.39,0-.05-.6-.53-.07-.06L131,341l-.09-.07-.75-.61,0,0c-.88-.69-1.71-1.29-2.51-1.82l-.53-.35-.12-.08-.57-.36-.11-.06-.57-.34-.57-.34a5.07,5.07,0,0,0-1.06-.48l-.06,0c-.31-.17-.63-.34-1-.49h0c-.22-.12-.44-.23-.68-.34l-.57-.27,0,0-.19-.09-.6-.27-.15-.06-.85-.35-.08,0-1-.39c-.44-.17-.9-.33-1.38-.49l-1.15-.36-1-.3-.28-.08-.07,0c-.9-.24-1.79-.44-2.65-.61l-.89-.17-.48-.07-.15,0c-.68-.11-1.32-.2-1.91-.26a3,3,0,0,0-.42,0l-.21,0-.24,0-1.12-.08h-.36l-.31,0-.75,0h-1.37a30,30,0,0,0-3.8.17l-.66.06h-.11l-.79.09-.13,0-.78.11-.12,0-.54.09a6.62,6.62,0,0,0-1.12.2c-.6.11-1.15.23-1.68.35l-.21.05-.75.2-.75.2c-.53.14-1,.3-1.47.44l-1,.32-.06,0-1,.36-.48-.67a5,5,0,0,0-4-2.07Z" transform="translate(-43.41 -96.58)" fill="#fff"/><path d="M140.87,372.75c0,.81,0,1.6-.07,2.4,0-.8.07-1.59.07-2.4m0-5a5,5,0,0,0-5,5c0,.76,0,1.44-.06,2.09a5,5,0,0,0,4.62,5.3h.38a5,5,0,0,0,5-4.56c.09-1,.09-1.95.09-2.84a5,5,0,0,0-5-5Z" transform="translate(-43.41 -96.58)" fill="#fff"/></svg>