<svg id="Layer_1" data-name="Layer 1" xmlns="http://www.w3.org/2000/svg" viewBox="0 0 512.44 301.45"><g id="freepik--Floor--inject-6"><path d="M533,332.46c0,.1-114.64.19-256,.19s-256-.09-256-.19,114.6-.19,256-.19S533,332.36,533,332.46Z" transform="translate(-20.57 -35.11)" fill="#263238"/></g><g id="freepik--Pencil--inject-6"><circle cx="353.69" cy="271.71" r="20.93" fill="#7e57c2"/><path d="M26.79,309.24l44.73,19,295.09-.56-1.1-42.07-293.22.92L26.78,306a1.79,1.79,0,0,0,0,3.29Z" transform="translate(-20.57 -35.11)" fill="#7e57c2"/><g opacity="0.7"><path d="M72.29,286.53c1.2,1.73.89,4-1,4.84a9.4,9.4,0,0,1,1.61,17.74,11,11,0,0,1-1.7,19L27.1,309.35a1.92,1.92,0,0,1,0-3.53Z" transform="translate(-20.57 -35.11)" fill="#fff"/></g><path d="M43.33,315.26c1.89-1.64,5.83-6.43.63-15a1.72,1.72,0,0,0-2.13-.69l-15.24,6.5a1.71,1.71,0,0,0-.88,2.25,1.75,1.75,0,0,0,.88.88l15,6.37A1.7,1.7,0,0,0,43.33,315.26Z" transform="translate(-20.57 -35.11)" fill="#7e57c2"/><g opacity="0.3"><path d="M72.86,309.11l291.36-1.9,1,20.43-293.74.63-.36-.15A10.62,10.62,0,0,0,75,325.2a11.47,11.47,0,0,0,2.52-5.78,10.91,10.91,0,0,0-4.66-10.31Z" transform="translate(-20.57 -35.11)"/></g><g opacity="0.3"><path d="M71.25,291.37l294.3-.57-.27-5.41-293,1.14a3.32,3.32,0,0,1-.36,4.46A3.4,3.4,0,0,1,71.25,291.37Z" transform="translate(-20.57 -35.11)"/></g><path d="M62.65,314.68a.89.89,0,0,0,.58-.06,1.15,1.15,0,0,0,.52-1.44,4.43,4.43,0,0,0-1.81-1.95,2.71,2.71,0,0,0-1.59-.41,1.8,1.8,0,0,0-1.5.9,2.41,2.41,0,0,0,0,2,8.4,8.4,0,0,0,1.15,2,11.89,11.89,0,0,0,3.72,3.3,3.12,3.12,0,0,0,2.53.31,2.78,2.78,0,0,0,1.57-2.09c.29-1.88-.73-3.82-2-5.37a10.46,10.46,0,0,0-10.24-3.67,2.73,2.73,0,0,0-1.8,1.61,5,5,0,0,0-.25,2.36,14.31,14.31,0,0,0,1.19,4.2,16.08,16.08,0,0,0,3.69,5.14c.56.5,1,.87,1.33,1.11s.48.37.48.37a11.7,11.7,0,0,1-1.89-1.4,15.74,15.74,0,0,1-3.8-5.13,15.1,15.1,0,0,1-1.24-4.26,5.27,5.27,0,0,1,.25-2.49,3,3,0,0,1,2-1.76,10.7,10.7,0,0,1,10.56,3.73,10,10,0,0,1,1.59,2.64,5.34,5.34,0,0,1,.43,3,3,3,0,0,1-1.75,2.29,3.37,3.37,0,0,1-2.75-.33,12.34,12.34,0,0,1-3.8-3.39,8.16,8.16,0,0,1-1.16-2,2.58,2.58,0,0,1,0-2.14,2,2,0,0,1,1.67-1,2.94,2.94,0,0,1,1.68.46,4.39,4.39,0,0,1,1.84,2.06,1.21,1.21,0,0,1-.61,1.52A.62.62,0,0,1,62.65,314.68Z" transform="translate(-20.57 -35.11)" fill="#fff"/><path d="M52.06,295.68a9.71,9.71,0,0,0,.72,1.51,11.54,11.54,0,0,0,3,3.34,29,29,0,0,0,5.89,3.28,25.2,25.2,0,0,1,7.12,4.28,14.34,14.34,0,0,1,4,7.2,13.92,13.92,0,0,1-2.15,10.91,8.85,8.85,0,0,1-1.06,1.3,2.8,2.8,0,0,1,.25-.35c.25-.32.49-.66.71-1A14.67,14.67,0,0,0,72.39,322a14,14,0,0,0,.14-6.65,14.19,14.19,0,0,0-4-7.05,25.57,25.57,0,0,0-7-4.25,28.17,28.17,0,0,1-5.85-3.38,10.92,10.92,0,0,1-3-3.45A5.91,5.91,0,0,1,52.06,295.68Z" transform="translate(-20.57 -35.11)" fill="#fff"/><path d="M63.05,290.28a4.39,4.39,0,0,0,.08,3.09,25.08,25.08,0,0,0,4.44,6.23,41.7,41.7,0,0,0,5.68,5.19c.78.6,1.44,1.06,1.89,1.38a5,5,0,0,1,.7.51,5.08,5.08,0,0,1-.76-.42c-.47-.29-1.15-.72-2-1.3a37.35,37.35,0,0,1-5.78-5.17,38.85,38.85,0,0,1-2.69-3.31,12.61,12.61,0,0,1-1.72-3,4.28,4.28,0,0,1-.21-2.35A2.68,2.68,0,0,1,63.05,290.28Z" transform="translate(-20.57 -35.11)" fill="#fff"/><path d="M78.38,301.35a7.57,7.57,0,0,1-1.59-.71A9.38,9.38,0,0,1,73.5,298a4.82,4.82,0,0,1-1-4.05,3.67,3.67,0,0,1,.52-1.18c.18-.25.32-.35.33-.34A5.16,5.16,0,0,0,72.7,294a4.85,4.85,0,0,0,1,3.83,10.41,10.41,0,0,0,3.16,2.63A15.46,15.46,0,0,1,78.38,301.35Z" transform="translate(-20.57 -35.11)" fill="#fff"/><path d="M45.11,298a.45.45,0,0,1,.23.1c.14.1.37.18.64.34a3,3,0,0,1,.9.73,3.4,3.4,0,0,1,.62,1.4c.28,1.1.35,2.44.55,3.89a27.54,27.54,0,0,0,1.09,4.65,54.32,54.32,0,0,0,3.44,8l1.2,2.36a5.43,5.43,0,0,1,.41.88,6.36,6.36,0,0,1-.51-.83c-.31-.54-.76-1.33-1.29-2.31a47.55,47.55,0,0,1-3.53-8,26.92,26.92,0,0,1-1.08-4.7c-.19-1.47-.23-2.8-.49-3.88a2.77,2.77,0,0,0-1.37-2.08A8.87,8.87,0,0,1,45.11,298Z" transform="translate(-20.57 -35.11)" fill="#fff"/><rect x="349.55" y="299.22" width="44.37" height="15.16" rx="1.08" transform="translate(36.71 636.98) rotate(-88.81)" fill="#e0e0e0"/><path d="M363.74,327.78a.89.89,0,0,0,.07.29,1.1,1.1,0,0,0,.53.63,3.89,3.89,0,0,0,1.4.11h2l5.41.06,3.37.05h.91a1.63,1.63,0,0,0,.82-.09.88.88,0,0,0,.46-.6,7.37,7.37,0,0,0,0-.94c.2-10.64.48-25.27.78-41.43a.81.81,0,0,0-.64-.79H377.4l-3-.06-5.82-.13-2.84-.06a.8.8,0,0,0-.82.52,1,1,0,0,0,0,.25v1c0,1.83-.08,3.63-.12,5.38-.17,7-.32,13.31-.45,18.63s-.27,9.54-.36,12.55c-.05,1.45-.09,2.59-.12,3.41a4.59,4.59,0,0,1-.05.89.76.76,0,0,1,0,.3,1.5,1.5,0,0,1,0-.3v-4.31c0-3,.1-7.29.17-12.55s.21-11.63.33-18.63c0-1.75.07-3.55.1-5.38v-1a1.26,1.26,0,0,1,.08-.43,1.37,1.37,0,0,1,1.36-.9l2.84.06,5.82.11,3,.06a13.82,13.82,0,0,1,1.56.06,1.38,1.38,0,0,1,1.11,1.37c-.37,16.16-.71,30.79-.95,41.43,0,.33,0,.67-.05,1a1.31,1.31,0,0,1-.68.86,2,2,0,0,1-1,.13h-.91l-3.37-.09-5.4-.16-2-.07a3.76,3.76,0,0,1-1.45-.18,1.13,1.13,0,0,1-.54-.72A.69.69,0,0,1,363.74,327.78Z" transform="translate(-20.57 -35.11)" fill="#263238"/><path d="M379.38,290.68c0,.17-3.3.3-7.38.29a46.76,46.76,0,0,1-7.39-.29c0-.17,3.3-.3,7.39-.29A46.68,46.68,0,0,1,379.38,290.68Z" transform="translate(-20.57 -35.11)" fill="#263238"/><path d="M379.56,306.76c0,.17-3.42.31-7.64.51a65.1,65.1,0,0,1-7.65.21A66.32,66.32,0,0,1,379.56,306.76Z" transform="translate(-20.57 -35.11)" fill="#263238"/><path d="M363.88,325.48a49.35,49.35,0,0,1,7.49-.39,48.17,48.17,0,0,1,7.5.2c0,.17-3.35.34-7.49.39A48.17,48.17,0,0,1,363.88,325.48Z" transform="translate(-20.57 -35.11)" fill="#263238"/></g><path d="M365.79,284.29h.07l2.84.06,5.82.11,3,.06a13.82,13.82,0,0,1,1.56.06,1.38,1.38,0,0,1,1.11,1.37c0,.27,0,.54,0,.82a20.9,20.9,0,0,1,6.38,37,20.61,20.61,0,0,1-7.3,3.38v.24c0,.33,0,.67-.05,1a1.31,1.31,0,0,1-.68.86,1.93,1.93,0,0,1-.75.15l-.25,0h-.91l-3.37-.09-5.4-.16-2-.07h-.27a3.64,3.64,0,0,1-1.18-.19,1.21,1.21,0,0,1-.4-.41,1.13,1.13,0,0,1-.26-.71v-.07L192.48,328l-121,.26-.36-.15,0,0-1.54-.66,0,.06,0-.06-7.87-3.35-19.93-8.47a1,1,0,0,1-.23-.05l-15-6.37a1.75,1.75,0,0,1-.88-.88,1.71,1.71,0,0,1,.7-2.15,1.51,1.51,0,0,1,.37-.22l18.43-7.86-.1-.07a.55.55,0,0,1,.14.05l17.66-7.54.14-.25c0,.07,0,.14,0,.22l9.28-4h0l292.18-1.14c0-.07,0-.14,0-.2a1.38,1.38,0,0,1,1.29-.9m0-5a6.37,6.37,0,0,0-3.59,1.11L72.26,281.53a4.91,4.91,0,0,0-2.12.48l-7.77,3.32a5,5,0,0,0-2.43,1L44.1,293.12a5,5,0,0,0-1.83.78l-17.45,7.45a6.5,6.5,0,0,0-1.21.68,6.71,6.71,0,0,0,1,11.75l.07,0,15,6.37.14.06c.16.06.32.12.47.16l19.54,8.3,7.08,3a4.93,4.93,0,0,0,1.57.67l.15.06a3.83,3.83,0,0,0,.61.3l.36.15a4.88,4.88,0,0,0,1.92.39h0l121-.26,168.64-.32a5.19,5.19,0,0,0,.79.53,5.49,5.49,0,0,0,.89.4,8.79,8.79,0,0,0,2.75.44h.31l1.79.07,5.42.16,3.39.09h.82l.47,0a6.92,6.92,0,0,0,2.62-.52,2,2,0,0,0,.36-.16,6.32,6.32,0,0,0,2.74-2.65,25.91,25.91,0,0,0,1-48.05,6.37,6.37,0,0,0-4.42-3.33,3.5,3.5,0,0,0-.45-.07,17.23,17.23,0,0,0-2-.09l-2.95-.06-5.83-.11-2.78-.06Z" transform="translate(-20.57 -35.11)" fill="#fff"/><g id="freepik--Compass--inject-6"><rect x="268.95" y="294.32" width="7.48" height="2.81" transform="translate(-102.73 450.08) rotate(-75.42)" fill="#263238"/><g opacity="0.3"><rect x="270.94" y="295.62" width="7.49" height="1.42" transform="translate(-101.4 453.26) rotate(-75.55)"/></g><path d="M273.48,292.68h0a4.84,4.84,0,0,1-3.47-5.9l1-4a4.85,4.85,0,0,1,5.9-3.46h0a4.84,4.84,0,0,1,3.46,5.9l-1,4a4.83,4.83,0,0,1-5.89,3.46Z" transform="translate(-20.57 -35.11)" fill="#263238"/><g opacity="0.3"><path d="M277,279.36a4.85,4.85,0,0,0-1.82-.1,9.16,9.16,0,0,1-2.19.92,4.73,4.73,0,0,0-1.89,2.64l-.94,3.64a8.73,8.73,0,0,0,4.22,2.64,9.1,9.1,0,0,0,2.38.26,4.78,4.78,0,0,1-5.24,2.19,4.74,4.74,0,0,0,6.69-.09,4.86,4.86,0,0,0,1.21-2.21l1-4A4.84,4.84,0,0,0,277,279.36Z" transform="translate(-20.57 -35.11)"/></g><path d="M274.85,287.44h0a9,9,0,0,1-6.45-11v0L317.33,88.32l17.4,4.53L285.81,281A9,9,0,0,1,274.85,287.44Z" transform="translate(-20.57 -35.11)" fill="#455a64"/><g opacity="0.3"><path d="M334.73,92.89l-17.4-4.53-1.86,7.14a20,20,0,0,0,8.18,7.73L279.72,272.16a9,9,0,0,1-11,6.45h0c-.22-.06-.41-.16-.63-.23A9,9,0,0,0,285.77,281L331.43,105.4h0Z" transform="translate(-20.57 -35.11)"/></g><path d="M396.29,289.68h0a9,9,0,0,1-11.11-6.18L330.87,93.13l17.29-4.93,54.31,190.36A9,9,0,0,1,396.29,289.68Z" transform="translate(-20.57 -35.11)" fill="#455a64"/><g opacity="0.3"><path d="M402.47,278.56,350.15,95.19h0l-2-7-17.29,4.93,3.49,12.23a19.91,19.91,0,0,0,9.48-3.32L393,274.46a9,9,0,0,1-6.18,11.11c-.22.06-.44.07-.67.12a9,9,0,0,0,16.29-7.13Z" transform="translate(-20.57 -35.11)"/></g><path d="M338.68,72.28H326.87L326.94,46a5.91,5.91,0,0,1,5.92-5.89h0a5.89,5.89,0,0,1,5.89,5.91v0Z" transform="translate(-20.57 -35.11)" fill="#263238"/><g opacity="0.3"><path d="M332.86,40.11a4.92,4.92,0,0,0-1,.2A5.83,5.83,0,0,1,335,45.46v11a15.77,15.77,0,0,0-2.17-.2,19.8,19.8,0,0,0-5.91,1v15h11.81V46A5.91,5.91,0,0,0,332.86,40.11Z" transform="translate(-20.57 -35.11)"/></g><path d="M352.06,80.36a20,20,0,1,1,0-.08Z" transform="translate(-20.57 -35.11)" fill="#455a64"/><path d="M352.06,80.36a1.82,1.82,0,0,1,0-.33,5.13,5.13,0,0,0-.07-1,9.83,9.83,0,0,0-.18-1.53,14.19,14.19,0,0,0-.42-2.06,19.2,19.2,0,0,0-2.21-5.29,19.82,19.82,0,0,0-23.78-8.5,18.27,18.27,0,0,0-5,2.68,22.61,22.61,0,0,0-2.25,1.9,21.72,21.72,0,0,0-2,2.29,19.85,19.85,0,0,0-3.87,11.67,21,21,0,0,0,1,6.24,18.74,18.74,0,0,0,2.81,5.46A21.06,21.06,0,0,0,318,94.23a22.58,22.58,0,0,0,2.23,1.92,18.64,18.64,0,0,0,5,2.71,19.89,19.89,0,0,0,23.83-8.36,19.24,19.24,0,0,0,2.25-5.28,16.39,16.39,0,0,0,.43-2.06,10,10,0,0,0,.18-1.53,9,9,0,0,1,.08-.95,1.71,1.71,0,0,1,0-.32.86.86,0,0,1,0,.32v1a8.82,8.82,0,0,1-.14,1.54,15.07,15.07,0,0,1-.39,2.09,19.1,19.1,0,0,1-2.19,5.38,20.13,20.13,0,0,1-24.25,8.66,18.78,18.78,0,0,1-5.12-2.76,21.82,21.82,0,0,1-2.3-2,26.39,26.39,0,0,1-2-2.35,19.7,19.7,0,0,1-2.88-5.6,20.17,20.17,0,0,1,0-12.8,20,20,0,0,1,2.92-5.58,26.26,26.26,0,0,1,2-2.34A22.38,22.38,0,0,1,320,64a19,19,0,0,1,5.14-2.73,20.15,20.15,0,0,1,24.2,8.8,19,19,0,0,1,2.16,5.39,13.47,13.47,0,0,1,.38,2.09,11.44,11.44,0,0,1,.13,1.55v1A.93.93,0,0,1,352.06,80.36Z" transform="translate(-20.57 -35.11)" fill="#263238"/><path d="M343.52,79.74A11.48,11.48,0,1,1,332,68.33h.1A11.41,11.41,0,0,1,343.52,79.7Z" transform="translate(-20.57 -35.11)" fill="#263238"/></g><path d="M332.86,40.11a5.93,5.93,0,0,1,5.89,5.94v0l0,7.51v7.67a20.15,20.15,0,0,1,10.59,8.8,19,19,0,0,1,2.16,5.39,13.47,13.47,0,0,1,.38,2.09.76.76,0,0,1,0,.15c.07.51.11,1,.14,1.55a6.41,6.41,0,0,1,.05.8,2.08,2.08,0,0,0,0,.25h0v.08c0,.25,0,.49,0,.73v.59a8.82,8.82,0,0,1-.14,1.54,15.07,15.07,0,0,1-.39,2.09,19.1,19.1,0,0,1-2.19,5.38c-.09.16-.2.3-.3.46l53.47,187.41a9,9,0,0,1-6.18,11.12,9.12,9.12,0,0,1-2.46.34,9,9,0,0,1-8.65-6.52L334.36,105.35h0L333,100.54h-.25L285.81,281a9,9,0,0,1-5.9,6.26l-.49,2a4.86,4.86,0,0,1-1.21,2.21,4.81,4.81,0,0,1-2.35,1.31l.45.11-1.87,7.26-1.38-.36,0-.09-2.69-.7,1.79-6.89a4.81,4.81,0,0,1-2.17-5.32l.49-2a9.15,9.15,0,0,1-1.74-2.76l-.1-.24c0-.11-.07-.22-.1-.33a9,9,0,0,1-.47-3.12h0a10,10,0,0,1,.28-1.92v0L316.14,92.88c-.17-.21-.35-.42-.51-.64a19.7,19.7,0,0,1-2.88-5.6,20.17,20.17,0,0,1,0-12.8,20,20,0,0,1,2.92-5.58,26.26,26.26,0,0,1,2-2.34A21.37,21.37,0,0,1,320,64a19,19,0,0,1,5.14-2.73c.59-.21,1.18-.39,1.78-.55l0-14.67a5.9,5.9,0,0,1,5.72-5.88l.2,0m0-5-.5,0-.31,0A10.85,10.85,0,0,0,321.94,46l0,11.12A24.26,24.26,0,0,0,317,60a27.42,27.42,0,0,0-2.81,2.36l-.12.12a30.44,30.44,0,0,0-2.4,2.81,24.8,24.8,0,0,0-3.67,7,25.25,25.25,0,0,0,0,16,24.44,24.44,0,0,0,2.7,5.68L263.57,275.18a14.56,14.56,0,0,0-.39,2.27,4.91,4.91,0,0,0-.09.77,13.87,13.87,0,0,0,.72,4.85v0c.05.15.09.3.15.44s.1.28.15.39a15.46,15.46,0,0,0,1,2,9.72,9.72,0,0,0,1.54,7.73l-1.07,4.12a5,5,0,0,0,.52,3.79,5.06,5.06,0,0,0,3.06,2.31l1.75.45a4.68,4.68,0,0,0,.93.34l1.38.36a4.93,4.93,0,0,0,1.25.16,5,5,0,0,0,4.84-3.75l1.41-5.47a9.28,9.28,0,0,0,1.1-1,9.7,9.7,0,0,0,2.39-4.14,14,14,0,0,0,6.47-8.52l42.43-163.2,47.29,165.79A14.06,14.06,0,0,0,393.83,295a14.22,14.22,0,0,0,3.83-.53,14,14,0,0,0,9.62-17.3L354.39,91.81a24.52,24.52,0,0,0,1.95-5.27,19.35,19.35,0,0,0,.49-2.63,14.47,14.47,0,0,0,.19-2.18v-.57c0-.26,0-.52,0-.78V80a10.24,10.24,0,0,0-.07-1.25c0-.57-.08-1.1-.14-1.6,0-.07,0-.14,0-.22a18.07,18.07,0,0,0-.5-2.72,23.88,23.88,0,0,0-2.71-6.74A25.21,25.21,0,0,0,343.73,58V53.58l0-7.5a10.94,10.94,0,0,0-10.86-11Z" transform="translate(-20.57 -35.11)" fill="#fff"/><g id="freepik--character-3--inject-6"><path d="M342.59,248.82H271a19.89,19.89,0,0,1-19.89-19.88h0A19.89,19.89,0,0,1,271,209.05h71.58Z" transform="translate(-20.57 -35.11)" fill="#7e57c2"/><path d="M322.78,209.05H482.3a2.93,2.93,0,0,1,2.93,2.93v.7a2.93,2.93,0,0,1-2.86,3H322.78v-6.6h0Z" transform="translate(-20.57 -35.11)" fill="#7e57c2"/><path d="M322.78,242.22H482.3a2.93,2.93,0,0,1,2.93,2.93v.74a2.93,2.93,0,0,1-2.93,2.93H322.78v-6.6Z" transform="translate(-20.57 -35.11)" fill="#7e57c2"/><path d="M480.38,242.22H340.91a13.29,13.29,0,0,1-13.28-13.28h0a13.27,13.27,0,0,1,13.28-13.26H480.38A32.87,32.87,0,0,0,480.38,242.22Z" transform="translate(-20.57 -35.11)" fill="#f5f5f5"/><g opacity="0.3"><path d="M327.63,248.82H271.07a20,20,0,0,1-19.95-19.95h0A19.83,19.83,0,0,1,271,209.05h58.23C314.74,217.77,315.82,238.68,327.63,248.82Z" transform="translate(-20.57 -35.11)"/></g><path d="M463.44,230.17c0,.13-28.63.24-63.94.24s-63.94-.11-63.94-.24,28.63-.24,63.94-.24S463.44,230,463.44,230.17Z" transform="translate(-20.57 -35.11)" fill="#263238"/><path d="M476.6,236.07c0,.13-28.63.24-63.94.24s-63.94-.11-63.94-.24,28.62-.24,63.94-.24S476.6,235.94,476.6,236.07Z" transform="translate(-20.57 -35.11)" fill="#263238"/><path d="M472.72,221.79c0,.14-28.63.24-63.94.24s-63.94-.1-63.94-.24,28.62-.23,63.94-.23S472.72,221.68,472.72,221.79Z" transform="translate(-20.57 -35.11)" fill="#263238"/><path d="M320.62,246c0,.13-13.4.24-29.92.24s-29.93-.11-29.93-.24,13.4-.24,29.93-.24S320.62,245.9,320.62,246Z" transform="translate(-20.57 -35.11)" fill="#263238"/><path d="M320.62,212.35c0,.13-13.4.24-29.92.24s-29.93-.11-29.93-.24,13.4-.24,29.93-.24S320.62,212.22,320.62,212.35Z" transform="translate(-20.57 -35.11)" fill="#263238"/><path d="M243.27,276.74h92.19V328H243.27a25.62,25.62,0,0,1-25.61-25.61h0A25.62,25.62,0,0,1,243.27,276.74Z" transform="translate(-20.57 -35.11)" fill="#7e57c2"/><path d="M310,276.74H516.23a2.93,2.93,0,0,1,2.93,2.93v2.64a2.93,2.93,0,0,1-2.93,2.93H310v-8.5Z" transform="translate(-20.57 -35.11)" fill="#7e57c2"/><path d="M310,319.45H516.23a2.93,2.93,0,0,1,2.93,2.93V325a2.93,2.93,0,0,1-2.93,2.93H310v-8.5Z" transform="translate(-20.57 -35.11)" fill="#7e57c2"/><path d="M512.92,319.45H333.3a17.11,17.11,0,0,1-17.11-17.11h0a17.11,17.11,0,0,1,17.11-17.1H512.92A42.28,42.28,0,0,0,512.92,319.45Z" transform="translate(-20.57 -35.11)" fill="#f5f5f5"/><g opacity="0.4"><path d="M316.19,328H243a25.33,25.33,0,0,1-25.33-25.33h0a25.86,25.86,0,0,1,25.86-25.88h74.61C299.6,288,301,314.87,316.19,328Z" transform="translate(-20.57 -35.11)"/></g><path d="M491.09,303.93c0,.13-36.87.24-82.33.24s-82.35-.11-82.35-.24,36.86-.24,82.35-.24S491.09,303.8,491.09,303.93Z" transform="translate(-20.57 -35.11)" fill="#263238"/><path d="M508,311.54c0,.13-36.87.23-82.34.23s-82.34-.1-82.34-.23,36.86-.24,82.34-.24S508,311.4,508,311.54Z" transform="translate(-20.57 -35.11)" fill="#263238"/><path d="M503,296.88c0,.13-36.87.23-82.33.23s-82.35-.1-82.35-.23,36.86-.24,82.35-.24S503,296.74,503,296.88Z" transform="translate(-20.57 -35.11)" fill="#263238"/><path d="M307.17,324.36c0,.13-17.25.24-38.54.24s-38.54-.11-38.54-.24,17.25-.24,38.54-.24S307.17,324.23,307.17,324.36Z" transform="translate(-20.57 -35.11)" fill="#263238"/><path d="M307.17,281c0,.13-17.25.23-38.54.23s-38.54-.1-38.54-.23,17.25-.24,38.54-.24S307.17,280.86,307.17,281Z" transform="translate(-20.57 -35.11)" fill="#263238"/><path d="M366.06,276.92H285a14.66,14.66,0,0,1-14.66-14.66h0A14.66,14.66,0,0,1,285,247.6h81.05Z" transform="translate(-20.57 -35.11)" fill="#455a64"/><path d="M345.33,247.6h166.9a3.06,3.06,0,0,1,3.07,3.07h0v.78a3.07,3.07,0,0,1-3.07,3.07H345.33V247.6Z" transform="translate(-20.57 -35.11)" fill="#455a64"/><path d="M345.33,270h166.9a3.06,3.06,0,0,1,3.07,3.07h0v.78a3.07,3.07,0,0,1-3.07,3.07H345.33V270Z" transform="translate(-20.57 -35.11)" fill="#455a64"/><path d="M510.23,270H358.15a7.75,7.75,0,0,1-7.75-7.75h0a7.75,7.75,0,0,1,7.75-7.75H510.23Q504.37,262.27,510.23,270Z" transform="translate(-20.57 -35.11)" fill="#f5f5f5"/><g opacity="0.3"><path d="M350.4,276.92H284.89a14.54,14.54,0,0,1-14.54-14.54h0a14.78,14.78,0,0,1,14.78-14.78H352C336.91,254,338,269.43,350.4,276.92Z" transform="translate(-20.57 -35.11)"/></g><path d="M492.5,261c0,.13-29.95.24-66.9.24s-66.9-.11-66.9-.24,29.95-.24,66.9-.24S492.5,260.91,492.5,261Z" transform="translate(-20.57 -35.11)" fill="#263238"/><path d="M506.27,265.21c0,.13-30,.24-66.9.24s-66.9-.11-66.9-.24,29.95-.23,66.9-.23S506.27,265.08,506.27,265.21Z" transform="translate(-20.57 -35.11)" fill="#263238"/><path d="M343.07,274c0,.13-14,.23-31.31.23s-31.32-.1-31.32-.23,14-.24,31.32-.24S343.07,273.87,343.07,274Z" transform="translate(-20.57 -35.11)" fill="#263238"/><path d="M343.07,251.05c0,.13-14,.24-31.31.24s-31.32-.11-31.32-.24,14-.24,31.32-.24S343.07,250.92,343.07,251.05Z" transform="translate(-20.57 -35.11)" fill="#263238"/><path d="M513.3,247.6c0,.13-51.43.24-114.86.24s-114.88-.11-114.88-.24,51.42-.24,114.88-.24S513.3,247.47,513.3,247.6Z" transform="translate(-20.57 -35.11)" fill="#263238"/><polygon points="366.18 186.86 366.18 202.78 371.7 199.24 377.86 202.78 377.86 186.86 366.18 186.86" fill="#7e57c2"/></g><path d="M271,209.05H482.3a2.93,2.93,0,0,1,2.93,2.93v.7a2.93,2.93,0,0,1-2.86,3h-2a32.87,32.87,0,0,0,0,26.54h1.92a2.93,2.93,0,0,1,2.93,2.93v.74a2.93,2.93,0,0,1-.45,1.55c17.75,0,28.52.1,28.52.16s-.28,0-.79,0a3.06,3.06,0,0,1,2.79,3h0v.78a3.07,3.07,0,0,1-3.07,3.07h-2q-5.85,7.75,0,15.48h2a3.06,3.06,0,0,1,3.07,3.07v.78a3.06,3.06,0,0,1-2,2.88h3a2.93,2.93,0,0,1,2.93,2.93v2.64a2.93,2.93,0,0,1-2.93,2.93h-3.31a42.28,42.28,0,0,0,0,34.21h3.31a2.93,2.93,0,0,1,2.93,2.93V325a2.93,2.93,0,0,1-2.93,2.93h-273c-.46,0-.92,0-1.38,0a25.31,25.31,0,0,1-24.19-24.19c0-.46,0-.92,0-1.38a25.62,25.62,0,0,1,25.61-25.61h39.45a14.53,14.53,0,0,1-12.3-12.94c-.05-.51-.08-1-.08-1.54a14.66,14.66,0,0,1,8.81-13.44H271a19.74,19.74,0,0,1-10.08-2.77l-.15,0,.08,0a19.87,19.87,0,0,1,10.1-37m0-5h0a24.87,24.87,0,0,0-13.5,45.73,4.76,4.76,0,0,0,1.51.91,24.86,24.86,0,0,0,8.42,2.86,19.54,19.54,0,0,0-2,8.71c0,.67,0,1.36.11,2.06a19.37,19.37,0,0,0,2.28,7.42H243.27a30.64,30.64,0,0,0-30.61,30.61c0,.53,0,1.08.05,1.64a30.34,30.34,0,0,0,29,28.93c.52,0,1.07,0,1.6,0h273a7.94,7.94,0,0,0,7.93-7.93v-2.64a7.94,7.94,0,0,0-7.83-7.93,37.32,37.32,0,0,1,0-24.21,7.94,7.94,0,0,0,7.83-7.93v-2.64a7.94,7.94,0,0,0-3.86-6.81,8.08,8.08,0,0,0-7.3-7.81,6,6,0,0,1,0-5.56,8.07,8.07,0,0,0,7.31-8v-.78a8,8,0,0,0-3.58-6.71,5.47,5.47,0,0,0-3.81-1.39l-1.51,0-5.68-.05-16-.06a8,8,0,0,0-5.87-5.07,27.88,27.88,0,0,1,0-16.86,7.94,7.94,0,0,0,6.34-7.88V212a7.94,7.94,0,0,0-7.93-7.93H271Z" transform="translate(-20.57 -35.11)" fill="#fff"/><g id="freepik--character-1--inject-6"><path d="M47.22,86.15H231.68a5.79,5.79,0,0,1,5.79,5.79V243a7,7,0,0,1-7,7H46.33a5.74,5.74,0,0,1-5.73-5.73h0V92.77A6.62,6.62,0,0,1,47.22,86.15Z" transform="translate(-20.57 -35.11)" fill="#fafafa"/><path d="M46.29,86.11H230.41a6.75,6.75,0,0,1,6.75,6.75v17.07H40.24V92.17A6.06,6.06,0,0,1,46.29,86.11Z" transform="translate(-20.57 -35.11)" fill="#e0e0e0"/><path d="M230.72,250h.46a6.47,6.47,0,0,0,3.34-1.25,6.32,6.32,0,0,0,1.94-2.38,8.07,8.07,0,0,0,.59-3.85V225.71c0-18,0-44-.09-76.13V93.45a7.59,7.59,0,0,0-.53-3.43,6.15,6.15,0,0,0-5.53-3.67H46.64a6.25,6.25,0,0,0-4,1.52,6,6,0,0,0-2,3.77,21.13,21.13,0,0,0-.06,2.25V244.18A6.18,6.18,0,0,0,45,249.5a12.93,12.93,0,0,0,3.67.25h78l76.13.08,20.69,0H202.81l-76.13.08h-80a7.8,7.8,0,0,1-1.92-.27A6.6,6.6,0,0,1,40,244.22c-.07-2.59,0-5.13,0-7.73V93.91a18,18,0,0,1,.07-2.32,6.58,6.58,0,0,1,2.21-4.1,6.67,6.67,0,0,1,4.38-1.64H230.8a6.59,6.59,0,0,1,5.93,3.94,7.78,7.78,0,0,1,.56,3.6v56.13c0,32.14-.06,58.15-.08,76.13v16.79a7.81,7.81,0,0,1-.63,3.9,6.46,6.46,0,0,1-2,2.4,6.13,6.13,0,0,1-3.36,1.23Z" transform="translate(-20.57 -35.11)" fill="#263238"/><path d="M94.9,174.41a91.53,91.53,0,0,0-6.73,10.84c-2.23,4.64-21.73,41.13-23.53,44.89-2.17,4.56-4,16.71,4.46,19.65H86.48l17.44-34.22-4-29.22Z" transform="translate(-20.57 -35.11)" fill="#ae7461"/><path d="M188.87,166s8.74,2.49,11.74,13.25,12.63,34.54,12.63,34.54,5.82,10.72,6.38,15.3-.69,13.88-2.38,15.95a4.77,4.77,0,0,1-4.1,1.72L191,244.68l-8.72-58.36Z" transform="translate(-20.57 -35.11)" fill="#ae7461"/><path d="M114.46,161.47s-16.31,5-20.37,9.28L107.44,231l-.21,19h77.34c0-.94.69-63.15.69-63.15l.74-26.52h0l-31.33-4.48-26.19,1.45-6.71,2.34Z" transform="translate(-20.57 -35.11)" fill="#7e57c2"/><g opacity="0.3"><path d="M122.72,213.77c-.23-.51-.56-1.06-1.11-1.17-.9-.19-1.51.88-1.81,1.75-2.44,6.9-8.19,13.66-12.39,19.66l-.11,10.05c4.37-3.68,11.13-8.83,13.92-13.83S125.08,219,122.72,213.77Z" transform="translate(-20.57 -35.11)"/></g><g opacity="0.3"><path d="M165.45,211.86a34.06,34.06,0,0,0,4.33,20.22c3.49,6.07,8.61,11.48,15,14.38.21-6.18-.09-13.47.12-19.66Z" transform="translate(-20.57 -35.11)"/></g><path d="M184.88,160.23s8.75,1.5,15.73,15.08c3.17,6.16,10,27.18,10,27.18L184.93,213,182.33,189Z" transform="translate(-20.57 -35.11)" fill="#7e57c2"/><path d="M182.84,188.16a3.37,3.37,0,0,1,.22-.68l.71-1.81c.6-1.52,1.43-3.63,2.3-6s1.63-4.48,2.17-6l.65-1.84a3.81,3.81,0,0,1,.27-.66,2.82,2.82,0,0,1-.15.7c-.12.45-.31,1.08-.55,1.87-.49,1.57-1.21,3.72-2.08,6.07s-1.74,4.45-2.4,6c-.33.75-.6,1.36-.8,1.77A2.59,2.59,0,0,1,182.84,188.16Z" transform="translate(-20.57 -35.11)" fill="#263238"/><path d="M104.3,188.78c-.09,0-.77-3-1.52-6.63a66,66,0,0,1-1.19-6.68c.61,2.18,1.12,4.39,1.51,6.62C103.85,185.76,104.38,188.76,104.3,188.78Z" transform="translate(-20.57 -35.11)" fill="#263238"/><path d="M75.82,202s15-29.73,19.66-32.41,6.11,5.91,6.11,5.91l6.08,33.69-4.28,8.34Z" transform="translate(-20.57 -35.11)" fill="#7e57c2"/><path d="M131.87,86.2a5.88,5.88,0,0,1,5.77-3.51,8,8,0,0,1,9.81-.74,7.3,7.3,0,0,1,7-.79,7.2,7.2,0,0,1,4.25,5.52,6.1,6.1,0,0,1,6.47,2.51,6,6,0,0,1-.36,6.88,5.66,5.66,0,0,1-1.35,11.18l-29.9-14.57A5.79,5.79,0,0,1,131.87,86.2Z" transform="translate(-20.57 -35.11)" fill="#263238"/><path d="M169,138.32c-.51-6.2-2.62-18.89-4.65-30.35a24.15,24.15,0,0,0-26.13-19.72l-1.25.12c-13.39,2-19.12,14.47-16.69,27.69l7.39,45.33A15.22,15.22,0,0,0,144.58,174h0a15.2,15.2,0,0,0,13.2-17c0-.33-.09-.65-.15-1l-.32-1.7S170,151.17,169,138.32Z" transform="translate(-20.57 -35.11)" fill="#ae7461"/><path d="M157.39,154.36A31.83,31.83,0,0,1,140,151s4.87,8.86,17.67,6.48Z" transform="translate(-20.57 -35.11)" fill="#6f4439"/><path d="M159.86,120.47a1.84,1.84,0,0,1-1.61,2A1.77,1.77,0,0,1,156.2,121v0a1.84,1.84,0,0,1,1.6-2,1.77,1.77,0,0,1,2.06,1.44Z" transform="translate(-20.57 -35.11)" fill="#263238"/><path d="M162.14,114.51c-.2.26-1.7-.64-3.69-.44s-3.35,1.31-3.59,1.09.08-.55.67-1.07a5.13,5.13,0,0,1,2.84-1.17,4.92,4.92,0,0,1,3,.65C162,114,162.24,114.39,162.14,114.51Z" transform="translate(-20.57 -35.11)" fill="#263238"/><path d="M141.8,122.24a1.85,1.85,0,0,1-1.6,2,1.77,1.77,0,0,1-2-1.43v0a1.84,1.84,0,0,1,1.6-2,1.76,1.76,0,0,1,2,1.41S141.8,122.22,141.8,122.24Z" transform="translate(-20.57 -35.11)" fill="#263238"/><path d="M142.63,116.68c-.21.26-1.71-.63-3.69-.44s-3.35,1.32-3.59,1.1.07-.55.67-1.07a5.14,5.14,0,0,1,5.84-.53C142.48,116.19,142.73,116.6,142.63,116.68Z" transform="translate(-20.57 -35.11)" fill="#263238"/><path d="M151.24,130.68a13,13,0,0,1,3.17-.88c.51-.1,1-.24,1-.6a2.62,2.62,0,0,0-.41-1.52L153.13,124c-2.6-5.26-4.54-9.61-4.32-9.71s2.5,4.08,5.1,9.34c.63,1.3,1.23,2.54,1.81,3.72a3,3,0,0,1,.45,2,1.28,1.28,0,0,1-.77.82,3.51,3.51,0,0,1-.85.2A12.7,12.7,0,0,1,151.24,130.68Z" transform="translate(-20.57 -35.11)" fill="#263238"/><path d="M142.41,109c-.15.55-2.16.48-4.46,1s-4.14,1.31-4.49.86c-.16-.22.12-.75.83-1.34a8,8,0,0,1,6.82-1.41C142,108.3,142.47,108.68,142.41,109Z" transform="translate(-20.57 -35.11)" fill="#263238"/><path d="M160.87,108.87c-.31.48-1.72.14-3.37.28s-3,.59-3.38.15c-.16-.22,0-.68.58-1.17a4.92,4.92,0,0,1,5.44-.34C160.77,108.19,161,108.68,160.87,108.87Z" transform="translate(-20.57 -35.11)" fill="#263238"/><path d="M162.52,102.2s-4.18-7.71-8.26-9.22c-4.95-1.82-6.49,3.52-11.12,2.69S133.79,93.1,129.51,97c-4.68,4.26-2.07,6.69-1.84,12.41.94,23.21-2.69,30.13-4.94,19.38-.24-1.18-3.67-1.81-4.64-6.8-1.26-6.47-2.27-14.37-1.24-19.14.87-4,2.85-6.93,6.6-10.28,5.9-5.29,14.62-6.22,20.6-6.19S162.11,92.09,162.52,102.2Z" transform="translate(-20.57 -35.11)" fill="#263238"/><path d="M123.52,128.35a3.53,3.53,0,0,0-4-3l-.14,0c-2.39.46-5,2.07-4.32,7,1.12,8.75,9.75,5.82,9.73,5.57S124,132,123.52,128.35Z" transform="translate(-20.57 -35.11)" fill="#ae7461"/><path d="M122.48,134.87a2.55,2.55,0,0,1-.39.28,1.57,1.57,0,0,1-1.14.17c-1-.23-2-1.59-2.19-3.16a5,5,0,0,1,.15-2.24,1.79,1.79,0,0,1,1-1.31.78.78,0,0,1,1,.3c.15.23.11.41.16.42s.17-.17,0-.52a1,1,0,0,0-.41-.51,1.17,1.17,0,0,0-.88-.11,2.13,2.13,0,0,0-1.43,1.56,5.17,5.17,0,0,0-.22,2.5c.28,1.76,1.4,3.29,2.72,3.49a1.63,1.63,0,0,0,1.37-.41C122.49,135.08,122.51,134.88,122.48,134.87Z" transform="translate(-20.57 -35.11)" fill="#6f4439"/><path d="M122.08,111.34a8.58,8.58,0,0,0,3.92,1.34c1.4,0,2.91-.94,3-2.32.05-.62-.17-1.31.19-1.82s1.34-.52,2.08-.51a5.66,5.66,0,0,0,5.48-4.57c.75.91,2.28.73,3.21,0a13,13,0,0,0,2.17-2.79A3.68,3.68,0,0,1,145,98.88a8.48,8.48,0,0,0,2,.24c1.16-.21,1.6-1.62,1.66-2.78s.08-2.5,1-3.22,2.08-.44,3.16-.38,2.44-.33,2.62-1.39a2.07,2.07,0,0,0-.55-1.55,5.79,5.79,0,0,0-7-1.52,7.83,7.83,0,0,0-14.41-.14,8,8,0,0,0-12.33,4,5.9,5.9,0,0,0-5.77,2.57,5.79,5.79,0,0,0,.12,6.28,5.39,5.39,0,0,0-2.58,4.57c.14,1.81,2.1,3.45,3.82,2.81a3.25,3.25,0,0,0,1.64,4,3.31,3.31,0,0,0,4.13-1.39" transform="translate(-20.57 -35.11)" fill="#263238"/><path d="M116.1,108.47a2.22,2.22,0,0,0,.71,1.64,2.89,2.89,0,0,0,1.87.88,3.11,3.11,0,0,0,2.45-1h-.38a8.63,8.63,0,0,0,2,2,4.92,4.92,0,0,0,1.7.84,3.43,3.43,0,0,0,1.8,0,3.53,3.53,0,0,0,2.42-1.69,5.25,5.25,0,0,0,.54-1.9,1.7,1.7,0,0,0,0-.71,6.93,6.93,0,0,0-.2.68,6.19,6.19,0,0,1-.66,1.75,3.64,3.64,0,0,1-5.1.77,1.49,1.49,0,0,1-.2-.15,8.64,8.64,0,0,1-1.88-1.89l-.18-.24-.2.22a2.72,2.72,0,0,1-2.07.88,2.63,2.63,0,0,1-1.68-.69A4,4,0,0,1,116.1,108.47Z" transform="translate(-20.57 -35.11)" fill="#455a64"/><path d="M154.85,81.36c0-.09,1,.43,1.79,1.85a7.46,7.46,0,0,1,1,2.66,5,5,0,0,1-.71,3.43,7.11,7.11,0,0,1-2.64,2.29,20.17,20.17,0,0,1-2.56,1.14,10.52,10.52,0,0,1-2.44.78,9.28,9.28,0,0,1,2.27-1.19c.83-.37,1.65-.78,2.44-1.23A7,7,0,0,0,156.4,89a4.58,4.58,0,0,0,.67-3,7.73,7.73,0,0,0-.77-2.53A11,11,0,0,0,154.85,81.36Z" transform="translate(-20.57 -35.11)" fill="#e0e0e0"/><path d="M160.82,86.8c.07,0,.16.55,0,1.43A6.62,6.62,0,0,1,156.18,93c-.87.22-1.43.16-1.43.09a8.7,8.7,0,0,1,1.29-.51,7.62,7.62,0,0,0,4.35-4.49C160.65,87.32,160.72,86.8,160.82,86.8Z" transform="translate(-20.57 -35.11)" fill="#e0e0e0"/><path d="M151.87,134.68l-4.7-1a1.43,1.43,0,0,0-.82,0,1.21,1.21,0,0,0-.62.66,4.07,4.07,0,0,0,.5,4.46,3.4,3.4,0,0,0,4.32.57,4.65,4.65,0,0,0,1.46-4.53Z" transform="translate(-20.57 -35.11)" fill="#6f4439"/><path d="M150.75,139.57a1.57,1.57,0,0,1-.57.38,3.72,3.72,0,0,1-1.86.28,4,4,0,0,1-2.51-1.29,4,4,0,0,1-1-3.3,4.25,4.25,0,0,1,.65-1.71,4.1,4.1,0,0,1,.58-.67,1,1,0,0,1,.45-.27,1.14,1.14,0,0,1,.52,0,5.94,5.94,0,0,1,.75.23l.65.22,1.19.42a9.71,9.71,0,0,1,2.29,1,8.8,8.8,0,0,1-2.43-.53l-1.21-.34-.67-.2c-.23-.06-.48-.15-.67-.18a.47.47,0,0,0-.46.15,3.42,3.42,0,0,0-1,2,3.54,3.54,0,0,0,.81,2.81,3.61,3.61,0,0,0,2.12,1.22,4.16,4.16,0,0,0,1.72-.06C150.5,139.61,150.72,139.52,150.75,139.57Z" transform="translate(-20.57 -35.11)" fill="#263238"/><path d="M164.74,203.68s-2.73.76-.68,6.34,2.72,5.25,4.09,10.47,2.95,10,5.33,13,11.25,9,11.25,9l8-7.5a37.93,37.93,0,0,1-1-9.38c.31-3.79,1.11-13.1,1-14.69a26.85,26.85,0,0,0-1.82-5.45v-2.69l-4.09-12.58s-2.27-1-3.07,2.61L182.39,189s-2.16-.34-2.72,4.09a44.46,44.46,0,0,0,.45,10.56L179,211.32l-1.7,5.23-1.47.22s-2.23-.6-3.44-4.79S167.81,202.8,164.74,203.68Z" transform="translate(-20.57 -35.11)" fill="#ae7461"/><path d="M190,223.47a1.41,1.41,0,0,1,0-.29,4.46,4.46,0,0,0-.06-.83c0-.76-.1-1.82-.17-3.13-.12-2.71-.29-6.49-.49-10.89v.09a1.58,1.58,0,0,0-1.61-.42,2.39,2.39,0,0,0-1.48,1.08,10.67,10.67,0,0,0-1,4c-.43,3.18-.84,6.21-1.21,9-.19,1.38-.39,2.69-.66,3.9a25.39,25.39,0,0,1-1,3.32,25.49,25.49,0,0,0-.86,2.69,8.83,8.83,0,0,0-.26,2.11,6.8,6.8,0,0,0,.32,1.78,2.44,2.44,0,0,1-.19-.44,4.35,4.35,0,0,1-.25-1.34,7.77,7.77,0,0,1,.2-2.15,26,26,0,0,1,.82-2.73,26.83,26.83,0,0,0,.94-3.29c.25-1.21.44-2.51.62-3.89.37-2.77.77-5.8,1.19-9,.1-.71.18-1.41.3-2.11a5.49,5.49,0,0,1,.7-2,2.69,2.69,0,0,1,1.68-1.21,1.89,1.89,0,0,1,1.91.53h0v.05c.16,4.4.29,8.18.38,10.89,0,1.32.06,2.37.08,3.13v.84A1.12,1.12,0,0,1,190,223.47Z" transform="translate(-20.57 -35.11)" fill="#6f4439"/><path d="M185.67,209.16a3.94,3.94,0,0,1-.34-.72,17.33,17.33,0,0,1-.66-2,20.76,20.76,0,0,1-.57-3.13,8.62,8.62,0,0,1,0-1.9,4.09,4.09,0,0,1,.69-1.94,2.76,2.76,0,0,1,1.45-1.09h.12l.07.11c1.15,2,2.15,3.82,2.85,5.11l.81,1.53a3,3,0,0,1,.27.57,1.86,1.86,0,0,1-.36-.52l-.9-1.47c-.75-1.26-1.79-3-2.95-5.06l.18.07a2.45,2.45,0,0,0-1.28,1,3.78,3.78,0,0,0-.63,1.8,9.33,9.33,0,0,0,0,1.83,23.27,23.27,0,0,0,.5,3.1c.2.88.41,1.57.56,2.05A5,5,0,0,1,185.67,209.16Z" transform="translate(-20.57 -35.11)" fill="#6f4439"/><path d="M183.77,210.18a3.63,3.63,0,0,1-.08-.73,19.22,19.22,0,0,0-.08-2c-.05-1.67-.1-4-.14-6.53a56.89,56.89,0,0,1,.1-6.53,10.77,10.77,0,0,1,.43-1.95,2.35,2.35,0,0,1,.29-.67,18.3,18.3,0,0,0-.49,2.64c-.16,1.65,0,4,0,6.51v8.52A3.06,3.06,0,0,1,183.77,210.18Z" transform="translate(-20.57 -35.11)" fill="#6f4439"/><path d="M177.05,231.12c-.05,0,.45-.63,1.06-1.69a13.84,13.84,0,0,0,1.67-9.22c-.21-1.21-.47-1.93-.41-2a1.45,1.45,0,0,1,.22.49,7.7,7.7,0,0,1,.41,1.42,13.14,13.14,0,0,1,.27,2.17,12.83,12.83,0,0,1-1,5.26,12,12,0,0,1-1,2,8.51,8.51,0,0,1-.88,1.19A2.05,2.05,0,0,1,177.05,231.12Z" transform="translate(-20.57 -35.11)" fill="#6f4439"/><path d="M191,227.21l6.9,2.39s6.59-3.4,11.13,0,8.49,12.39,7.24,16c0,0-3.14,3.87-5.52,4.44s-11.66-1.68-15.52-2.49-10.5-5.13-10.5-5.13Z" transform="translate(-20.57 -35.11)" fill="#ae7461"/><path d="M192.68,234.94a.44.44,0,0,1-.37-.29,4.91,4.91,0,0,1-.35-1.3,38.61,38.61,0,0,1-.34-4.92c-.07-4.16.08-9.9.47-16.23a11.44,11.44,0,0,0-1.44-6.65v-2.7c-1.15-3.68-2.13-6.81-2.86-9.11-.31-1.06-.57-1.92-.77-2.6a6.14,6.14,0,0,1-.23-.94,4.08,4.08,0,0,1,.37.89c.23.67.53,1.52.9,2.56.77,2.29,1.81,5.4,3,9v2.58a11.89,11.89,0,0,1,1.54,7c-.39,6.31-.6,12-.62,16.18a38.89,38.89,0,0,0,.17,4.9,5.17,5.17,0,0,0,.25,1.29A.46.46,0,0,0,192.68,234.94Z" transform="translate(-20.57 -35.11)" fill="#6f4439"/><path d="M214.81,228.76a12.09,12.09,0,0,0-3.11-2.08,10.11,10.11,0,0,0-3.95-.81A11,11,0,0,0,203,227a47.15,47.15,0,0,0-4.89,3.13l-.1.06h-.11a26.83,26.83,0,0,1-4.75-2.18c-1.1-.67-1.53-1.31-1.49-1.34a11.94,11.94,0,0,0,1.63,1.1,32.59,32.59,0,0,0,4.76,2h-.2a38.74,38.74,0,0,1,4.92-3.2,11,11,0,0,1,5-1.1,10.16,10.16,0,0,1,4.09,1,8.29,8.29,0,0,1,2.32,1.62A2.57,2.57,0,0,1,214.81,228.76Z" transform="translate(-20.57 -35.11)" fill="#6f4439"/><path d="M103.12,225.83c.2.1-2.28-19.41-2.28-19.41s1.56-14.81,2.44-15.49V185.7s2.42-1.46,3.07.9c0,0,2.15-1.86,2.52,2.58s.46,9,.46,9l3.53,12.38h0a1.88,1.88,0,0,0,1.83-1.57,87,87,0,0,1,1.83-9.2c.59-1.38,1-4.73,3.27-4.22s2.45,2.37,2,5.43-.92,6.21-.73,8.18,1.09,6.32.81,9.77a19.42,19.42,0,0,1-4.15,9.64c-2,2.56-5.77,7.84-7.83,9.43C109.25,238.55,103.12,225.83,103.12,225.83Z" transform="translate(-20.57 -35.11)" fill="#ae7461"/><path d="M103.15,223.19l-12.39,5.49H83.24S75.8,231,74.65,238s-1.31,10.57,2,11.43,12.51,1,17.09-.56,16.54-11.16,16.54-11.16l1.16-7Z" transform="translate(-20.57 -35.11)" fill="#ae7461"/><path d="M102.94,223.41a3.2,3.2,0,0,1-.71.37l-2.06.94-7.38,3.2-.1.05-.1-.07a21.6,21.6,0,0,0-9.88-2.82,14.84,14.84,0,0,0-4.25.43A21.54,21.54,0,0,0,74.77,227a26,26,0,0,0-5.72,3.65,11.38,11.38,0,0,0-2.82,3.57,7.74,7.74,0,0,0-.45,1.16,1.59,1.59,0,0,1-.16.41,1.09,1.09,0,0,1,.06-.44,5.73,5.73,0,0,1,.37-1.22,10.64,10.64,0,0,1,2.75-3.75,25.13,25.13,0,0,1,5.75-3.82A21.61,21.61,0,0,1,78.33,225a14.75,14.75,0,0,1,4.39-.46,21.29,21.29,0,0,1,10.1,3h-.2l7.45-3,2.11-.82A3.57,3.57,0,0,1,102.94,223.41Z" transform="translate(-20.57 -35.11)" fill="#6f4439"/><path d="M104.66,233.37a2.17,2.17,0,0,1-.7-.83,7.5,7.5,0,0,1-.83-2.85c-.3-2.47-.7-5.87-1.1-9.63s-.73-7.17-1-9.63c-.11-1.24-.19-2.24-.23-2.93a3.91,3.91,0,0,1,0-1.08,3.84,3.84,0,0,1,.21,1.06c.11.69.24,1.68.4,2.91.31,2.46.7,5.87,1.1,9.63s.74,7.17.94,9.63a8.17,8.17,0,0,0,.65,2.79C104.43,233.06,104.7,233.34,104.66,233.37Z" transform="translate(-20.57 -35.11)" fill="#6f4439"/><path d="M109.22,202.38a29.16,29.16,0,0,0-3,6.21,30.38,30.38,0,0,0-.94,6.84,5.93,5.93,0,0,1-.26-2.05,16.46,16.46,0,0,1,2.85-9.44A5.61,5.61,0,0,1,109.22,202.38Z" transform="translate(-20.57 -35.11)" fill="#6f4439"/><path d="M107.9,201.29c-.16,0,0-3.43-.42-7.61s-1.37-7.48-1.21-7.53a8.41,8.41,0,0,1,.74,2.13,35.88,35.88,0,0,1,1,5.34,35.17,35.17,0,0,1,.17,5.43A8,8,0,0,1,107.9,201.29Z" transform="translate(-20.57 -35.11)" fill="#6f4439"/><path d="M106,206.37a4.69,4.69,0,0,1-.44-2.42,52.48,52.48,0,0,1,.68-5.87,9.8,9.8,0,0,0-.12-3.15,5.92,5.92,0,0,0-1.07-2.3,6.31,6.31,0,0,0-1.83-1.5,3.14,3.14,0,0,1,2.12,1.26,6,6,0,0,1,1.24,2.43,9.68,9.68,0,0,1,.18,3.31c-.26,2.32-.79,4.33-.84,5.82S106.08,206.35,106,206.37Z" transform="translate(-20.57 -35.11)" fill="#6f4439"/><path d="M107.13,214a28.49,28.49,0,0,1,.73,3,28.84,28.84,0,0,0,.9,3.18,8.91,8.91,0,0,0,2.3,3.2,6.48,6.48,0,0,1,1.38,1.7,9,9,0,0,1,.7,1.9,10.38,10.38,0,0,1,.29,3.38,9.06,9.06,0,0,1-.43,2.24,2.36,2.36,0,0,1-.34.76,27.38,27.38,0,0,0,.41-3,11.72,11.72,0,0,0-.39-3.23,8.28,8.28,0,0,0-.69-1.79,6.39,6.39,0,0,0-1.28-1.56,8.9,8.9,0,0,1-2.4-3.41,23,23,0,0,1-.81-3.27A13,13,0,0,1,107.13,214Z" transform="translate(-20.57 -35.11)" fill="#6f4439"/><path d="M54.41,96.89a3,3,0,1,1-2.95-3,2.95,2.95,0,0,1,2.95,3Z" transform="translate(-20.57 -35.11)" fill="#fff"/><path d="M63.16,96.89a3,3,0,1,1-3-3h.05a3,3,0,0,1,2.95,3Z" transform="translate(-20.57 -35.11)" fill="#fff"/><path d="M71.9,96.89a3,3,0,1,1,0-.06Z" transform="translate(-20.57 -35.11)" fill="#fff"/></g><path d="M151.67,80.61a7.29,7.29,0,0,1,2.78.55c.14.06.27.14.41.21h0s0,0,0,0a1.17,1.17,0,0,1,.42.24,7.16,7.16,0,0,1,3.24,4.26H230.8a6.63,6.63,0,0,1,2.39.5,5.8,5.8,0,0,1,4.28,5.59V243a7,7,0,0,1-1.62,4.48,6.78,6.78,0,0,1-1.27,1.24,6.26,6.26,0,0,1-2,1,6.86,6.86,0,0,1-1.1.2,6.18,6.18,0,0,0,1-.21c.16,0,.31-.12.46-.18h0a7.2,7.2,0,0,1-1.55.4h0a7,7,0,0,1-.92.07H210.81l-.06,0a4.65,4.65,0,0,1-1,.09A16.53,16.53,0,0,1,208,250H184.57v0H107.23v0H46.33a5.71,5.71,0,0,1-3.9-1.54A6.59,6.59,0,0,1,40,244.22c-.07-2.59,0-5.13,0-7.73V93.91a18,18,0,0,1,.07-2.32,6.58,6.58,0,0,1,2.21-4.1,6.67,6.67,0,0,1,4.38-1.64h85.4a5.86,5.86,0,0,1,5.19-3.17h.39a8,8,0,0,1,9.81-.74,7.27,7.27,0,0,1,4.22-1.34M40.6,244.3h0V109.93h0V244.18s0,.08,0,.12m193.87,4.46h0l.05,0,.08-.06-.13.09m-1.14.65-.07,0,.07,0,.43-.21-.43.21M151.67,75.61h0a12.27,12.27,0,0,0-4.27.76,13,13,0,0,0-11.55,1.4,10.81,10.81,0,0,0-6.26,3.08H46.66A11.63,11.63,0,0,0,35.11,90.94c0,.06,0,.12,0,.18A22.88,22.88,0,0,0,35,94v142.5c0,.85,0,1.7,0,2.55,0,1.72,0,3.5,0,5.31a4.93,4.93,0,0,0,0,.54,11.54,11.54,0,0,0,4.11,7.38A10.74,10.74,0,0,0,46.33,255h60.46l.44,0h77.34l.45,0h22.74c.75.07,1.4.11,2,.11a10.84,10.84,0,0,0,1.57-.11h19.16a12.25,12.25,0,0,0,1.54-.11h.05a10,10,0,0,0,1.9-.37,11.39,11.39,0,0,0,5.78-3.9,12.05,12.05,0,0,0,2.73-7.62V91.94a10.81,10.81,0,0,0-7.67-10.33,11.66,11.66,0,0,0-3.92-.76H161.64a12.19,12.19,0,0,0-3.6-3.44,6.36,6.36,0,0,0-1.33-.71l-.27-.13-.08,0a12.22,12.22,0,0,0-4.69-.93Z" transform="translate(-20.57 -35.11)" fill="#fff"/><g id="freepik--speech-bubble--inject-6"><path d="M104.31,146.55,95.93,148a25.43,25.43,0,1,1,4.72-7.79h0Z" transform="translate(-20.57 -35.11)" fill="#fafafa"/><path d="M104.31,146.55s-.09-.14-.25-.42l-.72-1.21-2.74-4.65h.11a.07.07,0,0,1-.09,0,.09.09,0,0,1,0-.07,25.33,25.33,0,0,0,.62-16.09c-.19-.65-.45-1.29-.68-2a16.06,16.06,0,0,0-.86-2,24.91,24.91,0,0,0-5.45-7.42,25.23,25.23,0,0,0-8.66-5.32,25.54,25.54,0,0,0-10.89-1.45,25.84,25.84,0,0,0-11.06,3.76,22.61,22.61,0,0,0-2.48,1.75c-.42.29-.77.68-1.16,1a10.09,10.09,0,0,0-1.11,1.06,26.65,26.65,0,0,0-2,2.37c-.3.43-.62.84-.92,1.27s-.53.9-.8,1.35a25.24,25.24,0,0,0,13.6,36.43,25,25,0,0,0,9,1.39,27.55,27.55,0,0,0,4.15-.43,32.53,32.53,0,0,0,3.76-1A25.37,25.37,0,0,0,96,147.93h0l6.22-1.06,1.61-.27.56-.09-.53.1-1.59.3L96,148.07h0a25.22,25.22,0,0,1-10.31,7.05,33.17,33.17,0,0,1-3.78,1.07,29.33,29.33,0,0,1-4.19.45,25.26,25.26,0,0,1-9-1.38,25.51,25.51,0,0,1-13.79-36.84l.82-1.36c.3-.44.62-.85.93-1.28a27.05,27.05,0,0,1,2-2.4c.34-.39.75-.71,1.13-1.07a8.31,8.31,0,0,1,1.16-1,25.25,25.25,0,0,1,24.71-4.08,25.44,25.44,0,0,1,8.74,5.39,25.05,25.05,0,0,1,5.48,7.51,16,16,0,0,1,.85,2c.23.67.5,1.32.69,2a25.37,25.37,0,0,1-.71,16.19l-.11-.06h0a0,0,0,0,1,.07,0h0c1.17,2.06,2.08,3.64,2.69,4.73l.69,1.21Z" transform="translate(-20.57 -35.11)" fill="#263238"/><path d="M81.46,128s-.74-.64-2.08-1.79c-.67-.58-1.51-1.26-2.52-2a28.29,28.29,0,0,0-3.58-2.25,16.62,16.62,0,0,0-2.24-1,7.29,7.29,0,0,0-2.53-.45,2.9,2.9,0,0,0-1.23.3,1.86,1.86,0,0,0-.84.89,3.17,3.17,0,0,0-.25,1.32,6.57,6.57,0,0,0,.19,1.46,14,14,0,0,0,1.09,2.93,26.18,26.18,0,0,0,1.65,2.86,39.39,39.39,0,0,0,4.4,5.41,38.24,38.24,0,0,0,5.28,4.56,26.11,26.11,0,0,0,2.8,1.74,15.21,15.21,0,0,0,2.9,1.18,7.06,7.06,0,0,0,1.45.22,3,3,0,0,0,1.33-.21,1.86,1.86,0,0,0,.92-.81,2.74,2.74,0,0,0,.32-1.22,7.31,7.31,0,0,0-.37-2.54,15.2,15.2,0,0,0-.9-2.26,29.17,29.17,0,0,0-2.14-3.62c-.71-1-1.37-1.88-1.92-2.57-1.11-1.38-1.78-2.09-1.73-2.14a2.74,2.74,0,0,1,.55.47c.33.32.82.81,1.41,1.47a24.93,24.93,0,0,1,2,2.52,27.56,27.56,0,0,1,2.27,3.66,15.42,15.42,0,0,1,1,2.33,8.11,8.11,0,0,1,.45,2.76,3.64,3.64,0,0,1-.39,1.51,2.65,2.65,0,0,1-1.23,1.11,3.91,3.91,0,0,1-1.62.29,8.82,8.82,0,0,1-1.61-.24,14.84,14.84,0,0,1-3-1.17,25.31,25.31,0,0,1-2.9-1.78,37.26,37.26,0,0,1-5.4-4.64,39.4,39.4,0,0,1-4.48-5.58,24.47,24.47,0,0,1-1.68-3,14.37,14.37,0,0,1-1.12-3.1,7.3,7.3,0,0,1-.19-1.61,3.77,3.77,0,0,1,.34-1.62A2.6,2.6,0,0,1,67,120.2a3.63,3.63,0,0,1,1.52-.34,7.34,7.34,0,0,1,2.74.53,14.16,14.16,0,0,1,2.3,1,26.91,26.91,0,0,1,3.59,2.38c1,.78,1.81,1.51,2.46,2.12S80.73,127,81,127.35A2.87,2.87,0,0,1,81.46,128Z" transform="translate(-20.57 -35.11)" fill="#7e57c2"/><path d="M72.5,130.2c.06,0-.21.93-.57,2.6-.18.84-.38,1.86-.53,3.06a25.38,25.38,0,0,0-.23,4.09,15.47,15.47,0,0,0,.24,2.35,7.16,7.16,0,0,0,.84,2.33,2.86,2.86,0,0,0,.84.89,1.94,1.94,0,0,0,1.15.31,3.2,3.2,0,0,0,1.25-.35,6.23,6.23,0,0,0,1.18-.79,13.63,13.63,0,0,0,2-2.23,23.64,23.64,0,0,0,1.71-2.7A36.58,36.58,0,0,0,84.44,127a22.65,22.65,0,0,0,.16-3.19,13.19,13.19,0,0,0-.38-3,6.3,6.3,0,0,0-.51-1.33,3.06,3.06,0,0,0-.82-1,1.9,1.9,0,0,0-1.12-.41,2.88,2.88,0,0,0-1.19.24,6.91,6.91,0,0,0-2,1.43A14,14,0,0,0,77,121.47a27.69,27.69,0,0,0-2.18,3.47c-.56,1.07-1,2-1.33,2.81-.67,1.57-1,2.47-1,2.45a2.29,2.29,0,0,1,.14-.68c.12-.43.31-1.07.61-1.88a30.56,30.56,0,0,1,1.23-2.89,24.93,24.93,0,0,1,2.11-3.6,14.17,14.17,0,0,1,1.58-1.88,7.37,7.37,0,0,1,2.2-1.59,3.62,3.62,0,0,1,1.48-.32,2.63,2.63,0,0,1,1.5.53,3.62,3.62,0,0,1,1,1.23,6.43,6.43,0,0,1,.58,1.47,13.45,13.45,0,0,1,.44,3.16,26,26,0,0,1-.15,3.3,36.81,36.81,0,0,1-4.15,13.08,23.91,23.91,0,0,1-1.79,2.78,13.36,13.36,0,0,1-2.18,2.33,7.17,7.17,0,0,1-1.32.87,3.74,3.74,0,0,1-1.54.4,2.63,2.63,0,0,1-1.54-.43,3.54,3.54,0,0,1-1-1.11,7.4,7.4,0,0,1-.88-2.57,15.35,15.35,0,0,1-.2-2.44A24.17,24.17,0,0,1,71,135.8c.2-1.21.44-2.24.66-3.07s.44-1.47.59-1.89A1.9,1.9,0,0,1,72.5,130.2Z" transform="translate(-20.57 -35.11)" fill="#7e57c2"/><path d="M75.56,125.88c0,.06-.9.31-2.51.89-.8.28-1.78.66-2.88,1.15a28.71,28.71,0,0,0-3.6,2,15.15,15.15,0,0,0-1.86,1.44,6.77,6.77,0,0,0-1.55,1.94,2.87,2.87,0,0,0-.31,1.18,2,2,0,0,0,.34,1.14,2.82,2.82,0,0,0,1,.88,6.26,6.26,0,0,0,1.29.59,13.34,13.34,0,0,0,3,.56,24.26,24.26,0,0,0,3.19,0,35.59,35.59,0,0,0,6.66-1,34.8,34.8,0,0,0,6.36-2.24,22.42,22.42,0,0,0,2.8-1.55,13.39,13.39,0,0,0,2.35-1.9,6.18,6.18,0,0,0,.86-1.12,3,3,0,0,0,.42-1.23,1.83,1.83,0,0,0-.24-1.17,2.72,2.72,0,0,0-.83-.89,6.84,6.84,0,0,0-2.28-1,14.15,14.15,0,0,0-2.33-.38,25.39,25.39,0,0,0-4.09,0c-1.21.08-2.24.21-3.09.34-1.69.26-2.61.47-2.63.41a2.41,2.41,0,0,1,.65-.24c.44-.12,1.09-.3,1.93-.47s1.88-.35,3.1-.48a24.33,24.33,0,0,1,4.18-.09,15.34,15.34,0,0,1,2.42.35,7.19,7.19,0,0,1,2.51,1,3.47,3.47,0,0,1,1,1.09,2.59,2.59,0,0,1,.35,1.56,3.9,3.9,0,0,1-.5,1.52,7.3,7.3,0,0,1-1,1.26,13.89,13.89,0,0,1-2.46,2A24.57,24.57,0,0,1,85,135.06a36.89,36.89,0,0,1-13.31,3.35,22.73,22.73,0,0,1-3.3-.06,13.46,13.46,0,0,1-3.13-.62,6.9,6.9,0,0,1-1.43-.67,3.69,3.69,0,0,1-1.16-1.1,2.63,2.63,0,0,1-.44-1.54,3.51,3.51,0,0,1,.41-1.45,7.23,7.23,0,0,1,1.72-2.09,14.43,14.43,0,0,1,2-1.46,24.58,24.58,0,0,1,3.72-1.9,28.51,28.51,0,0,1,3-1c.82-.25,1.47-.4,1.92-.5A2.19,2.19,0,0,1,75.56,125.88Z" transform="translate(-20.57 -35.11)" fill="#7e57c2"/><path d="M80.27,131.29a2.51,2.51,0,1,1-3.06-1.81h.06A2.49,2.49,0,0,1,80.27,131.29Z" transform="translate(-20.57 -35.11)" fill="#7e57c2"/></g><g id="freepik--character-2--inject-6"><path d="M252.71,210.68,251,192.82l-26.78-33.09c-1.78,8.19-3.77,24-1.1,31.9,1,3,2.32,6,2,9.14-.31,2.9-2,5.61-1.81,8.52.17,2.17,1.42,4.09,2.63,5.91a3.66,3.66,0,0,0,4.71,2.12h0l20.15-4a1.91,1.91,0,0,0,1.89-2.63Z" transform="translate(-20.57 -35.11)" fill="#263238"/><path d="M188.67,269.61l17.18-6.93L219,228.39l17.49,9s-1.69,3.39-5.3,11.77c-1.4,3.23-6,12.25-7.91,16.64a23.1,23.1,0,0,1-20.62,14l-16.12.42Z" transform="translate(-20.57 -35.11)" fill="#ffbf9d"/><path d="M180.13,263l-2.59-2.73a2.94,2.94,0,0,0-1.68-.46l-8.23.25a5.14,5.14,0,0,0-3.8,2.3l-3,5.09s-2,3.49-1.76,4.33a1.5,1.5,0,0,0,1.74,1s.28,1.61.82,1.94a2.53,2.53,0,0,0,2,.12,1.7,1.7,0,0,0,1.62,1,2,2,0,0,0,.42-.07c1-.3,1.42-2.19,1.42-2.19l4.17-.77s6,4,8.1,6.62S187,280,187,280l2.07-9.89Z" transform="translate(-20.57 -35.11)" fill="#ffbf9d"/><path d="M174.07,264.15a6.12,6.12,0,0,1-1.8.3c-1.13.13-2.74.17-4.54.41l.19-.14a16.68,16.68,0,0,1-1.07,2,21.85,21.85,0,0,1-3.95,4.68,7.94,7.94,0,0,1-2.06,1.48c-.05-.07.71-.65,1.81-1.74a27.43,27.43,0,0,0,3.76-4.69,19.59,19.59,0,0,0,1.06-1.9l.06-.13h.13c1.86-.21,3.46-.19,4.59-.22A8.51,8.51,0,0,1,174.07,264.15Z" transform="translate(-20.57 -35.11)" fill="#ff9a6c"/><path d="M174.26,268.08a4.4,4.4,0,0,1-1.55.41,11.69,11.69,0,0,1-4-.14l.29-.17a13.64,13.64,0,0,1-.6,1.49,12.57,12.57,0,0,1-3.09,4.07,5,5,0,0,1-1.77,1.15c0-.06.61-.53,1.52-1.42a14.06,14.06,0,0,0,3.46-5.43l.08-.21.21.05A20.31,20.31,0,0,0,174.26,268.08Z" transform="translate(-20.57 -35.11)" fill="#ff9a6c"/><path d="M184.7,270.11l-7.33-3.43a7.52,7.52,0,0,0-3.2-.95,7.61,7.61,0,0,0-3.4,1.12l-3.94,2a1,1,0,0,0-.53.47.86.86,0,0,0,.34.83,5.83,5.83,0,0,0,7.65.32,15.71,15.71,0,0,0,2.47,4.88,5.37,5.37,0,0,0,4.83,2.06" transform="translate(-20.57 -35.11)" fill="#ffbf9d"/><path d="M181.59,277.48a.53.53,0,0,0-.19.06,2.46,2.46,0,0,1-.6.07,4.59,4.59,0,0,1-2.21-.53,7,7,0,0,1-2.59-2.4,19.4,19.4,0,0,1-1.92-4.1l.37.1a5.92,5.92,0,0,1-4.28,1.34,5.76,5.76,0,0,1-3.44-1.4,3.63,3.63,0,0,1-.47-.49,1,1,0,0,1-.21-.8.94.94,0,0,1,.44-.54c.18-.11.32-.18.48-.26l.91-.47,1.79-.93a16.36,16.36,0,0,1,3.54-1.54,5.45,5.45,0,0,1,3.48.53c1,.45,1.88.89,2.72,1.29l3.9,1.9a8.28,8.28,0,0,1,1.4.77,11.21,11.21,0,0,1-1.49-.58l-4-1.76-2.73-1.22a5,5,0,0,0-3.21-.46,15.7,15.7,0,0,0-3.4,1.52l-1.79.93-.91.48c-.31.16-.64.31-.65.47a1.35,1.35,0,0,0,.52.77,5.58,5.58,0,0,0,1,.66,5.75,5.75,0,0,0,2.18.62,5.4,5.4,0,0,0,3.94-1.18l.25-.22.11.32a19.47,19.47,0,0,0,1.81,4,6.84,6.84,0,0,0,2.41,2.34A5.25,5.25,0,0,0,181.59,277.48Z" transform="translate(-20.57 -35.11)" fill="#ff9a6c"/><path d="M282.54,192.83c-3.62-6-6.6-22.84-6.81-28.34s-3.36-12-7.2-15.94-10.5-5.46-15-2.27l-.92,4.68c1.77,21.23,1.53,42.8,3.29,64,.24,2.79,2.5,5.31,3.77,7.81s3.81,4.55,6.6,4.38c3.66-.23,9.2-1.89,10.33-5.38C280.73,209.19,298.08,218.49,282.54,192.83Z" transform="translate(-20.57 -35.11)" fill="#263238"/><path d="M270,150.93a27.77,27.77,0,0,0-21.52-10.71c-4.89-.08-6.91.94-10.43,1.89a15.41,15.41,0,0,0-8.79,5.81c-2.5,3.54-4.59,7.51-5.06,11.81a72.25,72.25,0,0,0-.64,13.31,24.23,24.23,0,0,0,4.15,12.5l11.29,2c6.23.22,12.55.42,18.62-1s12-4.69,15.22-10C277.35,169.09,275.47,157.68,270,150.93Z" transform="translate(-20.57 -35.11)" fill="#263238"/><path d="M260,150.86l-15-6-3.93.45c-8.84,0-14.94,9.79-15,17-.06,8,.17,17.68,1.44,23.54,2.54,11.8,12.6,12.78,12.6,12.78s-.2,6.28-.28,10.24l23-1.66L264,154.93A4.18,4.18,0,0,0,260,150.86Z" transform="translate(-20.57 -35.11)" fill="#ffbf9d"/><path d="M245.1,183.06a2.58,2.58,0,0,0-2.95-2.15,2.61,2.61,0,0,0-1.05.42,3.44,3.44,0,0,0-1.31,3.23h0a3.11,3.11,0,0,0,2.24,1.3h.42a2.81,2.81,0,0,0,1.89-.75A2.47,2.47,0,0,0,245.1,183.06Z" transform="translate(-20.57 -35.11)" fill="#ff9a6c"/><path d="M230,172.35a1.51,1.51,0,0,0,1.55,1.46,1.46,1.46,0,0,0,1.5-1.42v0a1.53,1.53,0,0,0-1.55-1.46,1.45,1.45,0,0,0-1.5,1.4Z" transform="translate(-20.57 -35.11)" fill="#263238"/><path d="M228.67,166.26c.2.19,1.3-.73,3-.82s2.89.67,3,.46-.13-.44-.67-.79a4.17,4.17,0,0,0-4.8.28C228.72,165.81,228.57,166.18,228.67,166.26Z" transform="translate(-20.57 -35.11)" fill="#263238"/><path d="M239.22,179.14a10.25,10.25,0,0,0-2.7-.34c-.42,0-.82-.08-.91-.36a2.2,2.2,0,0,1,.22-1.26c.33-1,.69-2.12,1.06-3.26,1.47-4.64,2.51-8.45,2.33-8.5s-1.54,3.65-3,8.29c-.35,1.15-.69,2.24-1,3.28a2.44,2.44,0,0,0-.13,1.66,1.06,1.06,0,0,0,.73.57,2.8,2.8,0,0,0,.71.06A11,11,0,0,0,239.22,179.14Z" transform="translate(-20.57 -35.11)" fill="#263238"/><path d="M240,198.58a30.27,30.27,0,0,0,15.7-5.12s-3.79,8.48-15.76,8Z" transform="translate(-20.57 -35.11)" fill="#ff9a6c"/><path d="M244.11,180c-.27,0-.17,1.78-1.63,3.13s-3.36,1.25-3.36,1.5.44.33,1.24.3a4.45,4.45,0,0,0,2.82-1.15,3.88,3.88,0,0,0,1.25-2.62C244.46,180.42,244.23,180,244.11,180Z" transform="translate(-20.57 -35.11)" fill="#263238"/><path d="M229.22,160.51c.3.38,1.55.05,3,.09s2.72.36,3,0c.13-.18,0-.56-.58-.94a4.67,4.67,0,0,0-4.86-.06C229.28,159.94,229.09,160.32,229.22,160.51Z" transform="translate(-20.57 -35.11)" fill="#263238"/><path d="M247.88,171.94a1.52,1.52,0,0,1-1.45,1.56,1.47,1.47,0,0,1-1.6-1.31v0a1.52,1.52,0,0,1,1.45-1.56,1.47,1.47,0,0,1,1.6,1.31Z" transform="translate(-20.57 -35.11)" fill="#263238"/><path d="M250.89,165.62c-.19.21-1.36-.63-3-.6s-2.83.88-3,.68.1-.45.61-.84a4.16,4.16,0,0,1,2.41-.79,4,4,0,0,1,2.4.73C250.8,165.18,251,165.53,250.89,165.62Z" transform="translate(-20.57 -35.11)" fill="#263238"/><path d="M249.9,160.36c-.32.38-1.59,0-3.12,0s-2.81.3-3.12-.08c-.13-.19.07-.57.63-.93a4.73,4.73,0,0,1,2.52-.66,4.8,4.8,0,0,1,2.5.71C249.86,159.8,250,160.18,249.9,160.36Z" transform="translate(-20.57 -35.11)" fill="#263238"/><path d="M261.88,174.89c-.05-.89.86-3,1.73-3.22,2.32-.49,6.54-.53,6.9,5.4.5,8.11-7.74,6.94-7.77,6.71S262,178,261.88,174.89Z" transform="translate(-20.57 -35.11)" fill="#ffbf9d"/><path d="M264.79,180.68a2.49,2.49,0,0,0,.4.18,1.46,1.46,0,0,0,1.05,0c.84-.37,1.48-1.77,1.43-3.24a4.64,4.64,0,0,0-.52-2,1.62,1.62,0,0,0-1.13-1,.73.73,0,0,0-.81.44c-.1.24,0,.4-.08.41s-.18-.12-.13-.46a.92.92,0,0,1,.28-.53,1.07,1.07,0,0,1,.77-.25,2,2,0,0,1,1.56,1.16,4.73,4.73,0,0,1,.62,2.23c0,1.64-.69,3.22-1.84,3.63a1.59,1.59,0,0,1-1.31-.13C264.82,180.87,264.77,180.68,264.79,180.68Z" transform="translate(-20.57 -35.11)" fill="#ff9a6c"/><path d="M263.94,171.68l-2.06,2.13C253,165.3,235.6,144,236.57,145.25a25.82,25.82,0,0,1,12.71-1.38c6.61,1.12,19.16,4.43,19,12.24S263.94,171.68,263.94,171.68Z" transform="translate(-20.57 -35.11)" fill="#263238"/><path d="M275.72,169.91a1.91,1.91,0,0,0-.12-.47,8.51,8.51,0,0,0-.55-1.28,11.91,11.91,0,0,0-3.39-3.81,22.24,22.24,0,0,0-6.83-3.29c-2.71-.88-5.77-1.57-8.77-2.85a40.3,40.3,0,0,1-8-4.49,41.25,41.25,0,0,1-5.65-5,41.68,41.68,0,0,1-3.27-3.88c-.34-.45-.61-.82-.82-1.11a2.28,2.28,0,0,0-.3-.38,2.13,2.13,0,0,0,.23.42c.17.27.41.67.75,1.17a38.31,38.31,0,0,0,3.19,4,39.83,39.83,0,0,0,5.65,5.05,39.14,39.14,0,0,0,8.07,4.56,90.57,90.57,0,0,0,8.82,2.84,22.56,22.56,0,0,1,6.76,3.15,12.35,12.35,0,0,1,3.43,3.66C275.5,169.27,275.68,169.92,275.72,169.91Z" transform="translate(-20.57 -35.11)" fill="#455a64"/><path d="M273.36,171.18a4.12,4.12,0,0,0-.31-1.77,8.29,8.29,0,0,0-3.05-3.82,18.6,18.6,0,0,0-6.77-2.65,39.87,39.87,0,0,1-8.4-2.67,34.84,34.84,0,0,1-7.5-4.63,36.26,36.26,0,0,1-5.14-5,38.11,38.11,0,0,1-2.87-3.94c-.27-.46-.5-.83-.68-1.13s-.25-.39-.27-.38a3.89,3.89,0,0,0,.19.42l.63,1.18a32.37,32.37,0,0,0,2.77,4,35.75,35.75,0,0,0,5.13,5.16,35.18,35.18,0,0,0,7.56,4.71,38.84,38.84,0,0,0,8.5,2.66,18.62,18.62,0,0,1,6.68,2.52,8.43,8.43,0,0,1,3.07,3.64A9.09,9.09,0,0,1,273.36,171.18Z" transform="translate(-20.57 -35.11)" fill="#455a64"/><path d="M257,174.68a10.7,10.7,0,1,0,10.9-10.51A10.71,10.71,0,0,0,257,174.68Z" transform="translate(-20.57 -35.11)" fill="#7e57c2"/><path d="M267.87,164.2s-.53-22.07-20-24.95c0,0-7.74-.95-11.38,3.33,0,0,5.24-2.14,10.27-.83,3.32.87,15.43,6.25,16,24.22l5,2.16Z" transform="translate(-20.57 -35.11)" fill="#7e57c2"/><path d="M260.09,174.84v-.5c0-.2,0-.4.07-.6a8.06,8.06,0,0,1,1-2.88,7.92,7.92,0,0,1,2-2.2,7.73,7.73,0,0,1,3.27-1.45,8,8,0,0,1,4.08.35,7.5,7.5,0,0,1,2,1.05,8.94,8.94,0,0,1,.88.75,8.22,8.22,0,0,1,.76.9,7.85,7.85,0,0,1,1.51,4.58,8.84,8.84,0,0,1-.4,2.45,7.87,7.87,0,0,1-1.11,2.13,9.28,9.28,0,0,1-.76.9,8.94,8.94,0,0,1-.88.75,7.25,7.25,0,0,1-2,1.06A7.73,7.73,0,0,1,263.2,181a7.92,7.92,0,0,1-2-2.2,8.06,8.06,0,0,1-1-2.88c0-.2-.06-.4-.07-.6v0a4.18,4.18,0,0,0,.05.61,5.64,5.64,0,0,0,.15.82,7.05,7.05,0,0,0,.86,2.11,8,8,0,0,0,2,2.26,7.84,7.84,0,0,0,7.5,1.16,7.56,7.56,0,0,0,2-1.07,8.3,8.3,0,0,0,.9-.77,8.61,8.61,0,0,0,.78-.92,8,8,0,0,0,1.14-2.19,7.92,7.92,0,0,0,0-5,7.74,7.74,0,0,0-1.14-2.19,9.73,9.73,0,0,0-.78-.92,8.22,8.22,0,0,0-.9-.76,7.31,7.31,0,0,0-2-1.08,7.9,7.9,0,0,0-4.17-.33,7.62,7.62,0,0,0-3.33,1.49,8,8,0,0,0-2,2.26,7.62,7.62,0,0,0-.86,2.11,5.64,5.64,0,0,0-.15.82,4.07,4.07,0,0,0-.05.61v.32C260.08,174.8,260.08,174.84,260.09,174.84Z" transform="translate(-20.57 -35.11)" fill="#263238"/><path d="M265.41,171.62s1.36,1.5,3.13,3.27,3.23,3.17,3.27,3.13-1.36-1.51-3.13-3.27S265.45,171.58,265.41,171.62Z" transform="translate(-20.57 -35.11)" fill="#263238"/><path d="M266.64,174.41a7.66,7.66,0,0,0,1.18,1.3,7.56,7.56,0,0,0,1.32,1.14,15.46,15.46,0,0,0-2.5-2.44Z" transform="translate(-20.57 -35.11)" fill="#263238"/><path d="M274,285.19l-48,7c-18,5.1-37,6.6-56.84,4.87l72.21,33.62,29,.45a13.37,13.37,0,0,0,10.37-7.69c8.77-18.86,1.15-34.33,1.15-34.33S278.25,287.33,274,285.19Z" transform="translate(-20.57 -35.11)" fill="#263238"/><polygon points="219.24 171.75 242.54 169.23 246.81 173.11 230.17 182.89 222.83 186.7 215.58 184.49 213.28 180.17 219.24 171.75" fill="#ffbf9d"/><path d="M208.39,235.23s7.31-14,9.12-17.08a24.49,24.49,0,0,1,8.83-8.18l13.47-3.11s-1.4,6.74,7,7.21c10.65.59,17.27-9.63,17.27-9.63s12.16,1.25,15.52,2.67,12.85,5.38,14.25,18l3.25,20.61-25.69,2,.36,27.44-10.92,8.93s-31.34,10.79-33.34,11.5c-1,.34-.72-13-3-24.39l-4.23-10.27a40.17,40.17,0,0,1-3-12.91c-.16-2.93-.08-5.14-.08-5.14S210.64,240.59,208.39,235.23Z" transform="translate(-20.57 -35.11)" fill="#455a64"/><path d="M228.63,284.78l43.07-12.92-.31-24.18L293.32,246s-1.75,12.52-2,18.94c-.37,9.24-4.81,22.14-7.79,24.88s-56,5.72-56,5.72Z" transform="translate(-20.57 -35.11)" fill="#ffbf9d"/><path d="M204.21,292.38a1.72,1.72,0,0,0,1.7.83,3.31,3.31,0,0,0,.42-.12c.95-.39.7-2.35.7-2.35l4.59-1.12s6.33,3.42,8.68,5.84,7.67-.1,7.67-.1l1.13-10-9.1-7.11s.56.42-.14-1-3.35-.64-3.35-.64c-.47-.69-2.25-.81-2.25-.81l-7.42,1.45a5.17,5.17,0,0,0-3.58,2.65l-2.78,5.26s-1.39,3.74-1.06,4.56a1.5,1.5,0,0,0,1.83.85s.55,2.35,1.18,2.38a5.06,5.06,0,0,0,1.82-.59Z" transform="translate(-20.57 -35.11)" fill="#ffbf9d"/><path d="M219.61,284c0,.08-1,.07-2.6.26a21.54,21.54,0,0,0-9,3.21c-.86.58-1.78,1.07-2,1.75a.9.9,0,0,0,.16.89,1.26,1.26,0,0,0,.6.44,1.83,1.83,0,0,0,.66,0,.77.77,0,0,1-.71.14,1.52,1.52,0,0,1-.76-.45,1.2,1.2,0,0,1-.27-1.16,2.42,2.42,0,0,1,.85-1.12c.39-.3.8-.61,1.25-.9a19.82,19.82,0,0,1,9.29-3.18A9,9,0,0,1,219.61,284Z" transform="translate(-20.57 -35.11)" fill="#ff9a6c"/><path d="M220.5,288.78c0,.14-3.05.25-6.78.76s-6.71,1.2-6.75,1.06a7.62,7.62,0,0,1,1.91-.62,40.53,40.53,0,0,1,4.77-.91,39.15,39.15,0,0,1,4.84-.39A7.52,7.52,0,0,1,220.5,288.78Z" transform="translate(-20.57 -35.11)" fill="#ff9a6c"/><path d="M204.24,292.19a3.08,3.08,0,0,1-.16-.79,18,18,0,0,1-.17-2.2,7.72,7.72,0,0,1,.09-1.52,4.64,4.64,0,0,1,.61-1.69,10.28,10.28,0,0,1,2.58-3.1,13.79,13.79,0,0,1,3.45-2.08,12.63,12.63,0,0,1,3.2-.75c.92-.1,1.67-.14,2.19-.16a2.68,2.68,0,0,1,.8,0,25.31,25.31,0,0,1-3,.48,13.74,13.74,0,0,0-3.08.82,14.23,14.23,0,0,0-3.3,2.05,10.12,10.12,0,0,0-2.51,2.94,5.71,5.71,0,0,0-.74,3A27.7,27.7,0,0,1,204.24,292.19Z" transform="translate(-20.57 -35.11)" fill="#ff9a6c"/><path d="M214,277.76c0,.07-1.11.18-2.89.53s-4.45.74-5.84,3.23a26.19,26.19,0,0,0-3.27,6.16,15.41,15.41,0,0,0-.49,2.86,2.35,2.35,0,0,1-.1-.79,7.26,7.26,0,0,1,.27-2.17,22.16,22.16,0,0,1,3.26-6.34,7.85,7.85,0,0,1,1.34-1.59,5.41,5.41,0,0,1,1.7-1,17,17,0,0,1,3.13-.75A11.18,11.18,0,0,1,214,277.76Z" transform="translate(-20.57 -35.11)" fill="#ff9a6c"/><path d="M218.54,294a2.55,2.55,0,0,1-.47-.31l-1.34-.91a52.38,52.38,0,0,0-5.18-3h.1l-4.57,1.15.14-.21a5.43,5.43,0,0,1,0,1.14,2,2,0,0,1-.44,1.16,1.06,1.06,0,0,1-.59.33,1.6,1.6,0,0,1-.65.09,1.89,1.89,0,0,1-1.2-.55,2.85,2.85,0,0,1-.23-.26l-.05-.07h0l.28.08h0l-.14.07-.58.26q-.31.12-.63.21a1.86,1.86,0,0,1-.34.06.71.71,0,0,1-.43-.05,1.37,1.37,0,0,1-.51-.58c-.1-.2-.2-.41-.28-.62a12.36,12.36,0,0,1-.43-1.3l.29.17a1.76,1.76,0,0,1-1.77-.46,1.43,1.43,0,0,1-.4-.91,4.61,4.61,0,0,1,.1-.91,25.42,25.42,0,0,1,1-3.43h0l1.49-2.81c.31-.6.62-1.19.94-1.78a9,9,0,0,1,1-1.73,5,5,0,0,1,1.6-1.25,6.86,6.86,0,0,1,1.88-.54l7-1.35h.06a6,6,0,0,1,1.26.23,2.15,2.15,0,0,1,1.14.67l-.27-.06a2.59,2.59,0,0,1,2.42,0,3,3,0,0,1,1.34,1.8l-.07-.09,6.3,4.84,1.7,1.34a5.27,5.27,0,0,1,.57.49,4.25,4.25,0,0,1-.63-.41l-1.76-1.26-6.39-4.72h0v-.06a2.72,2.72,0,0,0-1.17-1.57,2.24,2.24,0,0,0-2,.07l-.16.08-.11-.14a1.71,1.71,0,0,0-.91-.5,6.77,6.77,0,0,0-1.18-.2h.06l-7,1.38a6.35,6.35,0,0,0-1.76.51,4.69,4.69,0,0,0-1.44,1.14,8.16,8.16,0,0,0-1,1.65c-.31.58-.63,1.18-.94,1.78-.51,1-1,1.91-1.49,2.8h0a24.47,24.47,0,0,0-1,3.36,3.72,3.72,0,0,0-.09.81,1,1,0,0,0,.27.61,1.3,1.3,0,0,0,1.3.33l.23-.05.06.22a10.26,10.26,0,0,0,.37,1.23,2.28,2.28,0,0,0,.57,1,.61.61,0,0,0,.19,0l.28-.06q.28-.07.57-.18l.55-.24.14-.07h0l.28.08h0v.05a1.2,1.2,0,0,0,.17.21,1.59,1.59,0,0,0,.94.44,1.46,1.46,0,0,0,.51-.07.81.81,0,0,0,.41-.21,3,3,0,0,0,.35-2v-.17H207l4.59-1.08h.11a43.66,43.66,0,0,1,5.14,3.15c.57.41,1,.75,1.29,1Z" transform="translate(-20.57 -35.11)" fill="#ff9a6c"/><path d="M196.16,300.22s-30.39-9.54-39.94-12.64c-16.43-5.33-27.19.06-30.58,5.94-4.4,7.63,6.15,22.5,10.22,25.92,12,10.13,32.7,11.5,32.7,11.5h0l74.27-.14-21.68-29.4Z" transform="translate(-20.57 -35.11)" fill="#263238"/><path d="M200.7,314a74.2,74.2,0,0,1-36.45-5,49,49,0,0,0-6.09-2.27,17.66,17.66,0,0,0-6.27-.44,6.23,6.23,0,0,0-4.43,2c-1.48,2-.72,4.73.1,7,1,2.71,2,5.49,3.86,7.66,2.2,2.53,5.4,4,8.61,5,6.27,2,12.89,2.54,19.46,2.8l22.57-1.23Z" transform="translate(-20.57 -35.11)" fill="#e0e0e0"/><path d="M157.12,306.79a3.24,3.24,0,0,1,.35.61,9.51,9.51,0,0,1,.6,1.8,11.74,11.74,0,0,1-3.68,11.48,10.63,10.63,0,0,1-1.54,1.12,2.12,2.12,0,0,1-.63.29c-.05-.07.81-.57,1.94-1.66a12.28,12.28,0,0,0,3.58-11.13C157.46,307.68,157.05,306.82,157.12,306.79Z" transform="translate(-20.57 -35.11)" fill="#263238"/><path d="M273.71,298.36c-1.76-5-2.06-12.35-12.94-15.88s-19.11,3.24-24.69,5.59-36.16,19.11-36.16,19.11-5.76,10.26-4.12,14.8,9.09,9,9.09,9h34.18c8.82,0,25.23-.29,25.23-.29a102.47,102.47,0,0,0,5.88-11.17l.3-1.47C270.48,316.88,275.47,303.36,273.71,298.36Z" transform="translate(-20.57 -35.11)" fill="#263238"/><path d="M254.77,324.33a1,1,0,0,1-.25.46,6.69,6.69,0,0,1-1.13,1,28.94,28.94,0,0,1-4.83,2.7A32.28,32.28,0,0,1,245,329.9a26.48,26.48,0,0,1-4.31.93,83.44,83.44,0,0,1-10,.39c-7.11.12-13.55.38-18.22.33a53.64,53.64,0,0,1-5.53-.25,12.42,12.42,0,0,1-1.49-.21,1.46,1.46,0,0,1-.51-.12c0-.05.71.08,2,.15s3.19.12,5.52.09c4.65,0,11.09-.35,18.21-.47a87.79,87.79,0,0,0,10-.35,25.63,25.63,0,0,0,4.25-.87,34.25,34.25,0,0,0,3.54-1.33,33.23,33.23,0,0,0,4.87-2.56,6.9,6.9,0,0,0,1.16-.92C254.69,324.49,254.74,324.31,254.77,324.33Z" transform="translate(-20.57 -35.11)" fill="#263238"/><path d="M204.89,331s-.16-.07-.46-.24-.72-.43-1.27-.79a30.41,30.41,0,0,1-4.49-3.58,14,14,0,0,1-2.55-3.28,7.53,7.53,0,0,1-.5-4.86,41.14,41.14,0,0,1,4.13-11.15v0h.05c5.59-3.08,12-6.59,19-10.36,3.51-1.88,7.17-3.83,11-5.79,1.9-1,3.82-2,5.84-2.88s3.92-2,5.93-3a33.65,33.65,0,0,1,8.83-3.32,22.19,22.19,0,0,1,4.6-.42,20.6,20.6,0,0,1,4.48.64,21.4,21.4,0,0,1,7.83,3.74,14.94,14.94,0,0,1,2.85,3.09,18.05,18.05,0,0,1,1.84,3.61c.47,1.24.82,2.5,1.17,3.71a30.47,30.47,0,0,1,1,3.63,23.87,23.87,0,0,1-.58,7c-.45,2.17-1,4.21-1.52,6.11-.28.94-.55,1.86-.8,2.74a24.36,24.36,0,0,0-.68,2.54h0c-.11.56-.21,1-.3,1.47h0a35.61,35.61,0,0,1-3.93,8.52,15.27,15.27,0,0,1-2.06,2.61.83.83,0,0,1,.13-.18l.4-.49a23.44,23.44,0,0,0,1.43-2,37,37,0,0,0,3.8-8.52h0c.56-.46.45-.92.29-1.47h0a23.35,23.35,0,0,1,.66-2.62l.78-2.75c.52-1.9,1-3.93,1.47-6.09a23.69,23.69,0,0,0,.55-6.87,30.76,30.76,0,0,0-1-3.56c-.35-1.22-.7-2.46-1.18-3.68a17.7,17.7,0,0,0-1.8-3.52,14.88,14.88,0,0,0-2.77-3,20.68,20.68,0,0,0-7.66-3.64,19.13,19.13,0,0,0-8.87-.2,32.36,32.36,0,0,0-8.72,3.28c-2,1-3.92,2.13-6,3s-3.91,1.89-5.81,2.86c-3.8,1.95-7.46,3.9-11,5.77l-19,10.34.07-.07a40.45,40.45,0,0,0-4.16,11,7.31,7.31,0,0,0,.43,4.7,14.42,14.42,0,0,0,2.46,3.25,33.37,33.37,0,0,0,4.41,3.63l1.24.83Z" transform="translate(-20.57 -35.11)" fill="#263238"/><path d="M260.52,318.31s10.19,1.22,9.28,6.2-4.23,6.66-4.23,6.66l-27.68.06S254.42,330.08,260.52,318.31Z" transform="translate(-20.57 -35.11)" fill="#e0e0e0"/><path d="M261.51,315.89a3.41,3.41,0,0,1-.31,1.41,11.09,11.09,0,0,1-1.65,3.09,8.25,8.25,0,0,1-3.89,3,22.65,22.65,0,0,0,3.51-3.27A28.59,28.59,0,0,0,261.51,315.89Z" transform="translate(-20.57 -35.11)" fill="#263238"/><path d="M258,317.85a6.52,6.52,0,0,1-1,3.54,7.94,7.94,0,0,1-2.22,2.94c-.11-.09.9-1.38,1.8-3.15S257.84,317.83,258,317.85Z" transform="translate(-20.57 -35.11)" fill="#263238"/><path d="M271,329.78c-.08,0,.58-1.3,1.38-3.44a36.71,36.71,0,0,0,2-17.53c-.3-2.26-.65-3.64-.57-3.66a3.55,3.55,0,0,1,.32,1,21.72,21.72,0,0,1,.58,2.66,32.66,32.66,0,0,1-2,17.7,22.3,22.3,0,0,1-1.17,2.47A3.82,3.82,0,0,1,271,329.78Z" transform="translate(-20.57 -35.11)" fill="#455a64"/><g opacity="0.3"><path d="M265.21,315.62c-.08-.67-.34-1.46-1-1.6s-1.36.77-1.69,1.52c-3.51,8.12-15,14.44-23.86,15.26a81.66,81.66,0,0,0,12.78-1,19.52,19.52,0,0,0,9.76-4.46A11.83,11.83,0,0,0,265.21,315.62Z" transform="translate(-20.57 -35.11)"/></g><path d="M197.77,304.58a29.25,29.25,0,0,1-4.9-1.86,30.18,30.18,0,0,1-4.71-2.3,28.4,28.4,0,0,1,4.9,1.86A28.5,28.5,0,0,1,197.77,304.58Z" transform="translate(-20.57 -35.11)" fill="#263238"/><g opacity="0.2"><path d="M207.64,300.3q-19.77-3.78-39.69-6.72l-9.89,3.1c2.77,5.15,8.25,8.43,13.94,9.8s11.64,1,17.47.49c6.42-.59,13-1.49,18.6-4.7.42-.25.9-.62.85-1.11S208.19,300.41,207.64,300.3Z" transform="translate(-20.57 -35.11)"/></g><path d="M142.74,261l16.6,36.74a4.31,4.31,0,0,0,3.87,2.53l48.44.63,6.1-3.29-9.56-.7L193.3,261.22a3.06,3.06,0,0,0-2.81-1.89L144.08,259a1.46,1.46,0,0,0-1.47,1.45A1.42,1.42,0,0,0,142.74,261Z" transform="translate(-20.57 -35.11)" fill="#e0e0e0"/><path d="M142.74,261a1,1,0,0,1-.15-.44,1.47,1.47,0,0,1,1.25-1.66h4.4l19.44.06,13.5.07h9.55a3.29,3.29,0,0,1,2,.82,4.33,4.33,0,0,1,1.11,1.79l.79,1.89,13.88,33.24-.23-.17,9.23.68h.33l.93.07-.82.44-6.11,3.29h-.13l-36.76-.42-8.2-.12c-1.33,0-2.61,0-3.94-.08a4.53,4.53,0,0,1-3.28-2c-2.17-4.55-4-8.76-5.72-12.61-3.44-7.68-6.2-13.87-8.13-18.17-.93-2.13-1.66-3.78-2.17-4.93l-.55-1.28c-.12-.29-.17-.45-.17-.45s.08.14.22.43l.6,1.26c.52,1.14,1.28,2.78,2.26,4.89,2,4.28,4.78,10.45,8.27,18.1,1.76,3.81,3.64,8.09,5.75,12.52a4.14,4.14,0,0,0,3,1.82c1.24.06,2.58,0,3.9.06l8.2.1,36.74.45h-.13l6.1-3.29.11.51h-.33l-9.23-.68H208l-.06-.15-13.83-33.28-.78-1.89a3.75,3.75,0,0,0-1-1.62,2.85,2.85,0,0,0-1.66-.7h-2l-7.55-.07-13.51-.13-19.43-.23-3-.05H144a1.36,1.36,0,0,0-.88.36,1.45,1.45,0,0,0-.47,1.18A2.64,2.64,0,0,0,142.74,261Z" transform="translate(-20.57 -35.11)" fill="#263238"/><path d="M206.77,300.87a1.6,1.6,0,0,1-.23-.4l-.54-1.19-2-4.4c-1.62-3.73-3.82-8.89-6.18-14.62s-4.46-10.95-5.91-14.74c-.72-1.9-1.29-3.44-1.67-4.52-.16-.49-.3-.9-.42-1.24a1.36,1.36,0,0,1-.11-.44,2.22,2.22,0,0,1,.2.41c.14.33.31.72.51,1.21.45,1.12,1.06,2.62,1.81,4.45,1.57,3.82,3.68,9,6,14.69s4.48,10.85,6,14.67c.75,1.83,1.36,3.34,1.81,4.46.19.48.34.89.47,1.22A2.43,2.43,0,0,1,206.77,300.87Z" transform="translate(-20.57 -35.11)" fill="#263238"/><path d="M176.71,278.84a2.38,2.38,0,1,1-2.39-2.37h0A2.37,2.37,0,0,1,176.71,278.84Z" transform="translate(-20.57 -35.11)" fill="#fff"/><path d="M223.88,219.75c.07,0-.63,1.35-1.61,3.52a64.87,64.87,0,0,0-3.18,8.75,61.67,61.67,0,0,0-1.8,9.13c-.29,2.37-.37,3.84-.46,3.84a4.79,4.79,0,0,1-.05-1,23.24,23.24,0,0,1,.14-2.84,50.9,50.9,0,0,1,5-18c.54-1.08,1-1.93,1.35-2.51A3.43,3.43,0,0,1,223.88,219.75Z" transform="translate(-20.57 -35.11)" fill="#263238"/><path d="M297.08,245.73a1.89,1.89,0,0,1-.53.08L295,246l-5.75.48-19.69,1.48h-.25v-.25c-.16-2.62-.34-5.38-.52-8.22-.28-4.94-.51-9.65-.59-13.94a19.78,19.78,0,0,1,2.52-11.06,13.61,13.61,0,0,1,5.52-5.3,11,11,0,0,1,2-.76,4.35,4.35,0,0,1,.71-.18,27.19,27.19,0,0,0-2.57,1.11,13.83,13.83,0,0,0-5.38,5.35,19.59,19.59,0,0,0-2.36,10.87c.1,4.28.35,9,.63,13.92.18,2.84.34,5.6.51,8.21l-.27-.23,19.69-1.3,5.77-.34,1.55-.06A2.1,2.1,0,0,1,297.08,245.73Z" transform="translate(-20.57 -35.11)" fill="#263238"/><path d="M248.79,262.52a3,3,0,0,1-.86-.32,6.13,6.13,0,0,1-1-.48,11.51,11.51,0,0,1-1.21-.74,17.67,17.67,0,0,1-2.84-2.41,20.16,20.16,0,0,1-2.71-3.66,19.43,19.43,0,0,1-1.76-4.21,18.19,18.19,0,0,1-.62-3.66c0-.48,0-.95,0-1.43a7.59,7.59,0,0,1,.08-1.07,2.82,2.82,0,0,1,.17-.91c.1,0-.07,1.31.14,3.38a18.71,18.71,0,0,0,.71,3.56,21,21,0,0,0,1.75,4.08,22.38,22.38,0,0,0,2.61,3.59,19.91,19.91,0,0,0,2.75,2.44C247.63,261.91,248.83,262.43,248.79,262.52Z" transform="translate(-20.57 -35.11)" fill="#263238"/><path d="M278,191.48l-14.85-3.43c0,10.48-2.91,14.69-5.37,20.21S253.22,220,255,225.78c.64,2.1,2,4.19,4.08,4.79a6,6,0,0,0,4.38-.69c3-1.6,4.93-4.68,6.23-7.82s2.13-6.48,3.66-9.52c1.29-2.58,3.09-4.91,4.05-7.63S279.89,194.84,278,191.48Z" transform="translate(-20.57 -35.11)" fill="#263238"/></g><path d="M246,139.16a16.72,16.72,0,0,1,1.85.09,23.66,23.66,0,0,1,5.43,1.47A27.83,27.83,0,0,1,265,146a13.09,13.09,0,0,1,3.49,2.54c3.84,3.94,7,10.44,7.2,15.94,0,.94.15,2.22.34,3.72a10.62,10.62,0,0,1,1.75,10.11c1.23,5.7,2.89,11.48,4.72,14.51,7.38,12.19,7.34,16.49,4.82,19a20.39,20.39,0,0,1,6.49,13.29l3.25,20.61-.22,0h.2a1.82,1.82,0,0,1-.52.08h0L295,246l-1.69.14c-.16,1.16-1.75,12.74-2,18.84-.37,9.24-4.81,22.14-7.79,24.88a3.28,3.28,0,0,1-1.12.51,42.73,42.73,0,0,1-1.67,33.1,13.37,13.37,0,0,1-10.37,7.69l-4.61-.07-.19.11-27.68.06s.76-.05,2-.25h-1q-3.25.25-6.52.26l-1.71,0c-6.5.11-12.44.34-17,.34h-1.24a53.64,53.64,0,0,1-5.53-.25,12.42,12.42,0,0,1-1.49-.21A1.53,1.53,0,0,1,205,331h-.08l-.11-.07.11.08-.24-.12-36.09.07s-20.7-1.37-32.7-11.5c-4.07-3.42-14.62-18.29-10.22-25.92,2.41-4.18,8.56-8.12,17.82-8.12a40.09,40.09,0,0,1,10.8,1.59c-.17-.37-.34-.76-.5-1.12-3.44-7.68-6.2-13.87-8.13-18.17-.93-2.13-1.66-3.78-2.17-4.93l-.55-1.28c-.12-.29-.17-.45-.17-.45l0,0,0-.06a1,1,0,0,1-.15-.44,1.47,1.47,0,0,1,1.25-1.66h4.4l19.44.06,13.5.07h9.55a3.29,3.29,0,0,1,2,.82,4.33,4.33,0,0,1,1.11,1.79l.79,1.89,1.31,3.15,10-4L214,241.31a13.82,13.82,0,0,1-5.65-6.08s7.31-14,9.12-17.08a24.55,24.55,0,0,1,6.35-6.62,7.51,7.51,0,0,1-.55-2.24c-.19-2.91,1.5-5.62,1.81-8.52.32-3.14-1-6.14-2-9.14-2.65-7.83-.71-23.43,1-31.68l0-.22c.47-4.3,2.56-8.27,5.06-11.81a15.43,15.43,0,0,1,7.24-5.35h0a1.78,1.78,0,0,1,.24-.09c.43-.15.87-.27,1.32-.38l1.12-.32a20.22,20.22,0,0,0-2.44.7l-.23.08c2.52-3,7-3.41,9.52-3.41M142.64,260.69c0-.05,0-.1,0-.15v.09a.14.14,0,0,0,0,.06m73.81,15.78a2.52,2.52,0,0,1,1.07-.23,2.64,2.64,0,0,1,1,.18,1.63,1.63,0,0,1,1.38.83c.44.89.38,1.05.28,1.05h0l6,4.61a109.75,109.75,0,0,0-1.59-11.71l-1.76-4.28a23,23,0,0,1-7.72,8.89l.42.1a2.08,2.08,0,0,1,1,.56m-14.34,5.11.54-1c.12-.27.25-.52.39-.77l-.38,0-1.28,0,.73,1.75m11.06,8.92,1.06.62c-.35-.21-.7-.42-1.06-.62-.52-.31-.95-.55-1.22-.7h0c.42.22.84.45,1.25.69m-5,5.53c3.54-.54,7.05-1.19,10.52-2a51.2,51.2,0,0,0-4.35-2.89c.84.52,1.68,1.07,2.49,1.65l.11.08-.18-.12a53.76,53.76,0,0,0-5-2.93l-1,.16-3.49.88a4.49,4.49,0,0,1,0,1,2.07,2.07,0,0,1-.38,1.06l1.3,3.12m2.94,35.19h1.37c2.62,0,5.82-.11,9.38-.23H205.25c.33,0,.89.1,1.68.14,1,.06,2.44.1,4.15.1M246,134.16c-5.13,0-9.45,1.46-12.35,4.14a20.37,20.37,0,0,0-8.43,6.64l-.06.1c-3.49,4.93-5.44,9.55-5.94,14.09h0c-1.79,8.48-3.94,25-.85,34.09.16.48.34,1,.52,1.49.72,2.06,1.4,4,1.25,5.54a15.83,15.83,0,0,1-.69,2.62,18,18,0,0,0-1.14,6.69,29.16,29.16,0,0,0-5,5.85l-.12.2c-1.85,3.15-8.94,16.72-9.24,17.3a5,5,0,0,0-.18,4.24A16.76,16.76,0,0,0,208,243L202,258.86l-3.36,1.35-.13-.31a9.3,9.3,0,0,0-2.32-3.63l-.17-.16a8.45,8.45,0,0,0-4.87-2.05h-9.93L167.71,254l-19.45-.06h-4.5l-.61.06a6.48,6.48,0,0,0-5.53,7.2,6.29,6.29,0,0,0,.5,1.79c0,.12.1.27.17.43l0,.06.55,1.28,0,.06c.51,1.14,1.23,2.78,2.16,4.9l0,.05c1,2.22,2.22,4.95,3.64,8.12l1.16,2.61c-.81-.05-1.61-.08-2.41-.08-11.82,0-19.19,5.49-22.15,10.62-6.52,11.31,7.23,28.8,11.33,32.25,13.1,11.05,34.68,12.6,35.59,12.66h.34l35.29-.07h.06a4.73,4.73,0,0,0,.73.15,15.92,15.92,0,0,0,1.82.25,59.1,59.1,0,0,0,6,.27h1.27c2.76,0,6-.09,9.52-.17,2.36-.06,4.86-.13,7.45-.17l1.72,0c1.47,0,3,0,4.47-.12a5,5,0,0,0,1,.11h0l27.68-.06a5.2,5.2,0,0,0,.95-.1l3.76.06h.08a5,5,0,0,0,.67-.05,18.26,18.26,0,0,0,14.25-10.56,48.51,48.51,0,0,0,2.93-33.5c4.12-5.54,7.76-18.53,8.1-26.87.14-3.62.82-9.72,1.42-14.45a6.39,6.39,0,0,0,.84-.2,5.14,5.14,0,0,0,.84-.35,5,5,0,0,0,2.62-5.21l-3.23-20.5a25.88,25.88,0,0,0-5.33-13.37c1.55-5.38-1.54-12.36-6.66-20.83-1.19-2-2.61-6.32-3.84-11.77a15.49,15.49,0,0,0,.42-3.33,15.75,15.75,0,0,0-2.51-8.78c-.11-1-.15-1.66-.16-2.06-.25-6.48-3.71-14.21-8.62-19.24a17.9,17.9,0,0,0-4.38-3.29,33,33,0,0,0-13-5.87,29,29,0,0,0-6.12-1.6h-.12a21.27,21.27,0,0,0-2.46-.13Z" transform="translate(-20.57 -35.11)" fill="#fff"/><path d="M216.91,292.89l1.16.79a2.55,2.55,0,0,0,.47.31l-.45-.18c-.27-.23-.67-.55-1.18-.92m0-5a5,5,0,0,0-2.95,9.05,9.18,9.18,0,0,1,.85.66,5.26,5.26,0,0,0,1.64.94,5.09,5.09,0,0,0,2.08.45,5,5,0,0,0,2.51-9.32,1.09,1.09,0,0,0-.17-.13l-1.16-.78a4.92,4.92,0,0,0-2.8-.87Z" transform="translate(-20.57 -35.11)" fill="#fff"/></svg>